  0
SECTION
  2
HEADER
  9
$ACADVER
  1
AC1027
  9
$ACADMAINTVER
 70
105
  9
$DWGCODEPAGE
  3
ANSI_1252
  9
$LASTSAVEDBY
  1
ezdxf
  9
$REQUIREDVERSIONS
160
0
  9
$INSBASE
 10
0.0
 20
0.0
 30
0.0
  9
$EXTMIN
 10
1e+20
 20
1e+20
 30
1e+20
  9
$EXTMAX
 10
-1e+20
 20
-1e+20
 30
-1e+20
  9
$LIMMIN
 10
0.0
 20
0.0
  9
$LIMMAX
 10
420.0
 20
297.0
  9
$ORTHOMODE
 70
0
  9
$REGENMODE
 70
1
  9
$FILLMODE
 70
1
  9
$QTEXTMODE
 70
0
  9
$MIRRTEXT
 70
1
  9
$LTSCALE
 40
1.0
  9
$ATTMODE
 70
1
  9
$TEXTSIZE
 40
2.5
  9
$TRACEWID
 40
1.0
  9
$TEXTSTYLE
  7
Standard
  9
$CLAYER
  8
0
  9
$CELTYPE
  6
ByLayer
  9
$CECOLOR
 62
256
  9
$CELTSCALE
 40
1.0
  9
$DISPSILH
 70
0
  9
$DIMSCALE
 40
1.0
  9
$DIMASZ
 40
2.5
  9
$DIMEXO
 40
0.625
  9
$DIMDLI
 40
3.75
  9
$DIMRND
 40
0.0
  9
$DIMDLE
 40
0.0
  9
$DIMEXE
 40
1.25
  9
$DIMTP
 40
0.0
  9
$DIMTM
 40
0.0
  9
$DIMTXT
 40
2.5
  9
$DIMCEN
 40
2.5
  9
$DIMTSZ
 40
0.0
  9
$DIMTOL
 70
0
  9
$DIMLIM
 70
0
  9
$DIMTIH
 70
0
  9
$DIMTOH
 70
0
  9
$DIMSE1
 70
0
  9
$DIMSE2
 70
0
  9
$DIMTAD
 70
1
  9
$DIMZIN
 70
8
  9
$DIMBLK
  1

  9
$DIMASO
 70
1
  9
$DIMSHO
 70
1
  9
$DIMPOST
  1

  9
$DIMAPOST
  1

  9
$DIMALT
 70
0
  9
$DIMALTD
 70
3
  9
$DIMALTF
 40
0.03937007874
  9
$DIMLFAC
 40
1.0
  9
$DIMTOFL
 70
1
  9
$DIMTVP
 40
0.0
  9
$DIMTIX
 70
0
  9
$DIMSOXD
 70
0
  9
$DIMSAH
 70
0
  9
$DIMBLK1
  1

  9
$DIMBLK2
  1

  9
$DIMSTYLE
  2
ISO-25
  9
$DIMCLRD
 70
0
  9
$DIMCLRE
 70
0
  9
$DIMCLRT
 70
0
  9
$DIMTFAC
 40
1.0
  9
$DIMGAP
 40
0.625
  9
$DIMJUST
 70
0
  9
$DIMSD1
 70
0
  9
$DIMSD2
 70
0
  9
$DIMTOLJ
 70
0
  9
$DIMTZIN
 70
8
  9
$DIMALTZ
 70
0
  9
$DIMALTTZ
 70
0
  9
$DIMUPT
 70
0
  9
$DIMDEC
 70
2
  9
$DIMTDEC
 70
2
  9
$DIMALTU
 70
2
  9
$DIMALTTD
 70
3
  9
$DIMTXSTY
  7
Standard
  9
$DIMAUNIT
 70
0
  9
$DIMADEC
 70
0
  9
$DIMALTRND
 40
0.0
  9
$DIMAZIN
 70
0
  9
$DIMDSEP
 70
44
  9
$DIMATFIT
 70
3
  9
$DIMFRAC
 70
0
  9
$DIMLDRBLK
  1

  9
$DIMLUNIT
 70
2
  9
$DIMLWD
 70
-2
  9
$DIMLWE
 70
-2
  9
$DIMTMOVE
 70
0
  9
$DIMFXL
 40
1.0
  9
$DIMFXLON
 70
0
  9
$DIMJOGANG
 40
0.785398163397
  9
$DIMTFILL
 70
0
  9
$DIMTFILLCLR
 70
0
  9
$DIMARCSYM
 70
0
  9
$DIMLTYPE
  6

  9
$DIMLTEX1
  6

  9
$DIMLTEX2
  6

  9
$DIMTXTDIRECTION
 70
0
  9
$LUNITS
 70
2
  9
$LUPREC
 70
4
  9
$SKETCHINC
 40
1.0
  9
$FILLETRAD
 40
10.0
  9
$AUNITS
 70
0
  9
$AUPREC
 70
2
  9
$MENU
  1
.
  9
$ELEVATION
 40
0.0
  9
$PELEVATION
 40
0.0
  9
$THICKNESS
 40
0.0
  9
$LIMCHECK
 70
0
  9
$CHAMFERA
 40
0.0
  9
$CHAMFERB
 40
0.0
  9
$CHAMFERC
 40
0.0
  9
$CHAMFERD
 40
0.0
  9
$SKPOLY
 70
0
  9
$TDCREATE
 40
2460598.5788194444
  9
$TDUCREATE
 40
2458532.153996898
  9
$TDUPDATE
 40
2460598.5788194444
  9
$TDUUPDATE
 40
2458532.1544311
  9
$TDINDWG
 40
0.0
  9
$TDUSRTIMER
 40
0.0
  9
$USRTIMER
 70
1
  9
$ANGBASE
 50
0.0
  9
$ANGDIR
 70
0
  9
$PDMODE
 70
0
  9
$PDSIZE
 40
0.0
  9
$PLINEWID
 40
0.0
  9
$SPLFRAME
 70
0
  9
$SPLINETYPE
 70
6
  9
$SPLINESEGS
 70
8
  9
$HANDSEED
  5
BD
  9
$SURFTAB1
 70
6
  9
$SURFTAB2
 70
6
  9
$SURFTYPE
 70
6
  9
$SURFU
 70
6
  9
$SURFV
 70
6
  9
$UCSBASE
  2

  9
$UCSNAME
  2

  9
$UCSORG
 10
0.0
 20
0.0
 30
0.0
  9
$UCSXDIR
 10
1.0
 20
0.0
 30
0.0
  9
$UCSYDIR
 10
0.0
 20
1.0
 30
0.0
  9
$UCSORTHOREF
  2

  9
$UCSORTHOVIEW
 70
0
  9
$UCSORGTOP
 10
0.0
 20
0.0
 30
0.0
  9
$UCSORGBOTTOM
 10
0.0
 20
0.0
 30
0.0
  9
$UCSORGLEFT
 10
0.0
 20
0.0
 30
0.0
  9
$UCSORGRIGHT
 10
0.0
 20
0.0
 30
0.0
  9
$UCSORGFRONT
 10
0.0
 20
0.0
 30
0.0
  9
$UCSORGBACK
 10
0.0
 20
0.0
 30
0.0
  9
$PUCSBASE
  2

  9
$PUCSNAME
  2

  9
$PUCSORG
 10
0.0
 20
0.0
 30
0.0
  9
$PUCSXDIR
 10
1.0
 20
0.0
 30
0.0
  9
$PUCSYDIR
 10
0.0
 20
1.0
 30
0.0
  9
$PUCSORTHOREF
  2

  9
$PUCSORTHOVIEW
 70
0
  9
$PUCSORGTOP
 10
0.0
 20
0.0
 30
0.0
  9
$PUCSORGBOTTOM
 10
0.0
 20
0.0
 30
0.0
  9
$PUCSORGLEFT
 10
0.0
 20
0.0
 30
0.0
  9
$PUCSORGRIGHT
 10
0.0
 20
0.0
 30
0.0
  9
$PUCSORGFRONT
 10
0.0
 20
0.0
 30
0.0
  9
$PUCSORGBACK
 10
0.0
 20
0.0
 30
0.0
  9
$USERI1
 70
0
  9
$USERI2
 70
0
  9
$USERI3
 70
0
  9
$USERI4
 70
0
  9
$USERI5
 70
0
  9
$USERR1
 40
0.0
  9
$USERR2
 40
0.0
  9
$USERR3
 40
0.0
  9
$USERR4
 40
0.0
  9
$USERR5
 40
0.0
  9
$WORLDVIEW
 70
1
  9
$SHADEDGE
 70
3
  9
$SHADEDIF
 70
70
  9
$TILEMODE
 70
1
  9
$MAXACTVP
 70
64
  9
$PINSBASE
 10
0.0
 20
0.0
 30
0.0
  9
$PLIMCHECK
 70
0
  9
$PEXTMIN
 10
1e+20
 20
1e+20
 30
1e+20
  9
$PEXTMAX
 10
-1e+20
 20
-1e+20
 30
-1e+20
  9
$PLIMMIN
 10
0.0
 20
0.0
  9
$PLIMMAX
 10
420.0
 20
297.0
  9
$UNITMODE
 70
0
  9
$VISRETAIN
 70
1
  9
$PLINEGEN
 70
0
  9
$PSLTSCALE
 70
1
  9
$TREEDEPTH
 70
3020
  9
$CMLSTYLE
  2
Standard
  9
$CMLJUST
 70
0
  9
$CMLSCALE
 40
20.0
  9
$PROXYGRAPHICS
 70
1
  9
$MEASUREMENT
 70
1
  9
$CELWEIGHT
370
-1
  9
$ENDCAPS
280
0
  9
$JOINSTYLE
280
0
  9
$LWDISPLAY
290
0
  9
$INSUNITS
 70
4
  9
$HYPERLINKBASE
  1

  9
$STYLESHEET
  1

  9
$XEDIT
290
1
  9
$CEPSNTYPE
380
0
  9
$PSTYLEMODE
290
1
  9
$FINGERPRINTGUID
  2
{85A30F61-4AB3-4929-832C-9DCA9A472E04}
  9
$VERSIONGUID
  2
{EE8EE12C-5F27-4FBE-A223-9AB0976481AD}
  9
$EXTNAMES
290
1
  9
$PSVPSCALE
 40
0.0
  9
$OLESTARTUP
290
0
  9
$SORTENTS
280
127
  9
$INDEXCTL
280
0
  9
$HIDETEXT
280
1
  9
$XCLIPFRAME
280
1
  9
$HALOGAP
280
0
  9
$OBSCOLOR
 70
257
  9
$OBSLTYPE
280
0
  9
$INTERSECTIONDISPLAY
280
0
  9
$INTERSECTIONCOLOR
 70
257
  9
$DIMASSOC
280
2
  9
$PROJECTNAME
  1

  9
$CAMERADISPLAY
290
0
  9
$LENSLENGTH
 40
50.0
  9
$CAMERAHEIGHT
 40
0.0
  9
$STEPSPERSEC
 40
24.0
  9
$STEPSIZE
 40
100.0
  9
$3DDWFPREC
 40
2.0
  9
$PSOLWIDTH
 40
0.005
  9
$PSOLHEIGHT
 40
0.08
  9
$LOFTANG1
 40
1.570796326795
  9
$LOFTANG2
 40
1.570796326795
  9
$LOFTMAG1
 40
0.0
  9
$LOFTMAG2
 40
0.0
  9
$LOFTPARAM
 70
7
  9
$LOFTNORMALS
280
1
  9
$LATITUDE
 40
37.795
  9
$LONGITUDE
 40
-122.394
  9
$NORTHDIRECTION
 40
0.0
  9
$TIMEZONE
 70
-8000
  9
$LIGHTGLYPHDISPLAY
280
1
  9
$TILEMODELIGHTSYNCH
280
1
  9
$CMATERIAL
347
20
  9
$SOLIDHIST
280
0
  9
$SHOWHIST
280
1
  9
$DWFFRAME
280
2
  9
$DGNFRAME
280
2
  9
$REALWORLDSCALE
290
1
  9
$INTERFERECOLOR
 62
256
  9
$CSHADOW
280
0
  9
$SHADOWPLANELOCATION
 40
0.0
  0
ENDSEC
  0
SECTION
  2
CLASSES
  0
CLASS
  1
ACDBDICTIONARYWDFLT
  2
AcDbDictionaryWithDefault
  3
ObjectDBX Classes
 90
0
 91
0
280
0
281
0
  0
CLASS
  1
SUN
  2
AcDbSun
  3
SCENEOE
 90
1153
 91
0
280
0
281
0
  0
CLASS
  1
VISUALSTYLE
  2
AcDbVisualStyle
  3
ObjectDBX Classes
 90
4095
 91
0
280
0
281
0
  0
CLASS
  1
MATERIAL
  2
AcDbMaterial
  3
ObjectDBX Classes
 90
1153
 91
0
280
0
281
0
  0
CLASS
  1
SCALE
  2
AcDbScale
  3
ObjectDBX Classes
 90
1153
 91
0
280
0
281
0
  0
CLASS
  1
TABLESTYLE
  2
AcDbTableStyle
  3
ObjectDBX Classes
 90
4095
 91
0
280
0
281
0
  0
CLASS
  1
MLEADERSTYLE
  2
AcDbMLeaderStyle
  3
ACDB_MLEADERSTYLE_CLASS
 90
4095
 91
0
280
0
281
0
  0
CLASS
  1
DICTIONARYVAR
  2
AcDbDictionaryVar
  3
ObjectDBX Classes
 90
0
 91
0
280
0
281
0
  0
CLASS
  1
CELLSTYLEMAP
  2
AcDbCellStyleMap
  3
ObjectDBX Classes
 90
1152
 91
0
280
0
281
0
  0
CLASS
  1
MENTALRAYRENDERSETTINGS
  2
AcDbMentalRayRenderSettings
  3
SCENEOE
 90
1024
 91
0
280
0
281
0
  0
CLASS
  1
ACDBDETAILVIEWSTYLE
  2
AcDbDetailViewStyle
  3
ObjectDBX Classes
 90
1025
 91
0
280
0
281
0
  0
CLASS
  1
ACDBSECTIONVIEWSTYLE
  2
AcDbSectionViewStyle
  3
ObjectDBX Classes
 90
1025
 91
0
280
0
281
0
  0
CLASS
  1
RASTERVARIABLES
  2
AcDbRasterVariables
  3
ISM
 90
0
 91
0
280
0
281
0
  0
CLASS
  1
ACDBPLACEHOLDER
  2
AcDbPlaceHolder
  3
ObjectDBX Classes
 90
0
 91
0
280
0
281
0
  0
CLASS
  1
LAYOUT
  2
AcDbLayout
  3
ObjectDBX Classes
 90
0
 91
0
280
0
281
0
  0
ENDSEC
  0
SECTION
  2
TABLES
  0
TABLE
  2
VPORT
  5
8
330
0
100
AcDbSymbolTable
 70
1
  0
VPORT
  5
23
330
8
100
AcDbSymbolTableRecord
100
AcDbViewportTableRecord
  2
*Active
 70
0
 10
0.0
 20
0.0
 11
1.0
 21
1.0
 12
0.0
 22
0.0
 13
0.0
 23
0.0
 14
0.5
 24
0.5
 15
0.5
 25
0.5
 16
0.0
 26
0.0
 36
1.0
 17
0.0
 27
0.0
 37
0.0
 40
1000.0
 41
1.34
 42
50.0
 43
0.0
 44
0.0
 50
0.0
 51
0.0
 71
0
 72
1000
 73
1
 74
3
 75
0
 76
0
 77
0
 78
0
281
0
 65
0
146
0.0
  0
ENDTAB
  0
TABLE
  2
LTYPE
  5
2
330
0
100
AcDbSymbolTable
 70
3
  0
LTYPE
  5
24
330
2
100
AcDbSymbolTableRecord
100
AcDbLinetypeTableRecord
  2
ByBlock
 70
0
  3

 72
65
 73
0
 40
0.0
  0
LTYPE
  5
25
330
2
100
AcDbSymbolTableRecord
100
AcDbLinetypeTableRecord
  2
ByLayer
 70
0
  3

 72
65
 73
0
 40
0.0
  0
LTYPE
  5
26
330
2
100
AcDbSymbolTableRecord
100
AcDbLinetypeTableRecord
  2
Continuous
 70
0
  3

 72
65
 73
0
 40
0.0
  0
ENDTAB
  0
TABLE
  2
LAYER
  5
1
330
0
100
AcDbSymbolTable
 70
2
  0
LAYER
  5
27
330
1
100
AcDbSymbolTableRecord
100
AcDbLayerTableRecord
  2
0
 70
0
 62
7
  6
Continuous
370
-3
390
13
347
21
  0
LAYER
  5
28
330
1
100
AcDbSymbolTableRecord
100
AcDbLayerTableRecord
  2
Defpoints
 70
0
 62
7
  6
Continuous
290
0
370
-3
390
13
347
21
  0
ENDTAB
  0
TABLE
  2
STYLE
  5
5
330
0
100
AcDbSymbolTable
 70
1
  0
STYLE
  5
29
330
5
100
AcDbSymbolTableRecord
100
AcDbTextStyleTableRecord
  2
Standard
 70
0
 40
0.0
 41
1.0
 50
0.0
 71
0
 42
2.5
  3
txt
  4

  0
ENDTAB
  0
TABLE
  2
VIEW
  5
7
330
0
100
AcDbSymbolTable
 70
0
  0
ENDTAB
  0
TABLE
  2
UCS
  5
6
330
0
100
AcDbSymbolTable
 70
0
  0
ENDTAB
  0
TABLE
  2
APPID
  5
3
330
0
100
AcDbSymbolTable
 70
3
  0
APPID
  5
2A
330
3
100
AcDbSymbolTableRecord
100
AcDbRegAppTableRecord
  2
ACAD
 70
0
  0
APPID
  5
BA
330
3
100
AcDbSymbolTableRecord
100
AcDbRegAppTableRecord
  2
HATCHBACKGROUNDCOLOR
 70
0
  0
APPID
  5
BB
330
3
100
AcDbSymbolTableRecord
100
AcDbRegAppTableRecord
  2
EZDXF
 70
0
  0
ENDTAB
  0
TABLE
  2
DIMSTYLE
  5
4
330
0
100
AcDbSymbolTable
 70
1
100
AcDbDimStyleTable
  0
DIMSTYLE
105
2B
330
4
100
AcDbSymbolTableRecord
100
AcDbDimStyleTableRecord
  2
Standard
 70
0
 40
1.0
 41
2.5
 42
0.625
 43
3.75
 44
1.25
 45
0.0
 46
0.0
 47
0.0
 48
0.0
 49
2.5
140
2.5
141
2.5
142
0.0
143
0.03937007874
144
1.0
145
0.0
146
1.0
147
0.625
148
0.0
 69
0
 70
0
 71
0
 72
0
 73
0
 74
0
 75
0
 76
0
 77
1
 78
8
 79
3
170
0
171
3
172
1
173
0
174
0
175
0
176
0
177
0
178
0
179
2
271
2
272
2
273
2
274
3
275
0
276
0
277
2
278
44
279
0
280
0
281
0
282
0
283
0
284
8
285
0
286
0
288
0
289
3
290
0
371
-2
372
-2
  0
ENDTAB
  0
TABLE
  2
BLOCK_RECORD
  5
9
330
0
100
AcDbSymbolTable
 70
2
  0
BLOCK_RECORD
  5
17
330
9
100
AcDbSymbolTableRecord
100
AcDbBlockTableRecord
  2
*Model_Space
340
1A
 70
0
280
1
281
0
  0
BLOCK_RECORD
  5
1B
330
9
100
AcDbSymbolTableRecord
100
AcDbBlockTableRecord
  2
*Paper_Space
340
1E
 70
0
280
1
281
0
  0
ENDTAB
  0
ENDSEC
  0
SECTION
  2
BLOCKS
  0
BLOCK
  5
18
330
17
100
AcDbEntity
  8
0
100
AcDbBlockBegin
  2
*Model_Space
 70
0
 10
0.0
 20
0.0
 30
0.0
  3
*Model_Space
  1

  0
ENDBLK
  5
19
330
17
100
AcDbEntity
  8
0
100
AcDbBlockEnd
  0
BLOCK
  5
1C
330
1B
100
AcDbEntity
  8
0
100
AcDbBlockBegin
  2
*Paper_Space
 70
0
 10
0.0
 20
0.0
 30
0.0
  3
*Paper_Space
  1

  0
ENDBLK
  5
1D
330
1B
100
AcDbEntity
  8
0
100
AcDbBlockEnd
  0
ENDSEC
  0
SECTION
  2
ENTITIES
  0
LWPOLYLINE
  5
2F
330
17
100
AcDbEntity
  8
0
100
AcDbPolyline
 90
4
 70
1
 10
33.85
 20
47.849999999999994
 10
47.599999999999994
 20
47.849999999999994
 10
47.599999999999994
 20
61.599999999999994
 10
33.85
 20
61.599999999999994
  0
LWPOLYLINE
  5
30
330
17
100
AcDbEntity
  8
0
100
AcDbPolyline
 90
4
 70
1
 10
33.85
 20
66.89999999999999
 10
47.599999999999994
 20
66.89999999999999
 10
47.599999999999994
 20
80.64999999999999
 10
33.85
 20
80.64999999999999
  0
LWPOLYLINE
  5
31
330
17
100
AcDbEntity
  8
0
100
AcDbPolyline
 90
4
 70
1
 10
33.85
 20
85.95
 10
47.599999999999994
 20
85.95
 10
47.599999999999994
 20
99.7
 10
33.85
 20
99.7
  0
LWPOLYLINE
  5
32
330
17
100
AcDbEntity
  8
0
100
AcDbPolyline
 90
4
 70
1
 10
52.9
 20
43.349999999999994
 10
66.65
 20
43.349999999999994
 10
66.65
 20
57.099999999999994
 10
52.9
 20
57.099999999999994
  0
LWPOLYLINE
  5
33
330
17
100
AcDbEntity
  8
0
100
AcDbPolyline
 90
4
 70
1
 10
52.9
 20
62.39999999999999
 10
66.65
 20
62.39999999999999
 10
66.65
 20
76.14999999999999
 10
52.9
 20
76.14999999999999
  0
LWPOLYLINE
  5
34
330
17
100
AcDbEntity
  8
0
100
AcDbPolyline
 90
4
 70
1
 10
52.9
 20
81.45
 10
66.65
 20
81.45
 10
66.65
 20
95.2
 10
52.9
 20
95.2
  0
LWPOLYLINE
  5
35
330
17
100
AcDbEntity
  8
0
100
AcDbPolyline
 90
4
 70
1
 10
71.95
 20
40.849999999999994
 10
85.7
 20
40.849999999999994
 10
85.7
 20
54.599999999999994
 10
71.95
 20
54.599999999999994
  0
LWPOLYLINE
  5
36
330
17
100
AcDbEntity
  8
0
100
AcDbPolyline
 90
4
 70
1
 10
71.95
 20
59.89999999999999
 10
85.7
 20
59.89999999999999
 10
85.7
 20
73.64999999999999
 10
71.95
 20
73.64999999999999
  0
LWPOLYLINE
  5
37
330
17
100
AcDbEntity
  8
0
100
AcDbPolyline
 90
4
 70
1
 10
71.95
 20
78.95
 10
85.7
 20
78.95
 10
85.7
 20
92.7
 10
71.95
 20
92.7
  0
LWPOLYLINE
  5
38
330
17
100
AcDbEntity
  8
0
100
AcDbPolyline
 90
4
 70
1
 10
91.0
 20
44.64999999999999
 10
104.75
 20
44.64999999999999
 10
104.75
 20
58.39999999999999
 10
91.0
 20
58.39999999999999
  0
LWPOLYLINE
  5
39
330
17
100
AcDbEntity
  8
0
100
AcDbPolyline
 90
4
 70
1
 10
91.0
 20
63.69999999999999
 10
104.75
 20
63.69999999999999
 10
104.75
 20
77.44999999999999
 10
91.0
 20
77.44999999999999
  0
LWPOLYLINE
  5
3A
330
17
100
AcDbEntity
  8
0
100
AcDbPolyline
 90
4
 70
1
 10
91.0
 20
82.74999999999999
 10
104.75
 20
82.74999999999999
 10
104.75
 20
96.49999999999999
 10
91.0
 20
96.49999999999999
  0
LWPOLYLINE
  5
3B
330
17
100
AcDbEntity
  8
0
100
AcDbPolyline
 90
4
 70
1
 10
91.0
 20
101.8
 10
104.75
 20
101.8
 10
104.75
 20
115.55
 10
91.0
 20
115.55
  0
LWPOLYLINE
  5
3C
330
17
100
AcDbEntity
  8
0
100
AcDbPolyline
 90
4
 70
1
 10
110.05
 20
53.14999999999999
 10
123.8
 20
53.14999999999999
 10
123.8
 20
66.89999999999999
 10
110.05
 20
66.89999999999999
  0
LWPOLYLINE
  5
3D
330
17
100
AcDbEntity
  8
0
100
AcDbPolyline
 90
4
 70
1
 10
110.05
 20
72.19999999999999
 10
123.8
 20
72.19999999999999
 10
123.8
 20
85.94999999999999
 10
110.05
 20
85.94999999999999
  0
LWPOLYLINE
  5
3E
330
17
100
AcDbEntity
  8
0
100
AcDbPolyline
 90
4
 70
1
 10
110.05
 20
91.24999999999999
 10
123.8
 20
91.24999999999999
 10
123.8
 20
104.99999999999999
 10
110.05
 20
104.99999999999999
  0
LWPOLYLINE
  5
3F
330
17
100
AcDbEntity
  8
0
100
AcDbPolyline
 90
4
 70
1
 10
129.1
 20
55.14999999999999
 10
142.85000000000002
 20
55.14999999999999
 10
142.85000000000002
 20
68.89999999999999
 10
129.1
 20
68.89999999999999
  0
LWPOLYLINE
  5
40
330
17
100
AcDbEntity
  8
0
100
AcDbPolyline
 90
4
 70
1
 10
129.1
 20
74.19999999999999
 10
142.85000000000002
 20
74.19999999999999
 10
142.85000000000002
 20
87.94999999999999
 10
129.1
 20
87.94999999999999
  0
LWPOLYLINE
  5
41
330
17
100
AcDbEntity
  8
0
100
AcDbPolyline
 90
4
 70
1
 10
129.1
 20
93.24999999999999
 10
142.85000000000002
 20
93.24999999999999
 10
142.85000000000002
 20
106.99999999999999
 10
129.1
 20
106.99999999999999
  0
LWPOLYLINE
  5
42
330
17
100
AcDbEntity
  8
0
100
AcDbPolyline
 90
4
 70
1
 10
27.00036548640966
 20
107.68863341465573
 10
32.811366585344274
 20
120.15036548640967
 10
20.349634513590342
 20
125.96136658534428
 10
14.538633414655724
 20
113.49963451359034
  0
LWPOLYLINE
  5
43
330
17
100
AcDbEntity
  8
0
100
AcDbPolyline
 90
4
 70
1
 10
12.8
 20
76.425
 10
26.55
 20
76.425
 10
26.55
 20
90.175
 10
12.8
 20
90.175
  0
LWPOLYLINE
  5
44
330
17
100
AcDbEntity
  8
0
100
AcDbPolyline
 90
4
 70
1
 10
61.53509195830125
 20
102.47372209650216
 10
75.15127790349784
 20
100.56009195830126
 10
77.06490804169874
 20
114.17627790349785
 10
63.44872209650215
 20
116.08990804169875
  0
LWPOLYLINE
  5
45
330
17
100
AcDbEntity
  8
0
100
AcDbPolyline
 90
4
 70
1
 10
38.87987900918282
 20
108.96364087934249
 10
52.16135912065751
 20
105.40487900918284
 10
55.72012099081717
 20
118.68635912065751
 10
42.438640879342486
 20
122.24512099081717
  0
LWPOLYLINE
  5
46
330
17
100
AcDbEntity
  8
0
100
AcDbPolyline
 90
4
 70
1
 10
33.85
 20
20.3
 10
47.599999999999994
 20
20.3
 10
47.599999999999994
 20
34.05
 10
33.85
 20
34.05
  0
LWPOLYLINE
  5
47
330
17
100
AcDbEntity
  8
0
100
AcDbPolyline
 90
4
 70
1
 10
52.9
 20
20.3
 10
66.65
 20
20.3
 10
66.65
 20
34.05
 10
52.9
 20
34.05
  0
LWPOLYLINE
  5
48
330
17
100
AcDbEntity
  8
0
100
AcDbPolyline
 90
4
 70
1
 10
71.95
 20
20.3
 10
85.7
 20
20.3
 10
85.7
 20
34.05
 10
71.95
 20
34.05
  0
LWPOLYLINE
  5
49
330
17
100
AcDbEntity
  8
0
100
AcDbPolyline
 90
4
 70
1
 10
91.0
 20
20.3
 10
104.75
 20
20.3
 10
104.75
 20
34.05
 10
91.0
 20
34.05
  0
LWPOLYLINE
  5
4A
330
17
100
AcDbEntity
  8
0
100
AcDbPolyline
 90
4
 70
1
 10
110.05
 20
20.3
 10
123.8
 20
20.3
 10
123.8
 20
34.05
 10
110.05
 20
34.05
  0
LWPOLYLINE
  5
4B
330
17
100
AcDbEntity
  8
0
100
AcDbPolyline
 90
4
 70
1
 10
129.1
 20
20.3
 10
142.85000000000002
 20
20.3
 10
142.85000000000002
 20
34.05
 10
129.1
 20
34.05
  0
LWPOLYLINE
  5
4C
330
17
100
AcDbEntity
  8
0
100
AcDbPolyline
 90
4
 70
1
 10
155.15
 20
20.3
 10
168.9
 20
20.3
 10
168.9
 20
34.05
 10
155.15
 20
34.05
  0
LWPOLYLINE
  5
4D
330
17
100
AcDbEntity
  8
0
100
AcDbPolyline
 90
4
 70
1
 10
155.15
 20
39.349999999999994
 10
168.9
 20
39.349999999999994
 10
168.9
 20
53.099999999999994
 10
155.15
 20
53.099999999999994
  0
LWPOLYLINE
  5
4E
330
17
100
AcDbEntity
  8
0
100
AcDbPolyline
 90
4
 70
1
 10
155.15
 20
58.4
 10
168.9
 20
58.4
 10
168.9
 20
72.14999999999999
 10
155.15
 20
72.14999999999999
  0
LWPOLYLINE
  5
4F
330
17
100
AcDbEntity
  8
0
100
AcDbPolyline
 90
4
 70
1
 10
48.8
 20
2.8
 10
48.8
 20
7.3
 10
28.8
 20
7.3
 10
28.8
 20
2.8
  0
LWPOLYLINE
  5
50
330
17
100
AcDbEntity
  8
0
100
AcDbPolyline
 90
18
 70
1
 10
2.8
 20
2.8
 10
13.8
 20
2.8
 10
13.8
 20
8.8
 10
11.8
 20
8.8
 10
11.8
 20
33.3
 10
18.133333333333333
 20
33.3
 10
18.133333333333333
 20
16.3
 10
24.466666666666665
 20
16.3
 10
24.466666666666665
 20
33.3
 10
30.8
 20
33.3
 10
30.8
 20
8.8
 10
28.8
 20
8.8
 10
28.8
 20
2.8
 10
177.65000000000003
 20
10.8
 10
177.65000000000003
 20
101.95000000000002
 10
157.65000000000003
 20
121.95000000000002
 10
17.8
 20
141.95000000000002
 10
2.8
 20
109.78239619235663
  0
LWPOLYLINE
  5
51
330
17
100
AcDbEntity
  8
0
100
AcDbPolyline
 90
12
 70
1
 10
166.90000000000003
 20
100.375
 10
149.40000000000003
 20
100.375
 10
149.40000000000003
 20
95.375
 10
153.40000000000003
 20
95.375
 10
153.40000000000003
 20
99.77499999999999
 10
156.40000000000003
 20
99.77499999999999
 10
156.40000000000003
 20
79.97500000000001
 10
153.40000000000003
 20
79.97500000000001
 10
153.40000000000003
 20
84.375
 10
149.40000000000003
 20
84.375
 10
149.40000000000003
 20
79.375
 10
166.90000000000003
 20
79.375
  0
LWPOLYLINE
  5
52
330
17
100
AcDbEntity
  8
0
100
AcDbPolyline
 90
4
 70
1
 10
32.85
 20
188.8
 10
48.599999999999994
 20
188.8
 10
48.599999999999994
 20
204.55
 10
32.85
 20
204.55
  0
LWPOLYLINE
  5
53
330
17
100
AcDbEntity
  8
0
100
AcDbPolyline
 90
4
 70
1
 10
32.85
 20
207.85
 10
48.599999999999994
 20
207.85
 10
48.599999999999994
 20
223.6
 10
32.85
 20
223.6
  0
LWPOLYLINE
  5
54
330
17
100
AcDbEntity
  8
0
100
AcDbPolyline
 90
4
 70
1
 10
32.85
 20
226.9
 10
48.599999999999994
 20
226.9
 10
48.599999999999994
 20
242.65
 10
32.85
 20
242.65
  0
LWPOLYLINE
  5
55
330
17
100
AcDbEntity
  8
0
100
AcDbPolyline
 90
4
 70
1
 10
51.9
 20
184.3
 10
67.64999999999999
 20
184.3
 10
67.64999999999999
 20
200.05
 10
51.9
 20
200.05
  0
LWPOLYLINE
  5
56
330
17
100
AcDbEntity
  8
0
100
AcDbPolyline
 90
4
 70
1
 10
51.9
 20
203.35
 10
67.64999999999999
 20
203.35
 10
67.64999999999999
 20
219.1
 10
51.9
 20
219.1
  0
LWPOLYLINE
  5
57
330
17
100
AcDbEntity
  8
0
100
AcDbPolyline
 90
4
 70
1
 10
51.9
 20
222.4
 10
67.64999999999999
 20
222.4
 10
67.64999999999999
 20
238.15
 10
51.9
 20
238.15
  0
LWPOLYLINE
  5
58
330
17
100
AcDbEntity
  8
0
100
AcDbPolyline
 90
4
 70
1
 10
70.95
 20
181.8
 10
86.7
 20
181.8
 10
86.7
 20
197.55
 10
70.95
 20
197.55
  0
LWPOLYLINE
  5
59
330
17
100
AcDbEntity
  8
0
100
AcDbPolyline
 90
4
 70
1
 10
70.95
 20
200.85
 10
86.7
 20
200.85
 10
86.7
 20
216.6
 10
70.95
 20
216.6
  0
LWPOLYLINE
  5
5A
330
17
100
AcDbEntity
  8
0
100
AcDbPolyline
 90
4
 70
1
 10
70.95
 20
219.9
 10
86.7
 20
219.9
 10
86.7
 20
235.65
 10
70.95
 20
235.65
  0
LWPOLYLINE
  5
5B
330
17
100
AcDbEntity
  8
0
100
AcDbPolyline
 90
4
 70
1
 10
90.0
 20
185.6
 10
105.75
 20
185.6
 10
105.75
 20
201.35
 10
90.0
 20
201.35
  0
LWPOLYLINE
  5
5C
330
17
100
AcDbEntity
  8
0
100
AcDbPolyline
 90
4
 70
1
 10
90.0
 20
204.64999999999998
 10
105.75
 20
204.64999999999998
 10
105.75
 20
220.39999999999998
 10
90.0
 20
220.39999999999998
  0
LWPOLYLINE
  5
5D
330
17
100
AcDbEntity
  8
0
100
AcDbPolyline
 90
4
 70
1
 10
90.0
 20
223.7
 10
105.75
 20
223.7
 10
105.75
 20
239.45
 10
90.0
 20
239.45
  0
LWPOLYLINE
  5
5E
330
17
100
AcDbEntity
  8
0
100
AcDbPolyline
 90
4
 70
1
 10
90.0
 20
242.75
 10
105.75
 20
242.75
 10
105.75
 20
258.5
 10
90.0
 20
258.5
  0
LWPOLYLINE
  5
5F
330
17
100
AcDbEntity
  8
0
100
AcDbPolyline
 90
4
 70
1
 10
109.05
 20
194.1
 10
124.8
 20
194.1
 10
124.8
 20
209.85
 10
109.05
 20
209.85
  0
LWPOLYLINE
  5
60
330
17
100
AcDbEntity
  8
0
100
AcDbPolyline
 90
4
 70
1
 10
109.05
 20
213.14999999999998
 10
124.8
 20
213.14999999999998
 10
124.8
 20
228.89999999999998
 10
109.05
 20
228.89999999999998
  0
LWPOLYLINE
  5
61
330
17
100
AcDbEntity
  8
0
100
AcDbPolyline
 90
4
 70
1
 10
109.05
 20
232.2
 10
124.8
 20
232.2
 10
124.8
 20
247.95
 10
109.05
 20
247.95
  0
LWPOLYLINE
  5
62
330
17
100
AcDbEntity
  8
0
100
AcDbPolyline
 90
4
 70
1
 10
128.1
 20
196.1
 10
143.85000000000002
 20
196.1
 10
143.85000000000002
 20
211.85
 10
128.1
 20
211.85
  0
LWPOLYLINE
  5
63
330
17
100
AcDbEntity
  8
0
100
AcDbPolyline
 90
4
 70
1
 10
128.1
 20
215.14999999999998
 10
143.85000000000002
 20
215.14999999999998
 10
143.85000000000002
 20
230.89999999999998
 10
128.1
 20
230.89999999999998
  0
LWPOLYLINE
  5
64
330
17
100
AcDbEntity
  8
0
100
AcDbPolyline
 90
4
 70
1
 10
128.1
 20
234.2
 10
143.85000000000002
 20
234.2
 10
143.85000000000002
 20
249.95
 10
128.1
 20
249.95
  0
LWPOLYLINE
  5
65
330
17
100
AcDbEntity
  8
0
100
AcDbPolyline
 90
4
 70
1
 10
27.48405501170561
 20
248.30970736587838
 10
34.14029263412162
 20
262.58405501170563
 10
19.86594498829439
 20
269.2402926341216
 10
13.209707365878373
 20
254.96594498829438
  0
LWPOLYLINE
  5
66
330
17
100
AcDbEntity
  8
0
100
AcDbPolyline
 90
4
 70
1
 10
11.8
 20
217.375
 10
27.55
 20
217.375
 10
27.55
 20
233.125
 10
11.8
 20
233.125
  0
LWPOLYLINE
  5
67
330
17
100
AcDbEntity
  8
0
100
AcDbPolyline
 90
4
 70
1
 10
60.405650788599615
 20
243.57262712872065
 10
76.00237287127935
 20
241.3806507885996
 10
78.19434921140038
 20
256.9773728712794
 10
62.597627128720646
 20
259.1693492114004
  0
LWPOLYLINE
  5
68
330
17
100
AcDbEntity
  8
0
100
AcDbPolyline
 90
4
 70
1
 10
37.65513413779124
 20
250.20653409815594
 10
52.86846590184406
 20
246.13013413779123
 10
56.94486586220876
 20
261.34346590184407
 10
41.73153409815593
 20
265.4198658622088
  0
LWPOLYLINE
  5
69
330
17
100
AcDbEntity
  8
0
100
AcDbPolyline
 90
4
 70
1
 10
32.85
 20
161.25
 10
48.599999999999994
 20
161.25
 10
48.599999999999994
 20
177.0
 10
32.85
 20
177.0
  0
LWPOLYLINE
  5
6A
330
17
100
AcDbEntity
  8
0
100
AcDbPolyline
 90
4
 70
1
 10
51.9
 20
161.25
 10
67.64999999999999
 20
161.25
 10
67.64999999999999
 20
177.0
 10
51.9
 20
177.0
  0
LWPOLYLINE
  5
6B
330
17
100
AcDbEntity
  8
0
100
AcDbPolyline
 90
4
 70
1
 10
70.95
 20
161.25
 10
86.7
 20
161.25
 10
86.7
 20
177.0
 10
70.95
 20
177.0
  0
LWPOLYLINE
  5
6C
330
17
100
AcDbEntity
  8
0
100
AcDbPolyline
 90
4
 70
1
 10
90.0
 20
161.25
 10
105.75
 20
161.25
 10
105.75
 20
177.0
 10
90.0
 20
177.0
  0
LWPOLYLINE
  5
6D
330
17
100
AcDbEntity
  8
0
100
AcDbPolyline
 90
4
 70
1
 10
109.05
 20
161.25
 10
124.8
 20
161.25
 10
124.8
 20
177.0
 10
109.05
 20
177.0
  0
LWPOLYLINE
  5
6E
330
17
100
AcDbEntity
  8
0
100
AcDbPolyline
 90
4
 70
1
 10
128.1
 20
161.25
 10
143.85000000000002
 20
161.25
 10
143.85000000000002
 20
177.0
 10
128.1
 20
177.0
  0
LWPOLYLINE
  5
6F
330
17
100
AcDbEntity
  8
0
100
AcDbPolyline
 90
4
 70
1
 10
154.15
 20
161.25
 10
169.9
 20
161.25
 10
169.9
 20
177.0
 10
154.15
 20
177.0
  0
LWPOLYLINE
  5
70
330
17
100
AcDbEntity
  8
0
100
AcDbPolyline
 90
4
 70
1
 10
154.15
 20
180.3
 10
169.9
 20
180.3
 10
169.9
 20
196.05
 10
154.15
 20
196.05
  0
LWPOLYLINE
  5
71
330
17
100
AcDbEntity
  8
0
100
AcDbPolyline
 90
4
 70
1
 10
154.15
 20
199.35
 10
169.9
 20
199.35
 10
169.9
 20
215.1
 10
154.15
 20
215.1
  0
LWPOLYLINE
  5
72
330
17
100
AcDbEntity
  8
0
100
AcDbPolyline
 90
14
 70
1
 10
2.8
 20
144.75
 10
13.8
 20
144.75
 10
13.8
 20
150.75
 10
11.8
 20
150.75
 10
11.8
 20
175.25
 10
30.8
 20
175.25
 10
30.8
 20
150.75
 10
28.8
 20
150.75
 10
28.8
 20
144.75
 10
177.65000000000003
 20
152.75
 10
177.65000000000003
 20
243.89999999999998
 10
157.65000000000003
 20
263.9
 10
17.8
 20
283.9
 10
2.8
 20
251.7323961923566
  0
LWPOLYLINE
  5
73
330
17
100
AcDbEntity
  8
0
100
AcDbPolyline
 90
4
 70
1
 10
48.8
 20
144.75
 10
48.8
 20
149.25
 10
38.8
 20
149.25
 10
38.8
 20
144.75
  0
CIRCLE
  5
74
330
17
100
AcDbEntity
  8
0
100
AcDbCircle
 10
37.8
 20
151.95
 30
0.0
 40
0.6
  0
CIRCLE
  5
75
330
17
100
AcDbEntity
  8
0
100
AcDbCircle
 10
174.65000000000003
 20
155.75
 30
0.0
 40
0.6
  0
CIRCLE
  5
76
330
17
100
AcDbEntity
  8
0
100
AcDbCircle
 10
91.0
 20
267.8
 30
0.0
 40
0.6
  0
CIRCLE
  5
77
330
17
100
AcDbEntity
  8
0
100
AcDbCircle
 10
13.8
 20
240.60000000000002
 30
0.0
 40
0.6
  0
CIRCLE
  5
78
330
17
100
AcDbEntity
  8
0
100
AcDbCircle
 10
165.65000000000003
 20
249.525
 30
0.0
 40
0.6
  0
LWPOLYLINE
  5
79
330
17
100
AcDbEntity
  8
0
100
AcDbPolyline
 90
12
 70
1
 10
166.90000000000003
 20
242.325
 10
149.40000000000003
 20
242.325
 10
149.40000000000003
 20
237.325
 10
153.40000000000003
 20
237.325
 10
153.40000000000003
 20
241.725
 10
156.40000000000003
 20
241.725
 10
156.40000000000003
 20
221.925
 10
153.40000000000003
 20
221.925
 10
153.40000000000003
 20
226.325
 10
149.40000000000003
 20
226.325
 10
149.40000000000003
 20
221.325
 10
166.90000000000003
 20
221.325
  0
LWPOLYLINE
  5
7A
330
17
100
AcDbEntity
  8
0
100
AcDbPolyline
 90
11
 70
1
 10
8.8
 20
286.7
 10
2.8
 20
286.7
 10
2.8
 20
393.68239619235663
 10
17.8
 20
425.85
 10
157.65000000000003
 20
405.85
 10
177.65000000000003
 20
385.85
 10
177.65000000000003
 20
294.7
 10
28.8
 20
286.7
 10
28.8
 20
288.2
 10
13.8
 20
288.2
 10
13.8
 20
286.7
  0
LWPOLYLINE
  5
7B
330
17
100
AcDbEntity
  8
0
100
AcDbPolyline
 90
18
 70
1
 10
8.8
 20
292.7
 10
13.8
 20
292.7
 10
13.8
 20
289.4
 10
28.8
 20
289.4
 10
28.8
 20
292.7
 10
30.8
 20
292.7
 10
30.8
 20
300.7
 10
71.95
 20
292.7
 10
171.65000000000003
 20
300.7
 10
171.65000000000003
 20
314.45
 10
171.65000000000003
 20
379.85
 10
151.65000000000003
 20
399.85
 10
91.0
 20
404.74999999999994
 10
23.8
 20
419.85
 10
8.8
 20
387.68239619235663
 10
18.8
 20
387.68239619235663
 10
18.8
 20
377.68239619235663
 10
8.8
 20
377.68239619235663
  0
CIRCLE
  5
7C
330
17
100
AcDbEntity
  8
0
100
AcDbCircle
 10
37.8
 20
293.9
 30
0.0
 40
0.6
  0
CIRCLE
  5
7D
330
17
100
AcDbEntity
  8
0
100
AcDbCircle
 10
174.65000000000003
 20
297.7
 30
0.0
 40
0.6
  0
CIRCLE
  5
7E
330
17
100
AcDbEntity
  8
0
100
AcDbCircle
 10
91.0
 20
409.75
 30
0.0
 40
0.6
  0
CIRCLE
  5
7F
330
17
100
AcDbEntity
  8
0
100
AcDbCircle
 10
13.8
 20
382.55
 30
0.0
 40
0.6
  0
CIRCLE
  5
80
330
17
100
AcDbEntity
  8
0
100
AcDbCircle
 10
165.65000000000003
 20
391.475
 30
0.0
 40
0.6
  0
LWPOLYLINE
  5
81
330
17
100
AcDbEntity
  8
0
100
AcDbPolyline
 90
4
 70
1
 10
48.8
 20
286.7
 10
48.8
 20
291.2
 10
38.8
 20
291.2
 10
38.8
 20
286.7
  0
LWPOLYLINE
  5
82
330
17
100
AcDbEntity
  8
0
100
AcDbPolyline
 90
11
 70
1
 10
186.45000000000002
 20
2.8
 10
180.45000000000002
 20
2.8
 10
180.45000000000002
 20
109.78239619235663
 10
195.45000000000002
 20
141.95000000000002
 10
335.30000000000007
 20
121.95000000000002
 10
355.30000000000007
 20
101.95000000000002
 10
355.30000000000007
 20
10.8
 10
206.45000000000002
 20
2.8
 10
206.45000000000002
 20
4.3
 10
191.45000000000002
 20
4.3
 10
191.45000000000002
 20
2.8
  0
LWPOLYLINE
  5
83
330
17
100
AcDbEntity
  8
0
100
AcDbPolyline
 90
18
 70
1
 10
186.45000000000002
 20
8.8
 10
191.45000000000002
 20
8.8
 10
191.45000000000002
 20
5.5
 10
206.45000000000002
 20
5.5
 10
206.45000000000002
 20
8.8
 10
208.45000000000002
 20
8.8
 10
208.45000000000002
 20
16.8
 10
249.60000000000002
 20
8.8
 10
349.30000000000007
 20
16.8
 10
349.30000000000007
 20
76.95
 10
324.5
 20
76.95
 10
324.5
 20
115.95000000000002
 10
268.65000000000003
 20
120.85
 10
201.45000000000002
 20
135.95000000000002
 10
186.45000000000002
 20
103.78239619235663
 10
196.45000000000002
 20
103.78239619235663
 10
196.45000000000002
 20
93.78239619235663
 10
186.45000000000002
 20
93.78239619235663
  0
CIRCLE
  5
84
330
17
100
AcDbEntity
  8
0
100
AcDbCircle
 10
215.45000000000002
 20
10.0
 30
0.0
 40
0.6
  0
CIRCLE
  5
85
330
17
100
AcDbEntity
  8
0
100
AcDbCircle
 10
352.30000000000007
 20
13.8
 30
0.0
 40
0.6
  0
CIRCLE
  5
86
330
17
100
AcDbEntity
  8
0
100
AcDbCircle
 10
268.65000000000003
 20
125.85
 30
0.0
 40
0.6
  0
CIRCLE
  5
87
330
17
100
AcDbEntity
  8
0
100
AcDbCircle
 10
191.45000000000002
 20
98.65
 30
0.0
 40
0.6
  0
CIRCLE
  5
88
330
17
100
AcDbEntity
  8
0
100
AcDbCircle
 10
343.30000000000007
 20
107.575
 30
0.0
 40
0.6
  0
LWPOLYLINE
  5
89
330
17
100
AcDbEntity
  8
0
100
AcDbPolyline
 90
4
 70
1
 10
226.45000000000002
 20
2.8
 10
226.45000000000002
 20
7.3
 10
216.45000000000002
 20
7.3
 10
216.45000000000002
 20
2.8
  0
LWPOLYLINE
  5
8A
330
17
100
AcDbEntity
  8
0
100
AcDbPolyline
 90
12
 70
1
 10
344.55000000000007
 20
100.375
 10
327.05000000000007
 20
100.375
 10
327.05000000000007
 20
95.375
 10
331.05000000000007
 20
95.375
 10
331.05000000000007
 20
99.77499999999999
 10
334.05000000000007
 20
99.77499999999999
 10
334.05000000000007
 20
79.97500000000001
 10
331.05000000000007
 20
79.97500000000001
 10
331.05000000000007
 20
84.375
 10
327.05000000000007
 20
84.375
 10
327.05000000000007
 20
79.375
 10
344.55000000000007
 20
79.375
  0
LWPOLYLINE
  5
8B
330
17
100
AcDbEntity
  8
0
100
AcDbPolyline
 90
7
 70
1
 10
2.8
 20
428.65000000000003
 10
28.8
 20
428.65000000000003
 10
177.65000000000003
 20
436.65000000000003
 10
177.65000000000003
 20
527.8000000000001
 10
157.65000000000003
 20
547.8000000000001
 10
17.8
 20
567.8000000000001
 10
2.8
 20
535.6323961923567
  0
CIRCLE
  5
8C
330
17
100
AcDbEntity
  8
0
100
AcDbCircle
 10
37.8
 20
435.85
 30
0.0
 40
0.6
  0
CIRCLE
  5
8D
330
17
100
AcDbEntity
  8
0
100
AcDbCircle
 10
174.65000000000003
 20
439.65000000000003
 30
0.0
 40
0.6
  0
CIRCLE
  5
8E
330
17
100
AcDbEntity
  8
0
100
AcDbCircle
 10
91.0
 20
551.7
 30
0.0
 40
0.6
  0
CIRCLE
  5
8F
330
17
100
AcDbEntity
  8
0
100
AcDbCircle
 10
13.8
 20
524.5
 30
0.0
 40
0.6
  0
CIRCLE
  5
90
330
17
100
AcDbEntity
  8
0
100
AcDbCircle
 10
165.65000000000003
 20
533.4250000000001
 30
0.0
 40
0.6
  0
LWPOLYLINE
  5
91
330
17
100
AcDbEntity
  8
0
100
AcDbPolyline
 90
7
 70
1
 10
180.45000000000002
 20
144.75
 10
206.45000000000002
 20
144.75
 10
355.30000000000007
 20
152.75
 10
355.30000000000007
 20
243.89999999999998
 10
335.30000000000007
 20
263.9
 10
195.45000000000002
 20
283.9
 10
180.45000000000002
 20
251.7323961923566
  0
LWPOLYLINE
  5
92
330
17
100
AcDbEntity
  8
0
100
AcDbPolyline
 90
24
 70
1
 10
208.85000000000002
 20
187.15
 10
227.90000000000003
 20
187.15
 10
227.90000000000003
 20
182.65
 10
246.95000000000002
 20
182.65
 10
246.95000000000002
 20
180.15
 10
266.0
 20
180.15
 10
266.0
 20
183.95
 10
285.05
 20
183.95
 10
285.05
 20
192.45
 10
304.1
 20
192.45
 10
304.1
 20
194.45
 10
323.15
 20
194.45
 10
323.15
 20
251.59999999999997
 10
304.1
 20
251.59999999999997
 10
304.1
 20
249.59999999999997
 10
285.05
 20
249.59999999999997
 10
285.05
 20
260.15
 10
266.0
 20
260.15
 10
266.0
 20
237.3
 10
246.95000000000002
 20
237.3
 10
246.95000000000002
 20
239.8
 10
227.90000000000003
 20
239.8
 10
227.90000000000003
 20
244.3
 10
208.85000000000002
 20
244.3
  0
LWPOLYLINE
  5
93
330
17
100
AcDbEntity
  8
0
100
AcDbPolyline
 90
4
 70
1
 10
202.91306352113384
 20
239.6425431317527
 10
217.00209982191438
 20
269.856578982087
 10
199.73693647886623
 20
277.9074568682473
 10
185.64790017808565
 20
247.693421017913
  0
LWPOLYLINE
  5
94
330
17
100
AcDbEntity
  8
0
100
AcDbPolyline
 90
4
 70
1
 10
187.8
 20
215.725
 10
206.85000000000002
 20
215.725
 10
206.85000000000002
 20
234.77499999999998
 10
187.8
 20
234.77499999999998
  0
LWPOLYLINE
  5
95
330
17
100
AcDbEntity
  8
0
100
AcDbPolyline
 90
4
 70
1
 10
236.19207285859193
 20
242.16832043188117
 10
255.05667956811885
 20
239.51707285859192
 10
257.7079271414081
 20
258.38167956811884
 10
238.84332043188118
 20
261.0329271414081
  0
LWPOLYLINE
  5
96
330
17
100
AcDbEntity
  8
0
100
AcDbPolyline
 90
4
 70
1
 10
213.28430509999512
 20
249.03980790919815
 10
231.68519209080188
 20
244.1093050999951
 10
236.6156949000049
 20
262.51019209080187
 10
218.21480790919816
 20
267.44069490000487
  0
LWPOLYLINE
  5
97
330
17
100
AcDbEntity
  8
0
100
AcDbPolyline
 90
4
 70
1
 10
208.85000000000002
 20
159.6
 10
227.90000000000003
 20
159.6
 10
227.90000000000003
 20
178.65
 10
208.85000000000002
 20
178.65
  0
LWPOLYLINE
  5
98
330
17
100
AcDbEntity
  8
0
100
AcDbPolyline
 90
4
 70
1
 10
227.90000000000003
 20
159.6
 10
246.95000000000002
 20
159.6
 10
246.95000000000002
 20
178.65
 10
227.90000000000003
 20
178.65
  0
LWPOLYLINE
  5
99
330
17
100
AcDbEntity
  8
0
100
AcDbPolyline
 90
4
 70
1
 10
246.95000000000002
 20
159.6
 10
266.0
 20
159.6
 10
266.0
 20
178.65
 10
246.95000000000002
 20
178.65
  0
LWPOLYLINE
  5
9A
330
17
100
AcDbEntity
  8
0
100
AcDbPolyline
 90
4
 70
1
 10
266.0
 20
159.6
 10
285.05
 20
159.6
 10
285.05
 20
178.65
 10
266.0
 20
178.65
  0
LWPOLYLINE
  5
9B
330
17
100
AcDbEntity
  8
0
100
AcDbPolyline
 90
4
 70
1
 10
285.05
 20
159.6
 10
304.1
 20
159.6
 10
304.1
 20
178.65
 10
285.05
 20
178.65
  0
LWPOLYLINE
  5
9C
330
17
100
AcDbEntity
  8
0
100
AcDbPolyline
 90
4
 70
1
 10
304.1
 20
159.6
 10
323.15
 20
159.6
 10
323.15
 20
178.65
 10
304.1
 20
178.65
  0
LWPOLYLINE
  5
9D
330
17
100
AcDbEntity
  8
0
100
AcDbPolyline
 90
4
 70
1
 10
330.15
 20
159.6
 10
349.20000000000005
 20
159.6
 10
349.20000000000005
 20
178.65
 10
330.15
 20
178.65
  0
LWPOLYLINE
  5
9E
330
17
100
AcDbEntity
  8
0
100
AcDbPolyline
 90
4
 70
1
 10
330.15
 20
178.65
 10
349.20000000000005
 20
178.65
 10
349.20000000000005
 20
197.7
 10
330.15
 20
197.7
  0
LWPOLYLINE
  5
9F
330
17
100
AcDbEntity
  8
0
100
AcDbPolyline
 90
4
 70
1
 10
330.15
 20
197.7
 10
349.20000000000005
 20
197.7
 10
349.20000000000005
 20
216.75
 10
330.15
 20
216.75
  0
LWPOLYLINE
  5
A0
330
17
100
AcDbEntity
  8
0
100
AcDbPolyline
 90
7
 70
1
 10
180.45000000000002
 20
286.7
 10
206.45000000000002
 20
286.7
 10
355.30000000000007
 20
294.7
 10
355.30000000000007
 20
385.85
 10
335.30000000000007
 20
405.85
 10
195.45000000000002
 20
425.85
 10
180.45000000000002
 20
393.68239619235663
  0
LWPOLYLINE
  5
A1
330
17
100
AcDbEntity
  8
0
100
AcDbPolyline
 90
24
 70
1
 10
208.85000000000002
 20
329.09999999999997
 10
227.90000000000003
 20
329.09999999999997
 10
227.90000000000003
 20
324.59999999999997
 10
246.95000000000002
 20
324.59999999999997
 10
246.95000000000002
 20
322.09999999999997
 10
266.0
 20
322.09999999999997
 10
266.0
 20
325.9
 10
285.05
 20
325.9
 10
285.05
 20
334.4
 10
304.1
 20
334.4
 10
304.1
 20
336.4
 10
323.15
 20
336.4
 10
323.15
 20
393.54999999999995
 10
304.1
 20
393.54999999999995
 10
304.1
 20
391.54999999999995
 10
285.05
 20
391.54999999999995
 10
285.05
 20
402.09999999999997
 10
266.0
 20
402.09999999999997
 10
266.0
 20
379.25
 10
246.95000000000002
 20
379.25
 10
246.95000000000002
 20
381.75
 10
227.90000000000003
 20
381.75
 10
227.90000000000003
 20
386.25
 10
208.85000000000002
 20
386.25
  0
LWPOLYLINE
  5
A2
330
17
100
AcDbEntity
  8
0
100
AcDbPolyline
 90
4
 70
1
 10
202.91306352113384
 20
381.5925431317527
 10
217.00209982191438
 20
411.806578982087
 10
199.73693647886623
 20
419.8574568682473
 10
185.64790017808565
 20
389.643421017913
  0
LWPOLYLINE
  5
A3
330
17
100
AcDbEntity
  8
0
100
AcDbPolyline
 90
4
 70
1
 10
187.8
 20
357.67499999999995
 10
206.85000000000002
 20
357.67499999999995
 10
206.85000000000002
 20
376.72499999999997
 10
187.8
 20
376.72499999999997
  0
LWPOLYLINE
  5
A4
330
17
100
AcDbEntity
  8
0
100
AcDbPolyline
 90
4
 70
1
 10
236.19207285859193
 20
384.11832043188116
 10
255.05667956811885
 20
381.4670728585919
 10
257.7079271414081
 20
400.33167956811883
 10
238.84332043188118
 20
402.9829271414081
  0
LWPOLYLINE
  5
A5
330
17
100
AcDbEntity
  8
0
100
AcDbPolyline
 90
4
 70
1
 10
213.28430509999512
 20
390.98980790919813
 10
231.68519209080188
 20
386.0593050999951
 10
236.6156949000049
 20
404.46019209080185
 10
218.21480790919816
 20
409.39069490000486
  0
LWPOLYLINE
  5
A6
330
17
100
AcDbEntity
  8
0
100
AcDbPolyline
 90
4
 70
1
 10
208.85000000000002
 20
301.55
 10
227.90000000000003
 20
301.55
 10
227.90000000000003
 20
320.59999999999997
 10
208.85000000000002
 20
320.59999999999997
  0
LWPOLYLINE
  5
A7
330
17
100
AcDbEntity
  8
0
100
AcDbPolyline
 90
4
 70
1
 10
227.90000000000003
 20
301.55
 10
246.95000000000002
 20
301.55
 10
246.95000000000002
 20
320.59999999999997
 10
227.90000000000003
 20
320.59999999999997
  0
LWPOLYLINE
  5
A8
330
17
100
AcDbEntity
  8
0
100
AcDbPolyline
 90
4
 70
1
 10
246.95000000000002
 20
301.55
 10
266.0
 20
301.55
 10
266.0
 20
320.59999999999997
 10
246.95000000000002
 20
320.59999999999997
  0
LWPOLYLINE
  5
A9
330
17
100
AcDbEntity
  8
0
100
AcDbPolyline
 90
4
 70
1
 10
266.0
 20
301.55
 10
285.05
 20
301.55
 10
285.05
 20
320.59999999999997
 10
266.0
 20
320.59999999999997
  0
LWPOLYLINE
  5
AA
330
17
100
AcDbEntity
  8
0
100
AcDbPolyline
 90
4
 70
1
 10
285.05
 20
301.55
 10
304.1
 20
301.55
 10
304.1
 20
320.59999999999997
 10
285.05
 20
320.59999999999997
  0
LWPOLYLINE
  5
AB
330
17
100
AcDbEntity
  8
0
100
AcDbPolyline
 90
4
 70
1
 10
304.1
 20
301.55
 10
323.15
 20
301.55
 10
323.15
 20
320.59999999999997
 10
304.1
 20
320.59999999999997
  0
LWPOLYLINE
  5
AC
330
17
100
AcDbEntity
  8
0
100
AcDbPolyline
 90
4
 70
1
 10
330.15
 20
301.55
 10
349.20000000000005
 20
301.55
 10
349.20000000000005
 20
320.59999999999997
 10
330.15
 20
320.59999999999997
  0
LWPOLYLINE
  5
AD
330
17
100
AcDbEntity
  8
0
100
AcDbPolyline
 90
4
 70
1
 10
330.15
 20
320.59999999999997
 10
349.20000000000005
 20
320.59999999999997
 10
349.20000000000005
 20
339.65
 10
330.15
 20
339.65
  0
LWPOLYLINE
  5
AE
330
17
100
AcDbEntity
  8
0
100
AcDbPolyline
 90
4
 70
1
 10
330.15
 20
339.65
 10
349.20000000000005
 20
339.65
 10
349.20000000000005
 20
358.7
 10
330.15
 20
358.7
  0
LWPOLYLINE
  5
AF
330
17
100
AcDbEntity
  8
0
100
AcDbPolyline
 90
12
 70
1
 10
344.55000000000007
 20
384.275
 10
327.05000000000007
 20
384.275
 10
327.05000000000007
 20
379.275
 10
331.05000000000007
 20
379.275
 10
331.05000000000007
 20
383.67499999999995
 10
334.05000000000007
 20
383.67499999999995
 10
334.05000000000007
 20
363.875
 10
331.05000000000007
 20
363.875
 10
331.05000000000007
 20
368.275
 10
327.05000000000007
 20
368.275
 10
327.05000000000007
 20
363.275
 10
344.55000000000007
 20
363.275
  0
LWPOLYLINE
  5
B0
330
17
100
AcDbEntity
  8
0
100
AcDbPolyline
 90
5
 70
1
 10
183.25000000000003
 20
570.6
 10
183.25000000000003
 20
584.25
 10
196.90000000000003
 20
584.25
 10
196.90000000000003
 20
570.6
 10
183.25000000000003
 20
570.6
  0
LWPOLYLINE
  5
B1
330
17
100
AcDbEntity
  8
0
100
AcDbPolyline
 90
5
 70
1
 10
202.30000000000004
 20
570.6
 10
202.30000000000004
 20
584.3000000000001
 10
216.00000000000003
 20
584.3000000000001
 10
216.00000000000003
 20
570.6
 10
202.30000000000004
 20
570.6
  0
LWPOLYLINE
  5
B2
330
17
100
AcDbEntity
  8
0
100
AcDbPolyline
 90
5
 70
1
 10
221.35000000000002
 20
570.6
 10
221.35000000000002
 20
584.35
 10
235.10000000000002
 20
584.35
 10
235.10000000000002
 20
570.6
 10
221.35000000000002
 20
570.6
  0
LWPOLYLINE
  5
B3
330
17
100
AcDbEntity
  8
0
100
AcDbPolyline
 90
5
 70
1
 10
240.40000000000003
 20
570.6
 10
240.40000000000003
 20
584.4
 10
254.20000000000005
 20
584.4
 10
254.20000000000005
 20
570.6
 10
240.40000000000003
 20
570.6
  0
LWPOLYLINE
  5
B4
330
17
100
AcDbEntity
  8
0
100
AcDbPolyline
 90
5
 70
1
 10
259.45000000000005
 20
570.6
 10
259.45000000000005
 20
584.45
 10
273.30000000000007
 20
584.45
 10
273.30000000000007
 20
570.6
 10
259.45000000000005
 20
570.6
  0
LWPOLYLINE
  5
B5
330
17
100
AcDbEntity
  8
0
100
AcDbPolyline
 90
5
 70
1
 10
278.5
 20
570.6
 10
278.5
 20
584.5500000000001
 10
292.45
 20
584.5500000000001
 10
292.45
 20
570.6
 10
278.5
 20
570.6
  0
LWPOLYLINE
  5
B6
330
17
100
AcDbEntity
  8
0
100
AcDbPolyline
 90
5
 70
1
 10
297.55000000000007
 20
570.6
 10
297.55000000000007
 20
584.65
 10
311.6000000000001
 20
584.65
 10
311.6000000000001
 20
570.6
 10
297.55000000000007
 20
570.6
  0
LWPOLYLINE
  5
B7
330
17
100
AcDbEntity
  8
0
100
AcDbPolyline
 90
5
 70
1
 10
316.6
 20
570.6
 10
316.6
 20
584.75
 10
330.75
 20
584.75
 10
330.75
 20
570.6
 10
316.6
 20
570.6
  0
LWPOLYLINE
  5
B8
330
17
100
AcDbEntity
  8
0
100
AcDbPolyline
 90
5
 70
1
 10
335.65000000000003
 20
570.6
 10
335.65000000000003
 20
584.85
 10
349.90000000000003
 20
584.85
 10
349.90000000000003
 20
570.6
 10
335.65000000000003
 20
570.6
  0
LWPOLYLINE
  5
B9
330
17
100
AcDbEntity
  8
0
100
AcDbPolyline
 90
5
 70
1
 10
354.70000000000005
 20
570.6
 10
354.70000000000005
 20
584.95
 10
369.05000000000007
 20
584.95
 10
369.05000000000007
 20
570.6
 10
354.70000000000005
 20
570.6
  0
ENDSEC
  0
SECTION
  2
OBJECTS
  0
DICTIONARY
  5
A
330
0
100
AcDbDictionary
280
0
281
1
  3
ACAD_COLOR
350
B
  3
ACAD_GROUP
350
C
  3
ACAD_LAYOUT
350
D
  3
ACAD_MATERIAL
350
E
  3
ACAD_MLEADERSTYLE
350
F
  3
ACAD_MLINESTYLE
350
10
  3
ACAD_PLOTSETTINGS
350
11
  3
ACAD_PLOTSTYLENAME
350
12
  3
ACAD_SCALELIST
350
14
  3
ACAD_TABLESTYLE
350
15
  3
ACAD_VISUALSTYLE
350
16
  3
EZDXF_META
350
2D
  0
DICTIONARY
  5
B
330
A
100
AcDbDictionary
280
0
281
1
  0
DICTIONARY
  5
C
330
A
100
AcDbDictionary
280
0
281
1
  0
DICTIONARY
  5
D
330
A
100
AcDbDictionary
280
0
281
1
  3
Model
350
1A
  3
Layout1
350
1E
  0
DICTIONARY
  5
E
330
A
100
AcDbDictionary
280
0
281
1
  3
ByBlock
350
1F
  3
ByLayer
350
20
  3
Global
350
21
  0
DICTIONARY
  5
F
330
A
100
AcDbDictionary
280
0
281
1
  3
Standard
350
2C
  0
DICTIONARY
  5
10
330
A
100
AcDbDictionary
280
0
281
1
  3
Standard
350
22
  0
DICTIONARY
  5
11
330
A
100
AcDbDictionary
280
0
281
1
  0
ACDBDICTIONARYWDFLT
  5
12
330
A
100
AcDbDictionary
280
0
281
1
  3
Normal
350
13
100
AcDbDictionaryWithDefault
340
13
  0
ACDBPLACEHOLDER
  5
13
330
12
  0
DICTIONARY
  5
14
330
A
100
AcDbDictionary
280
0
281
1
  0
DICTIONARY
  5
15
330
A
100
AcDbDictionary
280
0
281
1
  0
DICTIONARY
  5
16
330
A
100
AcDbDictionary
280
0
281
1
  0
LAYOUT
  5
1A
330
D
100
AcDbPlotSettings
  1

  4
A3
  6

 40
7.5
 41
20.0
 42
7.5
 43
20.0
 44
420.0
 45
297.0
 46
0.0
 47
0.0
 48
0.0
 49
0.0
140
0.0
141
0.0
142
1.0
143
1.0
 70
1024
 72
1
 73
0
 74
5
  7

 75
16
 76
0
 77
2
 78
300
147
1.0
148
0.0
149
0.0
100
AcDbLayout
  1
Model
 70
1
 71
0
 10
0.0
 20
0.0
 11
420.0
 21
297.0
 12
0.0
 22
0.0
 32
0.0
 14
1e+20
 24
1e+20
 34
1e+20
 15
-1e+20
 25
-1e+20
 35
-1e+20
146
0.0
 13
0.0
 23
0.0
 33
0.0
 16
1.0
 26
0.0
 36
0.0
 17
0.0
 27
1.0
 37
0.0
 76
1
330
17
  0
LAYOUT
  5
1E
330
D
100
AcDbPlotSettings
  1

  4
A3
  6

 40
7.5
 41
20.0
 42
7.5
 43
20.0
 44
420.0
 45
297.0
 46
0.0
 47
0.0
 48
0.0
 49
0.0
140
0.0
141
0.0
142
1.0
143
1.0
 70
0
 72
1
 73
0
 74
5
  7

 75
16
 76
0
 77
2
 78
300
147
1.0
148
0.0
149
0.0
100
AcDbLayout
  1
Layout1
 70
1
 71
1
 10
0.0
 20
0.0
 11
420.0
 21
297.0
 12
0.0
 22
0.0
 32
0.0
 14
1e+20
 24
1e+20
 34
1e+20
 15
-1e+20
 25
-1e+20
 35
-1e+20
146
0.0
 13
0.0
 23
0.0
 33
0.0
 16
1.0
 26
0.0
 36
0.0
 17
0.0
 27
1.0
 37
0.0
 76
1
330
1B
  0
MATERIAL
  5
1F
102
{ACAD_REACTORS
330
E
102
}
330
E
100
AcDbMaterial
  1
ByBlock
  2

 70
0
 40
1.0
 71
1
 41
1.0
 91
-1023410177
 42
1.0
 72
1
  3

 73
1
 74
1
 75
1
 44
0.5
 73
0
 45
1.0
 46
1.0
 77
1
  4

 78
1
 79
1
170
1
 48
1.0
171
1
  6

172
1
173
1
174
1
140
1.0
141
1.0
175
1
  7

176
1
177
1
178
1
143
1.0
179
1
  8

270
1
271
1
272
1
145
1.0
146
1.0
273
1
  9

274
1
275
1
276
1
 42
1.0
 72
1
  3

 73
1
 74
1
 75
1
 94
63
  0
MATERIAL
  5
20
102
{ACAD_REACTORS
330
E
102
}
330
E
100
AcDbMaterial
  1
ByLayer
  2

 70
0
 40
1.0
 71
1
 41
1.0
 91
-1023410177
 42
1.0
 72
1
  3

 73
1
 74
1
 75
1
 44
0.5
 73
0
 45
1.0
 46
1.0
 77
1
  4

 78
1
 79
1
170
1
 48
1.0
171
1
  6

172
1
173
1
174
1
140
1.0
141
1.0
175
1
  7

176
1
177
1
178
1
143
1.0
179
1
  8

270
1
271
1
272
1
145
1.0
146
1.0
273
1
  9

274
1
275
1
276
1
 42
1.0
 72
1
  3

 73
1
 74
1
 75
1
 94
63
  0
MATERIAL
  5
21
102
{ACAD_REACTORS
330
E
102
}
330
E
100
AcDbMaterial
  1
Global
  2

 70
0
 40
1.0
 71
1
 41
1.0
 91
-1023410177
 42
1.0
 72
1
  3

 73
1
 74
1
 75
1
 44
0.5
 73
0
 45
1.0
 46
1.0
 77
1
  4

 78
1
 79
1
170
1
 48
1.0
171
1
  6

172
1
173
1
174
1
140
1.0
141
1.0
175
1
  7

176
1
177
1
178
1
143
1.0
179
1
  8

270
1
271
1
272
1
145
1.0
146
1.0
273
1
  9

274
1
275
1
276
1
 42
1.0
 72
1
  3

 73
1
 74
1
 75
1
 94
63
  0
MLINESTYLE
  5
22
102
{ACAD_REACTORS
330
10
102
}
330
10
100
AcDbMlineStyle
  2
Standard
 70
0
  3

 62
256
 51
90.0
 52
90.0
 71
2
 49
0.5
 62
256
  6
BYLAYER
 49
-0.5
 62
256
  6
BYLAYER
  0
MLEADERSTYLE
  5
2C
102
{ACAD_REACTORS
330
F
102
}
330
F
100
AcDbMLeaderStyle
179
2
170
2
171
1
172
0
 90
2
 40
0.0
 41
0.0
173
1
 91
-1056964608
 92
-2
290
1
 42
2.0
291
1
 43
8.0
  3
Standard
 44
4.0
300

342
29
174
1
175
1
176
0
178
1
 93
-1056964608
 45
4.0
292
0
297
0
 46
4.0
 94
-1056964608
 47
1.0
 49
1.0
140
1.0
294
1
141
0.0
177
0
142
1.0
295
0
296
0
143
3.75
271
0
272
9
273
9
  0
DICTIONARY
  5
2D
330
A
100
AcDbDictionary
281
1
  3
CREATED_BY_EZDXF
350
2E
  3
WRITTEN_BY_EZDXF
350
BC
  0
DICTIONARYVAR
  5
2E
330
2D
100
DictionaryVariables
280
0
  1
1.3.3 @ 2024-10-14T00:53:30.666045+00:00
  0
DICTIONARYVAR
  5
BC
330
2D
100
DictionaryVariables
280
0
  1
1.3.3 @ 2024-10-14T00:53:30.676239+00:00
  0
ENDSEC
  0
EOF
