<?xml version="1.0" encoding="utf-8" ?>
<svg baseProfile="full" height="600mm" version="1.1" width="400mm" xmlns="http://www.w3.org/2000/svg" xmlns:ev="http://www.w3.org/2001/xml-events" xmlns:xlink="http://www.w3.org/1999/xlink"><defs /><polygon fill="none" points="10.5826,10.5826 108.84960000000001,10.5826 677.0974250000002,40.8186 677.0974250000002,385.3200250000001 601.5074250000001,460.9100250000001 67.27510000000001,536.500025 10.5826,414.9225664090119" stroke="#000000" /><polygon fill="none" points="117.9204,170.83339999999998 189.919875,170.83339999999998 189.919875,153.82565 261.91935,153.82565 261.91935,144.37689999999998 333.91882499999997,144.37689999999998 333.91882499999997,158.73899999999998 405.9183,158.73899999999998 405.9183,190.86475 477.91777499999995,190.86475 477.91777499999995,198.42374999999998 549.91725,198.42374999999998 549.91725,414.4221749999999 477.91777499999995,414.4221749999999 477.91777499999995,406.8631749999999 405.9183,406.8631749999999 405.9183,446.7369 333.91882499999997,446.7369 333.91882499999997,360.375325 261.91935,360.375325 261.91935,369.824075 189.919875,369.824075 189.919875,386.831825 117.9204,386.831825" stroke="#0000ff" /><polygon fill="none" points="95.48174857812525,369.2289667664593 148.7312612769254,483.4229152627978 83.47757642187482,513.8512082335408 30.228063723074655,399.6572597372022" stroke="#0000ff" /><polygon fill="none" points="38.36192499999999,278.8326125 110.3614,278.8326125 110.3614,350.83208749999994 38.36192499999999,350.83208749999994" stroke="#0000ff" /><polygon fill="none" points="221.25976436904816,377.8302670722949 292.55854542770516,367.80987686904814 302.5789356309519,439.1086579277051 231.28015457229486,449.12904813095184" stroke="#0000ff" /><polygon fill="none" points="134.6798561254315,404.74592899281436 204.22600850718564,386.1110936254315 222.86084387456847,455.6572460071857 153.31469149281435,474.29208137456845" stroke="#0000ff" /><polygon fill="none" points="117.9204,68.59792499999999 189.919875,68.59792499999999 189.919875,140.5974 117.9204,140.5974" stroke="#0000ff" /><polygon fill="none" points="189.919875,68.59792499999999 261.91935,68.59792499999999 261.91935,140.5974 189.919875,140.5974" stroke="#0000ff" /><polygon fill="none" points="261.91935,68.59792499999999 333.91882499999997,68.59792499999999 333.91882499999997,140.5974 261.91935,140.5974" stroke="#0000ff" /><polygon fill="none" points="333.91882499999997,68.59792499999999 405.9183,68.59792499999999 405.9183,140.5974 333.91882499999997,140.5974" stroke="#0000ff" /><polygon fill="none" points="405.9183,68.59792499999999 477.91777499999995,68.59792499999999 477.91777499999995,140.5974 405.9183,140.5974" stroke="#0000ff" /><polygon fill="none" points="477.91777499999995,68.59792499999999 549.91725,68.59792499999999 549.91725,140.5974 477.91777499999995,140.5974" stroke="#0000ff" /><polygon fill="none" points="10.5826,10.5826 108.84960000000001,10.5826 677.0974250000002,40.8186 677.0974250000002,385.3200250000001 601.5074250000001,460.9100250000001 67.27510000000001,536.500025 10.5826,414.9225664090119" stroke="#000000" /><circle cx="37.8mm" cy="10.0mm" fill="none" r="0.9" stroke="#0000ff" /><circle cx="173.15000000000003mm" cy="16.8mm" fill="none" r="0.9" stroke="#0000ff" /><circle cx="100.525mm" cy="120.85mm" fill="none" r="0.9" stroke="#0000ff" /><circle cx="13.8mm" cy="98.65mm" fill="none" r="0.9" stroke="#0000ff" /><polygon fill="none" points="33.259600000000006,33.259600000000006 52.15710000000001,33.259600000000006 52.15710000000001,10.5826 10.5826,10.5826 10.5826,414.9225664090119 67.27510000000001,536.500025 601.5074250000001,460.9100250000001 677.0974250000002,385.3200250000001 677.0974250000002,40.8186 108.84960000000001,10.5826 108.84960000000001,10.5826 108.84960000000001,33.259600000000006 116.4086,33.259600000000006 116.4086,63.4956 271.935025,33.259600000000006 555.019575,63.4956 555.019575,271.36809999999997 654.4204250000001,362.6430250000001 578.8304250000001,438.23302500000005 343.9345,420.75283749999994 343.9345,456.752575 89.9521,513.823025 33.259600000000006,392.2455664090119 71.05460000000001,392.2455664090119 71.05460000000001,354.4505664090119 33.259600000000006,354.4505664090119" stroke="#000000" /><circle cx="37.8mm" cy="10.0mm" fill="none" r="0.9" stroke="#0000ff" /><circle cx="173.15000000000003mm" cy="16.8mm" fill="none" r="0.9" stroke="#0000ff" /><circle cx="100.525mm" cy="120.85mm" fill="none" r="0.9" stroke="#0000ff" /><circle cx="13.8mm" cy="98.65mm" fill="none" r="0.9" stroke="#0000ff" /><polygon fill="none" points="654.4204250000001,221.43145625 582.6099250000001,221.43145625 582.6099250000001,202.53395625 597.7279250000001,202.53395625 597.7279250000001,219.16375625 609.0664250000001,219.16375625 609.0664250000001,144.32965625 597.7279250000001,144.32965625 597.7279250000001,160.95945625 582.6099250000001,160.95945625 582.6099250000001,142.06195625 654.4204250000001,142.06195625" stroke="#0000ff" /><polygon fill="none" points="33.259600000000006,33.259600000000006 52.15710000000001,33.259600000000006 52.15710000000001,10.5826 10.5826,10.5826 10.5826,414.9225664090119 67.27510000000001,536.500025 601.5074250000001,460.9100250000001 677.0974250000002,385.3200250000001 677.0974250000002,40.8186 108.84960000000001,10.5826 108.84960000000001,10.5826 108.84960000000001,33.259600000000006 116.4086,33.259600000000006 116.4086,63.4956 271.935025,33.259600000000006 555.019575,63.4956 555.019575,115.46372500000001 654.4204250000001,115.46372500000001 654.4204250000001,362.6430250000001 578.8304250000001,438.23302500000005 343.9345,420.75283749999994 343.9345,456.752575 89.9521,513.823025 33.259600000000006,392.2455664090119 71.05460000000001,392.2455664090119 71.05460000000001,354.4505664090119 33.259600000000006,354.4505664090119" stroke="#000000" /><circle cx="37.8mm" cy="10.0mm" fill="none" r="0.9" stroke="#0000ff" /><circle cx="173.15000000000003mm" cy="16.8mm" fill="none" r="0.9" stroke="#0000ff" /><circle cx="100.525mm" cy="120.85mm" fill="none" r="0.9" stroke="#0000ff" /><circle cx="13.8mm" cy="98.65mm" fill="none" r="0.9" stroke="#0000ff" /><rect fill="none" height="15.75mm" rx="0.01mm" ry="0.01mm" stroke="#0000ff" width="15.75mm" x="32.85mm" y="46.849999999999994mm" /><rect fill="none" height="15.75mm" rx="0.01mm" ry="0.01mm" stroke="#0000ff" width="15.75mm" x="32.85mm" y="65.89999999999999mm" /><rect fill="none" height="15.75mm" rx="0.01mm" ry="0.01mm" stroke="#0000ff" width="15.75mm" x="32.85mm" y="84.95mm" /><rect fill="none" height="15.75mm" rx="0.01mm" ry="0.01mm" stroke="#0000ff" width="15.75mm" x="51.9mm" y="42.349999999999994mm" /><rect fill="none" height="15.75mm" rx="0.01mm" ry="0.01mm" stroke="#0000ff" width="15.75mm" x="51.9mm" y="61.39999999999999mm" /><rect fill="none" height="15.75mm" rx="0.01mm" ry="0.01mm" stroke="#0000ff" width="15.75mm" x="51.9mm" y="80.45mm" /><rect fill="none" height="15.75mm" rx="0.01mm" ry="0.01mm" stroke="#0000ff" width="15.75mm" x="70.95mm" y="39.849999999999994mm" /><rect fill="none" height="15.75mm" rx="0.01mm" ry="0.01mm" stroke="#0000ff" width="15.75mm" x="70.95mm" y="58.89999999999999mm" /><rect fill="none" height="15.75mm" rx="0.01mm" ry="0.01mm" stroke="#0000ff" width="15.75mm" x="70.95mm" y="77.95mm" /><rect fill="none" height="15.75mm" rx="0.01mm" ry="0.01mm" stroke="#0000ff" width="15.75mm" x="90.0mm" y="43.64999999999999mm" /><rect fill="none" height="15.75mm" rx="0.01mm" ry="0.01mm" stroke="#0000ff" width="15.75mm" x="90.0mm" y="62.69999999999999mm" /><rect fill="none" height="15.75mm" rx="0.01mm" ry="0.01mm" stroke="#0000ff" width="15.75mm" x="90.0mm" y="81.74999999999999mm" /><rect fill="none" height="15.75mm" rx="0.01mm" ry="0.01mm" stroke="#0000ff" width="15.75mm" x="90.0mm" y="100.8mm" /><rect fill="none" height="15.75mm" rx="0.01mm" ry="0.01mm" stroke="#0000ff" width="15.75mm" x="109.05mm" y="52.14999999999999mm" /><rect fill="none" height="15.75mm" rx="0.01mm" ry="0.01mm" stroke="#0000ff" width="15.75mm" x="109.05mm" y="71.19999999999999mm" /><rect fill="none" height="15.75mm" rx="0.01mm" ry="0.01mm" stroke="#0000ff" width="15.75mm" x="109.05mm" y="90.24999999999999mm" /><rect fill="none" height="15.75mm" rx="0.01mm" ry="0.01mm" stroke="#0000ff" width="15.75mm" x="128.1mm" y="54.14999999999999mm" /><rect fill="none" height="15.75mm" rx="0.01mm" ry="0.01mm" stroke="#0000ff" width="15.75mm" x="128.1mm" y="73.19999999999999mm" /><rect fill="none" height="15.75mm" rx="0.01mm" ry="0.01mm" stroke="#0000ff" width="15.75mm" x="128.1mm" y="92.24999999999999mm" /><rect fill="none" height="15.75mm" rx="0.01mm" ry="0.01mm" stroke="#0000ff" transform="rotate(65, 89.4796625, 441.5400875)" width="15.75mm" x="15.8mm" y="108.95mm" /><rect fill="none" height="15.75mm" rx="0.01mm" ry="0.01mm" stroke="#0000ff" transform="rotate(0, 74.36166250000001, 314.83235)" width="15.75mm" x="11.8mm" y="75.425mm" /><rect fill="none" height="15.75mm" rx="0.01mm" ry="0.01mm" stroke="#0000ff" transform="rotate(-8, 261.91935, 408.4694625)" width="15.75mm" x="61.425mm" y="100.2mm" /><rect fill="none" height="15.75mm" rx="0.01mm" ry="0.01mm" stroke="#0000ff" transform="rotate(-15, 178.77034999999998, 430.2015875)" width="15.75mm" x="39.425mm" y="105.95mm" /><rect fill="none" height="15.75mm" rx="0.01mm" ry="0.01mm" stroke="#0000ff" transform="rotate(0, 153.9201375, 104.5976625)" width="15.75mm" x="32.85mm" y="19.8mm" /><rect fill="none" height="15.75mm" rx="0.01mm" ry="0.01mm" stroke="#0000ff" transform="rotate(0, 225.9196125, 104.5976625)" width="15.75mm" x="51.9mm" y="19.8mm" /><rect fill="none" height="15.75mm" rx="0.01mm" ry="0.01mm" stroke="#0000ff" transform="rotate(0, 297.9190875, 104.5976625)" width="15.75mm" x="70.95mm" y="19.8mm" /><rect fill="none" height="15.75mm" rx="0.01mm" ry="0.01mm" stroke="#0000ff" transform="rotate(0, 369.9185625, 104.5976625)" width="15.75mm" x="90.0mm" y="19.8mm" /><rect fill="none" height="15.75mm" rx="0.01mm" ry="0.01mm" stroke="#0000ff" transform="rotate(0, 441.9180375, 104.5976625)" width="15.75mm" x="109.05mm" y="19.8mm" /><rect fill="none" height="15.75mm" rx="0.01mm" ry="0.01mm" stroke="#0000ff" transform="rotate(0, 513.9175125, 104.5976625)" width="15.75mm" x="128.1mm" y="19.8mm" /><polygon fill="none" points="10.5826,10.5826 52.15710000000001,10.5826 52.15710000000001,33.259600000000006 44.5981,33.259600000000006 44.5981,125.85735 116.4086,125.85735 116.4086,33.259600000000006 108.84960000000001,33.259600000000006 108.84960000000001,10.5826 677.0974250000002,40.8186 677.0974250000002,385.3200250000001 601.5074250000001,460.9100250000001 67.27510000000001,536.500025 10.5826,414.9225664090119" stroke="#000000" /><circle cx="37.8mm" cy="10.0mm" fill="none" r="0.9" stroke="#0000ff" /><circle cx="173.15000000000003mm" cy="16.8mm" fill="none" r="0.9" stroke="#0000ff" /><circle cx="100.525mm" cy="120.85mm" fill="none" r="0.9" stroke="#0000ff" /><circle cx="13.8mm" cy="98.65mm" fill="none" r="0.9" stroke="#0000ff" /><polygon fill="none" points="654.4204250000001,221.43145625 582.6099250000001,221.43145625 582.6099250000001,202.53395625 597.7279250000001,202.53395625 597.7279250000001,219.16375625 609.0664250000001,219.16375625 609.0664250000001,144.32965625 597.7279250000001,144.32965625 597.7279250000001,160.95945625 582.6099250000001,160.95945625 582.6099250000001,142.06195625 654.4204250000001,142.06195625" stroke="#0000ff" /><rect fill="none" height="13.75mm" rx="0.01mm" ry="0.01mm" stroke="#0000ff" width="13.75mm" x="33.85mm" y="47.849999999999994mm" /><rect fill="none" height="13.75mm" rx="0.01mm" ry="0.01mm" stroke="#0000ff" width="13.75mm" x="33.85mm" y="66.89999999999999mm" /><rect fill="none" height="13.75mm" rx="0.01mm" ry="0.01mm" stroke="#0000ff" width="13.75mm" x="33.85mm" y="85.95mm" /><rect fill="none" height="13.75mm" rx="0.01mm" ry="0.01mm" stroke="#0000ff" width="13.75mm" x="52.9mm" y="43.349999999999994mm" /><rect fill="none" height="13.75mm" rx="0.01mm" ry="0.01mm" stroke="#0000ff" width="13.75mm" x="52.9mm" y="62.39999999999999mm" /><rect fill="none" height="13.75mm" rx="0.01mm" ry="0.01mm" stroke="#0000ff" width="13.75mm" x="52.9mm" y="81.45mm" /><rect fill="none" height="13.75mm" rx="0.01mm" ry="0.01mm" stroke="#0000ff" width="13.75mm" x="71.95mm" y="40.849999999999994mm" /><rect fill="none" height="13.75mm" rx="0.01mm" ry="0.01mm" stroke="#0000ff" width="13.75mm" x="71.95mm" y="59.89999999999999mm" /><rect fill="none" height="13.75mm" rx="0.01mm" ry="0.01mm" stroke="#0000ff" width="13.75mm" x="71.95mm" y="78.95mm" /><rect fill="none" height="13.75mm" rx="0.01mm" ry="0.01mm" stroke="#0000ff" width="13.75mm" x="91.0mm" y="44.64999999999999mm" /><rect fill="none" height="13.75mm" rx="0.01mm" ry="0.01mm" stroke="#0000ff" width="13.75mm" x="91.0mm" y="63.69999999999999mm" /><rect fill="none" height="13.75mm" rx="0.01mm" ry="0.01mm" stroke="#0000ff" width="13.75mm" x="91.0mm" y="82.74999999999999mm" /><rect fill="none" height="13.75mm" rx="0.01mm" ry="0.01mm" stroke="#0000ff" width="13.75mm" x="91.0mm" y="101.8mm" /><rect fill="none" height="13.75mm" rx="0.01mm" ry="0.01mm" stroke="#0000ff" width="13.75mm" x="110.05mm" y="53.14999999999999mm" /><rect fill="none" height="13.75mm" rx="0.01mm" ry="0.01mm" stroke="#0000ff" width="13.75mm" x="110.05mm" y="72.19999999999999mm" /><rect fill="none" height="13.75mm" rx="0.01mm" ry="0.01mm" stroke="#0000ff" width="13.75mm" x="110.05mm" y="91.24999999999999mm" /><rect fill="none" height="13.75mm" rx="0.01mm" ry="0.01mm" stroke="#0000ff" width="13.75mm" x="129.1mm" y="55.14999999999999mm" /><rect fill="none" height="13.75mm" rx="0.01mm" ry="0.01mm" stroke="#0000ff" width="13.75mm" x="129.1mm" y="74.19999999999999mm" /><rect fill="none" height="13.75mm" rx="0.01mm" ry="0.01mm" stroke="#0000ff" width="13.75mm" x="129.1mm" y="93.24999999999999mm" /><rect fill="none" height="13.75mm" rx="0.01mm" ry="0.01mm" stroke="#0000ff" transform="rotate(65, 89.4796625, 441.5400875)" width="13.75mm" x="16.8mm" y="109.95mm" /><rect fill="none" height="13.75mm" rx="0.01mm" ry="0.01mm" stroke="#0000ff" transform="rotate(0, 74.36166250000001, 314.83235)" width="13.75mm" x="12.8mm" y="76.425mm" /><rect fill="none" height="13.75mm" rx="0.01mm" ry="0.01mm" stroke="#0000ff" transform="rotate(-8, 261.91935, 408.4694625)" width="13.75mm" x="62.425mm" y="101.2mm" /><rect fill="none" height="13.75mm" rx="0.01mm" ry="0.01mm" stroke="#0000ff" transform="rotate(-15, 178.77034999999998, 430.2015875)" width="13.75mm" x="40.425mm" y="106.95mm" /><rect fill="none" height="13.75mm" rx="0.01mm" ry="0.01mm" stroke="#0000ff" transform="rotate(0, 153.9201375, 104.5976625)" width="13.75mm" x="33.85mm" y="20.8mm" /><rect fill="none" height="13.75mm" rx="0.01mm" ry="0.01mm" stroke="#0000ff" transform="rotate(0, 225.9196125, 104.5976625)" width="13.75mm" x="52.9mm" y="20.8mm" /><rect fill="none" height="13.75mm" rx="0.01mm" ry="0.01mm" stroke="#0000ff" transform="rotate(0, 297.9190875, 104.5976625)" width="13.75mm" x="71.95mm" y="20.8mm" /><rect fill="none" height="13.75mm" rx="0.01mm" ry="0.01mm" stroke="#0000ff" transform="rotate(0, 369.9185625, 104.5976625)" width="13.75mm" x="91.0mm" y="20.8mm" /><rect fill="none" height="13.75mm" rx="0.01mm" ry="0.01mm" stroke="#0000ff" transform="rotate(0, 441.9180375, 104.5976625)" width="13.75mm" x="110.05mm" y="20.8mm" /><rect fill="none" height="13.75mm" rx="0.01mm" ry="0.01mm" stroke="#0000ff" transform="rotate(0, 513.9175125, 104.5976625)" width="13.75mm" x="129.1mm" y="20.8mm" /><polygon fill="none" points="10.5826,10.5826 52.15710000000001,10.5826 52.15710000000001,33.259600000000006 44.5981,33.259600000000006 44.5981,125.85735 116.4086,125.85735 116.4086,33.259600000000006 108.84960000000001,33.259600000000006 108.84960000000001,10.5826 677.0974250000002,40.8186 677.0974250000002,385.3200250000001 601.5074250000001,460.9100250000001 67.27510000000001,536.500025 10.5826,414.9225664090119" stroke="#000000" /><polygon fill="none" points="654.4204250000001,221.43145625 582.6099250000001,221.43145625 582.6099250000001,202.53395625 597.7279250000001,202.53395625 597.7279250000001,219.16375625 609.0664250000001,219.16375625 609.0664250000001,144.32965625 597.7279250000001,144.32965625 597.7279250000001,160.95945625 582.6099250000001,160.95945625 582.6099250000001,142.06195625 654.4204250000001,142.06195625" stroke="#0000ff" /></svg>