<?xml version="1.0" encoding="utf-8" ?>
<svg baseProfile="full" height="600mm" version="1.1" width="400mm" xmlns="http://www.w3.org/2000/svg" xmlns:ev="http://www.w3.org/2001/xml-events" xmlns:xlink="http://www.w3.org/1999/xlink"><defs /><rect fill="none" height="14.05mm" rx="0.01mm" ry="0.01mm" stroke="#0000ff" width="14.05mm" x="33.85mm" y="45.849999999999994mm" /><rect fill="none" height="14.05mm" rx="0.01mm" ry="0.01mm" stroke="#0000ff" width="14.05mm" x="33.85mm" y="64.89999999999999mm" /><rect fill="none" height="14.05mm" rx="0.01mm" ry="0.01mm" stroke="#0000ff" width="14.05mm" x="33.85mm" y="83.95mm" /><rect fill="none" height="14.05mm" rx="0.01mm" ry="0.01mm" stroke="#0000ff" width="14.05mm" x="52.9mm" y="43.349999999999994mm" /><rect fill="none" height="14.05mm" rx="0.01mm" ry="0.01mm" stroke="#0000ff" width="14.05mm" x="52.9mm" y="62.39999999999999mm" /><rect fill="none" height="14.05mm" rx="0.01mm" ry="0.01mm" stroke="#0000ff" width="14.05mm" x="52.9mm" y="81.45mm" /><rect fill="none" height="14.05mm" rx="0.01mm" ry="0.01mm" stroke="#0000ff" width="14.05mm" x="71.95mm" y="40.849999999999994mm" /><rect fill="none" height="14.05mm" rx="0.01mm" ry="0.01mm" stroke="#0000ff" width="14.05mm" x="71.95mm" y="59.89999999999999mm" /><rect fill="none" height="14.05mm" rx="0.01mm" ry="0.01mm" stroke="#0000ff" width="14.05mm" x="71.95mm" y="78.95mm" /><rect fill="none" height="14.05mm" rx="0.01mm" ry="0.01mm" stroke="#0000ff" width="14.05mm" x="91.0mm" y="43.449999999999996mm" /><rect fill="none" height="14.05mm" rx="0.01mm" ry="0.01mm" stroke="#0000ff" width="14.05mm" x="91.0mm" y="62.5mm" /><rect fill="none" height="14.05mm" rx="0.01mm" ry="0.01mm" stroke="#0000ff" width="14.05mm" x="91.0mm" y="81.55mm" /><rect fill="none" height="14.05mm" rx="0.01mm" ry="0.01mm" stroke="#0000ff" width="14.05mm" x="110.05mm" y="47.949999999999996mm" /><rect fill="none" height="14.05mm" rx="0.01mm" ry="0.01mm" stroke="#0000ff" width="14.05mm" x="110.05mm" y="67.0mm" /><rect fill="none" height="14.05mm" rx="0.01mm" ry="0.01mm" stroke="#0000ff" width="14.05mm" x="110.05mm" y="86.05mm" /><rect fill="none" height="14.05mm" rx="0.01mm" ry="0.01mm" stroke="#0000ff" width="14.05mm" x="129.1mm" y="47.949999999999996mm" /><rect fill="none" height="14.05mm" rx="0.01mm" ry="0.01mm" stroke="#0000ff" width="14.05mm" x="129.1mm" y="67.0mm" /><rect fill="none" height="14.05mm" rx="0.01mm" ry="0.01mm" stroke="#0000ff" width="14.05mm" x="129.1mm" y="86.05mm" /><rect fill="none" height="14.05mm" rx="0.01mm" ry="0.01mm" stroke="#0000ff" transform="rotate(65, 90.04658750000002, 435.6818625)" width="14.05mm" x="16.8mm" y="108.25mm" /><rect fill="none" height="14.05mm" rx="0.01mm" ry="0.01mm" stroke="#0000ff" transform="rotate(0, 74.9285875, 307.840275)" width="14.05mm" x="12.8mm" y="74.425mm" /><rect fill="none" height="14.05mm" rx="0.01mm" ry="0.01mm" stroke="#0000ff" transform="rotate(0, 262.48627500000003, 410.17023750000004)" width="14.05mm" x="62.425mm" y="101.5mm" /><rect fill="none" height="14.05mm" rx="0.01mm" ry="0.01mm" stroke="#0000ff" transform="rotate(-15, 179.33727499999998, 424.3433625)" width="14.05mm" x="40.425mm" y="105.25mm" /><rect fill="none" height="14.05mm" rx="0.01mm" ry="0.01mm" stroke="#0000ff" transform="rotate(0, 154.4870625, 105.16458750000001)" width="14.05mm" x="33.85mm" y="20.8mm" /><rect fill="none" height="14.05mm" rx="0.01mm" ry="0.01mm" stroke="#0000ff" transform="rotate(0, 226.4865375, 105.16458750000001)" width="14.05mm" x="52.9mm" y="20.8mm" /><rect fill="none" height="14.05mm" rx="0.01mm" ry="0.01mm" stroke="#0000ff" transform="rotate(0, 298.4860125, 105.16458750000001)" width="14.05mm" x="71.95mm" y="20.8mm" /><rect fill="none" height="14.05mm" rx="0.01mm" ry="0.01mm" stroke="#0000ff" transform="rotate(0, 370.48548750000003, 105.16458750000001)" width="14.05mm" x="91.0mm" y="20.8mm" /><rect fill="none" height="14.05mm" rx="0.01mm" ry="0.01mm" stroke="#0000ff" transform="rotate(0, 442.4849625, 105.16458750000001)" width="14.05mm" x="110.05mm" y="20.8mm" /><rect fill="none" height="14.05mm" rx="0.01mm" ry="0.01mm" stroke="#0000ff" transform="rotate(0, 514.4844375, 105.16458750000001)" width="14.05mm" x="129.1mm" y="20.8mm" /><polygon fill="none" points="10.5826,10.5826 52.15710000000001,10.5826 52.15710000000001,33.259600000000006 44.5981,33.259600000000006 44.5981,125.85735 116.4086,125.85735 116.4086,33.259600000000006 108.84960000000001,33.259600000000006 108.84960000000001,10.5826 706.1995750000001,40.8186 706.1995750000001,378.894875 630.6095750000001,454.484875 67.27510000000001,530.074875 10.5826,408.4974164090118" stroke="#000000" /><polygon fill="none" points="683.5225750000001,219.82516875 582.6099250000001,219.82516875 582.6099250000001,200.92766874999998 619.2710750000001,200.92766874999998 619.2710750000001,217.55746874999997 638.1685750000001,217.55746874999997 638.1685750000001,142.72336875 619.2710750000001,142.72336875 619.2710750000001,159.35316874999998 582.6099250000001,159.35316874999998 582.6099250000001,140.45566874999997 683.5225750000001,140.45566874999997" stroke="#0000ff" /><rect fill="none" height="16.05mm" rx="0.01mm" ry="0.01mm" stroke="#0000ff" width="16.05mm" x="32.85mm" y="185.09999999999997mm" /><rect fill="none" height="16.05mm" rx="0.01mm" ry="0.01mm" stroke="#0000ff" width="16.05mm" x="32.85mm" y="204.14999999999998mm" /><rect fill="none" height="16.05mm" rx="0.01mm" ry="0.01mm" stroke="#0000ff" width="16.05mm" x="32.85mm" y="223.2mm" /><rect fill="none" height="16.05mm" rx="0.01mm" ry="0.01mm" stroke="#0000ff" width="16.05mm" x="51.9mm" y="182.59999999999997mm" /><rect fill="none" height="16.05mm" rx="0.01mm" ry="0.01mm" stroke="#0000ff" width="16.05mm" x="51.9mm" y="201.64999999999998mm" /><rect fill="none" height="16.05mm" rx="0.01mm" ry="0.01mm" stroke="#0000ff" width="16.05mm" x="51.9mm" y="220.7mm" /><rect fill="none" height="16.05mm" rx="0.01mm" ry="0.01mm" stroke="#0000ff" width="16.05mm" x="70.95mm" y="180.09999999999997mm" /><rect fill="none" height="16.05mm" rx="0.01mm" ry="0.01mm" stroke="#0000ff" width="16.05mm" x="70.95mm" y="199.14999999999998mm" /><rect fill="none" height="16.05mm" rx="0.01mm" ry="0.01mm" stroke="#0000ff" width="16.05mm" x="70.95mm" y="218.2mm" /><rect fill="none" height="16.05mm" rx="0.01mm" ry="0.01mm" stroke="#0000ff" width="16.05mm" x="90.0mm" y="182.7mm" /><rect fill="none" height="16.05mm" rx="0.01mm" ry="0.01mm" stroke="#0000ff" width="16.05mm" x="90.0mm" y="201.75mm" /><rect fill="none" height="16.05mm" rx="0.01mm" ry="0.01mm" stroke="#0000ff" width="16.05mm" x="90.0mm" y="220.79999999999998mm" /><rect fill="none" height="16.05mm" rx="0.01mm" ry="0.01mm" stroke="#0000ff" width="16.05mm" x="109.05mm" y="187.2mm" /><rect fill="none" height="16.05mm" rx="0.01mm" ry="0.01mm" stroke="#0000ff" width="16.05mm" x="109.05mm" y="206.25mm" /><rect fill="none" height="16.05mm" rx="0.01mm" ry="0.01mm" stroke="#0000ff" width="16.05mm" x="109.05mm" y="225.29999999999998mm" /><rect fill="none" height="16.05mm" rx="0.01mm" ry="0.01mm" stroke="#0000ff" width="16.05mm" x="128.1mm" y="187.2mm" /><rect fill="none" height="16.05mm" rx="0.01mm" ry="0.01mm" stroke="#0000ff" width="16.05mm" x="128.1mm" y="206.25mm" /><rect fill="none" height="16.05mm" rx="0.01mm" ry="0.01mm" stroke="#0000ff" width="16.05mm" x="128.1mm" y="225.29999999999998mm" /><rect fill="none" height="16.05mm" rx="0.01mm" ry="0.01mm" stroke="#0000ff" transform="rotate(65, 90.04658750000002, 965.7567375)" width="16.05mm" x="15.8mm" y="247.5mm" /><rect fill="none" height="16.05mm" rx="0.01mm" ry="0.01mm" stroke="#0000ff" transform="rotate(0, 74.9285875, 837.9151499999999)" width="16.05mm" x="11.8mm" y="213.67499999999998mm" /><rect fill="none" height="16.05mm" rx="0.01mm" ry="0.01mm" stroke="#0000ff" transform="rotate(0, 262.48627500000003, 940.2451125)" width="16.05mm" x="61.425mm" y="240.75mm" /><rect fill="none" height="16.05mm" rx="0.01mm" ry="0.01mm" stroke="#0000ff" transform="rotate(-15, 179.33727499999998, 954.4182375)" width="16.05mm" x="39.425mm" y="244.5mm" /><rect fill="none" height="16.05mm" rx="0.01mm" ry="0.01mm" stroke="#0000ff" transform="rotate(0, 154.4870625, 635.2394625)" width="16.05mm" x="32.85mm" y="160.04999999999998mm" /><rect fill="none" height="16.05mm" rx="0.01mm" ry="0.01mm" stroke="#0000ff" transform="rotate(0, 226.4865375, 635.2394625)" width="16.05mm" x="51.9mm" y="160.04999999999998mm" /><rect fill="none" height="16.05mm" rx="0.01mm" ry="0.01mm" stroke="#0000ff" transform="rotate(0, 298.4860125, 635.2394625)" width="16.05mm" x="70.95mm" y="160.04999999999998mm" /><rect fill="none" height="16.05mm" rx="0.01mm" ry="0.01mm" stroke="#0000ff" transform="rotate(0, 370.48548750000003, 635.2394625)" width="16.05mm" x="90.0mm" y="160.04999999999998mm" /><rect fill="none" height="16.05mm" rx="0.01mm" ry="0.01mm" stroke="#0000ff" transform="rotate(0, 442.4849625, 635.2394625)" width="16.05mm" x="109.05mm" y="160.04999999999998mm" /><rect fill="none" height="16.05mm" rx="0.01mm" ry="0.01mm" stroke="#0000ff" transform="rotate(0, 514.4844375, 635.2394625)" width="16.05mm" x="128.1mm" y="160.04999999999998mm" /><polygon fill="none" points="10.5826,540.657475 52.15710000000001,540.657475 52.15710000000001,563.334475 44.5981,563.334475 44.5981,655.9322249999999 116.4086,655.9322249999999 116.4086,563.334475 108.84960000000001,563.334475 108.84960000000001,540.657475 706.1995750000001,570.893475 706.1995750000001,908.96975 630.6095750000001,984.55975 67.27510000000001,1060.14975 10.5826,938.5722914090119" stroke="#000000" /><circle cx="37.8mm" cy="150.24999999999997mm" fill="none" r="0.9" stroke="#0000ff" /><circle cx="180.85000000000002mm" cy="157.04999999999998mm" fill="none" r="0.9" stroke="#0000ff" /><circle cx="100.525mm" cy="259.9mm" fill="none" r="0.9" stroke="#0000ff" /><circle cx="13.8mm" cy="236.89999999999998mm" fill="none" r="0.9" stroke="#0000ff" /><polygon fill="none" points="683.5225750000001,749.9000437499999 582.6099250000001,749.9000437499999 582.6099250000001,731.0025437499999 619.2710750000001,731.0025437499999 619.2710750000001,747.6323437499999 638.1685750000001,747.6323437499999 638.1685750000001,672.79824375 619.2710750000001,672.79824375 619.2710750000001,689.4280437499999 582.6099250000001,689.4280437499999 582.6099250000001,670.5305437499999 683.5225750000001,670.5305437499999" stroke="#0000ff" /><polygon fill="none" points="33.259600000000006,1093.40935 52.15710000000001,1093.40935 52.15710000000001,1070.7323499999998 10.5826,1070.7323499999998 10.5826,1468.6471664090116 67.27510000000001,1590.2246249999998 630.6095750000001,1514.634625 706.1995750000001,1439.0446249999998 706.1995750000001,1100.9683499999999 108.84960000000001,1070.7323499999998 108.84960000000001,1070.7323499999998 108.84960000000001,1093.40935 116.4086,1093.40935 116.4086,1123.6453499999998 271.935025,1093.40935 556.1534250000001,1123.6453499999998 556.1534250000001,1176.7473249999998 683.5225750000001,1176.7473249999998 683.5225750000001,1416.3676249999999 607.932575,1491.9576249999998 343.9345,1476.3671874999998 343.9345,1512.3669249999998 89.9521,1567.547625 33.259600000000006,1445.9701664090117 71.05460000000001,1445.9701664090117 71.05460000000001,1408.1751664090116 33.259600000000006,1408.1751664090116" stroke="#000000" /><circle cx="37.8mm" cy="290.49999999999994mm" fill="none" r="0.9" stroke="#0000ff" /><circle cx="180.85000000000002mm" cy="297.29999999999995mm" fill="none" r="0.9" stroke="#0000ff" /><circle cx="100.525mm" cy="400.15mm" fill="none" r="0.9" stroke="#0000ff" /><circle cx="13.8mm" cy="377.15mm" fill="none" r="0.9" stroke="#0000ff" /><polygon fill="none" points="739.4591750000001,33.259600000000006 758.356675,33.259600000000006 758.356675,10.5826 716.782175,10.5826 716.782175,408.4974164090118 773.474675,530.074875 1336.8091500000003,454.484875 1412.3991500000002,378.894875 1412.3991500000002,40.8186 815.049175,10.5826 815.049175,10.5826 815.049175,33.259600000000006 822.6081750000001,33.259600000000006 822.6081750000001,63.4956 978.1346000000001,33.259600000000006 1262.353,63.4956 1262.353,275.9035 1389.7221500000003,356.217875 1314.1321500000001,431.807875 1050.1340750000002,416.2174375 1050.1340750000002,452.21717500000005 796.1516750000001,507.397875 739.4591750000001,385.82041640901184 777.254175,385.82041640901184 777.254175,348.0254164090118 739.4591750000001,348.0254164090118" stroke="#000000" /><circle cx="224.65mm" cy="10.0mm" fill="none" r="0.9" stroke="#0000ff" /><circle cx="367.70000000000005mm" cy="16.8mm" fill="none" r="0.9" stroke="#0000ff" /><circle cx="287.375mm" cy="119.64999999999999mm" fill="none" r="0.9" stroke="#0000ff" /><circle cx="200.65mm" cy="96.65mm" fill="none" r="0.9" stroke="#0000ff" /><polygon fill="none" points="1389.7221500000003,219.82516875 1288.8095,219.82516875 1288.8095,200.92766874999998 1325.4706500000002,200.92766874999998 1325.4706500000002,217.55746874999997 1344.3681500000002,217.55746874999997 1344.3681500000002,142.72336875 1325.4706500000002,142.72336875 1325.4706500000002,159.35316874999998 1288.8095,159.35316874999998 1288.8095,140.45566874999997 1389.7221500000003,140.45566874999997" stroke="#0000ff" /><polygon fill="none" points="10.5826,1600.8072249999998 108.84960000000001,1600.8072249999998 706.1995750000001,1631.043225 706.1995750000001,1969.1195 630.6095750000001,2044.7095 67.27510000000001,2120.2995 10.5826,1998.722041409012" stroke="#000000" /><circle cx="37.8mm" cy="430.74999999999994mm" fill="none" r="0.9" stroke="#0000ff" /><circle cx="180.85000000000002mm" cy="437.54999999999995mm" fill="none" r="0.9" stroke="#0000ff" /><circle cx="100.525mm" cy="540.4mm" fill="none" r="0.9" stroke="#0000ff" /><circle cx="13.8mm" cy="517.4mm" fill="none" r="0.9" stroke="#0000ff" /><polygon fill="none" points="716.782175,540.657475 815.049175,540.657475 1412.3991500000002,570.893475 1412.3991500000002,908.96975 1336.8091500000003,984.55975 773.474675,1060.14975 716.782175,938.5722914090119" stroke="#000000" /><polygon fill="none" points="824.6869,693.9161999999999 896.686375,693.9161999999999 896.686375,684.4674499999999 968.6858500000001,684.4674499999999 968.6858500000001,675.0186999999999 1040.6853250000001,675.0186999999999 1040.6853250000001,684.8453999999999 1112.6848,684.8453999999999 1112.6848,701.85315 1184.684275,701.85315 1184.684275,701.85315 1256.68375,701.85315 1256.68375,917.8515749999999 1184.684275,917.8515749999999 1184.684275,917.8515749999999 1112.6848,917.8515749999999 1112.6848,900.8438249999999 1040.6853250000001,900.8438249999999 1040.6853250000001,891.017125 968.6858500000001,891.017125 968.6858500000001,900.465875 896.686375,900.465875 896.686375,909.914625 824.6869,909.914625" stroke="#0000ff" /><polygon fill="none" points="802.2482485781252,893.4456167664594 855.4977612769254,1007.6395652627979 790.2440764218749,1038.0678582335408 736.9945637230747,923.8739097372022" stroke="#0000ff" /><polygon fill="none" points="745.128425,801.9154125 817.1279000000001,801.9154125 817.1279000000001,873.9148874999998 745.128425,873.9148874999998" stroke="#0000ff" /><polygon fill="none" points="932.6861125,904.245375 1004.6855875,904.245375 1004.6855875,976.2448499999998 932.6861125,976.2448499999998" stroke="#0000ff" /><polygon fill="none" points="841.4463561254315,928.9625789928143 910.9925085071857,910.3277436254315 929.6273438745685,979.8738960071856 860.0811914928144,998.5087313745685" stroke="#0000ff" /><polygon fill="none" points="824.6869,599.2397249999999 896.686375,599.2397249999999 896.686375,671.2391999999999 824.6869,671.2391999999999" stroke="#0000ff" /><polygon fill="none" points="896.686375,599.2397249999999 968.6858500000001,599.2397249999999 968.6858500000001,671.2391999999999 896.686375,671.2391999999999" stroke="#0000ff" /><polygon fill="none" points="968.6858500000001,599.2397249999999 1040.6853250000001,599.2397249999999 1040.6853250000001,671.2391999999999 968.6858500000001,671.2391999999999" stroke="#0000ff" /><polygon fill="none" points="1040.6853250000001,599.2397249999999 1112.6848,599.2397249999999 1112.6848,671.2391999999999 1040.6853250000001,671.2391999999999" stroke="#0000ff" /><polygon fill="none" points="1112.6848,599.2397249999999 1184.684275,599.2397249999999 1184.684275,671.2391999999999 1112.6848,671.2391999999999" stroke="#0000ff" /><polygon fill="none" points="1184.684275,599.2397249999999 1256.68375,599.2397249999999 1256.68375,671.2391999999999 1184.684275,671.2391999999999" stroke="#0000ff" /><polygon fill="none" points="716.782175,1070.7323499999998 815.049175,1070.7323499999998 1412.3991500000002,1100.9683499999999 1412.3991500000002,1439.0446249999998 1336.8091500000003,1514.634625 773.474675,1590.2246249999998 716.782175,1468.6471664090116" stroke="#000000" /><polygon fill="none" points="824.6869,1223.991075 896.686375,1223.991075 896.686375,1214.542325 968.6858500000001,1214.542325 968.6858500000001,1205.0935749999999 1040.6853250000001,1205.0935749999999 1040.6853250000001,1214.9202749999997 1112.6848,1214.9202749999997 1112.6848,1231.9280249999997 1184.684275,1231.9280249999997 1184.684275,1231.9280249999997 1256.68375,1231.9280249999997 1256.68375,1447.92645 1184.684275,1447.92645 1184.684275,1447.92645 1112.6848,1447.92645 1112.6848,1430.9187 1040.6853250000001,1430.9187 1040.6853250000001,1421.0919999999999 968.6858500000001,1421.0919999999999 968.6858500000001,1430.54075 896.686375,1430.54075 896.686375,1439.9895 824.6869,1439.9895" stroke="#0000ff" /><polygon fill="none" points="802.2482485781252,1423.5204917664591 855.4977612769254,1537.7144402627976 790.2440764218749,1568.1427332335409 736.9945637230747,1453.948784737202" stroke="#0000ff" /><polygon fill="none" points="745.128425,1331.9902874999998 817.1279000000001,1331.9902874999998 817.1279000000001,1403.9897624999999 745.128425,1403.9897624999999" stroke="#0000ff" /><polygon fill="none" points="932.6861125,1434.3202499999998 1004.6855875,1434.3202499999998 1004.6855875,1506.3197249999998 932.6861125,1506.3197249999998" stroke="#0000ff" /><polygon fill="none" points="841.4463561254315,1459.037453992814 910.9925085071857,1440.4026186254314 929.6273438745685,1509.9487710071855 860.0811914928144,1528.5836063745683" stroke="#0000ff" /><polygon fill="none" points="824.6869,1129.3146 896.686375,1129.3146 896.686375,1201.314075 824.6869,1201.314075" stroke="#0000ff" /><polygon fill="none" points="896.686375,1129.3146 968.6858500000001,1129.3146 968.6858500000001,1201.314075 896.686375,1201.314075" stroke="#0000ff" /><polygon fill="none" points="968.6858500000001,1129.3146 1040.6853250000001,1129.3146 1040.6853250000001,1201.314075 968.6858500000001,1201.314075" stroke="#0000ff" /><polygon fill="none" points="1040.6853250000001,1129.3146 1112.6848,1129.3146 1112.6848,1201.314075 1040.6853250000001,1201.314075" stroke="#0000ff" /><polygon fill="none" points="1112.6848,1129.3146 1184.684275,1129.3146 1184.684275,1201.314075 1112.6848,1201.314075" stroke="#0000ff" /><polygon fill="none" points="1184.684275,1129.3146 1256.68375,1129.3146 1256.68375,1201.314075 1184.684275,1201.314075" stroke="#0000ff" /><polygon fill="none" points="1389.7221500000003,1279.97491875 1288.8095,1279.97491875 1288.8095,1261.0774187499999 1325.4706500000002,1261.0774187499999 1325.4706500000002,1277.7072187499998 1344.3681500000002,1277.7072187499998 1344.3681500000002,1202.8731187499998 1325.4706500000002,1202.8731187499998 1325.4706500000002,1219.50291875 1288.8095,1219.50291875 1288.8095,1200.60541875 1389.7221500000003,1200.60541875" stroke="#0000ff" /><rect fill="none" height="13.950000000000001mm" rx="0mm" ry="0mm" stroke="#00ff00" width="13.950000000000001mm" x="192.45000000000002mm" y="563.8mm" /><rect fill="none" height="14.0mm" rx="0mm" ry="0mm" stroke="#00ff00" width="14.0mm" x="211.50000000000003mm" y="563.8mm" /><rect fill="none" height="14.05mm" rx="0mm" ry="0mm" stroke="#00ff00" width="14.05mm" x="230.55mm" y="563.8mm" /><rect fill="none" height="14.100000000000001mm" rx="0mm" ry="0mm" stroke="#00ff00" width="14.100000000000001mm" x="249.60000000000002mm" y="563.8mm" /><rect fill="none" height="14.15mm" rx="0mm" ry="0mm" stroke="#00ff00" width="14.15mm" x="268.65000000000003mm" y="563.8mm" /><rect fill="none" height="14.25mm" rx="0mm" ry="0mm" stroke="#00ff00" width="14.25mm" x="287.70000000000005mm" y="563.8mm" /><rect fill="none" height="14.350000000000001mm" rx="0mm" ry="0mm" stroke="#00ff00" width="14.350000000000001mm" x="306.75mm" y="563.8mm" /><rect fill="none" height="14.450000000000001mm" rx="0mm" ry="0mm" stroke="#00ff00" width="14.450000000000001mm" x="325.8mm" y="563.8mm" /><rect fill="none" height="14.55mm" rx="0mm" ry="0mm" stroke="#00ff00" width="14.55mm" x="344.85mm" y="563.8mm" /><rect fill="none" height="14.65mm" rx="0mm" ry="0mm" stroke="#00ff00" width="14.65mm" x="363.90000000000003mm" y="563.8mm" /></svg>