<?xml version="1.0" encoding="utf-8" ?>
<svg baseProfile="full" height="600mm" version="1.1" width="400mm" xmlns="http://www.w3.org/2000/svg" xmlns:ev="http://www.w3.org/2001/xml-events" xmlns:xlink="http://www.w3.org/1999/xlink"><defs /><polygon fill="none" points="10.5826,10.5826 108.84960000000001,10.5826 706.1995750000001,40.8186 706.1995750000001,379.7074675000001 630.6095750000001,455.29746750000015 67.27510000000001,530.8874675000002 10.5826,409.31000890901197" stroke="#000000" /><polygon fill="none" points="118.89362125,164.24762124999998 190.89309624999999,164.24762124999998 190.89309625,154.79887125 262.89257125,154.79887125 262.89257125,145.35012125 334.89204625,145.35012125 334.89204625,155.17682125 406.89152125,155.17682125 406.89152125,172.18457125 478.89099625,172.18457125 478.89099625,172.18457125 550.8904712500001,172.18457125 550.8904712500001,388.18299625 478.89099625,388.18299625 478.89099625,388.18299625 406.89152125,388.18299625 406.89152125,371.17524625 334.89204625,371.17524625 334.89204625,361.34854625 262.89257125,361.34854625 262.89257125,370.79729625 190.89309625,370.79729625 190.89309624999999,380.24604625 118.89362125,380.24604625" stroke="#0000ff" /><polygon fill="none" points="96.45496982812524,364.5896305164593 149.70448252692537,478.7835790127979 84.45079767187481,509.21187198354085 31.201284973074653,395.01792348720227" stroke="#0000ff" /><polygon fill="none" points="39.335146249999994,272.24683375 111.33462125,272.24683375 111.33462125,344.24630874999997 39.335146249999994,344.24630874999997" stroke="#0000ff" /><polygon fill="none" points="226.89283375,375.38938875 298.89230875,375.38938875 298.89230875,447.38886375000004 226.89283375,447.38886375000004" stroke="#0000ff" /><polygon fill="none" points="135.65307737543154,400.10659274281437 205.19922975718566,381.47175737543154 223.83406512456847,451.0179097571857 154.28791274281434,469.65274512456847" stroke="#0000ff" /><polygon fill="none" points="118.89362125,69.57114625 190.89309624999999,69.57114625 190.89309624999999,141.57062125 118.89362125,141.57062125" stroke="#0000ff" /><polygon fill="none" points="190.89309625,69.57114625 262.89257125,69.57114625 262.89257125,141.57062125 190.89309625,141.57062125" stroke="#0000ff" /><polygon fill="none" points="262.89257125,69.57114625 334.89204625,69.57114625 334.89204625,141.57062125 262.89257125,141.57062125" stroke="#0000ff" /><polygon fill="none" points="334.89204625,69.57114625 406.89152125,69.57114625 406.89152125,141.57062125 334.89204625,141.57062125" stroke="#0000ff" /><polygon fill="none" points="406.89152125,69.57114625 478.89099625,69.57114625 478.89099625,141.57062125 406.89152125,141.57062125" stroke="#0000ff" /><polygon fill="none" points="478.89099625,69.57114625 550.8904712500001,69.57114625 550.8904712500001,141.57062125 478.89099625,141.57062125" stroke="#0000ff" /><polygon fill="none" points="10.5826,10.5826 108.84960000000001,10.5826 706.1995750000001,40.8186 706.1995750000001,379.7074675000001 630.6095750000001,455.29746750000015 67.27510000000001,530.8874675000002 10.5826,409.31000890901197" stroke="#000000" /><circle cx="37.8mm" cy="10.0mm" fill="none" r="0.9" stroke="#0000ff" /><circle cx="180.85000000000002mm" cy="16.8mm" fill="none" r="0.9" stroke="#0000ff" /><circle cx="100.525mm" cy="119.64999999999999mm" fill="none" r="0.9" stroke="#0000ff" /><circle cx="13.8mm" cy="96.65mm" fill="none" r="0.9" stroke="#0000ff" /><polygon fill="none" points="33.259600000000006,33.259600000000006 52.15710000000001,33.259600000000006 52.15710000000001,10.5826 10.5826,10.5826 10.5826,409.31000890901197 67.27510000000001,530.8874675000002 630.6095750000001,455.29746750000015 706.1995750000001,379.7074675000001 706.1995750000001,40.8186 108.84960000000001,10.5826 108.84960000000001,10.5826 108.84960000000001,33.259600000000006 116.4086,33.259600000000006 116.4086,63.4956 271.935025,33.259600000000006 556.9660175,63.4956 556.9660175,279.15387 683.5225750000001,357.0304675000001 607.932575,432.62046750000013 343.9345,416.2174375 343.9345,452.21717500000005 89.9521,508.2104675000001 33.259600000000006,386.63300890901195 71.05460000000001,386.63300890901195 71.05460000000001,348.83800890901193 33.259600000000006,348.83800890901193" stroke="#000000" /><circle cx="37.8mm" cy="10.0mm" fill="none" r="0.9" stroke="#0000ff" /><circle cx="180.85000000000002mm" cy="16.8mm" fill="none" r="0.9" stroke="#0000ff" /><circle cx="100.525mm" cy="119.64999999999999mm" fill="none" r="0.9" stroke="#0000ff" /><circle cx="13.8mm" cy="96.65mm" fill="none" r="0.9" stroke="#0000ff" /><polygon fill="none" points="683.5225750000001,220.028316875 582.6099250000001,220.028316875 582.6099250000001,201.13081687500002 619.2710750000001,201.13081687500002 619.2710750000001,217.760616875 638.1685750000001,217.760616875 638.1685750000001,142.926516875 619.2710750000001,142.926516875 619.2710750000001,159.55631687500002 582.6099250000001,159.55631687500002 582.6099250000001,140.658816875 683.5225750000001,140.658816875" stroke="#0000ff" /><polygon fill="none" points="33.259600000000006,33.259600000000006 52.15710000000001,33.259600000000006 52.15710000000001,10.5826 10.5826,10.5826 10.5826,409.31000890901197 67.27510000000001,530.8874675000002 630.6095750000001,455.29746750000015 706.1995750000001,379.7074675000001 706.1995750000001,40.8186 108.84960000000001,10.5826 108.84960000000001,10.5826 108.84960000000001,33.259600000000006 116.4086,33.259600000000006 116.4086,63.4956 271.935025,33.259600000000006 556.9660175,63.4956 556.9660175,117.41016750000001 683.5225750000001,117.41016750000001 683.5225750000001,357.0304675000001 607.932575,432.62046750000013 343.9345,416.2174375 343.9345,452.21717500000005 89.9521,508.2104675000001 33.259600000000006,386.63300890901195 71.05460000000001,386.63300890901195 71.05460000000001,348.83800890901193 33.259600000000006,348.83800890901193" stroke="#000000" /><circle cx="37.8mm" cy="10.0mm" fill="none" r="0.9" stroke="#0000ff" /><circle cx="180.85000000000002mm" cy="16.8mm" fill="none" r="0.9" stroke="#0000ff" /><circle cx="100.525mm" cy="119.64999999999999mm" fill="none" r="0.9" stroke="#0000ff" /><circle cx="13.8mm" cy="96.65mm" fill="none" r="0.9" stroke="#0000ff" /><rect fill="none" height="16.265mm" rx="0.01mm" ry="0.01mm" stroke="#0000ff" width="16.265mm" x="32.85mm" y="44.849999999999994mm" /><rect fill="none" height="16.265mm" rx="0.01mm" ry="0.01mm" stroke="#0000ff" width="16.265mm" x="32.85mm" y="63.89999999999999mm" /><rect fill="none" height="16.265mm" rx="0.01mm" ry="0.01mm" stroke="#0000ff" width="16.265mm" x="32.85mm" y="82.95mm" /><rect fill="none" height="16.265mm" rx="0.01mm" ry="0.01mm" stroke="#0000ff" width="16.265mm" x="51.9mm" y="42.349999999999994mm" /><rect fill="none" height="16.265mm" rx="0.01mm" ry="0.01mm" stroke="#0000ff" width="16.265mm" x="51.9mm" y="61.39999999999999mm" /><rect fill="none" height="16.265mm" rx="0.01mm" ry="0.01mm" stroke="#0000ff" width="16.265mm" x="51.9mm" y="80.45mm" /><rect fill="none" height="16.265mm" rx="0.01mm" ry="0.01mm" stroke="#0000ff" width="16.265mm" x="70.95mm" y="39.849999999999994mm" /><rect fill="none" height="16.265mm" rx="0.01mm" ry="0.01mm" stroke="#0000ff" width="16.265mm" x="70.95mm" y="58.89999999999999mm" /><rect fill="none" height="16.265mm" rx="0.01mm" ry="0.01mm" stroke="#0000ff" width="16.265mm" x="70.95mm" y="77.95mm" /><rect fill="none" height="16.265mm" rx="0.01mm" ry="0.01mm" stroke="#0000ff" width="16.265mm" x="90.0mm" y="42.449999999999996mm" /><rect fill="none" height="16.265mm" rx="0.01mm" ry="0.01mm" stroke="#0000ff" width="16.265mm" x="90.0mm" y="61.5mm" /><rect fill="none" height="16.265mm" rx="0.01mm" ry="0.01mm" stroke="#0000ff" width="16.265mm" x="90.0mm" y="80.55mm" /><rect fill="none" height="16.265mm" rx="0.01mm" ry="0.01mm" stroke="#0000ff" width="16.265mm" x="109.05mm" y="46.949999999999996mm" /><rect fill="none" height="16.265mm" rx="0.01mm" ry="0.01mm" stroke="#0000ff" width="16.265mm" x="109.05mm" y="66.0mm" /><rect fill="none" height="16.265mm" rx="0.01mm" ry="0.01mm" stroke="#0000ff" width="16.265mm" x="109.05mm" y="85.05mm" /><rect fill="none" height="16.265mm" rx="0.01mm" ry="0.01mm" stroke="#0000ff" width="16.265mm" x="128.1mm" y="46.949999999999996mm" /><rect fill="none" height="16.265mm" rx="0.01mm" ry="0.01mm" stroke="#0000ff" width="16.265mm" x="128.1mm" y="66.0mm" /><rect fill="none" height="16.265mm" rx="0.01mm" ry="0.01mm" stroke="#0000ff" width="16.265mm" x="128.1mm" y="85.05mm" /><rect fill="none" height="16.265mm" rx="0.01mm" ry="0.01mm" stroke="#0000ff" transform="rotate(65, 90.45288375000001, 436.90075125)" width="16.265mm" x="15.8mm" y="107.465mm" /><rect fill="none" height="16.265mm" rx="0.01mm" ry="0.01mm" stroke="#0000ff" transform="rotate(0, 75.33488375, 308.24657125000004)" width="16.265mm" x="11.8mm" y="73.425mm" /><rect fill="none" height="16.265mm" rx="0.01mm" ry="0.01mm" stroke="#0000ff" transform="rotate(0, 262.89257125, 411.38912625)" width="16.265mm" x="61.425mm" y="100.715mm" /><rect fill="none" height="16.265mm" rx="0.01mm" ry="0.01mm" stroke="#0000ff" transform="rotate(-15, 179.74357125, 425.56225125)" width="16.265mm" x="39.425mm" y="104.465mm" /><rect fill="none" height="16.265mm" rx="0.01mm" ry="0.01mm" stroke="#0000ff" transform="rotate(0, 154.89335875, 105.57088375000001)" width="16.265mm" x="32.85mm" y="19.8mm" /><rect fill="none" height="16.265mm" rx="0.01mm" ry="0.01mm" stroke="#0000ff" transform="rotate(0, 226.89283375, 105.57088375000001)" width="16.265mm" x="51.9mm" y="19.8mm" /><rect fill="none" height="16.265mm" rx="0.01mm" ry="0.01mm" stroke="#0000ff" transform="rotate(0, 298.89230875000004, 105.57088375000001)" width="16.265mm" x="70.95mm" y="19.8mm" /><rect fill="none" height="16.265mm" rx="0.01mm" ry="0.01mm" stroke="#0000ff" transform="rotate(0, 370.89178375, 105.57088375000001)" width="16.265mm" x="90.0mm" y="19.8mm" /><rect fill="none" height="16.265mm" rx="0.01mm" ry="0.01mm" stroke="#0000ff" transform="rotate(0, 442.89125875, 105.57088375000001)" width="16.265mm" x="109.05mm" y="19.8mm" /><rect fill="none" height="16.265mm" rx="0.01mm" ry="0.01mm" stroke="#0000ff" transform="rotate(0, 514.89073375, 105.57088375000001)" width="16.265mm" x="128.1mm" y="19.8mm" /><polygon fill="none" points="10.5826,10.5826 52.15710000000001,10.5826 52.15710000000001,33.259600000000006 44.5981,33.259600000000006 44.5981,125.85735 116.4086,125.85735 116.4086,33.259600000000006 108.84960000000001,33.259600000000006 108.84960000000001,10.5826 706.1995750000001,40.8186 706.1995750000001,379.7074675000001 630.6095750000001,455.29746750000015 67.27510000000001,530.8874675000002 10.5826,409.31000890901197" stroke="#000000" /><circle cx="37.8mm" cy="10.0mm" fill="none" r="0.9" stroke="#0000ff" /><circle cx="180.85000000000002mm" cy="16.8mm" fill="none" r="0.9" stroke="#0000ff" /><circle cx="100.525mm" cy="119.64999999999999mm" fill="none" r="0.9" stroke="#0000ff" /><circle cx="13.8mm" cy="96.65mm" fill="none" r="0.9" stroke="#0000ff" /><polygon fill="none" points="683.5225750000001,220.028316875 582.6099250000001,220.028316875 582.6099250000001,201.13081687500002 619.2710750000001,201.13081687500002 619.2710750000001,217.760616875 638.1685750000001,217.760616875 638.1685750000001,142.926516875 619.2710750000001,142.926516875 619.2710750000001,159.55631687500002 582.6099250000001,159.55631687500002 582.6099250000001,140.658816875 683.5225750000001,140.658816875" stroke="#0000ff" /><rect fill="none" height="14.265mm" rx="0.01mm" ry="0.01mm" stroke="#0000ff" width="14.265mm" x="33.85mm" y="45.849999999999994mm" /><rect fill="none" height="14.265mm" rx="0.01mm" ry="0.01mm" stroke="#0000ff" width="14.265mm" x="33.85mm" y="64.89999999999999mm" /><rect fill="none" height="14.265mm" rx="0.01mm" ry="0.01mm" stroke="#0000ff" width="14.265mm" x="33.85mm" y="83.95mm" /><rect fill="none" height="14.265mm" rx="0.01mm" ry="0.01mm" stroke="#0000ff" width="14.265mm" x="52.9mm" y="43.349999999999994mm" /><rect fill="none" height="14.265mm" rx="0.01mm" ry="0.01mm" stroke="#0000ff" width="14.265mm" x="52.9mm" y="62.39999999999999mm" /><rect fill="none" height="14.265mm" rx="0.01mm" ry="0.01mm" stroke="#0000ff" width="14.265mm" x="52.9mm" y="81.45mm" /><rect fill="none" height="14.265mm" rx="0.01mm" ry="0.01mm" stroke="#0000ff" width="14.265mm" x="71.95mm" y="40.849999999999994mm" /><rect fill="none" height="14.265mm" rx="0.01mm" ry="0.01mm" stroke="#0000ff" width="14.265mm" x="71.95mm" y="59.89999999999999mm" /><rect fill="none" height="14.265mm" rx="0.01mm" ry="0.01mm" stroke="#0000ff" width="14.265mm" x="71.95mm" y="78.95mm" /><rect fill="none" height="14.265mm" rx="0.01mm" ry="0.01mm" stroke="#0000ff" width="14.265mm" x="91.0mm" y="43.449999999999996mm" /><rect fill="none" height="14.265mm" rx="0.01mm" ry="0.01mm" stroke="#0000ff" width="14.265mm" x="91.0mm" y="62.5mm" /><rect fill="none" height="14.265mm" rx="0.01mm" ry="0.01mm" stroke="#0000ff" width="14.265mm" x="91.0mm" y="81.55mm" /><rect fill="none" height="14.265mm" rx="0.01mm" ry="0.01mm" stroke="#0000ff" width="14.265mm" x="110.05mm" y="47.949999999999996mm" /><rect fill="none" height="14.265mm" rx="0.01mm" ry="0.01mm" stroke="#0000ff" width="14.265mm" x="110.05mm" y="67.0mm" /><rect fill="none" height="14.265mm" rx="0.01mm" ry="0.01mm" stroke="#0000ff" width="14.265mm" x="110.05mm" y="86.05mm" /><rect fill="none" height="14.265mm" rx="0.01mm" ry="0.01mm" stroke="#0000ff" width="14.265mm" x="129.1mm" y="47.949999999999996mm" /><rect fill="none" height="14.265mm" rx="0.01mm" ry="0.01mm" stroke="#0000ff" width="14.265mm" x="129.1mm" y="67.0mm" /><rect fill="none" height="14.265mm" rx="0.01mm" ry="0.01mm" stroke="#0000ff" width="14.265mm" x="129.1mm" y="86.05mm" /><rect fill="none" height="14.265mm" rx="0.01mm" ry="0.01mm" stroke="#0000ff" transform="rotate(65, 90.45288375000001, 436.90075125)" width="14.265mm" x="16.8mm" y="108.465mm" /><rect fill="none" height="14.265mm" rx="0.01mm" ry="0.01mm" stroke="#0000ff" transform="rotate(0, 75.33488375, 308.24657125000004)" width="14.265mm" x="12.8mm" y="74.425mm" /><rect fill="none" height="14.265mm" rx="0.01mm" ry="0.01mm" stroke="#0000ff" transform="rotate(0, 262.89257125, 411.38912625)" width="14.265mm" x="62.425mm" y="101.715mm" /><rect fill="none" height="14.265mm" rx="0.01mm" ry="0.01mm" stroke="#0000ff" transform="rotate(-15, 179.74357125, 425.56225125)" width="14.265mm" x="40.425mm" y="105.465mm" /><rect fill="none" height="14.265mm" rx="0.01mm" ry="0.01mm" stroke="#0000ff" transform="rotate(0, 154.89335875, 105.57088375000001)" width="14.265mm" x="33.85mm" y="20.8mm" /><rect fill="none" height="14.265mm" rx="0.01mm" ry="0.01mm" stroke="#0000ff" transform="rotate(0, 226.89283375, 105.57088375000001)" width="14.265mm" x="52.9mm" y="20.8mm" /><rect fill="none" height="14.265mm" rx="0.01mm" ry="0.01mm" stroke="#0000ff" transform="rotate(0, 298.89230875000004, 105.57088375000001)" width="14.265mm" x="71.95mm" y="20.8mm" /><rect fill="none" height="14.265mm" rx="0.01mm" ry="0.01mm" stroke="#0000ff" transform="rotate(0, 370.89178375, 105.57088375000001)" width="14.265mm" x="91.0mm" y="20.8mm" /><rect fill="none" height="14.265mm" rx="0.01mm" ry="0.01mm" stroke="#0000ff" transform="rotate(0, 442.89125875, 105.57088375000001)" width="14.265mm" x="110.05mm" y="20.8mm" /><rect fill="none" height="14.265mm" rx="0.01mm" ry="0.01mm" stroke="#0000ff" transform="rotate(0, 514.89073375, 105.57088375000001)" width="14.265mm" x="129.1mm" y="20.8mm" /><polygon fill="none" points="10.5826,10.5826 52.15710000000001,10.5826 52.15710000000001,33.259600000000006 44.5981,33.259600000000006 44.5981,125.85735 116.4086,125.85735 116.4086,33.259600000000006 108.84960000000001,33.259600000000006 108.84960000000001,10.5826 706.1995750000001,40.8186 706.1995750000001,379.7074675000001 630.6095750000001,455.29746750000015 67.27510000000001,530.8874675000002 10.5826,409.31000890901197" stroke="#000000" /><polygon fill="none" points="683.5225750000001,220.028316875 582.6099250000001,220.028316875 582.6099250000001,201.13081687500002 619.2710750000001,201.13081687500002 619.2710750000001,217.760616875 638.1685750000001,217.760616875 638.1685750000001,142.926516875 619.2710750000001,142.926516875 619.2710750000001,159.55631687500002 582.6099250000001,159.55631687500002 582.6099250000001,140.658816875 683.5225750000001,140.658816875" stroke="#0000ff" /></svg>