<?xml version="1.0" encoding="utf-8" ?>
<svg baseProfile="full" height="600mm" version="1.1" width="400mm" xmlns="http://www.w3.org/2000/svg" xmlns:ev="http://www.w3.org/2001/xml-events" xmlns:xlink="http://www.w3.org/1999/xlink"><defs /><rect fill="none" height="14.265mm" rx="0.1mm" ry="0.1mm" stroke="purple" width="14.265mm" x="41.05mm" y="26.0mm" /><rect fill="none" height="14.265mm" rx="0.1mm" ry="0.1mm" stroke="purple" width="14.265mm" x="289.38500000000005mm" y="26.0mm" /><rect fill="none" height="14.265mm" rx="0.1mm" ry="0.1mm" stroke="purple" width="14.265mm" x="41.05mm" y="45.05mm" /><rect fill="none" height="14.265mm" rx="0.1mm" ry="0.1mm" stroke="purple" width="14.265mm" x="289.38500000000005mm" y="45.05mm" /><rect fill="none" height="14.265mm" rx="0.1mm" ry="0.1mm" stroke="purple" width="14.265mm" x="41.05mm" y="64.1mm" /><rect fill="none" height="14.265mm" rx="0.1mm" ry="0.1mm" stroke="purple" width="14.265mm" x="289.38500000000005mm" y="64.1mm" /><rect fill="none" height="14.265mm" rx="0.1mm" ry="0.1mm" stroke="purple" width="14.265mm" x="60.1mm" y="23.5mm" /><rect fill="none" height="14.265mm" rx="0.1mm" ry="0.1mm" stroke="purple" width="14.265mm" x="270.33500000000004mm" y="23.5mm" /><rect fill="none" height="14.265mm" rx="0.1mm" ry="0.1mm" stroke="purple" width="14.265mm" x="60.1mm" y="42.55mm" /><rect fill="none" height="14.265mm" rx="0.1mm" ry="0.1mm" stroke="purple" width="14.265mm" x="270.33500000000004mm" y="42.55mm" /><rect fill="none" height="14.265mm" rx="0.1mm" ry="0.1mm" stroke="purple" width="14.265mm" x="60.1mm" y="61.6mm" /><rect fill="none" height="14.265mm" rx="0.1mm" ry="0.1mm" stroke="purple" width="14.265mm" x="270.33500000000004mm" y="61.6mm" /><rect fill="none" height="14.265mm" rx="0.1mm" ry="0.1mm" stroke="purple" width="14.265mm" x="79.15mm" y="21.0mm" /><rect fill="none" height="14.265mm" rx="0.1mm" ry="0.1mm" stroke="purple" width="14.265mm" x="251.28500000000008mm" y="21.0mm" /><rect fill="none" height="14.265mm" rx="0.1mm" ry="0.1mm" stroke="purple" width="14.265mm" x="79.15mm" y="40.05mm" /><rect fill="none" height="14.265mm" rx="0.1mm" ry="0.1mm" stroke="purple" width="14.265mm" x="251.28500000000008mm" y="40.05mm" /><rect fill="none" height="14.265mm" rx="0.1mm" ry="0.1mm" stroke="purple" width="14.265mm" x="79.15mm" y="59.1mm" /><rect fill="none" height="14.265mm" rx="0.1mm" ry="0.1mm" stroke="purple" width="14.265mm" x="251.28500000000008mm" y="59.1mm" /><rect fill="none" height="14.265mm" rx="0.1mm" ry="0.1mm" stroke="purple" width="14.265mm" x="98.2mm" y="23.6mm" /><rect fill="none" height="14.265mm" rx="0.1mm" ry="0.1mm" stroke="purple" width="14.265mm" x="232.23500000000007mm" y="23.6mm" /><rect fill="none" height="14.265mm" rx="0.1mm" ry="0.1mm" stroke="purple" width="14.265mm" x="98.2mm" y="42.65mm" /><rect fill="none" height="14.265mm" rx="0.1mm" ry="0.1mm" stroke="purple" width="14.265mm" x="232.23500000000007mm" y="42.65mm" /><rect fill="none" height="14.265mm" rx="0.1mm" ry="0.1mm" stroke="purple" width="14.265mm" x="98.2mm" y="61.7mm" /><rect fill="none" height="14.265mm" rx="0.1mm" ry="0.1mm" stroke="purple" width="14.265mm" x="232.23500000000007mm" y="61.7mm" /><rect fill="none" height="14.265mm" rx="0.1mm" ry="0.1mm" stroke="purple" width="14.265mm" x="117.25mm" y="28.1mm" /><rect fill="none" height="14.265mm" rx="0.1mm" ry="0.1mm" stroke="purple" width="14.265mm" x="213.18500000000006mm" y="28.1mm" /><rect fill="none" height="14.265mm" rx="0.1mm" ry="0.1mm" stroke="purple" width="14.265mm" x="117.25mm" y="47.150000000000006mm" /><rect fill="none" height="14.265mm" rx="0.1mm" ry="0.1mm" stroke="purple" width="14.265mm" x="213.18500000000006mm" y="47.150000000000006mm" /><rect fill="none" height="14.265mm" rx="0.1mm" ry="0.1mm" stroke="purple" width="14.265mm" x="117.25mm" y="66.2mm" /><rect fill="none" height="14.265mm" rx="0.1mm" ry="0.1mm" stroke="purple" width="14.265mm" x="213.18500000000006mm" y="66.2mm" /><rect fill="none" height="14.265mm" rx="0.1mm" ry="0.1mm" stroke="purple" width="14.265mm" x="136.3mm" y="28.1mm" /><rect fill="none" height="14.265mm" rx="0.1mm" ry="0.1mm" stroke="purple" width="14.265mm" x="194.13500000000005mm" y="28.1mm" /><rect fill="none" height="14.265mm" rx="0.1mm" ry="0.1mm" stroke="purple" width="14.265mm" x="136.3mm" y="47.150000000000006mm" /><rect fill="none" height="14.265mm" rx="0.1mm" ry="0.1mm" stroke="purple" width="14.265mm" x="194.13500000000005mm" y="47.150000000000006mm" /><rect fill="none" height="14.265mm" rx="0.1mm" ry="0.1mm" stroke="purple" width="14.265mm" x="136.3mm" y="66.2mm" /><rect fill="none" height="14.265mm" rx="0.1mm" ry="0.1mm" stroke="purple" width="14.265mm" x="194.13500000000005mm" y="66.2mm" /><rect fill="none" height="14.265mm" rx="0.1mm" ry="0.1mm" stroke="purple" transform="rotate(0, 87.42928375, 233.22349624999998)" width="14.265mm" x="16mm" y="54.574999999999996mm" /><rect fill="none" height="14.265mm" rx="0.1mm" ry="0.1mm" stroke="purple" transform="rotate(0, 1215.3643662500003, 233.22349624999998)" width="14.265mm" x="314.43500000000006mm" y="54.574999999999996mm" /><rect fill="none" height="14.265mm" rx="0.1mm" ry="0.1mm" stroke="purple" transform="rotate(0, 290.10497125, 336.36605125)" width="14.265mm" x="69.625mm" y="81.86500000000001mm" /><rect fill="none" height="14.265mm" rx="0.1mm" ry="0.1mm" stroke="purple" transform="rotate(0, 1012.6886787500002, 336.36605125)" width="14.265mm" x="260.81000000000006mm" y="81.86500000000001mm" /><rect fill="none" height="14.265mm" rx="0.1mm" ry="0.1mm" stroke="purple" transform="rotate(-15, 206.95597125, 350.53917625)" width="14.265mm" x="47.625mm" y="85.61500000000001mm" /><rect fill="none" height="14.265mm" rx="0.1mm" ry="0.1mm" stroke="purple" transform="rotate(-15, 1095.8376787500001, 350.53917625)" width="14.265mm" x="282.81000000000006mm" y="85.61500000000001mm" /><rect fill="none" height="14.265mm" rx="0.1mm" ry="0.1mm" stroke="purple" transform="rotate(-25, 117.66528375, 361.87767625000004)" width="14.265mm" x="24.0mm" y="88.61500000000001mm" /><rect fill="none" height="14.265mm" rx="0.1mm" ry="0.1mm" stroke="purple" transform="rotate(-25, 1185.1283662500002, 361.87767625000004)" width="14.265mm" x="306.43500000000006mm" y="88.61500000000001mm" /><polygon fill="none" points="37.795,37.795 79.3695,37.795 79.3695,60.472 64.25150000000001,60.472 64.25150000000001,153.06975 136.062,153.06975 136.062,60.472 120.944,60.472 120.944,37.795 632.4993250000001,37.795 632.4993250000001,415.745 37.795,415.745" stroke="black" /><polygon fill="none" points="1264.9986500000002,37.795 1223.4241500000003,37.795 1223.4241500000003,60.472 1238.5421500000002,60.472 1238.5421500000002,153.06975 1166.7316500000002,153.06975 1166.7316500000002,60.472 1181.84965,60.472 1181.84965,37.795 670.2943250000001,37.795 670.2943250000001,415.745 1264.9986500000002,415.745" stroke="black" /><rect fill="none" height="16.265mm" rx="0.1mm" ry="0.1mm" stroke="purple" width="16.265mm" x="40.05mm" y="135.0mm" /><rect fill="none" height="16.265mm" rx="0.1mm" ry="0.1mm" stroke="purple" width="16.265mm" x="40.05mm" y="154.05mm" /><rect fill="none" height="16.265mm" rx="0.1mm" ry="0.1mm" stroke="purple" width="16.265mm" x="40.05mm" y="173.1mm" /><rect fill="none" height="16.265mm" rx="0.1mm" ry="0.1mm" stroke="purple" width="16.265mm" x="59.1mm" y="132.5mm" /><rect fill="none" height="16.265mm" rx="0.1mm" ry="0.1mm" stroke="purple" width="16.265mm" x="59.1mm" y="151.55mm" /><rect fill="none" height="16.265mm" rx="0.1mm" ry="0.1mm" stroke="purple" width="16.265mm" x="59.1mm" y="170.6mm" /><rect fill="none" height="16.265mm" rx="0.1mm" ry="0.1mm" stroke="purple" width="16.265mm" x="78.15mm" y="130.0mm" /><rect fill="none" height="16.265mm" rx="0.1mm" ry="0.1mm" stroke="purple" width="16.265mm" x="78.15mm" y="149.05mm" /><rect fill="none" height="16.265mm" rx="0.1mm" ry="0.1mm" stroke="purple" width="16.265mm" x="78.15mm" y="168.1mm" /><rect fill="none" height="16.265mm" rx="0.1mm" ry="0.1mm" stroke="purple" width="16.265mm" x="97.2mm" y="132.6mm" /><rect fill="none" height="16.265mm" rx="0.1mm" ry="0.1mm" stroke="purple" width="16.265mm" x="97.2mm" y="151.65mm" /><rect fill="none" height="16.265mm" rx="0.1mm" ry="0.1mm" stroke="purple" width="16.265mm" x="97.2mm" y="170.7mm" /><rect fill="none" height="16.265mm" rx="0.1mm" ry="0.1mm" stroke="purple" width="16.265mm" x="116.25mm" y="137.1mm" /><rect fill="none" height="16.265mm" rx="0.1mm" ry="0.1mm" stroke="purple" width="16.265mm" x="116.25mm" y="156.15mm" /><rect fill="none" height="16.265mm" rx="0.1mm" ry="0.1mm" stroke="purple" width="16.265mm" x="116.25mm" y="175.2mm" /><rect fill="none" height="16.265mm" rx="0.1mm" ry="0.1mm" stroke="purple" width="16.265mm" x="135.3mm" y="137.1mm" /><rect fill="none" height="16.265mm" rx="0.1mm" ry="0.1mm" stroke="purple" width="16.265mm" x="135.3mm" y="156.15mm" /><rect fill="none" height="16.265mm" rx="0.1mm" ry="0.1mm" stroke="purple" width="16.265mm" x="135.3mm" y="175.2mm" /><rect fill="none" height="16.265mm" rx="0.1mm" ry="0.1mm" stroke="purple" transform="rotate(0, 87.42928375, 648.9684962499999)" width="16.265mm" x="15mm" y="163.575mm" /><rect fill="none" height="16.265mm" rx="0.1mm" ry="0.1mm" stroke="purple" transform="rotate(0, 290.10497125, 752.1110512500001)" width="16.265mm" x="68.625mm" y="190.865mm" /><rect fill="none" height="16.265mm" rx="0.1mm" ry="0.1mm" stroke="purple" transform="rotate(-15, 206.95597125, 766.28417625)" width="16.265mm" x="46.625mm" y="194.615mm" /><rect fill="none" height="16.265mm" rx="0.1mm" ry="0.1mm" stroke="purple" transform="rotate(-25, 117.66528375, 777.62267625)" width="16.265mm" x="23.0mm" y="197.615mm" /><polygon fill="none" points="37.795,453.54 79.3695,453.54 79.3695,476.217 64.25150000000001,476.217 64.25150000000001,568.81475 136.062,568.81475 136.062,476.217 120.944,476.217 120.944,453.54 632.4993250000001,453.54 632.4993250000001,831.49 37.795,831.49" stroke="black" /><polygon fill="none" points="37.795,869.285 632.4993250000001,869.285 632.4993250000001,1247.2350000000001 37.795,1247.2350000000001" stroke="black" /><polygon fill="none" points="60.472,891.962 609.8223250000001,891.962 609.8223250000001,1224.558 60.472,1224.558" stroke="purple" /><polygon fill="none" points="37.795,1285.03 632.4993250000001,1285.03 632.4993250000001,1662.98 37.795,1662.98" stroke="black" /></svg>