<?xml version="1.0" encoding="utf-8" ?>
<svg baseProfile="full" height="600mm" version="1.1" width="400mm" xmlns="http://www.w3.org/2000/svg" xmlns:ev="http://www.w3.org/2001/xml-events" xmlns:xlink="http://www.w3.org/1999/xlink"><defs /><rect fill="none" height="14.265mm" rx="0.01mm" ry="0.01mm" stroke="#0000ff" width="14.265mm" x="33.85mm" y="45.849999999999994mm" /><rect fill="none" height="14.265mm" rx="0.01mm" ry="0.01mm" stroke="#0000ff" width="14.265mm" x="33.85mm" y="64.89999999999999mm" /><rect fill="none" height="14.265mm" rx="0.01mm" ry="0.01mm" stroke="#0000ff" width="14.265mm" x="33.85mm" y="83.95mm" /><rect fill="none" height="14.265mm" rx="0.01mm" ry="0.01mm" stroke="#0000ff" width="14.265mm" x="52.9mm" y="43.349999999999994mm" /><rect fill="none" height="14.265mm" rx="0.01mm" ry="0.01mm" stroke="#0000ff" width="14.265mm" x="52.9mm" y="62.39999999999999mm" /><rect fill="none" height="14.265mm" rx="0.01mm" ry="0.01mm" stroke="#0000ff" width="14.265mm" x="52.9mm" y="81.45mm" /><rect fill="none" height="14.265mm" rx="0.01mm" ry="0.01mm" stroke="#0000ff" width="14.265mm" x="71.95mm" y="40.849999999999994mm" /><rect fill="none" height="14.265mm" rx="0.01mm" ry="0.01mm" stroke="#0000ff" width="14.265mm" x="71.95mm" y="59.89999999999999mm" /><rect fill="none" height="14.265mm" rx="0.01mm" ry="0.01mm" stroke="#0000ff" width="14.265mm" x="71.95mm" y="78.95mm" /><rect fill="none" height="14.265mm" rx="0.01mm" ry="0.01mm" stroke="#0000ff" width="14.265mm" x="91.0mm" y="43.449999999999996mm" /><rect fill="none" height="14.265mm" rx="0.01mm" ry="0.01mm" stroke="#0000ff" width="14.265mm" x="91.0mm" y="62.5mm" /><rect fill="none" height="14.265mm" rx="0.01mm" ry="0.01mm" stroke="#0000ff" width="14.265mm" x="91.0mm" y="81.55mm" /><rect fill="none" height="14.265mm" rx="0.01mm" ry="0.01mm" stroke="#0000ff" width="14.265mm" x="110.05mm" y="47.949999999999996mm" /><rect fill="none" height="14.265mm" rx="0.01mm" ry="0.01mm" stroke="#0000ff" width="14.265mm" x="110.05mm" y="67.0mm" /><rect fill="none" height="14.265mm" rx="0.01mm" ry="0.01mm" stroke="#0000ff" width="14.265mm" x="110.05mm" y="86.05mm" /><rect fill="none" height="14.265mm" rx="0.01mm" ry="0.01mm" stroke="#0000ff" width="14.265mm" x="129.1mm" y="47.949999999999996mm" /><rect fill="none" height="14.265mm" rx="0.01mm" ry="0.01mm" stroke="#0000ff" width="14.265mm" x="129.1mm" y="67.0mm" /><rect fill="none" height="14.265mm" rx="0.01mm" ry="0.01mm" stroke="#0000ff" width="14.265mm" x="129.1mm" y="86.05mm" /><rect fill="none" height="14.265mm" rx="0.01mm" ry="0.01mm" stroke="#0000ff" transform="rotate(65, 90.45288375000001, 436.90075125)" width="14.265mm" x="16.8mm" y="108.465mm" /><rect fill="none" height="14.265mm" rx="0.01mm" ry="0.01mm" stroke="#0000ff" transform="rotate(0, 75.33488375, 308.24657125000004)" width="14.265mm" x="12.8mm" y="74.425mm" /><rect fill="none" height="14.265mm" rx="0.01mm" ry="0.01mm" stroke="#0000ff" transform="rotate(0, 262.89257125, 411.38912625)" width="14.265mm" x="62.425mm" y="101.715mm" /><rect fill="none" height="14.265mm" rx="0.01mm" ry="0.01mm" stroke="#0000ff" transform="rotate(-15, 179.74357125, 425.56225125)" width="14.265mm" x="40.425mm" y="105.465mm" /><rect fill="none" height="14.265mm" rx="0.01mm" ry="0.01mm" stroke="#0000ff" transform="rotate(0, 154.89335875, 105.57088375000001)" width="14.265mm" x="33.85mm" y="20.8mm" /><rect fill="none" height="14.265mm" rx="0.01mm" ry="0.01mm" stroke="#0000ff" transform="rotate(0, 226.89283375, 105.57088375000001)" width="14.265mm" x="52.9mm" y="20.8mm" /><rect fill="none" height="14.265mm" rx="0.01mm" ry="0.01mm" stroke="#0000ff" transform="rotate(0, 298.89230875000004, 105.57088375000001)" width="14.265mm" x="71.95mm" y="20.8mm" /><rect fill="none" height="14.265mm" rx="0.01mm" ry="0.01mm" stroke="#0000ff" transform="rotate(0, 370.89178375, 105.57088375000001)" width="14.265mm" x="91.0mm" y="20.8mm" /><rect fill="none" height="14.265mm" rx="0.01mm" ry="0.01mm" stroke="#0000ff" transform="rotate(0, 442.89125875, 105.57088375000001)" width="14.265mm" x="110.05mm" y="20.8mm" /><rect fill="none" height="14.265mm" rx="0.01mm" ry="0.01mm" stroke="#0000ff" transform="rotate(0, 514.89073375, 105.57088375000001)" width="14.265mm" x="129.1mm" y="20.8mm" /><polygon fill="none" points="10.5826,10.5826 52.15710000000001,10.5826 52.15710000000001,33.259600000000006 44.5981,33.259600000000006 44.5981,125.85735 116.4086,125.85735 116.4086,33.259600000000006 108.84960000000001,33.259600000000006 108.84960000000001,10.5826 706.1995750000001,40.8186 706.1995750000001,379.7074675000001 630.6095750000001,455.29746750000015 67.27510000000001,530.8874675000002 10.5826,409.31000890901197" stroke="#000000" /><polygon fill="none" points="683.5225750000001,220.028316875 582.6099250000001,220.028316875 582.6099250000001,201.13081687500002 619.2710750000001,201.13081687500002 619.2710750000001,217.760616875 638.1685750000001,217.760616875 638.1685750000001,142.926516875 619.2710750000001,142.926516875 619.2710750000001,159.55631687500002 582.6099250000001,159.55631687500002 582.6099250000001,140.658816875 683.5225750000001,140.658816875" stroke="#0000ff" /><rect fill="none" height="16.265mm" rx="0.01mm" ry="0.01mm" stroke="#0000ff" width="16.265mm" x="32.85mm" y="185.315mm" /><rect fill="none" height="16.265mm" rx="0.01mm" ry="0.01mm" stroke="#0000ff" width="16.265mm" x="32.85mm" y="204.365mm" /><rect fill="none" height="16.265mm" rx="0.01mm" ry="0.01mm" stroke="#0000ff" width="16.265mm" x="32.85mm" y="223.41500000000002mm" /><rect fill="none" height="16.265mm" rx="0.01mm" ry="0.01mm" stroke="#0000ff" width="16.265mm" x="51.9mm" y="182.815mm" /><rect fill="none" height="16.265mm" rx="0.01mm" ry="0.01mm" stroke="#0000ff" width="16.265mm" x="51.9mm" y="201.865mm" /><rect fill="none" height="16.265mm" rx="0.01mm" ry="0.01mm" stroke="#0000ff" width="16.265mm" x="51.9mm" y="220.91500000000002mm" /><rect fill="none" height="16.265mm" rx="0.01mm" ry="0.01mm" stroke="#0000ff" width="16.265mm" x="70.95mm" y="180.315mm" /><rect fill="none" height="16.265mm" rx="0.01mm" ry="0.01mm" stroke="#0000ff" width="16.265mm" x="70.95mm" y="199.365mm" /><rect fill="none" height="16.265mm" rx="0.01mm" ry="0.01mm" stroke="#0000ff" width="16.265mm" x="70.95mm" y="218.41500000000002mm" /><rect fill="none" height="16.265mm" rx="0.01mm" ry="0.01mm" stroke="#0000ff" width="16.265mm" x="90.0mm" y="182.91500000000002mm" /><rect fill="none" height="16.265mm" rx="0.01mm" ry="0.01mm" stroke="#0000ff" width="16.265mm" x="90.0mm" y="201.96500000000003mm" /><rect fill="none" height="16.265mm" rx="0.01mm" ry="0.01mm" stroke="#0000ff" width="16.265mm" x="90.0mm" y="221.01500000000001mm" /><rect fill="none" height="16.265mm" rx="0.01mm" ry="0.01mm" stroke="#0000ff" width="16.265mm" x="109.05mm" y="187.41500000000002mm" /><rect fill="none" height="16.265mm" rx="0.01mm" ry="0.01mm" stroke="#0000ff" width="16.265mm" x="109.05mm" y="206.46500000000003mm" /><rect fill="none" height="16.265mm" rx="0.01mm" ry="0.01mm" stroke="#0000ff" width="16.265mm" x="109.05mm" y="225.51500000000001mm" /><rect fill="none" height="16.265mm" rx="0.01mm" ry="0.01mm" stroke="#0000ff" width="16.265mm" x="128.1mm" y="187.41500000000002mm" /><rect fill="none" height="16.265mm" rx="0.01mm" ry="0.01mm" stroke="#0000ff" width="16.265mm" x="128.1mm" y="206.46500000000003mm" /><rect fill="none" height="16.265mm" rx="0.01mm" ry="0.01mm" stroke="#0000ff" width="16.265mm" x="128.1mm" y="225.51500000000001mm" /><rect fill="none" height="16.265mm" rx="0.01mm" ry="0.01mm" stroke="#0000ff" transform="rotate(65, 90.45288375000001, 967.78821875)" width="16.265mm" x="15.8mm" y="247.93mm" /><rect fill="none" height="16.265mm" rx="0.01mm" ry="0.01mm" stroke="#0000ff" transform="rotate(0, 75.33488375, 839.1340387500001)" width="16.265mm" x="11.8mm" y="213.89000000000001mm" /><rect fill="none" height="16.265mm" rx="0.01mm" ry="0.01mm" stroke="#0000ff" transform="rotate(0, 262.89257125, 942.2765937500001)" width="16.265mm" x="61.425mm" y="241.18mm" /><rect fill="none" height="16.265mm" rx="0.01mm" ry="0.01mm" stroke="#0000ff" transform="rotate(-15, 179.74357125, 956.44971875)" width="16.265mm" x="39.425mm" y="244.93mm" /><rect fill="none" height="16.265mm" rx="0.01mm" ry="0.01mm" stroke="#0000ff" transform="rotate(0, 154.89335875, 636.4583512500001)" width="16.265mm" x="32.85mm" y="160.26500000000001mm" /><rect fill="none" height="16.265mm" rx="0.01mm" ry="0.01mm" stroke="#0000ff" transform="rotate(0, 226.89283375, 636.4583512500001)" width="16.265mm" x="51.9mm" y="160.26500000000001mm" /><rect fill="none" height="16.265mm" rx="0.01mm" ry="0.01mm" stroke="#0000ff" transform="rotate(0, 298.89230875000004, 636.4583512500001)" width="16.265mm" x="70.95mm" y="160.26500000000001mm" /><rect fill="none" height="16.265mm" rx="0.01mm" ry="0.01mm" stroke="#0000ff" transform="rotate(0, 370.89178375, 636.4583512500001)" width="16.265mm" x="90.0mm" y="160.26500000000001mm" /><rect fill="none" height="16.265mm" rx="0.01mm" ry="0.01mm" stroke="#0000ff" transform="rotate(0, 442.89125875, 636.4583512500001)" width="16.265mm" x="109.05mm" y="160.26500000000001mm" /><rect fill="none" height="16.265mm" rx="0.01mm" ry="0.01mm" stroke="#0000ff" transform="rotate(0, 514.89073375, 636.4583512500001)" width="16.265mm" x="128.1mm" y="160.26500000000001mm" /><polygon fill="none" points="10.5826,541.4700675 52.15710000000001,541.4700675 52.15710000000001,564.1470675 44.5981,564.1470675 44.5981,656.7448175000001 116.4086,656.7448175000001 116.4086,564.1470675 108.84960000000001,564.1470675 108.84960000000001,541.4700675 706.1995750000001,571.7060675 706.1995750000001,910.5949350000003 630.6095750000001,986.1849350000002 67.27510000000001,1061.7749350000004 10.5826,940.1974764090121" stroke="#000000" /><circle cx="37.8mm" cy="150.465mm" fill="none" r="0.9" stroke="#0000ff" /><circle cx="180.85000000000002mm" cy="157.26500000000001mm" fill="none" r="0.9" stroke="#0000ff" /><circle cx="100.525mm" cy="260.115mm" fill="none" r="0.9" stroke="#0000ff" /><circle cx="13.8mm" cy="237.115mm" fill="none" r="0.9" stroke="#0000ff" /><polygon fill="none" points="683.5225750000001,750.9157843750002 582.6099250000001,750.9157843750002 582.6099250000001,732.0182843750001 619.2710750000001,732.0182843750001 619.2710750000001,748.648084375 638.1685750000001,748.648084375 638.1685750000001,673.8139843750001 619.2710750000001,673.8139843750001 619.2710750000001,690.4437843750002 582.6099250000001,690.4437843750002 582.6099250000001,671.5462843750001 683.5225750000001,671.5462843750001" stroke="#0000ff" /><polygon fill="none" points="33.259600000000006,1095.034535 52.15710000000001,1095.034535 52.15710000000001,1072.357535 10.5826,1072.357535 10.5826,1471.084943909012 67.27510000000001,1592.6624025 630.6095750000001,1517.0724025000002 706.1995750000001,1441.4824025000003 706.1995750000001,1102.5935350000002 108.84960000000001,1072.357535 108.84960000000001,1072.357535 108.84960000000001,1095.034535 116.4086,1095.034535 116.4086,1125.270535 271.935025,1095.034535 556.9660175,1125.270535 556.9660175,1179.1851025 683.5225750000001,1179.1851025 683.5225750000001,1418.8054025000001 607.932575,1494.3954025000003 343.9345,1477.9923725 343.9345,1513.99211 89.9521,1569.9854025000002 33.259600000000006,1448.407943909012 71.05460000000001,1448.407943909012 71.05460000000001,1410.612943909012 33.259600000000006,1410.612943909012" stroke="#000000" /><circle cx="37.8mm" cy="290.93mm" fill="none" r="0.9" stroke="#0000ff" /><circle cx="180.85000000000002mm" cy="297.73mm" fill="none" r="0.9" stroke="#0000ff" /><circle cx="100.525mm" cy="400.58000000000004mm" fill="none" r="0.9" stroke="#0000ff" /><circle cx="13.8mm" cy="377.58000000000004mm" fill="none" r="0.9" stroke="#0000ff" /><polygon fill="none" points="739.4591750000001,33.259600000000006 758.356675,33.259600000000006 758.356675,10.5826 716.782175,10.5826 716.782175,409.31000890901197 773.474675,530.8874675000002 1336.8091500000003,455.29746750000015 1412.3991500000002,379.7074675000001 1412.3991500000002,40.8186 815.049175,10.5826 815.049175,10.5826 815.049175,33.259600000000006 822.6081750000001,33.259600000000006 822.6081750000001,63.4956 978.1346000000001,33.259600000000006 1263.1655925,63.4956 1263.1655925,279.15387 1389.7221500000003,357.0304675000001 1314.1321500000001,432.62046750000013 1050.1340750000002,416.2174375 1050.1340750000002,452.21717500000005 796.1516750000001,508.2104675000001 739.4591750000001,386.63300890901195 777.254175,386.63300890901195 777.254175,348.83800890901193 739.4591750000001,348.83800890901193" stroke="#000000" /><circle cx="224.65mm" cy="10.0mm" fill="none" r="0.9" stroke="#0000ff" /><circle cx="367.70000000000005mm" cy="16.8mm" fill="none" r="0.9" stroke="#0000ff" /><circle cx="287.375mm" cy="119.64999999999999mm" fill="none" r="0.9" stroke="#0000ff" /><circle cx="200.65mm" cy="96.65mm" fill="none" r="0.9" stroke="#0000ff" /><polygon fill="none" points="1389.7221500000003,220.028316875 1288.8095,220.028316875 1288.8095,201.13081687500002 1325.4706500000002,201.13081687500002 1325.4706500000002,217.760616875 1344.3681500000002,217.760616875 1344.3681500000002,142.926516875 1325.4706500000002,142.926516875 1325.4706500000002,159.55631687500002 1288.8095,159.55631687500002 1288.8095,140.658816875 1389.7221500000003,140.658816875" stroke="#0000ff" /><polygon fill="none" points="10.5826,1603.2450025000003 108.84960000000001,1603.2450025000003 706.1995750000001,1633.4810025000002 706.1995750000001,1972.3698700000004 630.6095750000001,2047.9598700000006 67.27510000000001,2123.5498700000007 10.5826,2001.9724114090125" stroke="#000000" /><circle cx="37.8mm" cy="431.39500000000004mm" fill="none" r="0.9" stroke="#0000ff" /><circle cx="180.85000000000002mm" cy="438.19500000000005mm" fill="none" r="0.9" stroke="#0000ff" /><circle cx="100.525mm" cy="541.0450000000001mm" fill="none" r="0.9" stroke="#0000ff" /><circle cx="13.8mm" cy="518.0450000000001mm" fill="none" r="0.9" stroke="#0000ff" /><polygon fill="none" points="716.782175,541.4700675 815.049175,541.4700675 1412.3991500000002,571.7060675 1412.3991500000002,910.5949350000003 1336.8091500000003,986.1849350000002 773.474675,1061.7749350000004 716.782175,940.1974764090121" stroke="#000000" /><polygon fill="none" points="825.09319625,695.13508875 897.0926712500001,695.13508875 897.0926712500001,685.6863387500001 969.0921462500002,685.6863387500001 969.0921462500002,676.2375887500001 1041.09162125,676.2375887500001 1041.09162125,686.0642887500001 1113.09109625,686.0642887500001 1113.09109625,703.07203875 1185.09057125,703.07203875 1185.09057125,703.07203875 1257.0900462500001,703.07203875 1257.0900462500001,919.07046375 1185.09057125,919.07046375 1185.09057125,919.07046375 1113.09109625,919.07046375 1113.09109625,902.0627137500001 1041.09162125,902.0627137500001 1041.09162125,892.2360137500001 969.0921462500002,892.2360137500001 969.0921462500002,901.6847637500001 897.0926712500001,901.6847637500001 897.0926712500001,911.1335137500001 825.09319625,911.1335137500001" stroke="#0000ff" /><polygon fill="none" points="802.6545448281253,895.4770980164594 855.9040575269254,1009.671046512798 790.6503726718748,1040.099339483541 737.4008599730746,925.9053909872023" stroke="#0000ff" /><polygon fill="none" points="745.53472125,803.13430125 817.53419625,803.13430125 817.53419625,875.1337762500001 745.53472125,875.1337762500001" stroke="#0000ff" /><polygon fill="none" points="933.09240875,906.2768562500002 1005.0918837500001,906.2768562500002 1005.0918837500001,978.2763312500001 933.09240875,978.2763312500001" stroke="#0000ff" /><polygon fill="none" points="841.8526523754316,930.9940602428145 911.3988047571856,912.3592248754317 930.0336401245685,981.9053772571857 860.4874877428144,1000.5402126245685" stroke="#0000ff" /><polygon fill="none" points="825.09319625,600.45861375 897.0926712500001,600.45861375 897.0926712500001,672.4580887500001 825.09319625,672.4580887500001" stroke="#0000ff" /><polygon fill="none" points="897.0926712500001,600.45861375 969.0921462500002,600.45861375 969.0921462500002,672.4580887500001 897.0926712500001,672.4580887500001" stroke="#0000ff" /><polygon fill="none" points="969.0921462500002,600.45861375 1041.09162125,600.45861375 1041.09162125,672.4580887500001 969.0921462500002,672.4580887500001" stroke="#0000ff" /><polygon fill="none" points="1041.09162125,600.45861375 1113.09109625,600.45861375 1113.09109625,672.4580887500001 1041.09162125,672.4580887500001" stroke="#0000ff" /><polygon fill="none" points="1113.09109625,600.45861375 1185.09057125,600.45861375 1185.09057125,672.4580887500001 1113.09109625,672.4580887500001" stroke="#0000ff" /><polygon fill="none" points="1185.09057125,600.45861375 1257.0900462500001,600.45861375 1257.0900462500001,672.4580887500001 1185.09057125,672.4580887500001" stroke="#0000ff" /><polygon fill="none" points="716.782175,1072.357535 815.049175,1072.357535 1412.3991500000002,1102.5935350000002 1412.3991500000002,1441.4824025000003 1336.8091500000003,1517.0724025000002 773.474675,1592.6624025 716.782175,1471.084943909012" stroke="#000000" /><polygon fill="none" points="825.09319625,1226.0225562500002 897.0926712500001,1226.0225562500002 897.0926712500001,1216.5738062500002 969.0921462500002,1216.5738062500002 969.0921462500002,1207.1250562500002 1041.09162125,1207.1250562500002 1041.09162125,1216.95175625 1113.09109625,1216.95175625 1113.09109625,1233.95950625 1185.09057125,1233.95950625 1185.09057125,1233.95950625 1257.0900462500001,1233.95950625 1257.0900462500001,1449.9579312500002 1185.09057125,1449.9579312500002 1185.09057125,1449.9579312500002 1113.09109625,1449.9579312500002 1113.09109625,1432.9501812500002 1041.09162125,1432.9501812500002 1041.09162125,1423.1234812500002 969.0921462500002,1423.1234812500002 969.0921462500002,1432.5722312500002 897.0926712500001,1432.5722312500002 897.0926712500001,1442.0209812500002 825.09319625,1442.0209812500002" stroke="#0000ff" /><polygon fill="none" points="802.6545448281253,1426.3645655164594 855.9040575269254,1540.5585140127978 790.6503726718748,1570.986806983541 737.4008599730746,1456.7928584872025" stroke="#0000ff" /><polygon fill="none" points="745.53472125,1334.02176875 817.53419625,1334.02176875 817.53419625,1406.0212437500002 745.53472125,1406.0212437500002" stroke="#0000ff" /><polygon fill="none" points="933.09240875,1437.1643237500002 1005.0918837500001,1437.1643237500002 1005.0918837500001,1509.16379875 933.09240875,1509.16379875" stroke="#0000ff" /><polygon fill="none" points="841.8526523754316,1461.8815277428143 911.3988047571856,1443.2466923754316 930.0336401245685,1512.792844757186 860.4874877428144,1531.4276801245687" stroke="#0000ff" /><polygon fill="none" points="825.09319625,1131.3460812500002 897.0926712500001,1131.3460812500002 897.0926712500001,1203.3455562500003 825.09319625,1203.3455562500003" stroke="#0000ff" /><polygon fill="none" points="897.0926712500001,1131.3460812500002 969.0921462500002,1131.3460812500002 969.0921462500002,1203.3455562500003 897.0926712500001,1203.3455562500003" stroke="#0000ff" /><polygon fill="none" points="969.0921462500002,1131.3460812500002 1041.09162125,1131.3460812500002 1041.09162125,1203.3455562500003 969.0921462500002,1203.3455562500003" stroke="#0000ff" /><polygon fill="none" points="1041.09162125,1131.3460812500002 1113.09109625,1131.3460812500002 1113.09109625,1203.3455562500003 1041.09162125,1203.3455562500003" stroke="#0000ff" /><polygon fill="none" points="1113.09109625,1131.3460812500002 1185.09057125,1131.3460812500002 1185.09057125,1203.3455562500003 1113.09109625,1203.3455562500003" stroke="#0000ff" /><polygon fill="none" points="1185.09057125,1131.3460812500002 1257.0900462500001,1131.3460812500002 1257.0900462500001,1203.3455562500003 1185.09057125,1203.3455562500003" stroke="#0000ff" /><polygon fill="none" points="1389.7221500000003,1281.8032518750001 1288.8095,1281.8032518750001 1288.8095,1262.905751875 1325.4706500000002,1262.905751875 1325.4706500000002,1279.5355518750002 1344.3681500000002,1279.5355518750002 1344.3681500000002,1204.7014518750002 1325.4706500000002,1204.7014518750002 1325.4706500000002,1221.3312518750001 1288.8095,1221.3312518750001 1288.8095,1202.433751875 1389.7221500000003,1202.433751875" stroke="#0000ff" /><rect fill="none" height="13.9mm" rx="0mm" ry="0mm" stroke="#00ff00" width="13.9mm" x="192.45000000000002mm" y="564.6600000000001mm" /><rect fill="none" height="13.95mm" rx="0mm" ry="0mm" stroke="#00ff00" width="13.95mm" x="211.50000000000003mm" y="564.6600000000001mm" /><rect fill="none" height="14mm" rx="0mm" ry="0mm" stroke="#00ff00" width="14mm" x="230.55mm" y="564.6600000000001mm" /><rect fill="none" height="14.05mm" rx="0mm" ry="0mm" stroke="#00ff00" width="14.05mm" x="249.60000000000002mm" y="564.6600000000001mm" /><rect fill="none" height="14.1mm" rx="0mm" ry="0mm" stroke="#00ff00" width="14.1mm" x="268.65000000000003mm" y="564.6600000000001mm" /><rect fill="none" height="14.2mm" rx="0mm" ry="0mm" stroke="#00ff00" width="14.2mm" x="287.70000000000005mm" y="564.6600000000001mm" /><rect fill="none" height="14.3mm" rx="0mm" ry="0mm" stroke="#00ff00" width="14.3mm" x="306.75mm" y="564.6600000000001mm" /><rect fill="none" height="14.4mm" rx="0mm" ry="0mm" stroke="#00ff00" width="14.4mm" x="325.8mm" y="564.6600000000001mm" /><rect fill="none" height="14.5mm" rx="0mm" ry="0mm" stroke="#00ff00" width="14.5mm" x="344.85mm" y="564.6600000000001mm" /><rect fill="none" height="14.6mm" rx="0mm" ry="0mm" stroke="#00ff00" width="14.6mm" x="363.90000000000003mm" y="564.6600000000001mm" /><rect fill="none" height="14.7mm" rx="0mm" ry="0mm" stroke="#00ff00" width="14.7mm" x="382.95000000000005mm" y="564.6600000000001mm" /></svg>