<?xml version="1.0" encoding="utf-8" ?>
<svg baseProfile="full" height="600mm" version="1.1" width="400mm" xmlns="http://www.w3.org/2000/svg" xmlns:ev="http://www.w3.org/2001/xml-events" xmlns:xlink="http://www.w3.org/1999/xlink"><defs /><rect fill="none" height="14.265mm" rx="0.01mm" ry="0.01mm" stroke="purple" width="14.265mm" x="33.85mm" y="18.8mm" /><rect fill="none" height="14.265mm" rx="0.01mm" ry="0.01mm" stroke="purple" width="14.265mm" x="33.85mm" y="37.849999999999994mm" /><rect fill="none" height="14.265mm" rx="0.01mm" ry="0.01mm" stroke="purple" width="14.265mm" x="33.85mm" y="56.9mm" /><rect fill="none" height="14.265mm" rx="0.01mm" ry="0.01mm" stroke="purple" width="14.265mm" x="52.9mm" y="16.3mm" /><rect fill="none" height="14.265mm" rx="0.01mm" ry="0.01mm" stroke="purple" width="14.265mm" x="52.9mm" y="35.349999999999994mm" /><rect fill="none" height="14.265mm" rx="0.01mm" ry="0.01mm" stroke="purple" width="14.265mm" x="52.9mm" y="54.4mm" /><rect fill="none" height="14.265mm" rx="0.01mm" ry="0.01mm" stroke="purple" width="14.265mm" x="71.95mm" y="13.8mm" /><rect fill="none" height="14.265mm" rx="0.01mm" ry="0.01mm" stroke="purple" width="14.265mm" x="71.95mm" y="32.85mm" /><rect fill="none" height="14.265mm" rx="0.01mm" ry="0.01mm" stroke="purple" width="14.265mm" x="71.95mm" y="51.9mm" /><rect fill="none" height="14.265mm" rx="0.01mm" ry="0.01mm" stroke="purple" width="14.265mm" x="91.0mm" y="16.4mm" /><rect fill="none" height="14.265mm" rx="0.01mm" ry="0.01mm" stroke="purple" width="14.265mm" x="91.0mm" y="35.449999999999996mm" /><rect fill="none" height="14.265mm" rx="0.01mm" ry="0.01mm" stroke="purple" width="14.265mm" x="91.0mm" y="54.5mm" /><rect fill="none" height="14.265mm" rx="0.01mm" ry="0.01mm" stroke="purple" width="14.265mm" x="110.05mm" y="20.900000000000002mm" /><rect fill="none" height="14.265mm" rx="0.01mm" ry="0.01mm" stroke="purple" width="14.265mm" x="110.05mm" y="39.95mm" /><rect fill="none" height="14.265mm" rx="0.01mm" ry="0.01mm" stroke="purple" width="14.265mm" x="110.05mm" y="59.0mm" /><rect fill="none" height="14.265mm" rx="0.01mm" ry="0.01mm" stroke="purple" width="14.265mm" x="129.1mm" y="20.900000000000002mm" /><rect fill="none" height="14.265mm" rx="0.01mm" ry="0.01mm" stroke="purple" width="14.265mm" x="129.1mm" y="39.95mm" /><rect fill="none" height="14.265mm" rx="0.01mm" ry="0.01mm" stroke="purple" width="14.265mm" x="129.1mm" y="59.0mm" /><rect fill="none" height="14.265mm" rx="0.01mm" ry="0.01mm" stroke="purple" transform="rotate(0, 75.33488375, 206.01109624999998)" width="14.265mm" x="12.8mm" y="47.37499999999999mm" /><rect fill="none" height="14.265mm" rx="0.01mm" ry="0.01mm" stroke="purple" transform="rotate(0, 262.89257125, 309.15365125000005)" width="14.265mm" x="62.425mm" y="74.665mm" /><rect fill="none" height="14.265mm" rx="0.01mm" ry="0.01mm" stroke="purple" transform="rotate(-15, 179.74357125, 323.3267762500001)" width="14.265mm" x="40.425mm" y="78.415mm" /><rect fill="none" height="14.265mm" rx="0.01mm" ry="0.01mm" stroke="purple" transform="rotate(-25, 90.45288375000001, 334.66527625000003)" width="14.265mm" x="16.8mm" y="81.415mm" /><polygon fill="none" points="10.5826,10.5826 52.15710000000001,10.5826 52.15710000000001,33.259600000000006 44.5981,33.259600000000006 44.5981,125.85735 116.4086,125.85735 116.4086,33.259600000000006 108.84960000000001,33.259600000000006 108.84960000000001,10.5826 605.2869250000001,40.8186 605.2869250000001,275.1476 529.6969250000002,350.7376 67.27510000000001,426.3276 10.5826,304.75014140901186" stroke="black" /><rect fill="none" height="16.265mm" rx="0.01mm" ry="0.01mm" stroke="purple" width="16.265mm" x="32.85mm" y="130.6mm" /><rect fill="none" height="16.265mm" rx="0.01mm" ry="0.01mm" stroke="purple" width="16.265mm" x="32.85mm" y="149.64999999999998mm" /><rect fill="none" height="16.265mm" rx="0.01mm" ry="0.01mm" stroke="purple" width="16.265mm" x="32.85mm" y="168.7mm" /><rect fill="none" height="16.265mm" rx="0.01mm" ry="0.01mm" stroke="purple" width="16.265mm" x="51.9mm" y="128.1mm" /><rect fill="none" height="16.265mm" rx="0.01mm" ry="0.01mm" stroke="purple" width="16.265mm" x="51.9mm" y="147.14999999999998mm" /><rect fill="none" height="16.265mm" rx="0.01mm" ry="0.01mm" stroke="purple" width="16.265mm" x="51.9mm" y="166.2mm" /><rect fill="none" height="16.265mm" rx="0.01mm" ry="0.01mm" stroke="purple" width="16.265mm" x="70.95mm" y="125.6mm" /><rect fill="none" height="16.265mm" rx="0.01mm" ry="0.01mm" stroke="purple" width="16.265mm" x="70.95mm" y="144.65mm" /><rect fill="none" height="16.265mm" rx="0.01mm" ry="0.01mm" stroke="purple" width="16.265mm" x="70.95mm" y="163.7mm" /><rect fill="none" height="16.265mm" rx="0.01mm" ry="0.01mm" stroke="purple" width="16.265mm" x="90.0mm" y="128.2mm" /><rect fill="none" height="16.265mm" rx="0.01mm" ry="0.01mm" stroke="purple" width="16.265mm" x="90.0mm" y="147.25mm" /><rect fill="none" height="16.265mm" rx="0.01mm" ry="0.01mm" stroke="purple" width="16.265mm" x="90.0mm" y="166.3mm" /><rect fill="none" height="16.265mm" rx="0.01mm" ry="0.01mm" stroke="purple" width="16.265mm" x="109.05mm" y="132.7mm" /><rect fill="none" height="16.265mm" rx="0.01mm" ry="0.01mm" stroke="purple" width="16.265mm" x="109.05mm" y="151.75mm" /><rect fill="none" height="16.265mm" rx="0.01mm" ry="0.01mm" stroke="purple" width="16.265mm" x="109.05mm" y="170.8mm" /><rect fill="none" height="16.265mm" rx="0.01mm" ry="0.01mm" stroke="purple" width="16.265mm" x="128.1mm" y="132.7mm" /><rect fill="none" height="16.265mm" rx="0.01mm" ry="0.01mm" stroke="purple" width="16.265mm" x="128.1mm" y="151.75mm" /><rect fill="none" height="16.265mm" rx="0.01mm" ry="0.01mm" stroke="purple" width="16.265mm" x="128.1mm" y="170.8mm" /><rect fill="none" height="16.265mm" rx="0.01mm" ry="0.01mm" stroke="purple" transform="rotate(0, 75.33488375, 632.3386962499999)" width="16.265mm" x="11.8mm" y="159.17499999999998mm" /><rect fill="none" height="16.265mm" rx="0.01mm" ry="0.01mm" stroke="purple" transform="rotate(0, 262.89257125, 735.48125125)" width="16.265mm" x="61.425mm" y="186.465mm" /><rect fill="none" height="16.265mm" rx="0.01mm" ry="0.01mm" stroke="purple" transform="rotate(-15, 179.74357125, 749.65437625)" width="16.265mm" x="39.425mm" y="190.215mm" /><rect fill="none" height="16.265mm" rx="0.01mm" ry="0.01mm" stroke="purple" transform="rotate(-25, 90.45288375000001, 760.99287625)" width="16.265mm" x="15.8mm" y="193.215mm" /><polygon fill="none" points="10.5826,436.9102 52.15710000000001,436.9102 52.15710000000001,459.5872 44.5981,459.5872 44.5981,552.18495 116.4086,552.18495 116.4086,459.5872 108.84960000000001,459.5872 108.84960000000001,436.9102 605.2869250000001,467.14619999999996 605.2869250000001,701.4752 529.6969250000002,777.0652 67.27510000000001,852.6552 10.5826,731.0777414090118" stroke="black" /><circle cx="37.8mm" cy="122.8mm" fill="none" r="0.9" stroke="purple" /><circle cx="154.15000000000003mm" cy="129.6mm" fill="none" r="0.9" stroke="purple" /><circle cx="100.525mm" cy="205.39999999999998mm" fill="none" r="0.9" stroke="purple" /><circle cx="13.8mm" cy="182.39999999999998mm" fill="none" r="0.9" stroke="purple" /><polygon fill="none" points="33.259600000000006,885.9148 52.15710000000001,885.9148 52.15710000000001,863.2378 10.5826,863.2378 10.5826,1157.4053414090117 67.27510000000001,1278.9828 529.6969250000002,1203.3927999999999 605.2869250000001,1127.8028 605.2869250000001,893.4738000000001 108.84960000000001,863.2378 101.29060000000001,863.2378 101.29060000000001,885.9148 116.4086,885.9148 116.4086,916.1508 271.935025,885.9148 556.9660175,916.1508 556.9660175,1023.9799350000001 582.6099250000001,1105.1258 507.0199250000001,1180.7158 343.9345,1166.6371625000002 343.9345,1202.6369 89.9521,1256.3057999999999 33.259600000000006,1134.7283414090118 71.05460000000001,1134.7283414090118 71.05460000000001,1096.9333414090117 33.259600000000006,1096.9333414090117" stroke="purple" /><circle cx="37.8mm" cy="235.6mm" fill="none" r="0.9" stroke="purple" /><circle cx="154.15000000000003mm" cy="242.4mm" fill="none" r="0.9" stroke="purple" /><circle cx="100.525mm" cy="318.2mm" fill="none" r="0.9" stroke="purple" /><circle cx="13.8mm" cy="295.2mm" fill="none" r="0.9" stroke="purple" /><polygon fill="none" points="638.5465250000001,33.259600000000006 657.4440250000001,33.259600000000006 657.4440250000001,10.5826 615.8695250000001,10.5826 615.8695250000001,304.75014140901186 672.5620250000001,426.3276 1134.9838500000003,350.7376 1210.5738500000002,275.1476 1210.5738500000002,40.8186 714.1365250000001,10.5826 706.577525,10.5826 706.577525,33.259600000000006 721.6955250000001,33.259600000000006 721.6955250000001,63.4956 877.2219500000001,33.259600000000006 1162.2529425,63.4956 1162.2529425,171.324735 1187.8968500000003,252.4706 1112.3068500000004,328.0606 949.2214250000002,313.98196249999995 949.2214250000002,349.9817 695.2390250000001,403.6506 638.5465250000001,282.07314140901184 676.341525,282.07314140901184 676.341525,244.27814140901185 638.5465250000001,244.27814140901185" stroke="purple" /><circle cx="197.95000000000002mm" cy="10.0mm" fill="none" r="0.9" stroke="purple" /><circle cx="314.30000000000007mm" cy="16.8mm" fill="none" r="0.9" stroke="purple" /><circle cx="260.675mm" cy="92.6mm" fill="none" r="0.9" stroke="purple" /><circle cx="173.95000000000002mm" cy="69.6mm" fill="none" r="0.9" stroke="purple" /><polygon fill="none" points="10.5826,1289.5654 108.84960000000001,1289.5654 605.2869250000001,1319.8014 605.2869250000001,1554.1304 529.6969250000002,1629.7204 67.27510000000001,1705.3104 10.5826,1583.7329414090118" stroke="black" /><circle cx="37.8mm" cy="348.4mm" fill="none" r="0.9" stroke="purple" /><circle cx="154.15000000000003mm" cy="355.2mm" fill="none" r="0.9" stroke="purple" /><circle cx="100.525mm" cy="431.0mm" fill="none" r="0.9" stroke="purple" /><circle cx="13.8mm" cy="408.0mm" fill="none" r="0.9" stroke="purple" /><polygon fill="none" points="615.8695250000001,436.9102 714.1365250000001,436.9102 1210.5738500000002,467.14619999999996 1210.5738500000002,701.4752 1134.9838500000003,777.0652 672.5620250000001,852.6552 615.8695250000001,731.0777414090118" stroke="black" /><polygon fill="none" points="724.18054625,488.33974624999996 796.1800212500001,488.33974624999996 796.1800212500001,478.89099625 868.1794962500002,478.89099625 868.1794962500002,469.44224625 940.1789712500001,469.44224625 940.1789712500001,479.26894625 1012.1784462500001,479.26894625 1012.1784462500001,496.27669625000004 1084.17792125,496.27669625000004 1084.17792125,496.27669625000004 1156.1773962500001,496.27669625000004 1156.1773962500001,712.27512125 1084.17792125,712.27512125 1084.17792125,712.27512125 1012.1784462500001,712.27512125 1012.1784462500001,695.26737125 940.1789712500001,695.26737125 940.1789712500001,685.44067125 868.1794962500002,685.44067125 868.1794962500002,694.88942125 796.1800212500001,694.88942125 796.1800212500001,704.3381712500001 724.18054625,704.3381712500001" stroke="purple" /><polygon fill="none" points="644.62207125,596.33895875 716.62154625,596.33895875 716.62154625,668.3384337499999 644.62207125,668.3384337499999" stroke="purple" /><polygon fill="none" points="832.17975875,699.48151375 904.1792337500001,699.48151375 904.1792337500001,771.48098875 832.17975875,771.48098875" stroke="purple" /><polygon fill="none" points="740.9400023754316,724.1987177428143 810.4861547571857,705.5638823754316 829.1209901245686,775.1100347571856 759.5748377428145,793.7448701245685" stroke="purple" /><polygon fill="none" points="647.8988198371032,743.5801803078463 713.1525046921539,713.1518873371033 743.5807976628969,778.4055721921538 678.3271128078462,808.8338651628968" stroke="purple" /><polygon fill="none" points="615.8695250000001,863.2378 714.1365250000001,863.2378 1210.5738500000002,893.4738000000001 1210.5738500000002,1127.8028 1134.9838500000003,1203.3927999999999 672.5620250000001,1278.9828 615.8695250000001,1157.4053414090117" stroke="black" /><polygon fill="none" points="724.18054625,914.66734625 796.1800212500001,914.66734625 796.1800212500001,905.21859625 868.1794962500002,905.21859625 868.1794962500002,895.76984625 940.1789712500001,895.76984625 940.1789712500001,905.5965462500001 1012.1784462500001,905.5965462500001 1012.1784462500001,922.6042962500001 1084.17792125,922.6042962500001 1084.17792125,922.6042962500001 1156.1773962500001,922.6042962500001 1156.1773962500001,1138.60272125 1084.17792125,1138.60272125 1084.17792125,1138.60272125 1012.1784462500001,1138.60272125 1012.1784462500001,1121.59497125 940.1789712500001,1121.59497125 940.1789712500001,1111.7682712500002 868.1794962500002,1111.7682712500002 868.1794962500002,1121.21702125 796.1800212500001,1121.21702125 796.1800212500001,1130.66577125 724.18054625,1130.66577125" stroke="purple" /><polygon fill="none" points="644.62207125,1022.6665587499999 716.62154625,1022.6665587499999 716.62154625,1094.66603375 644.62207125,1094.66603375" stroke="purple" /><polygon fill="none" points="832.17975875,1125.80911375 904.1792337500001,1125.80911375 904.1792337500001,1197.8085887500001 832.17975875,1197.8085887500001" stroke="purple" /><polygon fill="none" points="740.9400023754316,1150.5263177428144 810.4861547571857,1131.8914823754317 829.1209901245686,1201.4376347571856 759.5748377428145,1220.0724701245686" stroke="purple" /><polygon fill="none" points="647.8988198371032,1169.9077803078462 713.1525046921539,1139.4794873371034 743.5807976628969,1204.733172192154 678.3271128078462,1235.1614651628968" stroke="purple" /></svg>