<?xml version="1.0" encoding="utf-8" ?>
<svg baseProfile="full" height="600mm" version="1.1" width="400mm" xmlns="http://www.w3.org/2000/svg" xmlns:ev="http://www.w3.org/2001/xml-events" xmlns:xlink="http://www.w3.org/1999/xlink"><defs /><rect fill="none" height="13.75mm" rx="0.01mm" ry="0.01mm" stroke="#0000ff" width="13.75mm" x="33.85mm" y="47.849999999999994mm" /><rect fill="none" height="13.75mm" rx="0.01mm" ry="0.01mm" stroke="#0000ff" width="13.75mm" x="33.85mm" y="66.89999999999999mm" /><rect fill="none" height="13.75mm" rx="0.01mm" ry="0.01mm" stroke="#0000ff" width="13.75mm" x="33.85mm" y="85.95mm" /><rect fill="none" height="13.75mm" rx="0.01mm" ry="0.01mm" stroke="#0000ff" width="13.75mm" x="52.9mm" y="43.349999999999994mm" /><rect fill="none" height="13.75mm" rx="0.01mm" ry="0.01mm" stroke="#0000ff" width="13.75mm" x="52.9mm" y="62.39999999999999mm" /><rect fill="none" height="13.75mm" rx="0.01mm" ry="0.01mm" stroke="#0000ff" width="13.75mm" x="52.9mm" y="81.45mm" /><rect fill="none" height="13.75mm" rx="0.01mm" ry="0.01mm" stroke="#0000ff" width="13.75mm" x="71.95mm" y="40.849999999999994mm" /><rect fill="none" height="13.75mm" rx="0.01mm" ry="0.01mm" stroke="#0000ff" width="13.75mm" x="71.95mm" y="59.89999999999999mm" /><rect fill="none" height="13.75mm" rx="0.01mm" ry="0.01mm" stroke="#0000ff" width="13.75mm" x="71.95mm" y="78.95mm" /><rect fill="none" height="13.75mm" rx="0.01mm" ry="0.01mm" stroke="#0000ff" width="13.75mm" x="91.0mm" y="44.64999999999999mm" /><rect fill="none" height="13.75mm" rx="0.01mm" ry="0.01mm" stroke="#0000ff" width="13.75mm" x="91.0mm" y="63.69999999999999mm" /><rect fill="none" height="13.75mm" rx="0.01mm" ry="0.01mm" stroke="#0000ff" width="13.75mm" x="91.0mm" y="82.74999999999999mm" /><rect fill="none" height="13.75mm" rx="0.01mm" ry="0.01mm" stroke="#0000ff" width="13.75mm" x="110.05mm" y="53.14999999999999mm" /><rect fill="none" height="13.75mm" rx="0.01mm" ry="0.01mm" stroke="#0000ff" width="13.75mm" x="110.05mm" y="72.19999999999999mm" /><rect fill="none" height="13.75mm" rx="0.01mm" ry="0.01mm" stroke="#0000ff" width="13.75mm" x="110.05mm" y="91.24999999999999mm" /><rect fill="none" height="13.75mm" rx="0.01mm" ry="0.01mm" stroke="#0000ff" width="13.75mm" x="129.1mm" y="55.14999999999999mm" /><rect fill="none" height="13.75mm" rx="0.01mm" ry="0.01mm" stroke="#0000ff" width="13.75mm" x="129.1mm" y="74.19999999999999mm" /><rect fill="none" height="13.75mm" rx="0.01mm" ry="0.01mm" stroke="#0000ff" width="13.75mm" x="129.1mm" y="93.24999999999999mm" /><rect fill="none" height="13.75mm" rx="0.01mm" ry="0.01mm" stroke="#0000ff" transform="rotate(65, 89.4796625, 441.5400875)" width="13.75mm" x="16.8mm" y="109.95mm" /><rect fill="none" height="13.75mm" rx="0.01mm" ry="0.01mm" stroke="#0000ff" transform="rotate(0, 74.36166250000001, 314.83235)" width="13.75mm" x="12.8mm" y="76.425mm" /><rect fill="none" height="13.75mm" rx="0.01mm" ry="0.01mm" stroke="#0000ff" transform="rotate(-8, 261.91935, 408.4694625)" width="13.75mm" x="62.425mm" y="101.2mm" /><rect fill="none" height="13.75mm" rx="0.01mm" ry="0.01mm" stroke="#0000ff" transform="rotate(-15, 178.77034999999998, 430.2015875)" width="13.75mm" x="40.425mm" y="106.95mm" /><rect fill="none" height="13.75mm" rx="0.01mm" ry="0.01mm" stroke="#0000ff" transform="rotate(0, 153.9201375, 104.5976625)" width="13.75mm" x="33.85mm" y="20.8mm" /><rect fill="none" height="13.75mm" rx="0.01mm" ry="0.01mm" stroke="#0000ff" transform="rotate(0, 225.9196125, 104.5976625)" width="13.75mm" x="52.9mm" y="20.8mm" /><rect fill="none" height="13.75mm" rx="0.01mm" ry="0.01mm" stroke="#0000ff" transform="rotate(0, 297.9190875, 104.5976625)" width="13.75mm" x="71.95mm" y="20.8mm" /><rect fill="none" height="13.75mm" rx="0.01mm" ry="0.01mm" stroke="#0000ff" transform="rotate(0, 369.9185625, 104.5976625)" width="13.75mm" x="91.0mm" y="20.8mm" /><rect fill="none" height="13.75mm" rx="0.01mm" ry="0.01mm" stroke="#0000ff" transform="rotate(0, 441.9180375, 104.5976625)" width="13.75mm" x="110.05mm" y="20.8mm" /><rect fill="none" height="13.75mm" rx="0.01mm" ry="0.01mm" stroke="#0000ff" transform="rotate(0, 513.9175125, 104.5976625)" width="13.75mm" x="129.1mm" y="20.8mm" /><rect fill="none" height="13.75mm" rx="0.01mm" ry="0.01mm" stroke="#0000ff" transform="rotate(0, 612.3734875, 104.5976625)" width="13.75mm" x="155.15mm" y="20.8mm" /><rect fill="none" height="13.75mm" rx="0.01mm" ry="0.01mm" stroke="#0000ff" transform="rotate(0, 612.3734875, 176.59713749999997)" width="13.75mm" x="155.15mm" y="39.849999999999994mm" /><rect fill="none" height="13.75mm" rx="0.01mm" ry="0.01mm" stroke="#0000ff" transform="rotate(0, 612.3734875, 248.59661250000002)" width="13.75mm" x="155.15mm" y="58.9mm" /><polygon fill="none" points="10.5826,10.5826 52.15710000000001,10.5826 52.15710000000001,33.259600000000006 44.5981,33.259600000000006 44.5981,125.85735 116.4086,125.85735 116.4086,33.259600000000006 108.84960000000001,33.259600000000006 108.84960000000001,10.5826 677.0974250000002,40.8186 677.0974250000002,385.3200250000001 601.5074250000001,460.9100250000001 67.27510000000001,536.500025 10.5826,414.9225664090119" stroke="#000000" /><polygon fill="none" points="639.3024250000002,379.3673125 567.4919250000002,379.3673125 567.4919250000002,360.4698125 582.6099250000001,360.4698125 582.6099250000001,377.0996125 593.9484250000002,377.0996125 593.9484250000002,302.26551250000006 582.6099250000001,302.26551250000006 582.6099250000001,318.8953125 567.4919250000002,318.8953125 567.4919250000002,299.9978125 639.3024250000002,299.9978125" stroke="#0000ff" /><rect fill="none" height="15.75mm" rx="0.01mm" ry="0.01mm" stroke="#0000ff" width="15.75mm" x="32.85mm" y="188.8mm" /><rect fill="none" height="15.75mm" rx="0.01mm" ry="0.01mm" stroke="#0000ff" width="15.75mm" x="32.85mm" y="207.85mm" /><rect fill="none" height="15.75mm" rx="0.01mm" ry="0.01mm" stroke="#0000ff" width="15.75mm" x="32.85mm" y="226.9mm" /><rect fill="none" height="15.75mm" rx="0.01mm" ry="0.01mm" stroke="#0000ff" width="15.75mm" x="51.9mm" y="184.3mm" /><rect fill="none" height="15.75mm" rx="0.01mm" ry="0.01mm" stroke="#0000ff" width="15.75mm" x="51.9mm" y="203.35mm" /><rect fill="none" height="15.75mm" rx="0.01mm" ry="0.01mm" stroke="#0000ff" width="15.75mm" x="51.9mm" y="222.4mm" /><rect fill="none" height="15.75mm" rx="0.01mm" ry="0.01mm" stroke="#0000ff" width="15.75mm" x="70.95mm" y="181.8mm" /><rect fill="none" height="15.75mm" rx="0.01mm" ry="0.01mm" stroke="#0000ff" width="15.75mm" x="70.95mm" y="200.85mm" /><rect fill="none" height="15.75mm" rx="0.01mm" ry="0.01mm" stroke="#0000ff" width="15.75mm" x="70.95mm" y="219.9mm" /><rect fill="none" height="15.75mm" rx="0.01mm" ry="0.01mm" stroke="#0000ff" width="15.75mm" x="90.0mm" y="185.6mm" /><rect fill="none" height="15.75mm" rx="0.01mm" ry="0.01mm" stroke="#0000ff" width="15.75mm" x="90.0mm" y="204.64999999999998mm" /><rect fill="none" height="15.75mm" rx="0.01mm" ry="0.01mm" stroke="#0000ff" width="15.75mm" x="90.0mm" y="223.7mm" /><rect fill="none" height="15.75mm" rx="0.01mm" ry="0.01mm" stroke="#0000ff" width="15.75mm" x="109.05mm" y="194.1mm" /><rect fill="none" height="15.75mm" rx="0.01mm" ry="0.01mm" stroke="#0000ff" width="15.75mm" x="109.05mm" y="213.14999999999998mm" /><rect fill="none" height="15.75mm" rx="0.01mm" ry="0.01mm" stroke="#0000ff" width="15.75mm" x="109.05mm" y="232.2mm" /><rect fill="none" height="15.75mm" rx="0.01mm" ry="0.01mm" stroke="#0000ff" width="15.75mm" x="128.1mm" y="196.1mm" /><rect fill="none" height="15.75mm" rx="0.01mm" ry="0.01mm" stroke="#0000ff" width="15.75mm" x="128.1mm" y="215.14999999999998mm" /><rect fill="none" height="15.75mm" rx="0.01mm" ry="0.01mm" stroke="#0000ff" width="15.75mm" x="128.1mm" y="234.2mm" /><rect fill="none" height="15.75mm" rx="0.01mm" ry="0.01mm" stroke="#0000ff" transform="rotate(65, 89.4796625, 978.0401125)" width="15.75mm" x="15.8mm" y="250.9mm" /><rect fill="none" height="15.75mm" rx="0.01mm" ry="0.01mm" stroke="#0000ff" transform="rotate(0, 74.36166250000001, 851.3323750000001)" width="15.75mm" x="11.8mm" y="217.375mm" /><rect fill="none" height="15.75mm" rx="0.01mm" ry="0.01mm" stroke="#0000ff" transform="rotate(-8, 261.91935, 944.9694875)" width="15.75mm" x="61.425mm" y="242.15mm" /><rect fill="none" height="15.75mm" rx="0.01mm" ry="0.01mm" stroke="#0000ff" transform="rotate(-15, 178.77034999999998, 966.7016125)" width="15.75mm" x="39.425mm" y="247.9mm" /><rect fill="none" height="15.75mm" rx="0.01mm" ry="0.01mm" stroke="#0000ff" transform="rotate(0, 153.9201375, 641.0976875)" width="15.75mm" x="32.85mm" y="161.75mm" /><rect fill="none" height="15.75mm" rx="0.01mm" ry="0.01mm" stroke="#0000ff" transform="rotate(0, 225.9196125, 641.0976875)" width="15.75mm" x="51.9mm" y="161.75mm" /><rect fill="none" height="15.75mm" rx="0.01mm" ry="0.01mm" stroke="#0000ff" transform="rotate(0, 297.9190875, 641.0976875)" width="15.75mm" x="70.95mm" y="161.75mm" /><rect fill="none" height="15.75mm" rx="0.01mm" ry="0.01mm" stroke="#0000ff" transform="rotate(0, 369.9185625, 641.0976875)" width="15.75mm" x="90.0mm" y="161.75mm" /><rect fill="none" height="15.75mm" rx="0.01mm" ry="0.01mm" stroke="#0000ff" transform="rotate(0, 441.9180375, 641.0976875)" width="15.75mm" x="109.05mm" y="161.75mm" /><rect fill="none" height="15.75mm" rx="0.01mm" ry="0.01mm" stroke="#0000ff" transform="rotate(0, 513.9175125, 641.0976875)" width="15.75mm" x="128.1mm" y="161.75mm" /><rect fill="none" height="15.75mm" rx="0.01mm" ry="0.01mm" stroke="#0000ff" transform="rotate(0, 612.3734875, 641.0976875)" width="15.75mm" x="154.15mm" y="161.75mm" /><rect fill="none" height="15.75mm" rx="0.01mm" ry="0.01mm" stroke="#0000ff" transform="rotate(0, 612.3734875, 713.0971625000001)" width="15.75mm" x="154.15mm" y="180.8mm" /><rect fill="none" height="15.75mm" rx="0.01mm" ry="0.01mm" stroke="#0000ff" transform="rotate(0, 612.3734875, 785.0966375)" width="15.75mm" x="154.15mm" y="199.85mm" /><polygon fill="none" points="10.5826,547.082625 52.15710000000001,547.082625 52.15710000000001,569.759625 44.5981,569.759625 44.5981,662.357375 116.4086,662.357375 116.4086,569.759625 108.84960000000001,569.759625 108.84960000000001,547.082625 677.0974250000002,577.318625 677.0974250000002,921.8200499999999 601.5074250000001,997.41005 67.27510000000001,1073.0000499999999 10.5826,951.4225914090117" stroke="#000000" /><circle cx="37.8mm" cy="151.95mm" fill="none" r="0.9" stroke="#0000ff" /><circle cx="173.15000000000003mm" cy="158.75mm" fill="none" r="0.9" stroke="#0000ff" /><circle cx="100.525mm" cy="262.8mm" fill="none" r="0.9" stroke="#0000ff" /><circle cx="13.8mm" cy="240.60000000000002mm" fill="none" r="0.9" stroke="#0000ff" /><polygon fill="none" points="639.3024250000002,915.8673375 567.4919250000002,915.8673375 567.4919250000002,896.9698374999999 582.6099250000001,896.9698374999999 582.6099250000001,913.5996375 593.9484250000002,913.5996375 593.9484250000002,838.7655375 582.6099250000001,838.7655375 582.6099250000001,855.3953375 567.4919250000002,855.3953375 567.4919250000002,836.4978375 639.3024250000002,836.4978375" stroke="#0000ff" /><polygon fill="none" points="33.259600000000006,1106.25965 52.15710000000001,1106.25965 52.15710000000001,1098.70065 108.84960000000001,1098.70065 108.84960000000001,1091.14165 52.15710000000001,1091.14165 52.15710000000001,1083.58265 10.5826,1083.58265 10.5826,1487.9226164090119 67.27510000000001,1609.5000750000002 601.5074250000001,1533.910075 677.0974250000002,1458.320075 677.0974250000002,1113.81865 108.84960000000001,1083.58265 108.84960000000001,1083.58265 108.84960000000001,1098.70065 108.84960000000001,1091.14165 108.84960000000001,1106.25965 116.4086,1106.25965 116.4086,1136.49565 271.935025,1106.25965 654.4204250000001,1136.49565 654.4204250000001,1188.463775 654.4204250000001,1435.6430750000002 578.8304250000001,1511.233075 343.9345,1493.7528874999998 343.9345,1529.7526249999999 89.9521,1586.823075 33.259600000000006,1465.245616409012 71.05460000000001,1465.245616409012 71.05460000000001,1427.450616409012 33.259600000000006,1427.450616409012" stroke="#000000" /><circle cx="37.8mm" cy="293.9mm" fill="none" r="0.9" stroke="#0000ff" /><circle cx="173.15000000000003mm" cy="300.7mm" fill="none" r="0.9" stroke="#0000ff" /><circle cx="100.525mm" cy="404.75mm" fill="none" r="0.9" stroke="#0000ff" /><circle cx="13.8mm" cy="382.55mm" fill="none" r="0.9" stroke="#0000ff" /><polygon fill="none" points="710.3570250000001,33.259600000000006 729.2545250000001,33.259600000000006 729.2545250000001,25.7006 785.947025,25.7006 785.947025,18.1416 729.2545250000001,18.1416 729.2545250000001,10.5826 687.6800250000001,10.5826 687.6800250000001,414.9225664090119 744.3725250000001,536.500025 1278.6048500000004,460.9100250000001 1354.1948500000003,385.3200250000001 1354.1948500000003,40.8186 785.947025,10.5826 785.947025,10.5826 785.947025,25.7006 785.947025,18.1416 785.947025,33.259600000000006 793.5060250000001,33.259600000000006 793.5060250000001,63.4956 949.0324500000002,33.259600000000006 1331.5178500000002,63.4956 1331.5178500000002,290.83252500000003 1232.117,290.83252500000003 1232.117,438.23302500000005 1021.0319250000001,420.75283749999994 1021.0319250000001,456.752575 767.0495250000001,513.823025 710.3570250000001,392.2455664090119 748.1520250000001,392.2455664090119 748.1520250000001,354.4505664090119 710.3570250000001,354.4505664090119" stroke="#000000" /><circle cx="216.95000000000002mm" cy="10.0mm" fill="none" r="0.9" stroke="#0000ff" /><circle cx="352.30000000000007mm" cy="16.8mm" fill="none" r="0.9" stroke="#0000ff" /><circle cx="279.675mm" cy="120.85mm" fill="none" r="0.9" stroke="#0000ff" /><circle cx="192.95000000000002mm" cy="98.65mm" fill="none" r="0.9" stroke="#0000ff" /><polygon fill="none" points="1316.3998500000002,379.3673125 1244.5893500000002,379.3673125 1244.5893500000002,360.4698125 1259.7073500000004,360.4698125 1259.7073500000004,377.0996125 1271.0458500000002,377.0996125 1271.0458500000002,302.26551250000006 1259.7073500000004,302.26551250000006 1259.7073500000004,318.8953125 1244.5893500000002,318.8953125 1244.5893500000002,299.9978125 1316.3998500000002,299.9978125" stroke="#0000ff" /><polygon fill="none" points="10.5826,1620.082675 108.84960000000001,1620.082675 677.0974250000002,1650.3186750000002 677.0974250000002,1994.8201000000004 601.5074250000001,2070.4101000000005 67.27510000000001,2146.0001 10.5826,2024.4226414090124" stroke="#000000" /><circle cx="37.8mm" cy="435.85mm" fill="none" r="0.9" stroke="#0000ff" /><circle cx="173.15000000000003mm" cy="442.65000000000003mm" fill="none" r="0.9" stroke="#0000ff" /><circle cx="100.525mm" cy="546.7mm" fill="none" r="0.9" stroke="#0000ff" /><circle cx="13.8mm" cy="524.5mm" fill="none" r="0.9" stroke="#0000ff" /><polygon fill="none" points="687.6800250000001,547.082625 785.947025,547.082625 1354.1948500000003,577.318625 1354.1948500000003,921.8200499999999 1278.6048500000004,997.41005 744.3725250000001,1073.0000499999999 687.6800250000001,951.4225914090117" stroke="#000000" /><polygon fill="none" points="795.0178250000001,707.333425 867.0173000000001,707.333425 867.0173000000001,690.325675 939.016775,690.325675 939.016775,680.876925 1011.01625,680.876925 1011.01625,695.239025 1083.015725,695.239025 1083.015725,727.364775 1155.0152,727.364775 1155.0152,734.923775 1227.014675,734.923775 1227.014675,950.9221999999999 1155.0152,950.9221999999999 1155.0152,943.3631999999999 1083.015725,943.3631999999999 1083.015725,911.2374499999999 1011.01625,911.2374499999999 1011.01625,896.87535 939.016775,896.87535 939.016775,906.3241 867.0173000000001,906.3241 867.0173000000001,923.33185 795.0178250000001,923.33185" stroke="#0000ff" /><polygon fill="none" points="772.5791735781254,905.7289917664593 825.8286862769254,1019.9229402627979 760.575001421875,1050.3512332335408 707.3254887230747,936.1572847372022" stroke="#0000ff" /><polygon fill="none" points="715.4593500000001,815.3326375 787.458825,815.3326375 787.458825,887.3321124999999 715.4593500000001,887.3321124999999" stroke="#0000ff" /><polygon fill="none" points="898.3571893690482,914.3302920722949 969.6559704277053,904.3099018690482 979.676360630952,975.6086829277052 908.377579572295,985.629073130952" stroke="#0000ff" /><polygon fill="none" points="811.7772811254316,941.2459539928144 881.3234335071858,922.6111186254316 899.9582688745686,992.1572710071857 830.4121164928144,1010.7921063745684" stroke="#0000ff" /><polygon fill="none" points="795.0178250000001,605.09795 867.0173000000001,605.09795 867.0173000000001,677.097425 795.0178250000001,677.097425" stroke="#0000ff" /><polygon fill="none" points="867.0173000000001,605.09795 939.016775,605.09795 939.016775,677.097425 867.0173000000001,677.097425" stroke="#0000ff" /><polygon fill="none" points="939.016775,605.09795 1011.01625,605.09795 1011.01625,677.097425 939.016775,677.097425" stroke="#0000ff" /><polygon fill="none" points="1011.01625,605.09795 1083.015725,605.09795 1083.015725,677.097425 1011.01625,677.097425" stroke="#0000ff" /><polygon fill="none" points="1083.015725,605.09795 1155.0152,605.09795 1155.0152,677.097425 1083.015725,677.097425" stroke="#0000ff" /><polygon fill="none" points="1155.0152,605.09795 1227.014675,605.09795 1227.014675,677.097425 1155.0152,677.097425" stroke="#0000ff" /><polygon fill="none" points="1253.471175,605.09795 1325.4706500000002,605.09795 1325.4706500000002,677.097425 1253.471175,677.097425" stroke="#0000ff" /><polygon fill="none" points="1253.471175,677.097425 1325.4706500000002,677.097425 1325.4706500000002,749.0969 1253.471175,749.0969" stroke="#0000ff" /><polygon fill="none" points="1253.471175,749.0969 1325.4706500000002,749.0969 1325.4706500000002,821.096375 1253.471175,821.096375" stroke="#0000ff" /><polygon fill="none" points="687.6800250000001,1083.58265 785.947025,1083.58265 1354.1948500000003,1113.81865 1354.1948500000003,1458.320075 1278.6048500000004,1533.910075 744.3725250000001,1609.5000750000002 687.6800250000001,1487.9226164090119" stroke="#000000" /><polygon fill="none" points="795.0178250000001,1243.8334499999999 867.0173000000001,1243.8334499999999 867.0173000000001,1226.8256999999999 939.016775,1226.8256999999999 939.016775,1217.3769499999999 1011.01625,1217.3769499999999 1011.01625,1231.73905 1083.015725,1231.73905 1083.015725,1263.8647999999998 1155.0152,1263.8647999999998 1155.0152,1271.4238 1227.014675,1271.4238 1227.014675,1487.4222249999998 1155.0152,1487.4222249999998 1155.0152,1479.8632249999998 1083.015725,1479.8632249999998 1083.015725,1447.737475 1011.01625,1447.737475 1011.01625,1433.375375 939.016775,1433.375375 939.016775,1442.824125 867.0173000000001,1442.824125 867.0173000000001,1459.831875 795.0178250000001,1459.831875" stroke="#0000ff" /><polygon fill="none" points="772.5791735781254,1442.2290167664594 825.8286862769254,1556.4229652627978 760.575001421875,1586.8512582335406 707.3254887230747,1472.6573097372022" stroke="#0000ff" /><polygon fill="none" points="715.4593500000001,1351.8326625 787.458825,1351.8326625 787.458825,1423.8321374999998 715.4593500000001,1423.8321374999998" stroke="#0000ff" /><polygon fill="none" points="898.3571893690482,1450.830317072295 969.6559704277053,1440.8099268690482 979.676360630952,1512.1087079277052 908.377579572295,1522.129098130952" stroke="#0000ff" /><polygon fill="none" points="811.7772811254316,1477.7459789928143 881.3234335071858,1459.1111436254314 899.9582688745686,1528.6572960071856 830.4121164928144,1547.2921313745685" stroke="#0000ff" /><polygon fill="none" points="795.0178250000001,1141.5979750000001 867.0173000000001,1141.5979750000001 867.0173000000001,1213.59745 795.0178250000001,1213.59745" stroke="#0000ff" /><polygon fill="none" points="867.0173000000001,1141.5979750000001 939.016775,1141.5979750000001 939.016775,1213.59745 867.0173000000001,1213.59745" stroke="#0000ff" /><polygon fill="none" points="939.016775,1141.5979750000001 1011.01625,1141.5979750000001 1011.01625,1213.59745 939.016775,1213.59745" stroke="#0000ff" /><polygon fill="none" points="1011.01625,1141.5979750000001 1083.015725,1141.5979750000001 1083.015725,1213.59745 1011.01625,1213.59745" stroke="#0000ff" /><polygon fill="none" points="1083.015725,1141.5979750000001 1155.0152,1141.5979750000001 1155.0152,1213.59745 1083.015725,1213.59745" stroke="#0000ff" /><polygon fill="none" points="1155.0152,1141.5979750000001 1227.014675,1141.5979750000001 1227.014675,1213.59745 1155.0152,1213.59745" stroke="#0000ff" /><polygon fill="none" points="1253.471175,1141.5979750000001 1325.4706500000002,1141.5979750000001 1325.4706500000002,1213.59745 1253.471175,1213.59745" stroke="#0000ff" /><polygon fill="none" points="1253.471175,1213.59745 1325.4706500000002,1213.59745 1325.4706500000002,1285.5969249999998 1253.471175,1285.5969249999998" stroke="#0000ff" /><polygon fill="none" points="1253.471175,1285.5969249999998 1325.4706500000002,1285.5969249999998 1325.4706500000002,1357.5964 1253.471175,1357.5964" stroke="#0000ff" /><polygon fill="none" points="1316.3998500000002,1452.3673625 1244.5893500000002,1452.3673625 1244.5893500000002,1433.4698624999999 1259.7073500000004,1433.4698624999999 1259.7073500000004,1450.0996624999998 1271.0458500000002,1450.0996624999998 1271.0458500000002,1375.2655625 1259.7073500000004,1375.2655625 1259.7073500000004,1391.8953625 1244.5893500000002,1391.8953625 1244.5893500000002,1372.9978624999999 1316.3998500000002,1372.9978624999999" stroke="#0000ff" /><rect fill="none" height="13.65mm" rx="0mm" ry="0mm" stroke="#00ff00" width="13.65mm" x="184.75000000000003mm" y="570.6mm" /><rect fill="none" height="13.7mm" rx="0mm" ry="0mm" stroke="#00ff00" width="13.7mm" x="203.80000000000004mm" y="570.6mm" /><rect fill="none" height="13.75mm" rx="0mm" ry="0mm" stroke="#00ff00" width="13.75mm" x="222.85000000000002mm" y="570.6mm" /><rect fill="none" height="13.8mm" rx="0mm" ry="0mm" stroke="#00ff00" width="13.8mm" x="241.90000000000003mm" y="570.6mm" /><rect fill="none" height="13.85mm" rx="0mm" ry="0mm" stroke="#00ff00" width="13.85mm" x="260.95000000000005mm" y="570.6mm" /><rect fill="none" height="13.95mm" rx="0mm" ry="0mm" stroke="#00ff00" width="13.95mm" x="280.0mm" y="570.6mm" /><rect fill="none" height="14.05mm" rx="0mm" ry="0mm" stroke="#00ff00" width="14.05mm" x="299.05000000000007mm" y="570.6mm" /><rect fill="none" height="14.15mm" rx="0mm" ry="0mm" stroke="#00ff00" width="14.15mm" x="318.1mm" y="570.6mm" /><rect fill="none" height="14.25mm" rx="0mm" ry="0mm" stroke="#00ff00" width="14.25mm" x="337.15000000000003mm" y="570.6mm" /><rect fill="none" height="14.35mm" rx="0mm" ry="0mm" stroke="#00ff00" width="14.35mm" x="356.20000000000005mm" y="570.6mm" /></svg>