<?xml version="1.0" encoding="utf-8" ?>
<svg baseProfile="full" height="400mm" version="1.1" width="600mm" xmlns="http://www.w3.org/2000/svg" xmlns:ev="http://www.w3.org/2001/xml-events" xmlns:xlink="http://www.w3.org/1999/xlink"><defs /><rect fill="none" height="14mm" rx="0.1mm" ry="0.1mm" stroke="black" width="14mm" x="30.05mm" y="15.0mm" /><rect fill="none" height="14mm" rx="0.1mm" ry="0.1mm" stroke="black" width="14mm" x="30.05mm" y="34.05mm" /><rect fill="none" height="14mm" rx="0.1mm" ry="0.1mm" stroke="black" width="14mm" x="30.05mm" y="53.1mm" /><rect fill="none" height="14mm" rx="0.1mm" ry="0.1mm" stroke="black" width="14mm" x="49.1mm" y="12.5mm" /><rect fill="none" height="14mm" rx="0.1mm" ry="0.1mm" stroke="black" width="14mm" x="49.1mm" y="31.55mm" /><rect fill="none" height="14mm" rx="0.1mm" ry="0.1mm" stroke="black" width="14mm" x="49.1mm" y="50.6mm" /><rect fill="none" height="14mm" rx="0.1mm" ry="0.1mm" stroke="black" width="14mm" x="68.15mm" y="10.0mm" /><rect fill="none" height="14mm" rx="0.1mm" ry="0.1mm" stroke="black" width="14mm" x="68.15mm" y="29.05mm" /><rect fill="none" height="14mm" rx="0.1mm" ry="0.1mm" stroke="black" width="14mm" x="68.15mm" y="48.1mm" /><rect fill="none" height="14mm" rx="0.1mm" ry="0.1mm" stroke="black" width="14mm" x="87.2mm" y="12.6mm" /><rect fill="none" height="14mm" rx="0.1mm" ry="0.1mm" stroke="black" width="14mm" x="87.2mm" y="31.65mm" /><rect fill="none" height="14mm" rx="0.1mm" ry="0.1mm" stroke="black" width="14mm" x="87.2mm" y="50.7mm" /><rect fill="none" height="14mm" rx="0.1mm" ry="0.1mm" stroke="black" width="14mm" x="106.25mm" y="17.1mm" /><rect fill="none" height="14mm" rx="0.1mm" ry="0.1mm" stroke="black" width="14mm" x="106.25mm" y="36.150000000000006mm" /><rect fill="none" height="14mm" rx="0.1mm" ry="0.1mm" stroke="black" width="14mm" x="106.25mm" y="55.2mm" /><rect fill="none" height="14mm" rx="0.1mm" ry="0.1mm" stroke="black" width="14mm" x="125.3mm" y="17.1mm" /><rect fill="none" height="14mm" rx="0.1mm" ry="0.1mm" stroke="black" width="14mm" x="125.3mm" y="36.150000000000006mm" /><rect fill="none" height="14mm" rx="0.1mm" ry="0.1mm" stroke="black" width="14mm" x="125.3mm" y="55.2mm" /><rect fill="none" height="14mm" rx="0.1mm" ry="0.1mm" stroke="black" transform="rotate(0, 45.354, 191.1482125)" width="14mm" x="5mm" y="43.574999999999996mm" /><rect fill="none" height="14mm" rx="0.1mm" ry="0.1mm" stroke="black" transform="rotate(0, 248.0296875, 293.2892)" width="14mm" x="58.625mm" y="70.6mm" /><rect fill="none" height="14mm" rx="0.1mm" ry="0.1mm" stroke="black" transform="rotate(-15, 164.8806875, 307.46232499999996)" width="14mm" x="36.625mm" y="74.35mm" /><rect fill="none" height="14mm" rx="0.1mm" ry="0.1mm" stroke="black" transform="rotate(-25, 75.59, 318.800825)" width="14mm" x="13.0mm" y="77.35mm" /><polygon fill="none" points="0.0,0.0 37.795,0.0 37.795,18.8975 22.677,18.8975 22.677,111.49525 94.4875,111.49525 94.4875,18.8975 79.3695,18.8975 79.3695,0.0 583.3658250000001,0.0 583.3658250000001,377.95 0.0,377.95" stroke="black" /><rect fill="none" height="100mm" rx="5mm" ry="5mm" stroke="black" width="154.35000000000002mm" x="318.70000000000005mm" y="0mm" /><rect fill="none" height="100mm" rx="5mm" ry="5mm" stroke="black" width="154.35000000000002mm" x="0mm" y="210mm" /></svg>