<?xml version="1.0" encoding="utf-8" ?>
<svg baseProfile="full" height="600mm" version="1.1" width="400mm" xmlns="http://www.w3.org/2000/svg" xmlns:ev="http://www.w3.org/2001/xml-events" xmlns:xlink="http://www.w3.org/1999/xlink"><defs /><rect fill="none" height="14.265mm" rx="0.01mm" ry="0.01mm" stroke="purple" width="14.265mm" x="41.05mm" y="26.0mm" /><rect fill="none" height="14.265mm" rx="0.01mm" ry="0.01mm" stroke="purple" width="14.265mm" x="289.38500000000005mm" y="26.0mm" /><rect fill="none" height="14.265mm" rx="0.01mm" ry="0.01mm" stroke="purple" width="14.265mm" x="41.05mm" y="45.05mm" /><rect fill="none" height="14.265mm" rx="0.01mm" ry="0.01mm" stroke="purple" width="14.265mm" x="289.38500000000005mm" y="45.05mm" /><rect fill="none" height="14.265mm" rx="0.01mm" ry="0.01mm" stroke="purple" width="14.265mm" x="41.05mm" y="64.1mm" /><rect fill="none" height="14.265mm" rx="0.01mm" ry="0.01mm" stroke="purple" width="14.265mm" x="289.38500000000005mm" y="64.1mm" /><rect fill="none" height="14.265mm" rx="0.01mm" ry="0.01mm" stroke="purple" width="14.265mm" x="60.1mm" y="23.5mm" /><rect fill="none" height="14.265mm" rx="0.01mm" ry="0.01mm" stroke="purple" width="14.265mm" x="270.33500000000004mm" y="23.5mm" /><rect fill="none" height="14.265mm" rx="0.01mm" ry="0.01mm" stroke="purple" width="14.265mm" x="60.1mm" y="42.55mm" /><rect fill="none" height="14.265mm" rx="0.01mm" ry="0.01mm" stroke="purple" width="14.265mm" x="270.33500000000004mm" y="42.55mm" /><rect fill="none" height="14.265mm" rx="0.01mm" ry="0.01mm" stroke="purple" width="14.265mm" x="60.1mm" y="61.6mm" /><rect fill="none" height="14.265mm" rx="0.01mm" ry="0.01mm" stroke="purple" width="14.265mm" x="270.33500000000004mm" y="61.6mm" /><rect fill="none" height="14.265mm" rx="0.01mm" ry="0.01mm" stroke="purple" width="14.265mm" x="79.15mm" y="21.0mm" /><rect fill="none" height="14.265mm" rx="0.01mm" ry="0.01mm" stroke="purple" width="14.265mm" x="251.28500000000008mm" y="21.0mm" /><rect fill="none" height="14.265mm" rx="0.01mm" ry="0.01mm" stroke="purple" width="14.265mm" x="79.15mm" y="40.05mm" /><rect fill="none" height="14.265mm" rx="0.01mm" ry="0.01mm" stroke="purple" width="14.265mm" x="251.28500000000008mm" y="40.05mm" /><rect fill="none" height="14.265mm" rx="0.01mm" ry="0.01mm" stroke="purple" width="14.265mm" x="79.15mm" y="59.1mm" /><rect fill="none" height="14.265mm" rx="0.01mm" ry="0.01mm" stroke="purple" width="14.265mm" x="251.28500000000008mm" y="59.1mm" /><rect fill="none" height="14.265mm" rx="0.01mm" ry="0.01mm" stroke="purple" width="14.265mm" x="98.2mm" y="23.6mm" /><rect fill="none" height="14.265mm" rx="0.01mm" ry="0.01mm" stroke="purple" width="14.265mm" x="232.23500000000007mm" y="23.6mm" /><rect fill="none" height="14.265mm" rx="0.01mm" ry="0.01mm" stroke="purple" width="14.265mm" x="98.2mm" y="42.65mm" /><rect fill="none" height="14.265mm" rx="0.01mm" ry="0.01mm" stroke="purple" width="14.265mm" x="232.23500000000007mm" y="42.65mm" /><rect fill="none" height="14.265mm" rx="0.01mm" ry="0.01mm" stroke="purple" width="14.265mm" x="98.2mm" y="61.7mm" /><rect fill="none" height="14.265mm" rx="0.01mm" ry="0.01mm" stroke="purple" width="14.265mm" x="232.23500000000007mm" y="61.7mm" /><rect fill="none" height="14.265mm" rx="0.01mm" ry="0.01mm" stroke="purple" width="14.265mm" x="117.25mm" y="28.1mm" /><rect fill="none" height="14.265mm" rx="0.01mm" ry="0.01mm" stroke="purple" width="14.265mm" x="213.18500000000006mm" y="28.1mm" /><rect fill="none" height="14.265mm" rx="0.01mm" ry="0.01mm" stroke="purple" width="14.265mm" x="117.25mm" y="47.150000000000006mm" /><rect fill="none" height="14.265mm" rx="0.01mm" ry="0.01mm" stroke="purple" width="14.265mm" x="213.18500000000006mm" y="47.150000000000006mm" /><rect fill="none" height="14.265mm" rx="0.01mm" ry="0.01mm" stroke="purple" width="14.265mm" x="117.25mm" y="66.2mm" /><rect fill="none" height="14.265mm" rx="0.01mm" ry="0.01mm" stroke="purple" width="14.265mm" x="213.18500000000006mm" y="66.2mm" /><rect fill="none" height="14.265mm" rx="0.01mm" ry="0.01mm" stroke="purple" width="14.265mm" x="136.3mm" y="28.1mm" /><rect fill="none" height="14.265mm" rx="0.01mm" ry="0.01mm" stroke="purple" width="14.265mm" x="194.13500000000005mm" y="28.1mm" /><rect fill="none" height="14.265mm" rx="0.01mm" ry="0.01mm" stroke="purple" width="14.265mm" x="136.3mm" y="47.150000000000006mm" /><rect fill="none" height="14.265mm" rx="0.01mm" ry="0.01mm" stroke="purple" width="14.265mm" x="194.13500000000005mm" y="47.150000000000006mm" /><rect fill="none" height="14.265mm" rx="0.01mm" ry="0.01mm" stroke="purple" width="14.265mm" x="136.3mm" y="66.2mm" /><rect fill="none" height="14.265mm" rx="0.01mm" ry="0.01mm" stroke="purple" width="14.265mm" x="194.13500000000005mm" y="66.2mm" /><rect fill="none" height="14.265mm" rx="0.01mm" ry="0.01mm" stroke="purple" transform="rotate(0, 102.54728375, 233.22349624999998)" width="14.265mm" x="20mm" y="54.574999999999996mm" /><rect fill="none" height="14.265mm" rx="0.01mm" ry="0.01mm" stroke="purple" transform="rotate(0, 1200.2463662500002, 233.22349624999998)" width="14.265mm" x="310.43500000000006mm" y="54.574999999999996mm" /><rect fill="none" height="14.265mm" rx="0.01mm" ry="0.01mm" stroke="purple" transform="rotate(0, 290.10497125, 336.36605125)" width="14.265mm" x="69.625mm" y="81.86500000000001mm" /><rect fill="none" height="14.265mm" rx="0.01mm" ry="0.01mm" stroke="purple" transform="rotate(0, 1012.6886787500002, 336.36605125)" width="14.265mm" x="260.81000000000006mm" y="81.86500000000001mm" /><rect fill="none" height="14.265mm" rx="0.01mm" ry="0.01mm" stroke="purple" transform="rotate(-15, 206.95597125, 350.53917625)" width="14.265mm" x="47.625mm" y="85.61500000000001mm" /><rect fill="none" height="14.265mm" rx="0.01mm" ry="0.01mm" stroke="purple" transform="rotate(15, 1095.8376787500001, 350.53917625)" width="14.265mm" x="282.81000000000006mm" y="85.61500000000001mm" /><rect fill="none" height="14.265mm" rx="0.01mm" ry="0.01mm" stroke="purple" transform="rotate(-25, 117.66528375, 361.87767625000004)" width="14.265mm" x="24.0mm" y="88.61500000000001mm" /><rect fill="none" height="14.265mm" rx="0.01mm" ry="0.01mm" stroke="purple" transform="rotate(25, 1185.1283662500002, 361.87767625000004)" width="14.265mm" x="306.43500000000006mm" y="88.61500000000001mm" /><polygon fill="none" points="37.795,37.795 79.3695,37.795 79.3695,60.472 64.25150000000001,60.472 64.25150000000001,153.06975 136.062,153.06975 136.062,60.472 120.944,60.472 120.944,37.795 632.4993250000001,75.59 632.4993250000001,302.36 556.9093250000001,377.95 94.4875,453.54 37.795,331.9625414090118" stroke="black" /><polygon fill="none" points="1264.9986500000002,37.795 1223.4241500000003,37.795 1223.4241500000003,60.472 1238.5421500000002,60.472 1238.5421500000002,153.06975 1166.7316500000002,153.06975 1166.7316500000002,60.472 1181.84965,60.472 1181.84965,37.795 670.2943250000001,75.59 670.2943250000001,302.36 745.8843250000001,377.95 1208.3061500000001,453.54 1264.9986500000002,331.9625414090118" stroke="black" /><rect fill="none" height="16.265mm" rx="0.01mm" ry="0.01mm" stroke="purple" width="16.265mm" x="40.05mm" y="145.0mm" /><rect fill="none" height="16.265mm" rx="0.01mm" ry="0.01mm" stroke="purple" width="16.265mm" x="40.05mm" y="164.05mm" /><rect fill="none" height="16.265mm" rx="0.01mm" ry="0.01mm" stroke="purple" width="16.265mm" x="40.05mm" y="183.1mm" /><rect fill="none" height="16.265mm" rx="0.01mm" ry="0.01mm" stroke="purple" width="16.265mm" x="59.1mm" y="142.5mm" /><rect fill="none" height="16.265mm" rx="0.01mm" ry="0.01mm" stroke="purple" width="16.265mm" x="59.1mm" y="161.55mm" /><rect fill="none" height="16.265mm" rx="0.01mm" ry="0.01mm" stroke="purple" width="16.265mm" x="59.1mm" y="180.6mm" /><rect fill="none" height="16.265mm" rx="0.01mm" ry="0.01mm" stroke="purple" width="16.265mm" x="78.15mm" y="140.0mm" /><rect fill="none" height="16.265mm" rx="0.01mm" ry="0.01mm" stroke="purple" width="16.265mm" x="78.15mm" y="159.05mm" /><rect fill="none" height="16.265mm" rx="0.01mm" ry="0.01mm" stroke="purple" width="16.265mm" x="78.15mm" y="178.1mm" /><rect fill="none" height="16.265mm" rx="0.01mm" ry="0.01mm" stroke="purple" width="16.265mm" x="97.2mm" y="142.6mm" /><rect fill="none" height="16.265mm" rx="0.01mm" ry="0.01mm" stroke="purple" width="16.265mm" x="97.2mm" y="161.65mm" /><rect fill="none" height="16.265mm" rx="0.01mm" ry="0.01mm" stroke="purple" width="16.265mm" x="97.2mm" y="180.7mm" /><rect fill="none" height="16.265mm" rx="0.01mm" ry="0.01mm" stroke="purple" width="16.265mm" x="116.25mm" y="147.1mm" /><rect fill="none" height="16.265mm" rx="0.01mm" ry="0.01mm" stroke="purple" width="16.265mm" x="116.25mm" y="166.15mm" /><rect fill="none" height="16.265mm" rx="0.01mm" ry="0.01mm" stroke="purple" width="16.265mm" x="116.25mm" y="185.2mm" /><rect fill="none" height="16.265mm" rx="0.01mm" ry="0.01mm" stroke="purple" width="16.265mm" x="135.3mm" y="147.1mm" /><rect fill="none" height="16.265mm" rx="0.01mm" ry="0.01mm" stroke="purple" width="16.265mm" x="135.3mm" y="166.15mm" /><rect fill="none" height="16.265mm" rx="0.01mm" ry="0.01mm" stroke="purple" width="16.265mm" x="135.3mm" y="185.2mm" /><rect fill="none" height="16.265mm" rx="0.01mm" ry="0.01mm" stroke="purple" transform="rotate(0, 102.54728375, 686.76349625)" width="16.265mm" x="19mm" y="173.575mm" /><rect fill="none" height="16.265mm" rx="0.01mm" ry="0.01mm" stroke="purple" transform="rotate(0, 290.10497125, 789.90605125)" width="16.265mm" x="68.625mm" y="200.865mm" /><rect fill="none" height="16.265mm" rx="0.01mm" ry="0.01mm" stroke="purple" transform="rotate(-15, 206.95597125, 804.07917625)" width="16.265mm" x="46.625mm" y="204.615mm" /><rect fill="none" height="16.265mm" rx="0.01mm" ry="0.01mm" stroke="purple" transform="rotate(-25, 117.66528375, 815.41767625)" width="16.265mm" x="23.0mm" y="207.615mm" /><polygon fill="none" points="37.795,491.33500000000004 79.3695,491.33500000000004 79.3695,514.0120000000001 64.25150000000001,514.0120000000001 64.25150000000001,606.60975 136.062,606.60975 136.062,514.0120000000001 120.944,514.0120000000001 120.944,491.33500000000004 632.4993250000001,529.13 632.4993250000001,755.9 556.9093250000001,831.49 94.4875,907.08 37.795,785.5025414090119" stroke="black" /><polygon fill="none" points="1264.9986500000002,491.33500000000004 1223.4241500000003,491.33500000000004 1223.4241500000003,514.0120000000001 1238.5421500000002,514.0120000000001 1238.5421500000002,606.60975 1166.7316500000002,606.60975 1166.7316500000002,514.0120000000001 1181.84965,514.0120000000001 1181.84965,491.33500000000004 670.2943250000001,529.13 670.2943250000001,755.9 745.8843250000001,831.49 1208.3061500000001,907.08 1264.9986500000002,785.5025414090119" stroke="black" /><polygon fill="none" points="37.795,944.875 120.944,944.875 632.4993250000001,982.6700000000001 632.4993250000001,1209.44 556.9093250000001,1285.03 94.4875,1360.6200000000001 37.795,1239.0425414090118" stroke="black" /><polygon fill="none" points="1264.9986500000002,944.875 1181.84965,944.875 670.2943250000001,982.6700000000001 670.2943250000001,1209.44 745.8843250000001,1285.03 1208.3061500000001,1360.6200000000001 1264.9986500000002,1239.0425414090118" stroke="black" /><polygon fill="none" points="60.472,967.552 120.944,967.552 609.8223250000001,1005.347 609.8223250000001,1186.763 534.2323250000001,1262.353 117.1645,1337.943 60.472,1216.365541409012" stroke="purple" /><polygon fill="none" points="1242.32165,967.552 1181.84965,967.552 692.9713250000001,1005.347 692.9713250000001,1186.763 768.5613250000001,1262.353 1185.6291500000002,1337.943 1242.32165,1216.365541409012" stroke="purple" /><polygon fill="none" points="37.795,1398.415 120.944,1398.415 632.4993250000001,1436.21 632.4993250000001,1662.98 556.9093250000001,1738.57 94.4875,1814.16 37.795,1692.5825414090118" stroke="black" /><polygon fill="none" points="1264.9986500000002,1398.415 1181.84965,1398.415 670.2943250000001,1436.21 670.2943250000001,1662.98 745.8843250000001,1738.57 1208.3061500000001,1814.16 1264.9986500000002,1692.5825414090118" stroke="black" /></svg>