<?xml version="1.0" encoding="utf-8" ?>
<svg baseProfile="full" height="600mm" version="1.1" width="400mm" xmlns="http://www.w3.org/2000/svg" xmlns:ev="http://www.w3.org/2001/xml-events" xmlns:xlink="http://www.w3.org/1999/xlink"><defs /><rect fill="none" height="13.75mm" rx="0.01mm" ry="0.01mm" stroke="#0000ff" width="13.75mm" x="33.85mm" y="45.849999999999994mm" /><rect fill="none" height="13.75mm" rx="0.01mm" ry="0.01mm" stroke="#0000ff" width="13.75mm" x="33.85mm" y="64.89999999999999mm" /><rect fill="none" height="13.75mm" rx="0.01mm" ry="0.01mm" stroke="#0000ff" width="13.75mm" x="33.85mm" y="83.95mm" /><rect fill="none" height="13.75mm" rx="0.01mm" ry="0.01mm" stroke="#0000ff" width="13.75mm" x="52.9mm" y="43.349999999999994mm" /><rect fill="none" height="13.75mm" rx="0.01mm" ry="0.01mm" stroke="#0000ff" width="13.75mm" x="52.9mm" y="62.39999999999999mm" /><rect fill="none" height="13.75mm" rx="0.01mm" ry="0.01mm" stroke="#0000ff" width="13.75mm" x="52.9mm" y="81.45mm" /><rect fill="none" height="13.75mm" rx="0.01mm" ry="0.01mm" stroke="#0000ff" width="13.75mm" x="71.95mm" y="40.849999999999994mm" /><rect fill="none" height="13.75mm" rx="0.01mm" ry="0.01mm" stroke="#0000ff" width="13.75mm" x="71.95mm" y="59.89999999999999mm" /><rect fill="none" height="13.75mm" rx="0.01mm" ry="0.01mm" stroke="#0000ff" width="13.75mm" x="71.95mm" y="78.95mm" /><rect fill="none" height="13.75mm" rx="0.01mm" ry="0.01mm" stroke="#0000ff" width="13.75mm" x="91.0mm" y="43.449999999999996mm" /><rect fill="none" height="13.75mm" rx="0.01mm" ry="0.01mm" stroke="#0000ff" width="13.75mm" x="91.0mm" y="62.5mm" /><rect fill="none" height="13.75mm" rx="0.01mm" ry="0.01mm" stroke="#0000ff" width="13.75mm" x="91.0mm" y="81.55mm" /><rect fill="none" height="13.75mm" rx="0.01mm" ry="0.01mm" stroke="#0000ff" width="13.75mm" x="110.05mm" y="47.949999999999996mm" /><rect fill="none" height="13.75mm" rx="0.01mm" ry="0.01mm" stroke="#0000ff" width="13.75mm" x="110.05mm" y="67.0mm" /><rect fill="none" height="13.75mm" rx="0.01mm" ry="0.01mm" stroke="#0000ff" width="13.75mm" x="110.05mm" y="86.05mm" /><rect fill="none" height="13.75mm" rx="0.01mm" ry="0.01mm" stroke="#0000ff" width="13.75mm" x="129.1mm" y="47.949999999999996mm" /><rect fill="none" height="13.75mm" rx="0.01mm" ry="0.01mm" stroke="#0000ff" width="13.75mm" x="129.1mm" y="67.0mm" /><rect fill="none" height="13.75mm" rx="0.01mm" ry="0.01mm" stroke="#0000ff" width="13.75mm" x="129.1mm" y="86.05mm" /><rect fill="none" height="13.75mm" rx="0.01mm" ry="0.01mm" stroke="#0000ff" transform="rotate(65, 89.4796625, 433.9810875)" width="13.75mm" x="16.8mm" y="107.95mm" /><rect fill="none" height="13.75mm" rx="0.01mm" ry="0.01mm" stroke="#0000ff" transform="rotate(0, 74.36166250000001, 307.27335)" width="13.75mm" x="12.8mm" y="74.425mm" /><rect fill="none" height="13.75mm" rx="0.01mm" ry="0.01mm" stroke="#0000ff" transform="rotate(0, 261.91935, 408.4694625)" width="13.75mm" x="62.425mm" y="101.2mm" /><rect fill="none" height="13.75mm" rx="0.01mm" ry="0.01mm" stroke="#0000ff" transform="rotate(-15, 178.77034999999998, 422.64258750000005)" width="13.75mm" x="40.425mm" y="104.95mm" /><rect fill="none" height="13.75mm" rx="0.01mm" ry="0.01mm" stroke="#0000ff" transform="rotate(0, 153.9201375, 104.5976625)" width="13.75mm" x="33.85mm" y="20.8mm" /><rect fill="none" height="13.75mm" rx="0.01mm" ry="0.01mm" stroke="#0000ff" transform="rotate(0, 225.9196125, 104.5976625)" width="13.75mm" x="52.9mm" y="20.8mm" /><rect fill="none" height="13.75mm" rx="0.01mm" ry="0.01mm" stroke="#0000ff" transform="rotate(0, 297.9190875, 104.5976625)" width="13.75mm" x="71.95mm" y="20.8mm" /><rect fill="none" height="13.75mm" rx="0.01mm" ry="0.01mm" stroke="#0000ff" transform="rotate(0, 369.9185625, 104.5976625)" width="13.75mm" x="91.0mm" y="20.8mm" /><rect fill="none" height="13.75mm" rx="0.01mm" ry="0.01mm" stroke="#0000ff" transform="rotate(0, 441.9180375, 104.5976625)" width="13.75mm" x="110.05mm" y="20.8mm" /><rect fill="none" height="13.75mm" rx="0.01mm" ry="0.01mm" stroke="#0000ff" transform="rotate(0, 513.9175125, 104.5976625)" width="13.75mm" x="129.1mm" y="20.8mm" /><polygon fill="none" points="10.5826,10.5826 52.15710000000001,10.5826 52.15710000000001,33.259600000000006 44.5981,33.259600000000006 44.5981,125.85735 116.4086,125.85735 116.4086,33.259600000000006 108.84960000000001,33.259600000000006 108.84960000000001,10.5826 706.1995750000001,40.8186 706.1995750000001,377.7610250000001 630.6095750000001,453.35102500000005 67.27510000000001,528.9410250000001 10.5826,407.36356640901187" stroke="#000000" /><polygon fill="none" points="683.5225750000001,219.54170625 582.6099250000001,219.54170625 582.6099250000001,200.64420625 619.2710750000001,200.64420625 619.2710750000001,217.27400624999999 638.1685750000001,217.27400624999999 638.1685750000001,142.43990625 619.2710750000001,142.43990625 619.2710750000001,159.06970625 582.6099250000001,159.06970625 582.6099250000001,140.17220625 683.5225750000001,140.17220625" stroke="#0000ff" /><rect fill="none" height="15.75mm" rx="0.01mm" ry="0.01mm" stroke="#0000ff" width="15.75mm" x="32.85mm" y="184.8mm" /><rect fill="none" height="15.75mm" rx="0.01mm" ry="0.01mm" stroke="#0000ff" width="15.75mm" x="32.85mm" y="203.85mm" /><rect fill="none" height="15.75mm" rx="0.01mm" ry="0.01mm" stroke="#0000ff" width="15.75mm" x="32.85mm" y="222.9mm" /><rect fill="none" height="15.75mm" rx="0.01mm" ry="0.01mm" stroke="#0000ff" width="15.75mm" x="51.9mm" y="182.3mm" /><rect fill="none" height="15.75mm" rx="0.01mm" ry="0.01mm" stroke="#0000ff" width="15.75mm" x="51.9mm" y="201.35mm" /><rect fill="none" height="15.75mm" rx="0.01mm" ry="0.01mm" stroke="#0000ff" width="15.75mm" x="51.9mm" y="220.4mm" /><rect fill="none" height="15.75mm" rx="0.01mm" ry="0.01mm" stroke="#0000ff" width="15.75mm" x="70.95mm" y="179.8mm" /><rect fill="none" height="15.75mm" rx="0.01mm" ry="0.01mm" stroke="#0000ff" width="15.75mm" x="70.95mm" y="198.85mm" /><rect fill="none" height="15.75mm" rx="0.01mm" ry="0.01mm" stroke="#0000ff" width="15.75mm" x="70.95mm" y="217.9mm" /><rect fill="none" height="15.75mm" rx="0.01mm" ry="0.01mm" stroke="#0000ff" width="15.75mm" x="90.0mm" y="182.4mm" /><rect fill="none" height="15.75mm" rx="0.01mm" ry="0.01mm" stroke="#0000ff" width="15.75mm" x="90.0mm" y="201.45mm" /><rect fill="none" height="15.75mm" rx="0.01mm" ry="0.01mm" stroke="#0000ff" width="15.75mm" x="90.0mm" y="220.5mm" /><rect fill="none" height="15.75mm" rx="0.01mm" ry="0.01mm" stroke="#0000ff" width="15.75mm" x="109.05mm" y="186.9mm" /><rect fill="none" height="15.75mm" rx="0.01mm" ry="0.01mm" stroke="#0000ff" width="15.75mm" x="109.05mm" y="205.95mm" /><rect fill="none" height="15.75mm" rx="0.01mm" ry="0.01mm" stroke="#0000ff" width="15.75mm" x="109.05mm" y="225.0mm" /><rect fill="none" height="15.75mm" rx="0.01mm" ry="0.01mm" stroke="#0000ff" width="15.75mm" x="128.1mm" y="186.9mm" /><rect fill="none" height="15.75mm" rx="0.01mm" ry="0.01mm" stroke="#0000ff" width="15.75mm" x="128.1mm" y="205.95mm" /><rect fill="none" height="15.75mm" rx="0.01mm" ry="0.01mm" stroke="#0000ff" width="15.75mm" x="128.1mm" y="225.0mm" /><rect fill="none" height="15.75mm" rx="0.01mm" ry="0.01mm" stroke="#0000ff" transform="rotate(65, 89.4796625, 962.9221125)" width="15.75mm" x="15.8mm" y="246.9mm" /><rect fill="none" height="15.75mm" rx="0.01mm" ry="0.01mm" stroke="#0000ff" transform="rotate(0, 74.36166250000001, 836.214375)" width="15.75mm" x="11.8mm" y="213.375mm" /><rect fill="none" height="15.75mm" rx="0.01mm" ry="0.01mm" stroke="#0000ff" transform="rotate(0, 261.91935, 937.4104875)" width="15.75mm" x="61.425mm" y="240.15mm" /><rect fill="none" height="15.75mm" rx="0.01mm" ry="0.01mm" stroke="#0000ff" transform="rotate(-15, 178.77034999999998, 951.5836125000001)" width="15.75mm" x="39.425mm" y="243.9mm" /><rect fill="none" height="15.75mm" rx="0.01mm" ry="0.01mm" stroke="#0000ff" transform="rotate(0, 153.9201375, 633.5386875)" width="15.75mm" x="32.85mm" y="159.75mm" /><rect fill="none" height="15.75mm" rx="0.01mm" ry="0.01mm" stroke="#0000ff" transform="rotate(0, 225.9196125, 633.5386875)" width="15.75mm" x="51.9mm" y="159.75mm" /><rect fill="none" height="15.75mm" rx="0.01mm" ry="0.01mm" stroke="#0000ff" transform="rotate(0, 297.9190875, 633.5386875)" width="15.75mm" x="70.95mm" y="159.75mm" /><rect fill="none" height="15.75mm" rx="0.01mm" ry="0.01mm" stroke="#0000ff" transform="rotate(0, 369.9185625, 633.5386875)" width="15.75mm" x="90.0mm" y="159.75mm" /><rect fill="none" height="15.75mm" rx="0.01mm" ry="0.01mm" stroke="#0000ff" transform="rotate(0, 441.9180375, 633.5386875)" width="15.75mm" x="109.05mm" y="159.75mm" /><rect fill="none" height="15.75mm" rx="0.01mm" ry="0.01mm" stroke="#0000ff" transform="rotate(0, 513.9175125, 633.5386875)" width="15.75mm" x="128.1mm" y="159.75mm" /><polygon fill="none" points="10.5826,539.523625 52.15710000000001,539.523625 52.15710000000001,562.2006250000001 44.5981,562.2006250000001 44.5981,654.798375 116.4086,654.798375 116.4086,562.2006250000001 108.84960000000001,562.2006250000001 108.84960000000001,539.523625 706.1995750000001,569.759625 706.1995750000001,906.70205 630.6095750000001,982.2920499999999 67.27510000000001,1057.88205 10.5826,936.3045914090118" stroke="#000000" /><circle cx="37.8mm" cy="149.95mm" fill="none" r="0.9" stroke="#0000ff" /><circle cx="180.85000000000002mm" cy="156.75mm" fill="none" r="0.9" stroke="#0000ff" /><circle cx="100.525mm" cy="259.6mm" fill="none" r="0.9" stroke="#0000ff" /><circle cx="13.8mm" cy="236.60000000000002mm" fill="none" r="0.9" stroke="#0000ff" /><polygon fill="none" points="683.5225750000001,748.48273125 582.6099250000001,748.48273125 582.6099250000001,729.58523125 619.2710750000001,729.58523125 619.2710750000001,746.21503125 638.1685750000001,746.21503125 638.1685750000001,671.38093125 619.2710750000001,671.38093125 619.2710750000001,688.01073125 582.6099250000001,688.01073125 582.6099250000001,669.11323125 683.5225750000001,669.11323125" stroke="#0000ff" /><polygon fill="none" points="33.259600000000006,1091.14165 52.15710000000001,1091.14165 52.15710000000001,1068.46465 10.5826,1068.46465 10.5826,1465.245616409012 67.27510000000001,1586.823075 630.6095750000001,1511.233075 706.1995750000001,1435.6430750000002 706.1995750000001,1098.70065 108.84960000000001,1068.46465 108.84960000000001,1068.46465 108.84960000000001,1091.14165 116.4086,1091.14165 116.4086,1121.37765 271.935025,1091.14165 555.019575,1121.37765 555.019575,1173.345775 683.5225750000001,1173.345775 683.5225750000001,1412.966075 607.932575,1488.5560750000002 343.9345,1474.0994875 343.9345,1510.099225 89.9521,1564.146075 33.259600000000006,1442.5686164090118 71.05460000000001,1442.5686164090118 71.05460000000001,1404.773616409012 33.259600000000006,1404.773616409012" stroke="#000000" /><circle cx="37.8mm" cy="289.9mm" fill="none" r="0.9" stroke="#0000ff" /><circle cx="180.85000000000002mm" cy="296.7mm" fill="none" r="0.9" stroke="#0000ff" /><circle cx="100.525mm" cy="399.54999999999995mm" fill="none" r="0.9" stroke="#0000ff" /><circle cx="13.8mm" cy="376.55mm" fill="none" r="0.9" stroke="#0000ff" /><polygon fill="none" points="739.4591750000001,33.259600000000006 758.356675,33.259600000000006 758.356675,10.5826 716.782175,10.5826 716.782175,407.36356640901187 773.474675,528.9410250000001 1336.8091500000003,453.35102500000005 1412.3991500000002,377.7610250000001 1412.3991500000002,40.8186 815.049175,10.5826 815.049175,10.5826 815.049175,33.259600000000006 822.6081750000001,33.259600000000006 822.6081750000001,63.4956 978.1346000000001,33.259600000000006 1261.21915,63.4956 1261.21915,271.36809999999997 1389.7221500000003,355.08402500000005 1314.1321500000001,430.6740250000001 1050.1340750000002,416.2174375 1050.1340750000002,452.21717500000005 796.1516750000001,506.26402500000006 739.4591750000001,384.6865664090119 777.254175,384.6865664090119 777.254175,346.8915664090119 739.4591750000001,346.8915664090119" stroke="#000000" /><circle cx="224.65mm" cy="10.0mm" fill="none" r="0.9" stroke="#0000ff" /><circle cx="367.70000000000005mm" cy="16.8mm" fill="none" r="0.9" stroke="#0000ff" /><circle cx="287.375mm" cy="119.64999999999999mm" fill="none" r="0.9" stroke="#0000ff" /><circle cx="200.65mm" cy="96.65mm" fill="none" r="0.9" stroke="#0000ff" /><polygon fill="none" points="1389.7221500000003,219.54170625 1288.8095,219.54170625 1288.8095,200.64420625 1325.4706500000002,200.64420625 1325.4706500000002,217.27400624999999 1344.3681500000002,217.27400624999999 1344.3681500000002,142.43990625 1325.4706500000002,142.43990625 1325.4706500000002,159.06970625 1288.8095,159.06970625 1288.8095,140.17220625 1389.7221500000003,140.17220625" stroke="#0000ff" /><polygon fill="none" points="10.5826,1597.4056750000002 108.84960000000001,1597.4056750000002 706.1995750000001,1627.641675 706.1995750000001,1964.5841000000003 630.6095750000001,2040.1741000000004 67.27510000000001,2115.7641000000003 10.5826,1994.1866414090123" stroke="#000000" /><circle cx="37.8mm" cy="429.85mm" fill="none" r="0.9" stroke="#0000ff" /><circle cx="180.85000000000002mm" cy="436.65000000000003mm" fill="none" r="0.9" stroke="#0000ff" /><circle cx="100.525mm" cy="539.5mm" fill="none" r="0.9" stroke="#0000ff" /><circle cx="13.8mm" cy="516.5mm" fill="none" r="0.9" stroke="#0000ff" /><polygon fill="none" points="716.782175,539.523625 815.049175,539.523625 1412.3991500000002,569.759625 1412.3991500000002,906.70205 1336.8091500000003,982.2920499999999 773.474675,1057.88205 716.782175,936.3045914090118" stroke="#000000" /><polygon fill="none" points="824.1199750000001,692.215425 896.1194500000001,692.215425 896.1194500000001,682.7666750000001 968.118925,682.7666750000001 968.118925,673.3179250000001 1040.1184,673.3179250000001 1040.1184,683.144625 1112.117875,683.144625 1112.117875,700.152375 1184.11735,700.152375 1184.11735,700.152375 1256.116825,700.152375 1256.116825,916.1507999999999 1184.11735,916.1507999999999 1184.11735,916.1507999999999 1112.117875,916.1507999999999 1112.117875,899.1430499999999 1040.1184,899.1430499999999 1040.1184,889.31635 968.118925,889.31635 968.118925,898.7651000000001 896.1194500000001,898.7651000000001 896.1194500000001,908.2138500000001 824.1199750000001,908.2138500000001" stroke="#0000ff" /><polygon fill="none" points="801.6813235781253,890.6109917664593 854.9308362769254,1004.8049402627978 789.6771514218749,1035.233233233541 736.4276387230747,921.0392847372023" stroke="#0000ff" /><polygon fill="none" points="744.5615,800.2146375 816.5609750000001,800.2146375 816.5609750000001,872.2141124999999 744.5615,872.2141124999999" stroke="#0000ff" /><polygon fill="none" points="932.1191875000001,901.41075 1004.1186625,901.41075 1004.1186625,973.4102250000001 932.1191875000001,973.4102250000001" stroke="#0000ff" /><polygon fill="none" points="840.8794311254316,926.1279539928145 910.4255835071857,907.4931186254315 929.0604188745685,977.0392710071857 859.5142664928144,995.6741063745684" stroke="#0000ff" /><polygon fill="none" points="824.1199750000001,597.53895 896.1194500000001,597.53895 896.1194500000001,669.5384250000001 824.1199750000001,669.5384250000001" stroke="#0000ff" /><polygon fill="none" points="896.1194500000001,597.53895 968.118925,597.53895 968.118925,669.5384250000001 896.1194500000001,669.5384250000001" stroke="#0000ff" /><polygon fill="none" points="968.118925,597.53895 1040.1184,597.53895 1040.1184,669.5384250000001 968.118925,669.5384250000001" stroke="#0000ff" /><polygon fill="none" points="1040.1184,597.53895 1112.117875,597.53895 1112.117875,669.5384250000001 1040.1184,669.5384250000001" stroke="#0000ff" /><polygon fill="none" points="1112.117875,597.53895 1184.11735,597.53895 1184.11735,669.5384250000001 1112.117875,669.5384250000001" stroke="#0000ff" /><polygon fill="none" points="1184.11735,597.53895 1256.116825,597.53895 1256.116825,669.5384250000001 1184.11735,669.5384250000001" stroke="#0000ff" /><polygon fill="none" points="716.782175,1068.46465 815.049175,1068.46465 1412.3991500000002,1098.70065 1412.3991500000002,1435.6430750000002 1336.8091500000003,1511.233075 773.474675,1586.823075 716.782175,1465.245616409012" stroke="#000000" /><polygon fill="none" points="824.1199750000001,1221.15645 896.1194500000001,1221.15645 896.1194500000001,1211.7077 968.118925,1211.7077 968.118925,1202.25895 1040.1184,1202.25895 1040.1184,1212.08565 1112.117875,1212.08565 1112.117875,1229.0934 1184.11735,1229.0934 1184.11735,1229.0934 1256.116825,1229.0934 1256.116825,1445.091825 1184.11735,1445.091825 1184.11735,1445.091825 1112.117875,1445.091825 1112.117875,1428.084075 1040.1184,1428.084075 1040.1184,1418.2573750000001 968.118925,1418.2573750000001 968.118925,1427.706125 896.1194500000001,1427.706125 896.1194500000001,1437.154875 824.1199750000001,1437.154875" stroke="#0000ff" /><polygon fill="none" points="801.6813235781253,1419.5520167664592 854.9308362769254,1533.7459652627979 789.6771514218749,1564.1742582335407 736.4276387230747,1449.980309737202" stroke="#0000ff" /><polygon fill="none" points="744.5615,1329.1556624999998 816.5609750000001,1329.1556624999998 816.5609750000001,1401.1551375 744.5615,1401.1551375" stroke="#0000ff" /><polygon fill="none" points="932.1191875000001,1430.351775 1004.1186625,1430.351775 1004.1186625,1502.35125 932.1191875000001,1502.35125" stroke="#0000ff" /><polygon fill="none" points="840.8794311254316,1455.0689789928144 910.4255835071857,1436.4341436254315 929.0604188745685,1505.9802960071856 859.5142664928144,1524.6151313745684" stroke="#0000ff" /><polygon fill="none" points="824.1199750000001,1126.479975 896.1194500000001,1126.479975 896.1194500000001,1198.4794499999998 824.1199750000001,1198.4794499999998" stroke="#0000ff" /><polygon fill="none" points="896.1194500000001,1126.479975 968.118925,1126.479975 968.118925,1198.4794499999998 896.1194500000001,1198.4794499999998" stroke="#0000ff" /><polygon fill="none" points="968.118925,1126.479975 1040.1184,1126.479975 1040.1184,1198.4794499999998 968.118925,1198.4794499999998" stroke="#0000ff" /><polygon fill="none" points="1040.1184,1126.479975 1112.117875,1126.479975 1112.117875,1198.4794499999998 1040.1184,1198.4794499999998" stroke="#0000ff" /><polygon fill="none" points="1112.117875,1126.479975 1184.11735,1126.479975 1184.11735,1198.4794499999998 1112.117875,1198.4794499999998" stroke="#0000ff" /><polygon fill="none" points="1184.11735,1126.479975 1256.116825,1126.479975 1256.116825,1198.4794499999998 1184.11735,1198.4794499999998" stroke="#0000ff" /><polygon fill="none" points="1389.7221500000003,1277.42375625 1288.8095,1277.42375625 1288.8095,1258.52625625 1325.4706500000002,1258.52625625 1325.4706500000002,1275.15605625 1344.3681500000002,1275.15605625 1344.3681500000002,1200.3219562499999 1325.4706500000002,1200.3219562499999 1325.4706500000002,1216.95175625 1288.8095,1216.95175625 1288.8095,1198.05425625 1389.7221500000003,1198.05425625" stroke="#0000ff" /><rect fill="none" height="13.65mm" rx="0mm" ry="0mm" stroke="#00ff00" width="13.65mm" x="192.45000000000002mm" y="562.6mm" /><rect fill="none" height="13.7mm" rx="0mm" ry="0mm" stroke="#00ff00" width="13.7mm" x="211.50000000000003mm" y="562.6mm" /><rect fill="none" height="13.75mm" rx="0mm" ry="0mm" stroke="#00ff00" width="13.75mm" x="230.55mm" y="562.6mm" /><rect fill="none" height="13.8mm" rx="0mm" ry="0mm" stroke="#00ff00" width="13.8mm" x="249.60000000000002mm" y="562.6mm" /><rect fill="none" height="13.85mm" rx="0mm" ry="0mm" stroke="#00ff00" width="13.85mm" x="268.65000000000003mm" y="562.6mm" /><rect fill="none" height="13.95mm" rx="0mm" ry="0mm" stroke="#00ff00" width="13.95mm" x="287.70000000000005mm" y="562.6mm" /><rect fill="none" height="14.05mm" rx="0mm" ry="0mm" stroke="#00ff00" width="14.05mm" x="306.75mm" y="562.6mm" /><rect fill="none" height="14.15mm" rx="0mm" ry="0mm" stroke="#00ff00" width="14.15mm" x="325.8mm" y="562.6mm" /><rect fill="none" height="14.25mm" rx="0mm" ry="0mm" stroke="#00ff00" width="14.25mm" x="344.85mm" y="562.6mm" /><rect fill="none" height="14.35mm" rx="0mm" ry="0mm" stroke="#00ff00" width="14.35mm" x="363.90000000000003mm" y="562.6mm" /></svg>