<?xml version="1.0" encoding="utf-8" ?>
<svg baseProfile="full" height="600mm" version="1.1" width="400mm" xmlns="http://www.w3.org/2000/svg" xmlns:ev="http://www.w3.org/2001/xml-events" xmlns:xlink="http://www.w3.org/1999/xlink"><defs /><polygon fill="none" points="10.5826,10.5826 108.84960000000001,10.5826 706.1995750000001,40.8186 706.1995750000001,377.7610250000001 630.6095750000001,453.35102500000005 67.27510000000001,528.9410250000001 10.5826,407.36356640901187" stroke="#000000" /><polygon fill="none" points="117.9204,163.27439999999999 189.919875,163.27439999999999 189.919875,153.82565 261.91935,153.82565 261.91935,144.37689999999998 333.91882499999997,144.37689999999998 333.91882499999997,154.2036 405.9183,154.2036 405.9183,171.21134999999998 477.91777499999995,171.21134999999998 477.91777499999995,171.21134999999998 549.91725,171.21134999999998 549.91725,387.209775 477.91777499999995,387.209775 477.91777499999995,387.209775 405.9183,387.209775 405.9183,370.202025 333.91882499999997,370.202025 333.91882499999997,360.375325 261.91935,360.375325 261.91935,369.824075 189.919875,369.824075 189.919875,379.272825 117.9204,379.272825" stroke="#0000ff" /><polygon fill="none" points="95.48174857812525,361.6699667664593 148.7312612769254,475.86391526279783 83.47757642187482,506.2922082335408 30.228063723074655,392.0982597372022" stroke="#0000ff" /><polygon fill="none" points="38.36192499999999,271.27361249999996 110.3614,271.27361249999996 110.3614,343.2730875 38.36192499999999,343.2730875" stroke="#0000ff" /><polygon fill="none" points="225.9196125,372.469725 297.9190875,372.469725 297.9190875,444.4692 225.9196125,444.4692" stroke="#0000ff" /><polygon fill="none" points="134.6798561254315,397.18692899281433 204.22600850718564,378.5520936254315 222.86084387456847,448.09824600718565 153.31469149281435,466.7330813745685" stroke="#0000ff" /><polygon fill="none" points="117.9204,68.59792499999999 189.919875,68.59792499999999 189.919875,140.5974 117.9204,140.5974" stroke="#0000ff" /><polygon fill="none" points="189.919875,68.59792499999999 261.91935,68.59792499999999 261.91935,140.5974 189.919875,140.5974" stroke="#0000ff" /><polygon fill="none" points="261.91935,68.59792499999999 333.91882499999997,68.59792499999999 333.91882499999997,140.5974 261.91935,140.5974" stroke="#0000ff" /><polygon fill="none" points="333.91882499999997,68.59792499999999 405.9183,68.59792499999999 405.9183,140.5974 333.91882499999997,140.5974" stroke="#0000ff" /><polygon fill="none" points="405.9183,68.59792499999999 477.91777499999995,68.59792499999999 477.91777499999995,140.5974 405.9183,140.5974" stroke="#0000ff" /><polygon fill="none" points="477.91777499999995,68.59792499999999 549.91725,68.59792499999999 549.91725,140.5974 477.91777499999995,140.5974" stroke="#0000ff" /><polygon fill="none" points="10.5826,10.5826 108.84960000000001,10.5826 706.1995750000001,40.8186 706.1995750000001,377.7610250000001 630.6095750000001,453.35102500000005 67.27510000000001,528.9410250000001 10.5826,407.36356640901187" stroke="#000000" /><circle cx="37.8mm" cy="10.0mm" fill="none" r="0.9" stroke="#0000ff" /><circle cx="180.85000000000002mm" cy="16.8mm" fill="none" r="0.9" stroke="#0000ff" /><circle cx="100.525mm" cy="119.64999999999999mm" fill="none" r="0.9" stroke="#0000ff" /><circle cx="13.8mm" cy="96.65mm" fill="none" r="0.9" stroke="#0000ff" /><polygon fill="none" points="33.259600000000006,33.259600000000006 52.15710000000001,33.259600000000006 52.15710000000001,10.5826 10.5826,10.5826 10.5826,407.36356640901187 67.27510000000001,528.9410250000001 630.6095750000001,453.35102500000005 706.1995750000001,377.7610250000001 706.1995750000001,40.8186 108.84960000000001,10.5826 108.84960000000001,10.5826 108.84960000000001,33.259600000000006 116.4086,33.259600000000006 116.4086,63.4956 271.935025,33.259600000000006 555.019575,63.4956 555.019575,271.36809999999997 683.5225750000001,355.08402500000005 607.932575,430.6740250000001 343.9345,416.2174375 343.9345,452.21717500000005 89.9521,506.26402500000006 33.259600000000006,384.6865664090119 71.05460000000001,384.6865664090119 71.05460000000001,346.8915664090119 33.259600000000006,346.8915664090119" stroke="#000000" /><circle cx="37.8mm" cy="10.0mm" fill="none" r="0.9" stroke="#0000ff" /><circle cx="180.85000000000002mm" cy="16.8mm" fill="none" r="0.9" stroke="#0000ff" /><circle cx="100.525mm" cy="119.64999999999999mm" fill="none" r="0.9" stroke="#0000ff" /><circle cx="13.8mm" cy="96.65mm" fill="none" r="0.9" stroke="#0000ff" /><polygon fill="none" points="683.5225750000001,219.54170625 582.6099250000001,219.54170625 582.6099250000001,200.64420625 619.2710750000001,200.64420625 619.2710750000001,217.27400624999999 638.1685750000001,217.27400624999999 638.1685750000001,142.43990625 619.2710750000001,142.43990625 619.2710750000001,159.06970625 582.6099250000001,159.06970625 582.6099250000001,140.17220625 683.5225750000001,140.17220625" stroke="#0000ff" /><polygon fill="none" points="33.259600000000006,33.259600000000006 52.15710000000001,33.259600000000006 52.15710000000001,10.5826 10.5826,10.5826 10.5826,407.36356640901187 67.27510000000001,528.9410250000001 630.6095750000001,453.35102500000005 706.1995750000001,377.7610250000001 706.1995750000001,40.8186 108.84960000000001,10.5826 108.84960000000001,10.5826 108.84960000000001,33.259600000000006 116.4086,33.259600000000006 116.4086,63.4956 271.935025,33.259600000000006 555.019575,63.4956 555.019575,115.46372500000001 683.5225750000001,115.46372500000001 683.5225750000001,355.08402500000005 607.932575,430.6740250000001 343.9345,416.2174375 343.9345,452.21717500000005 89.9521,506.26402500000006 33.259600000000006,384.6865664090119 71.05460000000001,384.6865664090119 71.05460000000001,346.8915664090119 33.259600000000006,346.8915664090119" stroke="#000000" /><circle cx="37.8mm" cy="10.0mm" fill="none" r="0.9" stroke="#0000ff" /><circle cx="180.85000000000002mm" cy="16.8mm" fill="none" r="0.9" stroke="#0000ff" /><circle cx="100.525mm" cy="119.64999999999999mm" fill="none" r="0.9" stroke="#0000ff" /><circle cx="13.8mm" cy="96.65mm" fill="none" r="0.9" stroke="#0000ff" /><rect fill="none" height="15.75mm" rx="0.01mm" ry="0.01mm" stroke="#0000ff" width="15.75mm" x="32.85mm" y="44.849999999999994mm" /><rect fill="none" height="15.75mm" rx="0.01mm" ry="0.01mm" stroke="#0000ff" width="15.75mm" x="32.85mm" y="63.89999999999999mm" /><rect fill="none" height="15.75mm" rx="0.01mm" ry="0.01mm" stroke="#0000ff" width="15.75mm" x="32.85mm" y="82.95mm" /><rect fill="none" height="15.75mm" rx="0.01mm" ry="0.01mm" stroke="#0000ff" width="15.75mm" x="51.9mm" y="42.349999999999994mm" /><rect fill="none" height="15.75mm" rx="0.01mm" ry="0.01mm" stroke="#0000ff" width="15.75mm" x="51.9mm" y="61.39999999999999mm" /><rect fill="none" height="15.75mm" rx="0.01mm" ry="0.01mm" stroke="#0000ff" width="15.75mm" x="51.9mm" y="80.45mm" /><rect fill="none" height="15.75mm" rx="0.01mm" ry="0.01mm" stroke="#0000ff" width="15.75mm" x="70.95mm" y="39.849999999999994mm" /><rect fill="none" height="15.75mm" rx="0.01mm" ry="0.01mm" stroke="#0000ff" width="15.75mm" x="70.95mm" y="58.89999999999999mm" /><rect fill="none" height="15.75mm" rx="0.01mm" ry="0.01mm" stroke="#0000ff" width="15.75mm" x="70.95mm" y="77.95mm" /><rect fill="none" height="15.75mm" rx="0.01mm" ry="0.01mm" stroke="#0000ff" width="15.75mm" x="90.0mm" y="42.449999999999996mm" /><rect fill="none" height="15.75mm" rx="0.01mm" ry="0.01mm" stroke="#0000ff" width="15.75mm" x="90.0mm" y="61.5mm" /><rect fill="none" height="15.75mm" rx="0.01mm" ry="0.01mm" stroke="#0000ff" width="15.75mm" x="90.0mm" y="80.55mm" /><rect fill="none" height="15.75mm" rx="0.01mm" ry="0.01mm" stroke="#0000ff" width="15.75mm" x="109.05mm" y="46.949999999999996mm" /><rect fill="none" height="15.75mm" rx="0.01mm" ry="0.01mm" stroke="#0000ff" width="15.75mm" x="109.05mm" y="66.0mm" /><rect fill="none" height="15.75mm" rx="0.01mm" ry="0.01mm" stroke="#0000ff" width="15.75mm" x="109.05mm" y="85.05mm" /><rect fill="none" height="15.75mm" rx="0.01mm" ry="0.01mm" stroke="#0000ff" width="15.75mm" x="128.1mm" y="46.949999999999996mm" /><rect fill="none" height="15.75mm" rx="0.01mm" ry="0.01mm" stroke="#0000ff" width="15.75mm" x="128.1mm" y="66.0mm" /><rect fill="none" height="15.75mm" rx="0.01mm" ry="0.01mm" stroke="#0000ff" width="15.75mm" x="128.1mm" y="85.05mm" /><rect fill="none" height="15.75mm" rx="0.01mm" ry="0.01mm" stroke="#0000ff" transform="rotate(65, 89.4796625, 433.9810875)" width="15.75mm" x="15.8mm" y="106.95mm" /><rect fill="none" height="15.75mm" rx="0.01mm" ry="0.01mm" stroke="#0000ff" transform="rotate(0, 74.36166250000001, 307.27335)" width="15.75mm" x="11.8mm" y="73.425mm" /><rect fill="none" height="15.75mm" rx="0.01mm" ry="0.01mm" stroke="#0000ff" transform="rotate(0, 261.91935, 408.4694625)" width="15.75mm" x="61.425mm" y="100.2mm" /><rect fill="none" height="15.75mm" rx="0.01mm" ry="0.01mm" stroke="#0000ff" transform="rotate(-15, 178.77034999999998, 422.64258750000005)" width="15.75mm" x="39.425mm" y="103.95mm" /><rect fill="none" height="15.75mm" rx="0.01mm" ry="0.01mm" stroke="#0000ff" transform="rotate(0, 153.9201375, 104.5976625)" width="15.75mm" x="32.85mm" y="19.8mm" /><rect fill="none" height="15.75mm" rx="0.01mm" ry="0.01mm" stroke="#0000ff" transform="rotate(0, 225.9196125, 104.5976625)" width="15.75mm" x="51.9mm" y="19.8mm" /><rect fill="none" height="15.75mm" rx="0.01mm" ry="0.01mm" stroke="#0000ff" transform="rotate(0, 297.9190875, 104.5976625)" width="15.75mm" x="70.95mm" y="19.8mm" /><rect fill="none" height="15.75mm" rx="0.01mm" ry="0.01mm" stroke="#0000ff" transform="rotate(0, 369.9185625, 104.5976625)" width="15.75mm" x="90.0mm" y="19.8mm" /><rect fill="none" height="15.75mm" rx="0.01mm" ry="0.01mm" stroke="#0000ff" transform="rotate(0, 441.9180375, 104.5976625)" width="15.75mm" x="109.05mm" y="19.8mm" /><rect fill="none" height="15.75mm" rx="0.01mm" ry="0.01mm" stroke="#0000ff" transform="rotate(0, 513.9175125, 104.5976625)" width="15.75mm" x="128.1mm" y="19.8mm" /><polygon fill="none" points="10.5826,10.5826 52.15710000000001,10.5826 52.15710000000001,33.259600000000006 44.5981,33.259600000000006 44.5981,125.85735 116.4086,125.85735 116.4086,33.259600000000006 108.84960000000001,33.259600000000006 108.84960000000001,10.5826 706.1995750000001,40.8186 706.1995750000001,377.7610250000001 630.6095750000001,453.35102500000005 67.27510000000001,528.9410250000001 10.5826,407.36356640901187" stroke="#000000" /><circle cx="37.8mm" cy="10.0mm" fill="none" r="0.9" stroke="#0000ff" /><circle cx="180.85000000000002mm" cy="16.8mm" fill="none" r="0.9" stroke="#0000ff" /><circle cx="100.525mm" cy="119.64999999999999mm" fill="none" r="0.9" stroke="#0000ff" /><circle cx="13.8mm" cy="96.65mm" fill="none" r="0.9" stroke="#0000ff" /><polygon fill="none" points="683.5225750000001,219.54170625 582.6099250000001,219.54170625 582.6099250000001,200.64420625 619.2710750000001,200.64420625 619.2710750000001,217.27400624999999 638.1685750000001,217.27400624999999 638.1685750000001,142.43990625 619.2710750000001,142.43990625 619.2710750000001,159.06970625 582.6099250000001,159.06970625 582.6099250000001,140.17220625 683.5225750000001,140.17220625" stroke="#0000ff" /><rect fill="none" height="13.75mm" rx="0.01mm" ry="0.01mm" stroke="#0000ff" width="13.75mm" x="33.85mm" y="45.849999999999994mm" /><rect fill="none" height="13.75mm" rx="0.01mm" ry="0.01mm" stroke="#0000ff" width="13.75mm" x="33.85mm" y="64.89999999999999mm" /><rect fill="none" height="13.75mm" rx="0.01mm" ry="0.01mm" stroke="#0000ff" width="13.75mm" x="33.85mm" y="83.95mm" /><rect fill="none" height="13.75mm" rx="0.01mm" ry="0.01mm" stroke="#0000ff" width="13.75mm" x="52.9mm" y="43.349999999999994mm" /><rect fill="none" height="13.75mm" rx="0.01mm" ry="0.01mm" stroke="#0000ff" width="13.75mm" x="52.9mm" y="62.39999999999999mm" /><rect fill="none" height="13.75mm" rx="0.01mm" ry="0.01mm" stroke="#0000ff" width="13.75mm" x="52.9mm" y="81.45mm" /><rect fill="none" height="13.75mm" rx="0.01mm" ry="0.01mm" stroke="#0000ff" width="13.75mm" x="71.95mm" y="40.849999999999994mm" /><rect fill="none" height="13.75mm" rx="0.01mm" ry="0.01mm" stroke="#0000ff" width="13.75mm" x="71.95mm" y="59.89999999999999mm" /><rect fill="none" height="13.75mm" rx="0.01mm" ry="0.01mm" stroke="#0000ff" width="13.75mm" x="71.95mm" y="78.95mm" /><rect fill="none" height="13.75mm" rx="0.01mm" ry="0.01mm" stroke="#0000ff" width="13.75mm" x="91.0mm" y="43.449999999999996mm" /><rect fill="none" height="13.75mm" rx="0.01mm" ry="0.01mm" stroke="#0000ff" width="13.75mm" x="91.0mm" y="62.5mm" /><rect fill="none" height="13.75mm" rx="0.01mm" ry="0.01mm" stroke="#0000ff" width="13.75mm" x="91.0mm" y="81.55mm" /><rect fill="none" height="13.75mm" rx="0.01mm" ry="0.01mm" stroke="#0000ff" width="13.75mm" x="110.05mm" y="47.949999999999996mm" /><rect fill="none" height="13.75mm" rx="0.01mm" ry="0.01mm" stroke="#0000ff" width="13.75mm" x="110.05mm" y="67.0mm" /><rect fill="none" height="13.75mm" rx="0.01mm" ry="0.01mm" stroke="#0000ff" width="13.75mm" x="110.05mm" y="86.05mm" /><rect fill="none" height="13.75mm" rx="0.01mm" ry="0.01mm" stroke="#0000ff" width="13.75mm" x="129.1mm" y="47.949999999999996mm" /><rect fill="none" height="13.75mm" rx="0.01mm" ry="0.01mm" stroke="#0000ff" width="13.75mm" x="129.1mm" y="67.0mm" /><rect fill="none" height="13.75mm" rx="0.01mm" ry="0.01mm" stroke="#0000ff" width="13.75mm" x="129.1mm" y="86.05mm" /><rect fill="none" height="13.75mm" rx="0.01mm" ry="0.01mm" stroke="#0000ff" transform="rotate(65, 89.4796625, 433.9810875)" width="13.75mm" x="16.8mm" y="107.95mm" /><rect fill="none" height="13.75mm" rx="0.01mm" ry="0.01mm" stroke="#0000ff" transform="rotate(0, 74.36166250000001, 307.27335)" width="13.75mm" x="12.8mm" y="74.425mm" /><rect fill="none" height="13.75mm" rx="0.01mm" ry="0.01mm" stroke="#0000ff" transform="rotate(0, 261.91935, 408.4694625)" width="13.75mm" x="62.425mm" y="101.2mm" /><rect fill="none" height="13.75mm" rx="0.01mm" ry="0.01mm" stroke="#0000ff" transform="rotate(-15, 178.77034999999998, 422.64258750000005)" width="13.75mm" x="40.425mm" y="104.95mm" /><rect fill="none" height="13.75mm" rx="0.01mm" ry="0.01mm" stroke="#0000ff" transform="rotate(0, 153.9201375, 104.5976625)" width="13.75mm" x="33.85mm" y="20.8mm" /><rect fill="none" height="13.75mm" rx="0.01mm" ry="0.01mm" stroke="#0000ff" transform="rotate(0, 225.9196125, 104.5976625)" width="13.75mm" x="52.9mm" y="20.8mm" /><rect fill="none" height="13.75mm" rx="0.01mm" ry="0.01mm" stroke="#0000ff" transform="rotate(0, 297.9190875, 104.5976625)" width="13.75mm" x="71.95mm" y="20.8mm" /><rect fill="none" height="13.75mm" rx="0.01mm" ry="0.01mm" stroke="#0000ff" transform="rotate(0, 369.9185625, 104.5976625)" width="13.75mm" x="91.0mm" y="20.8mm" /><rect fill="none" height="13.75mm" rx="0.01mm" ry="0.01mm" stroke="#0000ff" transform="rotate(0, 441.9180375, 104.5976625)" width="13.75mm" x="110.05mm" y="20.8mm" /><rect fill="none" height="13.75mm" rx="0.01mm" ry="0.01mm" stroke="#0000ff" transform="rotate(0, 513.9175125, 104.5976625)" width="13.75mm" x="129.1mm" y="20.8mm" /><polygon fill="none" points="10.5826,10.5826 52.15710000000001,10.5826 52.15710000000001,33.259600000000006 44.5981,33.259600000000006 44.5981,125.85735 116.4086,125.85735 116.4086,33.259600000000006 108.84960000000001,33.259600000000006 108.84960000000001,10.5826 706.1995750000001,40.8186 706.1995750000001,377.7610250000001 630.6095750000001,453.35102500000005 67.27510000000001,528.9410250000001 10.5826,407.36356640901187" stroke="#000000" /><polygon fill="none" points="683.5225750000001,219.54170625 582.6099250000001,219.54170625 582.6099250000001,200.64420625 619.2710750000001,200.64420625 619.2710750000001,217.27400624999999 638.1685750000001,217.27400624999999 638.1685750000001,142.43990625 619.2710750000001,142.43990625 619.2710750000001,159.06970625 582.6099250000001,159.06970625 582.6099250000001,140.17220625 683.5225750000001,140.17220625" stroke="#0000ff" /></svg>