999
"DXF R12 Output" (www.mydxf.blogspot.com)
 0 
SECTION
 2 
HEADER
 9 
$ACADVER
 1 
AC1009
 9 
$EXTMIN
 10 
 0 
 20 
 0 
 9 
$EXTMAX
 10 
 8.5 
 20 
 11 
 0 
ENDSEC
 0 
SECTION
 2 
ENTITIES
0
LINE
8
Layer 1
10
33.859957
20
554.150058
11
47.589940
21
554.150058
0
LINE
8
Layer 1
10
47.589940
20
554.150058
11
47.597011
21
554.147129
0
LINE
8
Layer 1
10
47.597011
20
554.147129
11
47.599940
21
554.140058
0
LINE
8
Layer 1
10
47.599940
20
554.140058
11
47.599940
21
540.410075
0
LINE
8
Layer 1
10
47.599940
20
540.410075
11
47.597011
21
540.403004
0
LINE
8
Layer 1
10
47.597011
20
540.403004
11
47.589940
21
540.400075
0
LINE
8
Layer 1
10
47.589940
20
540.400075
11
33.859957
21
540.400075
0
LINE
8
Layer 1
10
33.859957
20
540.400075
11
33.852886
21
540.403004
0
LINE
8
Layer 1
10
33.852886
20
540.403004
11
33.849957
21
540.410075
0
LINE
8
Layer 1
10
33.849957
20
540.410075
11
33.849957
21
554.140058
0
LINE
8
Layer 1
10
33.849957
20
554.140058
11
33.852886
21
554.147129
0
LINE
8
Layer 1
10
33.852886
20
554.147129
11
33.859957
21
554.150058
0
LINE
8
Layer 1
10
33.859957
20
554.150058
11
33.859957
21
554.150058
0
LINE
8
Layer 1
10
33.859957
20
535.100082
11
47.589940
21
535.100082
0
LINE
8
Layer 1
10
47.589940
20
535.100082
11
47.597011
21
535.097153
0
LINE
8
Layer 1
10
47.597011
20
535.097153
11
47.599940
21
535.090082
0
LINE
8
Layer 1
10
47.599940
20
535.090082
11
47.599940
21
521.360099
0
LINE
8
Layer 1
10
47.599940
20
521.360099
11
47.597011
21
521.353028
0
LINE
8
Layer 1
10
47.597011
20
521.353028
11
47.589940
21
521.350099
0
LINE
8
Layer 1
10
47.589940
20
521.350099
11
33.859957
21
521.350099
0
LINE
8
Layer 1
10
33.859957
20
521.350099
11
33.852886
21
521.353028
0
LINE
8
Layer 1
10
33.852886
20
521.353028
11
33.849957
21
521.360099
0
LINE
8
Layer 1
10
33.849957
20
521.360099
11
33.849957
21
535.090082
0
LINE
8
Layer 1
10
33.849957
20
535.090082
11
33.852886
21
535.097153
0
LINE
8
Layer 1
10
33.852886
20
535.097153
11
33.859957
21
535.100082
0
LINE
8
Layer 1
10
33.859957
20
535.100082
11
33.859957
21
535.100082
0
LINE
8
Layer 1
10
33.859957
20
516.050106
11
47.589940
21
516.050106
0
LINE
8
Layer 1
10
47.589940
20
516.050106
11
47.597011
21
516.047177
0
LINE
8
Layer 1
10
47.597011
20
516.047177
11
47.599940
21
516.040106
0
LINE
8
Layer 1
10
47.599940
20
516.040106
11
47.599940
21
502.310123
0
LINE
8
Layer 1
10
47.599940
20
502.310123
11
47.597011
21
502.303052
0
LINE
8
Layer 1
10
47.597011
20
502.303052
11
47.589940
21
502.300123
0
LINE
8
Layer 1
10
47.589940
20
502.300123
11
33.859957
21
502.300123
0
LINE
8
Layer 1
10
33.859957
20
502.300123
11
33.852886
21
502.303052
0
LINE
8
Layer 1
10
33.852886
20
502.303052
11
33.849957
21
502.310123
0
LINE
8
Layer 1
10
33.849957
20
502.310123
11
33.849957
21
516.040106
0
LINE
8
Layer 1
10
33.849957
20
516.040106
11
33.852886
21
516.047177
0
LINE
8
Layer 1
10
33.852886
20
516.047177
11
33.859957
21
516.050106
0
LINE
8
Layer 1
10
33.859957
20
516.050106
11
33.859957
21
516.050106
0
LINE
8
Layer 1
10
52.909933
20
556.650055
11
66.639916
21
556.650055
0
LINE
8
Layer 1
10
66.639916
20
556.650055
11
66.646987
21
556.647126
0
LINE
8
Layer 1
10
66.646987
20
556.647126
11
66.649916
21
556.640055
0
LINE
8
Layer 1
10
66.649916
20
556.640055
11
66.649916
21
542.910072
0
LINE
8
Layer 1
10
66.649916
20
542.910072
11
66.646987
21
542.903001
0
LINE
8
Layer 1
10
66.646987
20
542.903001
11
66.639916
21
542.900072
0
LINE
8
Layer 1
10
66.639916
20
542.900072
11
52.909933
21
542.900072
0
LINE
8
Layer 1
10
52.909933
20
542.900072
11
52.902862
21
542.903001
0
LINE
8
Layer 1
10
52.902862
20
542.903001
11
52.899933
21
542.910072
0
LINE
8
Layer 1
10
52.899933
20
542.910072
11
52.899933
21
556.640055
0
LINE
8
Layer 1
10
52.899933
20
556.640055
11
52.902862
21
556.647126
0
LINE
8
Layer 1
10
52.902862
20
556.647126
11
52.909933
21
556.650055
0
LINE
8
Layer 1
10
52.909933
20
556.650055
11
52.909933
21
556.650055
0
LINE
8
Layer 1
10
52.909933
20
537.600079
11
66.639916
21
537.600079
0
LINE
8
Layer 1
10
66.639916
20
537.600079
11
66.646987
21
537.597150
0
LINE
8
Layer 1
10
66.646987
20
537.597150
11
66.649916
21
537.590079
0
LINE
8
Layer 1
10
66.649916
20
537.590079
11
66.649916
21
523.860096
0
LINE
8
Layer 1
10
66.649916
20
523.860096
11
66.646987
21
523.853025
0
LINE
8
Layer 1
10
66.646987
20
523.853025
11
66.639916
21
523.850096
0
LINE
8
Layer 1
10
66.639916
20
523.850096
11
52.909933
21
523.850096
0
LINE
8
Layer 1
10
52.909933
20
523.850096
11
52.902862
21
523.853025
0
LINE
8
Layer 1
10
52.902862
20
523.853025
11
52.899933
21
523.860096
0
LINE
8
Layer 1
10
52.899933
20
523.860096
11
52.899933
21
537.590079
0
LINE
8
Layer 1
10
52.899933
20
537.590079
11
52.902862
21
537.597150
0
LINE
8
Layer 1
10
52.902862
20
537.597150
11
52.909933
21
537.600079
0
LINE
8
Layer 1
10
52.909933
20
537.600079
11
52.909933
21
537.600079
0
LINE
8
Layer 1
10
52.909933
20
518.550103
11
66.639916
21
518.550103
0
LINE
8
Layer 1
10
66.639916
20
518.550103
11
66.646987
21
518.547174
0
LINE
8
Layer 1
10
66.646987
20
518.547174
11
66.649916
21
518.540103
0
LINE
8
Layer 1
10
66.649916
20
518.540103
11
66.649916
21
504.810120
0
LINE
8
Layer 1
10
66.649916
20
504.810120
11
66.646987
21
504.803049
0
LINE
8
Layer 1
10
66.646987
20
504.803049
11
66.639916
21
504.800120
0
LINE
8
Layer 1
10
66.639916
20
504.800120
11
52.909933
21
504.800120
0
LINE
8
Layer 1
10
52.909933
20
504.800120
11
52.902862
21
504.803049
0
LINE
8
Layer 1
10
52.902862
20
504.803049
11
52.899933
21
504.810120
0
LINE
8
Layer 1
10
52.899933
20
504.810120
11
52.899933
21
518.540103
0
LINE
8
Layer 1
10
52.899933
20
518.540103
11
52.902862
21
518.547174
0
LINE
8
Layer 1
10
52.902862
20
518.547174
11
52.909933
21
518.550103
0
LINE
8
Layer 1
10
52.909933
20
518.550103
11
52.909933
21
518.550103
0
LINE
8
Layer 1
10
71.959909
20
559.150051
11
85.689892
21
559.150051
0
LINE
8
Layer 1
10
85.689892
20
559.150051
11
85.696963
21
559.147123
0
LINE
8
Layer 1
10
85.696963
20
559.147123
11
85.699892
21
559.140051
0
LINE
8
Layer 1
10
85.699892
20
559.140051
11
85.699892
21
545.410069
0
LINE
8
Layer 1
10
85.699892
20
545.410069
11
85.696963
21
545.402998
0
LINE
8
Layer 1
10
85.696963
20
545.402998
11
85.689892
21
545.400069
0
LINE
8
Layer 1
10
85.689892
20
545.400069
11
71.959909
21
545.400069
0
LINE
8
Layer 1
10
71.959909
20
545.400069
11
71.952838
21
545.402998
0
LINE
8
Layer 1
10
71.952838
20
545.402998
11
71.949909
21
545.410069
0
LINE
8
Layer 1
10
71.949909
20
545.410069
11
71.949909
21
559.140051
0
LINE
8
Layer 1
10
71.949909
20
559.140051
11
71.952838
21
559.147123
0
LINE
8
Layer 1
10
71.952838
20
559.147123
11
71.959909
21
559.150051
0
LINE
8
Layer 1
10
71.959909
20
559.150051
11
71.959909
21
559.150051
0
LINE
8
Layer 1
10
71.959909
20
540.100075
11
85.689892
21
540.100075
0
LINE
8
Layer 1
10
85.689892
20
540.100075
11
85.696963
21
540.097147
0
LINE
8
Layer 1
10
85.696963
20
540.097147
11
85.699892
21
540.090075
0
LINE
8
Layer 1
10
85.699892
20
540.090075
11
85.699892
21
526.360093
0
LINE
8
Layer 1
10
85.699892
20
526.360093
11
85.696963
21
526.353022
0
LINE
8
Layer 1
10
85.696963
20
526.353022
11
85.689892
21
526.350093
0
LINE
8
Layer 1
10
85.689892
20
526.350093
11
71.959909
21
526.350093
0
LINE
8
Layer 1
10
71.959909
20
526.350093
11
71.952838
21
526.353022
0
LINE
8
Layer 1
10
71.952838
20
526.353022
11
71.949909
21
526.360093
0
LINE
8
Layer 1
10
71.949909
20
526.360093
11
71.949909
21
540.090075
0
LINE
8
Layer 1
10
71.949909
20
540.090075
11
71.952838
21
540.097147
0
LINE
8
Layer 1
10
71.952838
20
540.097147
11
71.959909
21
540.100075
0
LINE
8
Layer 1
10
71.959909
20
540.100075
11
71.959909
21
540.100075
0
LINE
8
Layer 1
10
71.959909
20
521.050099
11
85.689892
21
521.050099
0
LINE
8
Layer 1
10
85.689892
20
521.050099
11
85.696963
21
521.047171
0
LINE
8
Layer 1
10
85.696963
20
521.047171
11
85.699892
21
521.040099
0
LINE
8
Layer 1
10
85.699892
20
521.040099
11
85.699892
21
507.310117
0
LINE
8
Layer 1
10
85.699892
20
507.310117
11
85.696963
21
507.303046
0
LINE
8
Layer 1
10
85.696963
20
507.303046
11
85.689892
21
507.300117
0
LINE
8
Layer 1
10
85.689892
20
507.300117
11
71.959909
21
507.300117
0
LINE
8
Layer 1
10
71.959909
20
507.300117
11
71.952838
21
507.303046
0
LINE
8
Layer 1
10
71.952838
20
507.303046
11
71.949909
21
507.310117
0
LINE
8
Layer 1
10
71.949909
20
507.310117
11
71.949909
21
521.040099
0
LINE
8
Layer 1
10
71.949909
20
521.040099
11
71.952838
21
521.047171
0
LINE
8
Layer 1
10
71.952838
20
521.047171
11
71.959909
21
521.050099
0
LINE
8
Layer 1
10
71.959909
20
521.050099
11
71.959909
21
521.050099
0
LINE
8
Layer 1
10
91.009885
20
556.550055
11
104.739868
21
556.550055
0
LINE
8
Layer 1
10
104.739868
20
556.550055
11
104.746939
21
556.547126
0
LINE
8
Layer 1
10
104.746939
20
556.547126
11
104.749868
21
556.540055
0
LINE
8
Layer 1
10
104.749868
20
556.540055
11
104.749868
21
542.810072
0
LINE
8
Layer 1
10
104.749868
20
542.810072
11
104.746939
21
542.803001
0
LINE
8
Layer 1
10
104.746939
20
542.803001
11
104.739868
21
542.800072
0
LINE
8
Layer 1
10
104.739868
20
542.800072
11
91.009885
21
542.800072
0
LINE
8
Layer 1
10
91.009885
20
542.800072
11
91.002814
21
542.803001
0
LINE
8
Layer 1
10
91.002814
20
542.803001
11
90.999885
21
542.810072
0
LINE
8
Layer 1
10
90.999885
20
542.810072
11
90.999885
21
556.540055
0
LINE
8
Layer 1
10
90.999885
20
556.540055
11
91.002814
21
556.547126
0
LINE
8
Layer 1
10
91.002814
20
556.547126
11
91.009885
21
556.550055
0
LINE
8
Layer 1
10
91.009885
20
556.550055
11
91.009885
21
556.550055
0
LINE
8
Layer 1
10
91.009885
20
537.500079
11
104.739868
21
537.500079
0
LINE
8
Layer 1
10
104.739868
20
537.500079
11
104.746939
21
537.497150
0
LINE
8
Layer 1
10
104.746939
20
537.497150
11
104.749868
21
537.490079
0
LINE
8
Layer 1
10
104.749868
20
537.490079
11
104.749868
21
523.760096
0
LINE
8
Layer 1
10
104.749868
20
523.760096
11
104.746939
21
523.753025
0
LINE
8
Layer 1
10
104.746939
20
523.753025
11
104.739868
21
523.750096
0
LINE
8
Layer 1
10
104.739868
20
523.750096
11
91.009885
21
523.750096
0
LINE
8
Layer 1
10
91.009885
20
523.750096
11
91.002814
21
523.753025
0
LINE
8
Layer 1
10
91.002814
20
523.753025
11
90.999885
21
523.760096
0
LINE
8
Layer 1
10
90.999885
20
523.760096
11
90.999885
21
537.490079
0
LINE
8
Layer 1
10
90.999885
20
537.490079
11
91.002814
21
537.497150
0
LINE
8
Layer 1
10
91.002814
20
537.497150
11
91.009885
21
537.500079
0
LINE
8
Layer 1
10
91.009885
20
537.500079
11
91.009885
21
537.500079
0
LINE
8
Layer 1
10
91.009885
20
518.450103
11
104.739868
21
518.450103
0
LINE
8
Layer 1
10
104.739868
20
518.450103
11
104.746939
21
518.447174
0
LINE
8
Layer 1
10
104.746939
20
518.447174
11
104.749868
21
518.440103
0
LINE
8
Layer 1
10
104.749868
20
518.440103
11
104.749868
21
504.710120
0
LINE
8
Layer 1
10
104.749868
20
504.710120
11
104.746939
21
504.703049
0
LINE
8
Layer 1
10
104.746939
20
504.703049
11
104.739868
21
504.700120
0
LINE
8
Layer 1
10
104.739868
20
504.700120
11
91.009885
21
504.700120
0
LINE
8
Layer 1
10
91.009885
20
504.700120
11
91.002814
21
504.703049
0
LINE
8
Layer 1
10
91.002814
20
504.703049
11
90.999885
21
504.710120
0
LINE
8
Layer 1
10
90.999885
20
504.710120
11
90.999885
21
518.440103
0
LINE
8
Layer 1
10
90.999885
20
518.440103
11
91.002814
21
518.447174
0
LINE
8
Layer 1
10
91.002814
20
518.447174
11
91.009885
21
518.450103
0
LINE
8
Layer 1
10
91.009885
20
518.450103
11
91.009885
21
518.450103
0
LINE
8
Layer 1
10
110.059861
20
552.050060
11
123.789844
21
552.050060
0
LINE
8
Layer 1
10
123.789844
20
552.050060
11
123.796915
21
552.047131
0
LINE
8
Layer 1
10
123.796915
20
552.047131
11
123.799844
21
552.040060
0
LINE
8
Layer 1
10
123.799844
20
552.040060
11
123.799844
21
538.310078
0
LINE
8
Layer 1
10
123.799844
20
538.310078
11
123.796915
21
538.303007
0
LINE
8
Layer 1
10
123.796915
20
538.303007
11
123.789844
21
538.300078
0
LINE
8
Layer 1
10
123.789844
20
538.300078
11
110.059861
21
538.300078
0
LINE
8
Layer 1
10
110.059861
20
538.300078
11
110.052790
21
538.303007
0
LINE
8
Layer 1
10
110.052790
20
538.303007
11
110.049861
21
538.310078
0
LINE
8
Layer 1
10
110.049861
20
538.310078
11
110.049861
21
552.040060
0
LINE
8
Layer 1
10
110.049861
20
552.040060
11
110.052790
21
552.047131
0
LINE
8
Layer 1
10
110.052790
20
552.047131
11
110.059861
21
552.050060
0
LINE
8
Layer 1
10
110.059861
20
552.050060
11
110.059861
21
552.050060
0
LINE
8
Layer 1
10
110.059861
20
533.000084
11
123.789844
21
533.000084
0
LINE
8
Layer 1
10
123.789844
20
533.000084
11
123.796915
21
532.997155
0
LINE
8
Layer 1
10
123.796915
20
532.997155
11
123.799844
21
532.990084
0
LINE
8
Layer 1
10
123.799844
20
532.990084
11
123.799844
21
519.260102
0
LINE
8
Layer 1
10
123.799844
20
519.260102
11
123.796915
21
519.253031
0
LINE
8
Layer 1
10
123.796915
20
519.253031
11
123.789844
21
519.250102
0
LINE
8
Layer 1
10
123.789844
20
519.250102
11
110.059861
21
519.250102
0
LINE
8
Layer 1
10
110.059861
20
519.250102
11
110.052790
21
519.253031
0
LINE
8
Layer 1
10
110.052790
20
519.253031
11
110.049861
21
519.260102
0
LINE
8
Layer 1
10
110.049861
20
519.260102
11
110.049861
21
532.990084
0
LINE
8
Layer 1
10
110.049861
20
532.990084
11
110.052790
21
532.997155
0
LINE
8
Layer 1
10
110.052790
20
532.997155
11
110.059861
21
533.000084
0
LINE
8
Layer 1
10
110.059861
20
533.000084
11
110.059861
21
533.000084
0
LINE
8
Layer 1
10
110.059861
20
513.950108
11
123.789844
21
513.950108
0
LINE
8
Layer 1
10
123.789844
20
513.950108
11
123.796915
21
513.947179
0
LINE
8
Layer 1
10
123.796915
20
513.947179
11
123.799844
21
513.940108
0
LINE
8
Layer 1
10
123.799844
20
513.940108
11
123.799844
21
500.210126
0
LINE
8
Layer 1
10
123.799844
20
500.210126
11
123.796915
21
500.203055
0
LINE
8
Layer 1
10
123.796915
20
500.203055
11
123.789844
21
500.200126
0
LINE
8
Layer 1
10
123.789844
20
500.200126
11
110.059861
21
500.200126
0
LINE
8
Layer 1
10
110.059861
20
500.200126
11
110.052790
21
500.203055
0
LINE
8
Layer 1
10
110.052790
20
500.203055
11
110.049861
21
500.210126
0
LINE
8
Layer 1
10
110.049861
20
500.210126
11
110.049861
21
513.940108
0
LINE
8
Layer 1
10
110.049861
20
513.940108
11
110.052790
21
513.947179
0
LINE
8
Layer 1
10
110.052790
20
513.947179
11
110.059861
21
513.950108
0
LINE
8
Layer 1
10
110.059861
20
513.950108
11
110.059861
21
513.950108
0
LINE
8
Layer 1
10
129.109837
20
552.050060
11
142.839820
21
552.050060
0
LINE
8
Layer 1
10
142.839820
20
552.050060
11
142.846891
21
552.047131
0
LINE
8
Layer 1
10
142.846891
20
552.047131
11
142.849820
21
552.040060
0
LINE
8
Layer 1
10
142.849820
20
552.040060
11
142.849820
21
538.310078
0
LINE
8
Layer 1
10
142.849820
20
538.310078
11
142.846891
21
538.303007
0
LINE
8
Layer 1
10
142.846891
20
538.303007
11
142.839820
21
538.300078
0
LINE
8
Layer 1
10
142.839820
20
538.300078
11
129.109837
21
538.300078
0
LINE
8
Layer 1
10
129.109837
20
538.300078
11
129.102766
21
538.303007
0
LINE
8
Layer 1
10
129.102766
20
538.303007
11
129.099837
21
538.310078
0
LINE
8
Layer 1
10
129.099837
20
538.310078
11
129.099837
21
552.040060
0
LINE
8
Layer 1
10
129.099837
20
552.040060
11
129.102766
21
552.047131
0
LINE
8
Layer 1
10
129.102766
20
552.047131
11
129.109837
21
552.050060
0
LINE
8
Layer 1
10
129.109837
20
552.050060
11
129.109837
21
552.050060
0
LINE
8
Layer 1
10
129.109837
20
533.000084
11
142.839820
21
533.000084
0
LINE
8
Layer 1
10
142.839820
20
533.000084
11
142.846891
21
532.997155
0
LINE
8
Layer 1
10
142.846891
20
532.997155
11
142.849820
21
532.990084
0
LINE
8
Layer 1
10
142.849820
20
532.990084
11
142.849820
21
519.260102
0
LINE
8
Layer 1
10
142.849820
20
519.260102
11
142.846891
21
519.253031
0
LINE
8
Layer 1
10
142.846891
20
519.253031
11
142.839820
21
519.250102
0
LINE
8
Layer 1
10
142.839820
20
519.250102
11
129.109837
21
519.250102
0
LINE
8
Layer 1
10
129.109837
20
519.250102
11
129.102766
21
519.253031
0
LINE
8
Layer 1
10
129.102766
20
519.253031
11
129.099837
21
519.260102
0
LINE
8
Layer 1
10
129.099837
20
519.260102
11
129.099837
21
532.990084
0
LINE
8
Layer 1
10
129.099837
20
532.990084
11
129.102766
21
532.997155
0
LINE
8
Layer 1
10
129.102766
20
532.997155
11
129.109837
21
533.000084
0
LINE
8
Layer 1
10
129.109837
20
533.000084
11
129.109837
21
533.000084
0
LINE
8
Layer 1
10
129.109837
20
513.950108
11
142.839820
21
513.950108
0
LINE
8
Layer 1
10
142.839820
20
513.950108
11
142.846891
21
513.947179
0
LINE
8
Layer 1
10
142.846891
20
513.947179
11
142.849820
21
513.940108
0
LINE
8
Layer 1
10
142.849820
20
513.940108
11
142.849820
21
500.210126
0
LINE
8
Layer 1
10
142.849820
20
500.210126
11
142.846891
21
500.203055
0
LINE
8
Layer 1
10
142.846891
20
500.203055
11
142.839820
21
500.200126
0
LINE
8
Layer 1
10
142.839820
20
500.200126
11
129.109837
21
500.200126
0
LINE
8
Layer 1
10
129.109837
20
500.200126
11
129.102766
21
500.203055
0
LINE
8
Layer 1
10
129.102766
20
500.203055
11
129.099837
21
500.210126
0
LINE
8
Layer 1
10
129.099837
20
500.210126
11
129.099837
21
513.940108
0
LINE
8
Layer 1
10
129.099837
20
513.940108
11
129.102766
21
513.947179
0
LINE
8
Layer 1
10
129.102766
20
513.947179
11
129.109837
21
513.950108
0
LINE
8
Layer 1
10
129.109837
20
513.950108
11
129.109837
21
513.950108
0
LINE
8
Layer 1
10
27.003277
20
494.302218
11
32.805839
21
481.858609
0
LINE
8
Layer 1
10
32.805839
20
481.858609
11
32.806173
21
481.850962
0
LINE
8
Layer 1
10
32.806173
20
481.850962
11
32.801002
21
481.845319
0
LINE
8
Layer 1
10
32.801002
20
481.845319
11
20.357393
21
476.042758
0
LINE
8
Layer 1
10
20.357393
20
476.042758
11
20.344103
21
476.047595
0
LINE
8
Layer 1
10
20.344103
20
476.047595
11
14.541542
21
488.491204
0
LINE
8
Layer 1
10
14.541542
20
488.491204
11
14.546378
21
488.504493
0
LINE
8
Layer 1
10
14.546378
20
488.504493
11
26.989988
21
494.307055
0
LINE
8
Layer 1
10
26.989988
20
494.307055
11
27.003277
21
494.302218
0
LINE
8
Layer 1
10
27.003277
20
494.302218
11
27.003277
21
494.302218
0
LINE
8
Layer 1
10
12.809984
20
525.575094
11
26.539967
21
525.575094
0
LINE
8
Layer 1
10
26.539967
20
525.575094
11
26.547038
21
525.572165
0
LINE
8
Layer 1
10
26.547038
20
525.572165
11
26.549967
21
525.565094
0
LINE
8
Layer 1
10
26.549967
20
525.565094
11
26.549967
21
511.835111
0
LINE
8
Layer 1
10
26.549967
20
511.835111
11
26.547038
21
511.828040
0
LINE
8
Layer 1
10
26.547038
20
511.828040
11
26.539967
21
511.825111
0
LINE
8
Layer 1
10
26.539967
20
511.825111
11
12.809984
21
511.825111
0
LINE
8
Layer 1
10
12.809984
20
511.825111
11
12.802913
21
511.828040
0
LINE
8
Layer 1
10
12.802913
20
511.828040
11
12.799984
21
511.835111
0
LINE
8
Layer 1
10
12.799984
20
511.835111
11
12.799984
21
525.565094
0
LINE
8
Layer 1
10
12.799984
20
525.565094
11
12.802913
21
525.572165
0
LINE
8
Layer 1
10
12.802913
20
525.572165
11
12.809984
21
525.575094
0
LINE
8
Layer 1
10
12.809984
20
525.575094
11
12.809984
21
525.575094
0
LINE
8
Layer 1
10
62.434921
20
498.800127
11
76.164904
21
498.800127
0
LINE
8
Layer 1
10
76.164904
20
498.800127
11
76.171975
21
498.797199
0
LINE
8
Layer 1
10
76.171975
20
498.797199
11
76.174904
21
498.790128
0
LINE
8
Layer 1
10
76.174904
20
498.790128
11
76.174904
21
485.060145
0
LINE
8
Layer 1
10
76.174904
20
485.060145
11
76.171975
21
485.053074
0
LINE
8
Layer 1
10
76.171975
20
485.053074
11
76.164904
21
485.050145
0
LINE
8
Layer 1
10
76.164904
20
485.050145
11
62.434921
21
485.050145
0
LINE
8
Layer 1
10
62.434921
20
485.050145
11
62.427850
21
485.053074
0
LINE
8
Layer 1
10
62.427850
20
485.053074
11
62.424921
21
485.060145
0
LINE
8
Layer 1
10
62.424921
20
485.060145
11
62.424921
21
498.790128
0
LINE
8
Layer 1
10
62.424921
20
498.790128
11
62.427850
21
498.797199
0
LINE
8
Layer 1
10
62.427850
20
498.797199
11
62.434921
21
498.800127
0
LINE
8
Layer 1
10
62.434921
20
498.800127
11
62.434921
21
498.800127
0
LINE
8
Layer 1
10
38.889886
20
493.039382
11
52.152055
21
496.592967
0
LINE
8
Layer 1
10
52.152055
20
496.592967
11
52.159643
21
496.591968
0
LINE
8
Layer 1
10
52.159643
20
496.591968
11
52.164302
21
496.585896
0
LINE
8
Layer 1
10
52.164302
20
496.585896
11
55.717887
21
483.323728
0
LINE
8
Layer 1
10
55.717887
20
483.323728
11
55.710816
21
483.311481
0
LINE
8
Layer 1
10
55.710816
20
483.311481
11
42.448648
21
479.757896
0
LINE
8
Layer 1
10
42.448648
20
479.757896
11
42.436401
21
479.764967
0
LINE
8
Layer 1
10
42.436401
20
479.764967
11
38.882815
21
493.027135
0
LINE
8
Layer 1
10
38.882815
20
493.027135
11
38.889886
21
493.039382
0
LINE
8
Layer 1
10
38.889886
20
493.039382
11
38.889886
21
493.039382
0
LINE
8
Layer 1
10
33.859957
20
579.200026
11
47.589940
21
579.200026
0
LINE
8
Layer 1
10
47.589940
20
579.200026
11
47.597011
21
579.197097
0
LINE
8
Layer 1
10
47.597011
20
579.197097
11
47.599940
21
579.190026
0
LINE
8
Layer 1
10
47.599940
20
579.190026
11
47.599940
21
565.460044
0
LINE
8
Layer 1
10
47.599940
20
565.460044
11
47.597011
21
565.452972
0
LINE
8
Layer 1
10
47.597011
20
565.452972
11
47.589940
21
565.450044
0
LINE
8
Layer 1
10
47.589940
20
565.450044
11
33.859957
21
565.450044
0
LINE
8
Layer 1
10
33.859957
20
565.450044
11
33.852886
21
565.452972
0
LINE
8
Layer 1
10
33.852886
20
565.452972
11
33.849957
21
565.460044
0
LINE
8
Layer 1
10
33.849957
20
565.460044
11
33.849957
21
579.190026
0
LINE
8
Layer 1
10
33.849957
20
579.190026
11
33.852886
21
579.197097
0
LINE
8
Layer 1
10
33.852886
20
579.197097
11
33.859957
21
579.200026
0
LINE
8
Layer 1
10
33.859957
20
579.200026
11
33.859957
21
579.200026
0
LINE
8
Layer 1
10
52.909933
20
579.200026
11
66.639916
21
579.200026
0
LINE
8
Layer 1
10
66.639916
20
579.200026
11
66.646987
21
579.197097
0
LINE
8
Layer 1
10
66.646987
20
579.197097
11
66.649916
21
579.190026
0
LINE
8
Layer 1
10
66.649916
20
579.190026
11
66.649916
21
565.460044
0
LINE
8
Layer 1
10
66.649916
20
565.460044
11
66.646987
21
565.452972
0
LINE
8
Layer 1
10
66.646987
20
565.452972
11
66.639916
21
565.450044
0
LINE
8
Layer 1
10
66.639916
20
565.450044
11
52.909933
21
565.450044
0
LINE
8
Layer 1
10
52.909933
20
565.450044
11
52.902862
21
565.452972
0
LINE
8
Layer 1
10
52.902862
20
565.452972
11
52.899933
21
565.460044
0
LINE
8
Layer 1
10
52.899933
20
565.460044
11
52.899933
21
579.190026
0
LINE
8
Layer 1
10
52.899933
20
579.190026
11
52.902862
21
579.197097
0
LINE
8
Layer 1
10
52.902862
20
579.197097
11
52.909933
21
579.200026
0
LINE
8
Layer 1
10
52.909933
20
579.200026
11
52.909933
21
579.200026
0
LINE
8
Layer 1
10
71.959909
20
579.200026
11
85.689892
21
579.200026
0
LINE
8
Layer 1
10
85.689892
20
579.200026
11
85.696963
21
579.197097
0
LINE
8
Layer 1
10
85.696963
20
579.197097
11
85.699892
21
579.190026
0
LINE
8
Layer 1
10
85.699892
20
579.190026
11
85.699892
21
565.460044
0
LINE
8
Layer 1
10
85.699892
20
565.460044
11
85.696963
21
565.452972
0
LINE
8
Layer 1
10
85.696963
20
565.452972
11
85.689892
21
565.450044
0
LINE
8
Layer 1
10
85.689892
20
565.450044
11
71.959909
21
565.450044
0
LINE
8
Layer 1
10
71.959909
20
565.450044
11
71.952838
21
565.452972
0
LINE
8
Layer 1
10
71.952838
20
565.452972
11
71.949909
21
565.460044
0
LINE
8
Layer 1
10
71.949909
20
565.460044
11
71.949909
21
579.190026
0
LINE
8
Layer 1
10
71.949909
20
579.190026
11
71.952838
21
579.197097
0
LINE
8
Layer 1
10
71.952838
20
579.197097
11
71.959909
21
579.200026
0
LINE
8
Layer 1
10
71.959909
20
579.200026
11
71.959909
21
579.200026
0
LINE
8
Layer 1
10
91.009885
20
579.200026
11
104.739868
21
579.200026
0
LINE
8
Layer 1
10
104.739868
20
579.200026
11
104.746939
21
579.197097
0
LINE
8
Layer 1
10
104.746939
20
579.197097
11
104.749868
21
579.190026
0
LINE
8
Layer 1
10
104.749868
20
579.190026
11
104.749868
21
565.460044
0
LINE
8
Layer 1
10
104.749868
20
565.460044
11
104.746939
21
565.452972
0
LINE
8
Layer 1
10
104.746939
20
565.452972
11
104.739868
21
565.450044
0
LINE
8
Layer 1
10
104.739868
20
565.450044
11
91.009885
21
565.450044
0
LINE
8
Layer 1
10
91.009885
20
565.450044
11
91.002814
21
565.452972
0
LINE
8
Layer 1
10
91.002814
20
565.452972
11
90.999885
21
565.460044
0
LINE
8
Layer 1
10
90.999885
20
565.460044
11
90.999885
21
579.190026
0
LINE
8
Layer 1
10
90.999885
20
579.190026
11
91.002814
21
579.197097
0
LINE
8
Layer 1
10
91.002814
20
579.197097
11
91.009885
21
579.200026
0
LINE
8
Layer 1
10
91.009885
20
579.200026
11
91.009885
21
579.200026
0
LINE
8
Layer 1
10
110.059861
20
579.200026
11
123.789844
21
579.200026
0
LINE
8
Layer 1
10
123.789844
20
579.200026
11
123.796915
21
579.197097
0
LINE
8
Layer 1
10
123.796915
20
579.197097
11
123.799844
21
579.190026
0
LINE
8
Layer 1
10
123.799844
20
579.190026
11
123.799844
21
565.460044
0
LINE
8
Layer 1
10
123.799844
20
565.460044
11
123.796915
21
565.452972
0
LINE
8
Layer 1
10
123.796915
20
565.452972
11
123.789844
21
565.450044
0
LINE
8
Layer 1
10
123.789844
20
565.450044
11
110.059861
21
565.450044
0
LINE
8
Layer 1
10
110.059861
20
565.450044
11
110.052790
21
565.452972
0
LINE
8
Layer 1
10
110.052790
20
565.452972
11
110.049861
21
565.460044
0
LINE
8
Layer 1
10
110.049861
20
565.460044
11
110.049861
21
579.190026
0
LINE
8
Layer 1
10
110.049861
20
579.190026
11
110.052790
21
579.197097
0
LINE
8
Layer 1
10
110.052790
20
579.197097
11
110.059861
21
579.200026
0
LINE
8
Layer 1
10
110.059861
20
579.200026
11
110.059861
21
579.200026
0
LINE
8
Layer 1
10
129.109837
20
579.200026
11
142.839820
21
579.200026
0
LINE
8
Layer 1
10
142.839820
20
579.200026
11
142.846891
21
579.197097
0
LINE
8
Layer 1
10
142.846891
20
579.197097
11
142.849820
21
579.190026
0
LINE
8
Layer 1
10
142.849820
20
579.190026
11
142.849820
21
565.460044
0
LINE
8
Layer 1
10
142.849820
20
565.460044
11
142.846891
21
565.452972
0
LINE
8
Layer 1
10
142.846891
20
565.452972
11
142.839820
21
565.450044
0
LINE
8
Layer 1
10
142.839820
20
565.450044
11
129.109837
21
565.450044
0
LINE
8
Layer 1
10
129.109837
20
565.450044
11
129.102766
21
565.452972
0
LINE
8
Layer 1
10
129.102766
20
565.452972
11
129.099837
21
565.460044
0
LINE
8
Layer 1
10
129.099837
20
565.460044
11
129.099837
21
579.190026
0
LINE
8
Layer 1
10
129.099837
20
579.190026
11
129.102766
21
579.197097
0
LINE
8
Layer 1
10
129.102766
20
579.197097
11
129.109837
21
579.200026
0
LINE
8
Layer 1
10
129.109837
20
579.200026
11
129.109837
21
579.200026
0
LINE
8
Layer 1
10
2.799976
20
597.200024
11
13.799882
21
597.200024
0
LINE
8
Layer 1
10
13.799882
20
597.200024
11
13.799882
21
591.200075
0
LINE
8
Layer 1
10
13.799882
20
591.200075
11
11.799899
21
591.200075
0
LINE
8
Layer 1
10
11.799899
20
591.200075
11
11.799899
21
566.700285
0
LINE
8
Layer 1
10
11.799899
20
566.700285
11
30.799737
21
566.700285
0
LINE
8
Layer 1
10
30.799737
20
566.700285
11
30.799737
21
591.200075
0
LINE
8
Layer 1
10
30.799737
20
591.200075
11
28.799754
21
591.200075
0
LINE
8
Layer 1
10
28.799754
20
591.200075
11
28.799754
21
597.200024
0
LINE
8
Layer 1
10
28.799754
20
597.200024
11
186.848402
21
589.200092
0
LINE
8
Layer 1
10
186.848402
20
589.200092
11
186.848402
21
500.050855
0
LINE
8
Layer 1
10
186.848402
20
500.050855
11
166.848573
21
480.051026
0
LINE
8
Layer 1
10
166.848573
20
480.051026
11
17.799848
21
460.051197
0
LINE
8
Layer 1
10
17.799848
20
460.051197
11
2.799976
21
492.218526
0
LINE
8
Layer 1
10
2.799976
20
492.218526
11
2.799976
21
597.200024
0
LINE
8
Layer 1
10
180.848453
20
541.912997
11
154.148682
21
541.912997
0
LINE
8
Layer 1
10
154.148682
20
541.912997
11
154.148682
21
546.912954
0
LINE
8
Layer 1
10
154.148682
20
546.912954
11
163.848599
21
546.912954
0
LINE
8
Layer 1
10
163.848599
20
546.912954
11
163.848599
21
542.512992
0
LINE
8
Layer 1
10
163.848599
20
542.512992
11
168.848556
21
542.512992
0
LINE
8
Layer 1
10
168.848556
20
542.512992
11
168.848556
21
562.312822
0
LINE
8
Layer 1
10
168.848556
20
562.312822
11
163.848599
21
562.312822
0
LINE
8
Layer 1
10
163.848599
20
562.312822
11
163.848599
21
557.912860
0
LINE
8
Layer 1
10
163.848599
20
557.912860
11
154.148682
21
557.912860
0
LINE
8
Layer 1
10
154.148682
20
557.912860
11
154.148682
21
562.912817
0
LINE
8
Layer 1
10
154.148682
20
562.912817
11
180.848453
21
562.912817
0
LINE
8
Layer 1
10
180.848453
20
562.912817
11
180.848453
21
541.912997
0
LINE
8
Layer 1
10
32.859959
20
415.200233
11
48.589939
21
415.200233
0
LINE
8
Layer 1
10
48.589939
20
415.200233
11
48.599939
21
415.190233
0
LINE
8
Layer 1
10
48.599939
20
415.190233
11
48.599939
21
399.460253
0
LINE
8
Layer 1
10
48.599939
20
399.460253
11
48.589939
21
399.450253
0
LINE
8
Layer 1
10
48.589939
20
399.450253
11
32.859959
21
399.450253
0
LINE
8
Layer 1
10
32.859959
20
399.450253
11
32.852888
21
399.453182
0
LINE
8
Layer 1
10
32.852888
20
399.453182
11
32.849959
21
399.460253
0
LINE
8
Layer 1
10
32.849959
20
399.460253
11
32.849959
21
415.190233
0
LINE
8
Layer 1
10
32.849959
20
415.190233
11
32.852888
21
415.197304
0
LINE
8
Layer 1
10
32.852888
20
415.197304
11
32.859959
21
415.200233
0
LINE
8
Layer 1
10
32.859959
20
415.200233
11
32.859959
21
415.200233
0
LINE
8
Layer 1
10
32.859959
20
396.150257
11
48.589939
21
396.150257
0
LINE
8
Layer 1
10
48.589939
20
396.150257
11
48.599939
21
396.140257
0
LINE
8
Layer 1
10
48.599939
20
396.140257
11
48.599939
21
380.410277
0
LINE
8
Layer 1
10
48.599939
20
380.410277
11
48.589939
21
380.400277
0
LINE
8
Layer 1
10
48.589939
20
380.400277
11
32.859959
21
380.400277
0
LINE
8
Layer 1
10
32.859959
20
380.400277
11
32.852888
21
380.403206
0
LINE
8
Layer 1
10
32.852888
20
380.403206
11
32.849959
21
380.410277
0
LINE
8
Layer 1
10
32.849959
20
380.410277
11
32.849959
21
396.140257
0
LINE
8
Layer 1
10
32.849959
20
396.140257
11
32.852888
21
396.147328
0
LINE
8
Layer 1
10
32.852888
20
396.147328
11
32.859959
21
396.150257
0
LINE
8
Layer 1
10
32.859959
20
396.150257
11
32.859959
21
396.150257
0
LINE
8
Layer 1
10
32.859959
20
377.100281
11
48.589939
21
377.100281
0
LINE
8
Layer 1
10
48.589939
20
377.100281
11
48.599939
21
377.090281
0
LINE
8
Layer 1
10
48.599939
20
377.090281
11
48.599939
21
361.360301
0
LINE
8
Layer 1
10
48.599939
20
361.360301
11
48.589939
21
361.350301
0
LINE
8
Layer 1
10
48.589939
20
361.350301
11
32.859959
21
361.350301
0
LINE
8
Layer 1
10
32.859959
20
361.350301
11
32.852888
21
361.353230
0
LINE
8
Layer 1
10
32.852888
20
361.353230
11
32.849959
21
361.360301
0
LINE
8
Layer 1
10
32.849959
20
361.360301
11
32.849959
21
377.090281
0
LINE
8
Layer 1
10
32.849959
20
377.090281
11
32.852888
21
377.097352
0
LINE
8
Layer 1
10
32.852888
20
377.097352
11
32.859959
21
377.100281
0
LINE
8
Layer 1
10
32.859959
20
377.100281
11
32.859959
21
377.100281
0
LINE
8
Layer 1
10
51.909935
20
417.700230
11
67.639915
21
417.700230
0
LINE
8
Layer 1
10
67.639915
20
417.700230
11
67.646986
21
417.697301
0
LINE
8
Layer 1
10
67.646986
20
417.697301
11
67.649915
21
417.690230
0
LINE
8
Layer 1
10
67.649915
20
417.690230
11
67.649915
21
401.960249
0
LINE
8
Layer 1
10
67.649915
20
401.960249
11
67.646986
21
401.953178
0
LINE
8
Layer 1
10
67.646986
20
401.953178
11
67.639915
21
401.950250
0
LINE
8
Layer 1
10
67.639915
20
401.950250
11
51.909935
21
401.950250
0
LINE
8
Layer 1
10
51.909935
20
401.950250
11
51.902864
21
401.953178
0
LINE
8
Layer 1
10
51.902864
20
401.953178
11
51.899935
21
401.960249
0
LINE
8
Layer 1
10
51.899935
20
401.960249
11
51.899935
21
417.690230
0
LINE
8
Layer 1
10
51.899935
20
417.690230
11
51.902864
21
417.697301
0
LINE
8
Layer 1
10
51.902864
20
417.697301
11
51.909935
21
417.700230
0
LINE
8
Layer 1
10
51.909935
20
417.700230
11
51.909935
21
417.700230
0
LINE
8
Layer 1
10
51.909935
20
398.650254
11
67.639915
21
398.650254
0
LINE
8
Layer 1
10
67.639915
20
398.650254
11
67.646986
21
398.647325
0
LINE
8
Layer 1
10
67.646986
20
398.647325
11
67.649915
21
398.640254
0
LINE
8
Layer 1
10
67.649915
20
398.640254
11
67.649915
21
382.910273
0
LINE
8
Layer 1
10
67.649915
20
382.910273
11
67.646986
21
382.903202
0
LINE
8
Layer 1
10
67.646986
20
382.903202
11
67.639915
21
382.900274
0
LINE
8
Layer 1
10
67.639915
20
382.900274
11
51.909935
21
382.900274
0
LINE
8
Layer 1
10
51.909935
20
382.900274
11
51.902864
21
382.903202
0
LINE
8
Layer 1
10
51.902864
20
382.903202
11
51.899935
21
382.910273
0
LINE
8
Layer 1
10
51.899935
20
382.910273
11
51.899935
21
398.640254
0
LINE
8
Layer 1
10
51.899935
20
398.640254
11
51.902864
21
398.647325
0
LINE
8
Layer 1
10
51.902864
20
398.647325
11
51.909935
21
398.650254
0
LINE
8
Layer 1
10
51.909935
20
398.650254
11
51.909935
21
398.650254
0
LINE
8
Layer 1
10
51.909935
20
379.600278
11
67.639915
21
379.600278
0
LINE
8
Layer 1
10
67.639915
20
379.600278
11
67.646986
21
379.597349
0
LINE
8
Layer 1
10
67.646986
20
379.597349
11
67.649915
21
379.590278
0
LINE
8
Layer 1
10
67.649915
20
379.590278
11
67.649915
21
363.860297
0
LINE
8
Layer 1
10
67.649915
20
363.860297
11
67.646986
21
363.853226
0
LINE
8
Layer 1
10
67.646986
20
363.853226
11
67.639915
21
363.850298
0
LINE
8
Layer 1
10
67.639915
20
363.850298
11
51.909935
21
363.850298
0
LINE
8
Layer 1
10
51.909935
20
363.850298
11
51.902864
21
363.853226
0
LINE
8
Layer 1
10
51.902864
20
363.853226
11
51.899935
21
363.860297
0
LINE
8
Layer 1
10
51.899935
20
363.860297
11
51.899935
21
379.590278
0
LINE
8
Layer 1
10
51.899935
20
379.590278
11
51.902864
21
379.597349
0
LINE
8
Layer 1
10
51.902864
20
379.597349
11
51.909935
21
379.600278
0
LINE
8
Layer 1
10
51.909935
20
379.600278
11
51.909935
21
379.600278
0
LINE
8
Layer 1
10
70.959911
20
420.200227
11
86.689891
21
420.200227
0
LINE
8
Layer 1
10
86.689891
20
420.200227
11
86.696962
21
420.197298
0
LINE
8
Layer 1
10
86.696962
20
420.197298
11
86.699891
21
420.190227
0
LINE
8
Layer 1
10
86.699891
20
420.190227
11
86.699891
21
404.460246
0
LINE
8
Layer 1
10
86.699891
20
404.460246
11
86.696962
21
404.453175
0
LINE
8
Layer 1
10
86.696962
20
404.453175
11
86.689891
21
404.450246
0
LINE
8
Layer 1
10
86.689891
20
404.450246
11
70.959911
21
404.450246
0
LINE
8
Layer 1
10
70.959911
20
404.450246
11
70.952840
21
404.453175
0
LINE
8
Layer 1
10
70.952840
20
404.453175
11
70.949911
21
404.460246
0
LINE
8
Layer 1
10
70.949911
20
404.460246
11
70.949911
21
420.190227
0
LINE
8
Layer 1
10
70.949911
20
420.190227
11
70.952840
21
420.197298
0
LINE
8
Layer 1
10
70.952840
20
420.197298
11
70.959911
21
420.200227
0
LINE
8
Layer 1
10
70.959911
20
420.200227
11
70.959911
21
420.200227
0
LINE
8
Layer 1
10
70.959911
20
401.150251
11
86.689891
21
401.150251
0
LINE
8
Layer 1
10
86.689891
20
401.150251
11
86.696962
21
401.147322
0
LINE
8
Layer 1
10
86.696962
20
401.147322
11
86.699891
21
401.140251
0
LINE
8
Layer 1
10
86.699891
20
401.140251
11
86.699891
21
385.410270
0
LINE
8
Layer 1
10
86.699891
20
385.410270
11
86.696962
21
385.403199
0
LINE
8
Layer 1
10
86.696962
20
385.403199
11
86.689891
21
385.400270
0
LINE
8
Layer 1
10
86.689891
20
385.400270
11
70.959911
21
385.400270
0
LINE
8
Layer 1
10
70.959911
20
385.400270
11
70.952840
21
385.403199
0
LINE
8
Layer 1
10
70.952840
20
385.403199
11
70.949911
21
385.410270
0
LINE
8
Layer 1
10
70.949911
20
385.410270
11
70.949911
21
401.140251
0
LINE
8
Layer 1
10
70.949911
20
401.140251
11
70.952840
21
401.147322
0
LINE
8
Layer 1
10
70.952840
20
401.147322
11
70.959911
21
401.150251
0
LINE
8
Layer 1
10
70.959911
20
401.150251
11
70.959911
21
401.150251
0
LINE
8
Layer 1
10
70.959911
20
382.100275
11
86.689891
21
382.100275
0
LINE
8
Layer 1
10
86.689891
20
382.100275
11
86.696962
21
382.097346
0
LINE
8
Layer 1
10
86.696962
20
382.097346
11
86.699891
21
382.090275
0
LINE
8
Layer 1
10
86.699891
20
382.090275
11
86.699891
21
366.360294
0
LINE
8
Layer 1
10
86.699891
20
366.360294
11
86.696962
21
366.353223
0
LINE
8
Layer 1
10
86.696962
20
366.353223
11
86.689891
21
366.350294
0
LINE
8
Layer 1
10
86.689891
20
366.350294
11
70.959911
21
366.350294
0
LINE
8
Layer 1
10
70.959911
20
366.350294
11
70.952840
21
366.353223
0
LINE
8
Layer 1
10
70.952840
20
366.353223
11
70.949911
21
366.360294
0
LINE
8
Layer 1
10
70.949911
20
366.360294
11
70.949911
21
382.090275
0
LINE
8
Layer 1
10
70.949911
20
382.090275
11
70.952840
21
382.097346
0
LINE
8
Layer 1
10
70.952840
20
382.097346
11
70.959911
21
382.100275
0
LINE
8
Layer 1
10
70.959911
20
382.100275
11
70.959911
21
382.100275
0
LINE
8
Layer 1
10
90.009887
20
417.600230
11
105.739867
21
417.600230
0
LINE
8
Layer 1
10
105.739867
20
417.600230
11
105.746938
21
417.597301
0
LINE
8
Layer 1
10
105.746938
20
417.597301
11
105.749867
21
417.590230
0
LINE
8
Layer 1
10
105.749867
20
417.590230
11
105.749867
21
401.860250
0
LINE
8
Layer 1
10
105.749867
20
401.860250
11
105.746938
21
401.853179
0
LINE
8
Layer 1
10
105.746938
20
401.853179
11
105.739867
21
401.850250
0
LINE
8
Layer 1
10
105.739867
20
401.850250
11
90.009887
21
401.850250
0
LINE
8
Layer 1
10
90.009887
20
401.850250
11
90.002816
21
401.853179
0
LINE
8
Layer 1
10
90.002816
20
401.853179
11
89.999887
21
401.860250
0
LINE
8
Layer 1
10
89.999887
20
401.860250
11
89.999887
21
417.590230
0
LINE
8
Layer 1
10
89.999887
20
417.590230
11
90.002816
21
417.597301
0
LINE
8
Layer 1
10
90.002816
20
417.597301
11
90.009887
21
417.600230
0
LINE
8
Layer 1
10
90.009887
20
417.600230
11
90.009887
21
417.600230
0
LINE
8
Layer 1
10
90.009887
20
398.550254
11
105.739867
21
398.550254
0
LINE
8
Layer 1
10
105.739867
20
398.550254
11
105.746938
21
398.547325
0
LINE
8
Layer 1
10
105.746938
20
398.547325
11
105.749867
21
398.540254
0
LINE
8
Layer 1
10
105.749867
20
398.540254
11
105.749867
21
382.810274
0
LINE
8
Layer 1
10
105.749867
20
382.810274
11
105.746938
21
382.803203
0
LINE
8
Layer 1
10
105.746938
20
382.803203
11
105.739867
21
382.800274
0
LINE
8
Layer 1
10
105.739867
20
382.800274
11
90.009887
21
382.800274
0
LINE
8
Layer 1
10
90.009887
20
382.800274
11
90.002816
21
382.803203
0
LINE
8
Layer 1
10
90.002816
20
382.803203
11
89.999887
21
382.810274
0
LINE
8
Layer 1
10
89.999887
20
382.810274
11
89.999887
21
398.540254
0
LINE
8
Layer 1
10
89.999887
20
398.540254
11
90.002816
21
398.547325
0
LINE
8
Layer 1
10
90.002816
20
398.547325
11
90.009887
21
398.550254
0
LINE
8
Layer 1
10
90.009887
20
398.550254
11
90.009887
21
398.550254
0
LINE
8
Layer 1
10
90.009887
20
379.500278
11
105.739867
21
379.500278
0
LINE
8
Layer 1
10
105.739867
20
379.500278
11
105.746938
21
379.497349
0
LINE
8
Layer 1
10
105.746938
20
379.497349
11
105.749867
21
379.490278
0
LINE
8
Layer 1
10
105.749867
20
379.490278
11
105.749867
21
363.760298
0
LINE
8
Layer 1
10
105.749867
20
363.760298
11
105.746938
21
363.753227
0
LINE
8
Layer 1
10
105.746938
20
363.753227
11
105.739867
21
363.750298
0
LINE
8
Layer 1
10
105.739867
20
363.750298
11
90.009887
21
363.750298
0
LINE
8
Layer 1
10
90.009887
20
363.750298
11
90.002816
21
363.753227
0
LINE
8
Layer 1
10
90.002816
20
363.753227
11
89.999887
21
363.760298
0
LINE
8
Layer 1
10
89.999887
20
363.760298
11
89.999887
21
379.490278
0
LINE
8
Layer 1
10
89.999887
20
379.490278
11
90.002816
21
379.497349
0
LINE
8
Layer 1
10
90.002816
20
379.497349
11
90.009887
21
379.500278
0
LINE
8
Layer 1
10
90.009887
20
379.500278
11
90.009887
21
379.500278
0
LINE
8
Layer 1
10
109.059863
20
413.100235
11
124.789843
21
413.100235
0
LINE
8
Layer 1
10
124.789843
20
413.100235
11
124.796914
21
413.097307
0
LINE
8
Layer 1
10
124.796914
20
413.097307
11
124.799843
21
413.090235
0
LINE
8
Layer 1
10
124.799843
20
413.090235
11
124.799843
21
397.360255
0
LINE
8
Layer 1
10
124.799843
20
397.360255
11
124.796914
21
397.353184
0
LINE
8
Layer 1
10
124.796914
20
397.353184
11
124.789843
21
397.350255
0
LINE
8
Layer 1
10
124.789843
20
397.350255
11
109.059863
21
397.350255
0
LINE
8
Layer 1
10
109.059863
20
397.350255
11
109.049863
21
397.360255
0
LINE
8
Layer 1
10
109.049863
20
397.360255
11
109.049863
21
413.090235
0
LINE
8
Layer 1
10
109.049863
20
413.090235
11
109.059863
21
413.100235
0
LINE
8
Layer 1
10
109.059863
20
413.100235
11
109.059863
21
413.100235
0
LINE
8
Layer 1
10
109.059863
20
394.050259
11
124.789843
21
394.050259
0
LINE
8
Layer 1
10
124.789843
20
394.050259
11
124.796914
21
394.047331
0
LINE
8
Layer 1
10
124.796914
20
394.047331
11
124.799843
21
394.040259
0
LINE
8
Layer 1
10
124.799843
20
394.040259
11
124.799843
21
378.310279
0
LINE
8
Layer 1
10
124.799843
20
378.310279
11
124.796914
21
378.303208
0
LINE
8
Layer 1
10
124.796914
20
378.303208
11
124.789843
21
378.300279
0
LINE
8
Layer 1
10
124.789843
20
378.300279
11
109.059863
21
378.300279
0
LINE
8
Layer 1
10
109.059863
20
378.300279
11
109.049863
21
378.310279
0
LINE
8
Layer 1
10
109.049863
20
378.310279
11
109.049863
21
394.040259
0
LINE
8
Layer 1
10
109.049863
20
394.040259
11
109.059863
21
394.050259
0
LINE
8
Layer 1
10
109.059863
20
394.050259
11
109.059863
21
394.050259
0
LINE
8
Layer 1
10
109.059863
20
375.000283
11
124.789843
21
375.000283
0
LINE
8
Layer 1
10
124.789843
20
375.000283
11
124.796914
21
374.997355
0
LINE
8
Layer 1
10
124.796914
20
374.997355
11
124.799843
21
374.990283
0
LINE
8
Layer 1
10
124.799843
20
374.990283
11
124.799843
21
359.260303
0
LINE
8
Layer 1
10
124.799843
20
359.260303
11
124.796914
21
359.253232
0
LINE
8
Layer 1
10
124.796914
20
359.253232
11
124.789843
21
359.250303
0
LINE
8
Layer 1
10
124.789843
20
359.250303
11
109.059863
21
359.250303
0
LINE
8
Layer 1
10
109.059863
20
359.250303
11
109.049863
21
359.260303
0
LINE
8
Layer 1
10
109.049863
20
359.260303
11
109.049863
21
374.990283
0
LINE
8
Layer 1
10
109.049863
20
374.990283
11
109.059863
21
375.000283
0
LINE
8
Layer 1
10
109.059863
20
375.000283
11
109.059863
21
375.000283
0
LINE
8
Layer 1
10
128.109839
20
413.100235
11
143.839819
21
413.100235
0
LINE
8
Layer 1
10
143.839819
20
413.100235
11
143.846890
21
413.097307
0
LINE
8
Layer 1
10
143.846890
20
413.097307
11
143.849819
21
413.090235
0
LINE
8
Layer 1
10
143.849819
20
413.090235
11
143.849819
21
397.360255
0
LINE
8
Layer 1
10
143.849819
20
397.360255
11
143.846890
21
397.353184
0
LINE
8
Layer 1
10
143.846890
20
397.353184
11
143.839819
21
397.350255
0
LINE
8
Layer 1
10
143.839819
20
397.350255
11
128.109839
21
397.350255
0
LINE
8
Layer 1
10
128.109839
20
397.350255
11
128.102768
21
397.353184
0
LINE
8
Layer 1
10
128.102768
20
397.353184
11
128.099839
21
397.360255
0
LINE
8
Layer 1
10
128.099839
20
397.360255
11
128.099839
21
413.090235
0
LINE
8
Layer 1
10
128.099839
20
413.090235
11
128.102768
21
413.097307
0
LINE
8
Layer 1
10
128.102768
20
413.097307
11
128.109839
21
413.100235
0
LINE
8
Layer 1
10
128.109839
20
413.100235
11
128.109839
21
413.100235
0
LINE
8
Layer 1
10
128.109839
20
394.050259
11
143.839819
21
394.050259
0
LINE
8
Layer 1
10
143.839819
20
394.050259
11
143.846890
21
394.047331
0
LINE
8
Layer 1
10
143.846890
20
394.047331
11
143.849819
21
394.040259
0
LINE
8
Layer 1
10
143.849819
20
394.040259
11
143.849819
21
378.310279
0
LINE
8
Layer 1
10
143.849819
20
378.310279
11
143.846890
21
378.303208
0
LINE
8
Layer 1
10
143.846890
20
378.303208
11
143.839819
21
378.300279
0
LINE
8
Layer 1
10
143.839819
20
378.300279
11
128.109839
21
378.300279
0
LINE
8
Layer 1
10
128.109839
20
378.300279
11
128.102768
21
378.303208
0
LINE
8
Layer 1
10
128.102768
20
378.303208
11
128.099839
21
378.310279
0
LINE
8
Layer 1
10
128.099839
20
378.310279
11
128.099839
21
394.040259
0
LINE
8
Layer 1
10
128.099839
20
394.040259
11
128.102768
21
394.047331
0
LINE
8
Layer 1
10
128.102768
20
394.047331
11
128.109839
21
394.050259
0
LINE
8
Layer 1
10
128.109839
20
394.050259
11
128.109839
21
394.050259
0
LINE
8
Layer 1
10
128.109839
20
375.000283
11
143.839819
21
375.000283
0
LINE
8
Layer 1
10
143.839819
20
375.000283
11
143.846890
21
374.997355
0
LINE
8
Layer 1
10
143.846890
20
374.997355
11
143.849819
21
374.990283
0
LINE
8
Layer 1
10
143.849819
20
374.990283
11
143.849819
21
359.260303
0
LINE
8
Layer 1
10
143.849819
20
359.260303
11
143.846890
21
359.253232
0
LINE
8
Layer 1
10
143.846890
20
359.253232
11
143.839819
21
359.250303
0
LINE
8
Layer 1
10
143.839819
20
359.250303
11
128.109839
21
359.250303
0
LINE
8
Layer 1
10
128.109839
20
359.250303
11
128.102768
21
359.253232
0
LINE
8
Layer 1
10
128.102768
20
359.253232
11
128.099839
21
359.260303
0
LINE
8
Layer 1
10
128.099839
20
359.260303
11
128.099839
21
374.990283
0
LINE
8
Layer 1
10
128.099839
20
374.990283
11
128.102768
21
374.997355
0
LINE
8
Layer 1
10
128.102768
20
374.997355
11
128.109839
21
375.000283
0
LINE
8
Layer 1
10
128.109839
20
375.000283
11
128.109839
21
375.000283
0
LINE
8
Layer 1
10
27.486157
20
355.681586
11
34.133957
21
341.425361
0
LINE
8
Layer 1
10
34.133957
20
341.425361
11
34.129120
21
341.412072
0
LINE
8
Layer 1
10
34.129120
20
341.412072
11
19.872895
21
334.764272
0
LINE
8
Layer 1
10
19.872895
20
334.764272
11
19.865248
21
334.763938
0
LINE
8
Layer 1
10
19.865248
20
334.763938
11
19.859605
21
334.769108
0
LINE
8
Layer 1
10
19.859605
20
334.769108
11
13.211805
21
349.025334
0
LINE
8
Layer 1
10
13.211805
20
349.025334
11
13.211471
21
349.032980
0
LINE
8
Layer 1
10
13.211471
20
349.032980
11
13.216642
21
349.038623
0
LINE
8
Layer 1
10
13.216642
20
349.038623
11
27.472868
21
355.686423
0
LINE
8
Layer 1
10
27.472868
20
355.686423
11
27.480514
21
355.686757
0
LINE
8
Layer 1
10
27.480514
20
355.686757
11
27.486157
21
355.681586
0
LINE
8
Layer 1
10
27.486157
20
355.681586
11
27.486157
21
355.681586
0
LINE
8
Layer 1
10
11.809985
20
386.625269
11
27.539965
21
386.625269
0
LINE
8
Layer 1
10
27.539965
20
386.625269
11
27.547036
21
386.622340
0
LINE
8
Layer 1
10
27.547036
20
386.622340
11
27.549965
21
386.615269
0
LINE
8
Layer 1
10
27.549965
20
386.615269
11
27.549965
21
370.885289
0
LINE
8
Layer 1
10
27.549965
20
370.885289
11
27.547036
21
370.878218
0
LINE
8
Layer 1
10
27.547036
20
370.878218
11
27.539965
21
370.875289
0
LINE
8
Layer 1
10
27.539965
20
370.875289
11
11.809985
21
370.875289
0
LINE
8
Layer 1
10
11.809985
20
370.875289
11
11.802914
21
370.878218
0
LINE
8
Layer 1
10
11.802914
20
370.878218
11
11.799985
21
370.885289
0
LINE
8
Layer 1
10
11.799985
20
370.885289
11
11.799985
21
386.615269
0
LINE
8
Layer 1
10
11.799985
20
386.615269
11
11.802914
21
386.622340
0
LINE
8
Layer 1
10
11.802914
20
386.622340
11
11.809985
21
386.625269
0
LINE
8
Layer 1
10
11.809985
20
386.625269
11
11.809985
21
386.625269
0
LINE
8
Layer 1
10
61.434923
20
359.850303
11
77.164903
21
359.850303
0
LINE
8
Layer 1
10
77.164903
20
359.850303
11
77.174903
21
359.840303
0
LINE
8
Layer 1
10
77.174903
20
359.840303
11
77.174903
21
344.110322
0
LINE
8
Layer 1
10
77.174903
20
344.110322
11
77.164903
21
344.100322
0
LINE
8
Layer 1
10
77.164903
20
344.100322
11
61.434923
21
344.100322
0
LINE
8
Layer 1
10
61.434923
20
344.100322
11
61.427852
21
344.103251
0
LINE
8
Layer 1
10
61.427852
20
344.103251
11
61.424923
21
344.110322
0
LINE
8
Layer 1
10
61.424923
20
344.110322
11
61.424923
21
359.840303
0
LINE
8
Layer 1
10
61.424923
20
359.840303
11
61.427852
21
359.847374
0
LINE
8
Layer 1
10
61.427852
20
359.847374
11
61.434923
21
359.850303
0
LINE
8
Layer 1
10
61.434923
20
359.850303
11
61.434923
21
359.850303
0
LINE
8
Layer 1
10
37.665163
20
353.796104
11
52.859184
21
357.867327
0
LINE
8
Layer 1
10
52.859184
20
357.867327
11
52.866772
21
357.866328
0
LINE
8
Layer 1
10
52.866772
20
357.866328
11
52.871432
21
357.860256
0
LINE
8
Layer 1
10
52.871432
20
357.860256
11
56.942655
21
342.666235
0
LINE
8
Layer 1
10
56.942655
20
342.666235
11
56.935584
21
342.653988
0
LINE
8
Layer 1
10
56.935584
20
342.653988
11
41.741563
21
338.582765
0
LINE
8
Layer 1
10
41.741563
20
338.582765
11
41.733975
21
338.583764
0
LINE
8
Layer 1
10
41.733975
20
338.583764
11
41.729316
21
338.589836
0
LINE
8
Layer 1
10
41.729316
20
338.589836
11
37.658092
21
353.783856
0
LINE
8
Layer 1
10
37.658092
20
353.783856
11
37.659091
21
353.791445
0
LINE
8
Layer 1
10
37.659091
20
353.791445
11
37.665163
21
353.796104
0
LINE
8
Layer 1
10
37.665163
20
353.796104
11
37.665163
21
353.796104
0
LINE
8
Layer 1
10
32.859959
20
440.250201
11
48.589939
21
440.250201
0
LINE
8
Layer 1
10
48.589939
20
440.250201
11
48.599939
21
440.240201
0
LINE
8
Layer 1
10
48.599939
20
440.240201
11
48.599939
21
424.510221
0
LINE
8
Layer 1
10
48.599939
20
424.510221
11
48.589939
21
424.500221
0
LINE
8
Layer 1
10
48.589939
20
424.500221
11
32.859959
21
424.500221
0
LINE
8
Layer 1
10
32.859959
20
424.500221
11
32.852888
21
424.503150
0
LINE
8
Layer 1
10
32.852888
20
424.503150
11
32.849959
21
424.510221
0
LINE
8
Layer 1
10
32.849959
20
424.510221
11
32.849959
21
440.240201
0
LINE
8
Layer 1
10
32.849959
20
440.240201
11
32.852888
21
440.247272
0
LINE
8
Layer 1
10
32.852888
20
440.247272
11
32.859959
21
440.250201
0
LINE
8
Layer 1
10
32.859959
20
440.250201
11
32.859959
21
440.250201
0
LINE
8
Layer 1
10
51.909935
20
440.250201
11
67.639915
21
440.250201
0
LINE
8
Layer 1
10
67.639915
20
440.250201
11
67.646986
21
440.247272
0
LINE
8
Layer 1
10
67.646986
20
440.247272
11
67.649915
21
440.240201
0
LINE
8
Layer 1
10
67.649915
20
440.240201
11
67.649915
21
424.510221
0
LINE
8
Layer 1
10
67.649915
20
424.510221
11
67.646986
21
424.503150
0
LINE
8
Layer 1
10
67.646986
20
424.503150
11
67.639915
21
424.500221
0
LINE
8
Layer 1
10
67.639915
20
424.500221
11
51.909935
21
424.500221
0
LINE
8
Layer 1
10
51.909935
20
424.500221
11
51.902864
21
424.503150
0
LINE
8
Layer 1
10
51.902864
20
424.503150
11
51.899935
21
424.510221
0
LINE
8
Layer 1
10
51.899935
20
424.510221
11
51.899935
21
440.240201
0
LINE
8
Layer 1
10
51.899935
20
440.240201
11
51.902864
21
440.247272
0
LINE
8
Layer 1
10
51.902864
20
440.247272
11
51.909935
21
440.250201
0
LINE
8
Layer 1
10
51.909935
20
440.250201
11
51.909935
21
440.250201
0
LINE
8
Layer 1
10
70.959911
20
440.250201
11
86.689891
21
440.250201
0
LINE
8
Layer 1
10
86.689891
20
440.250201
11
86.696962
21
440.247272
0
LINE
8
Layer 1
10
86.696962
20
440.247272
11
86.699891
21
440.240201
0
LINE
8
Layer 1
10
86.699891
20
440.240201
11
86.699891
21
424.510221
0
LINE
8
Layer 1
10
86.699891
20
424.510221
11
86.696962
21
424.503150
0
LINE
8
Layer 1
10
86.696962
20
424.503150
11
86.689891
21
424.500221
0
LINE
8
Layer 1
10
86.689891
20
424.500221
11
70.959911
21
424.500221
0
LINE
8
Layer 1
10
70.959911
20
424.500221
11
70.952840
21
424.503150
0
LINE
8
Layer 1
10
70.952840
20
424.503150
11
70.949911
21
424.510221
0
LINE
8
Layer 1
10
70.949911
20
424.510221
11
70.949911
21
440.240201
0
LINE
8
Layer 1
10
70.949911
20
440.240201
11
70.952840
21
440.247272
0
LINE
8
Layer 1
10
70.952840
20
440.247272
11
70.959911
21
440.250201
0
LINE
8
Layer 1
10
70.959911
20
440.250201
11
70.959911
21
440.250201
0
LINE
8
Layer 1
10
90.009887
20
440.250201
11
105.739867
21
440.250201
0
LINE
8
Layer 1
10
105.739867
20
440.250201
11
105.746938
21
440.247272
0
LINE
8
Layer 1
10
105.746938
20
440.247272
11
105.749867
21
440.240201
0
LINE
8
Layer 1
10
105.749867
20
440.240201
11
105.749867
21
424.510221
0
LINE
8
Layer 1
10
105.749867
20
424.510221
11
105.746938
21
424.503150
0
LINE
8
Layer 1
10
105.746938
20
424.503150
11
105.739867
21
424.500221
0
LINE
8
Layer 1
10
105.739867
20
424.500221
11
90.009887
21
424.500221
0
LINE
8
Layer 1
10
90.009887
20
424.500221
11
90.002816
21
424.503150
0
LINE
8
Layer 1
10
90.002816
20
424.503150
11
89.999887
21
424.510221
0
LINE
8
Layer 1
10
89.999887
20
424.510221
11
89.999887
21
440.240201
0
LINE
8
Layer 1
10
89.999887
20
440.240201
11
90.002816
21
440.247272
0
LINE
8
Layer 1
10
90.002816
20
440.247272
11
90.009887
21
440.250201
0
LINE
8
Layer 1
10
90.009887
20
440.250201
11
90.009887
21
440.250201
0
LINE
8
Layer 1
10
109.059863
20
440.250201
11
124.789843
21
440.250201
0
LINE
8
Layer 1
10
124.789843
20
440.250201
11
124.796914
21
440.247272
0
LINE
8
Layer 1
10
124.796914
20
440.247272
11
124.799843
21
440.240201
0
LINE
8
Layer 1
10
124.799843
20
440.240201
11
124.799843
21
424.510221
0
LINE
8
Layer 1
10
124.799843
20
424.510221
11
124.796914
21
424.503150
0
LINE
8
Layer 1
10
124.796914
20
424.503150
11
124.789843
21
424.500221
0
LINE
8
Layer 1
10
124.789843
20
424.500221
11
109.059863
21
424.500221
0
LINE
8
Layer 1
10
109.059863
20
424.500221
11
109.049863
21
424.510221
0
LINE
8
Layer 1
10
109.049863
20
424.510221
11
109.049863
21
440.240201
0
LINE
8
Layer 1
10
109.049863
20
440.240201
11
109.059863
21
440.250201
0
LINE
8
Layer 1
10
109.059863
20
440.250201
11
109.059863
21
440.250201
0
LINE
8
Layer 1
10
128.109839
20
440.250201
11
143.839819
21
440.250201
0
LINE
8
Layer 1
10
143.839819
20
440.250201
11
143.846890
21
440.247272
0
LINE
8
Layer 1
10
143.846890
20
440.247272
11
143.849819
21
440.240201
0
LINE
8
Layer 1
10
143.849819
20
440.240201
11
143.849819
21
424.510221
0
LINE
8
Layer 1
10
143.849819
20
424.510221
11
143.846890
21
424.503150
0
LINE
8
Layer 1
10
143.846890
20
424.503150
11
143.839819
21
424.500221
0
LINE
8
Layer 1
10
143.839819
20
424.500221
11
128.109839
21
424.500221
0
LINE
8
Layer 1
10
128.109839
20
424.500221
11
128.102768
21
424.503150
0
LINE
8
Layer 1
10
128.102768
20
424.503150
11
128.099839
21
424.510221
0
LINE
8
Layer 1
10
128.099839
20
424.510221
11
128.099839
21
440.240201
0
LINE
8
Layer 1
10
128.099839
20
440.240201
11
128.102768
21
440.247272
0
LINE
8
Layer 1
10
128.102768
20
440.247272
11
128.109839
21
440.250201
0
LINE
8
Layer 1
10
128.109839
20
440.250201
11
128.109839
21
440.250201
0
LINE
8
Layer 1
10
2.799976
20
457.251221
11
13.799882
21
457.251221
0
LINE
8
Layer 1
10
13.799882
20
457.251221
11
13.799882
21
451.251272
0
LINE
8
Layer 1
10
13.799882
20
451.251272
11
11.799899
21
451.251272
0
LINE
8
Layer 1
10
11.799899
20
451.251272
11
11.799899
21
426.751482
0
LINE
8
Layer 1
10
11.799899
20
426.751482
11
30.799737
21
426.751482
0
LINE
8
Layer 1
10
30.799737
20
426.751482
11
30.799737
21
451.251272
0
LINE
8
Layer 1
10
30.799737
20
451.251272
11
28.799754
21
451.251272
0
LINE
8
Layer 1
10
28.799754
20
451.251272
11
28.799754
21
457.251221
0
LINE
8
Layer 1
10
28.799754
20
457.251221
11
186.848402
21
449.251289
0
LINE
8
Layer 1
10
186.848402
20
449.251289
11
186.848402
21
360.102052
0
LINE
8
Layer 1
10
186.848402
20
360.102052
11
166.848573
21
340.102223
0
LINE
8
Layer 1
10
166.848573
20
340.102223
11
17.799848
21
320.102394
0
LINE
8
Layer 1
10
17.799848
20
320.102394
11
2.799976
21
352.269722
0
LINE
8
Layer 1
10
2.799976
20
352.269722
11
2.799976
21
457.251221
0
LINE
8
Layer 1
10
37.799952
20
450.288314
11
37.579954
21
450.141315
0
LINE
8
Layer 1
10
37.579954
20
450.141315
11
37.631573
21
449.881809
0
LINE
8
Layer 1
10
37.631573
20
449.881809
11
37.891079
21
449.830190
0
LINE
8
Layer 1
10
37.891079
20
449.830190
11
38.038077
21
450.050189
0
LINE
8
Layer 1
10
38.038077
20
450.050189
11
37.968332
21
450.218569
0
LINE
8
Layer 1
10
37.968332
20
450.218569
11
37.799952
21
450.288314
0
LINE
8
Layer 1
10
37.799952
20
450.288314
11
37.799952
21
450.288314
0
LINE
8
Layer 1
10
180.849772
20
443.488322
11
180.629774
21
443.341324
0
LINE
8
Layer 1
10
180.629774
20
443.341324
11
180.681393
21
443.081818
0
LINE
8
Layer 1
10
180.681393
20
443.081818
11
180.940899
21
443.030199
0
LINE
8
Layer 1
10
180.940899
20
443.030199
11
181.087897
21
443.250197
0
LINE
8
Layer 1
10
181.087897
20
443.250197
11
181.018152
21
443.418577
0
LINE
8
Layer 1
10
181.018152
20
443.418577
11
180.849772
21
443.488322
0
LINE
8
Layer 1
10
180.849772
20
443.488322
11
180.849772
21
443.488322
0
LINE
8
Layer 1
10
100.524873
20
340.638452
11
100.304875
21
340.491453
0
LINE
8
Layer 1
10
100.304875
20
340.491453
11
100.356494
21
340.231947
0
LINE
8
Layer 1
10
100.356494
20
340.231947
11
100.616000
21
340.180329
0
LINE
8
Layer 1
10
100.616000
20
340.180329
11
100.762998
21
340.400327
0
LINE
8
Layer 1
10
100.762998
20
340.400327
11
100.524873
21
340.638452
0
LINE
8
Layer 1
10
100.524873
20
340.638452
11
100.524873
21
340.638452
0
LINE
8
Layer 1
10
13.799983
20
363.638423
11
13.579984
21
363.491424
0
LINE
8
Layer 1
10
13.579984
20
363.491424
11
13.631603
21
363.231918
0
LINE
8
Layer 1
10
13.631603
20
363.231918
11
13.891109
21
363.180300
0
LINE
8
Layer 1
10
13.891109
20
363.180300
11
14.038107
21
363.400298
0
LINE
8
Layer 1
10
14.038107
20
363.400298
11
13.799983
21
363.638423
0
LINE
8
Layer 1
10
13.799983
20
363.638423
11
13.799983
21
363.638423
0
LINE
8
Layer 1
10
180.848453
20
401.964194
11
154.148682
21
401.964194
0
LINE
8
Layer 1
10
154.148682
20
401.964194
11
154.148682
21
406.964151
0
LINE
8
Layer 1
10
154.148682
20
406.964151
11
163.848599
21
406.964151
0
LINE
8
Layer 1
10
163.848599
20
406.964151
11
163.848599
21
402.564188
0
LINE
8
Layer 1
10
163.848599
20
402.564188
11
168.848556
21
402.564188
0
LINE
8
Layer 1
10
168.848556
20
402.564188
11
168.848556
21
422.364019
0
LINE
8
Layer 1
10
168.848556
20
422.364019
11
163.848599
21
422.364019
0
LINE
8
Layer 1
10
163.848599
20
422.364019
11
163.848599
21
417.964057
0
LINE
8
Layer 1
10
163.848599
20
417.964057
11
154.148682
21
417.964057
0
LINE
8
Layer 1
10
154.148682
20
417.964057
11
154.148682
21
422.964014
0
LINE
8
Layer 1
10
154.148682
20
422.964014
11
180.848453
21
422.964014
0
LINE
8
Layer 1
10
180.848453
20
422.964014
11
180.848453
21
401.964194
0
LINE
8
Layer 1
10
8.799925
20
311.302469
11
13.799882
21
311.302469
0
LINE
8
Layer 1
10
13.799882
20
311.302469
11
13.799882
21
317.302418
0
LINE
8
Layer 1
10
13.799882
20
317.302418
11
2.799976
21
317.302418
0
LINE
8
Layer 1
10
2.799976
20
317.302418
11
2.799976
21
212.320919
0
LINE
8
Layer 1
10
2.799976
20
212.320919
11
17.799848
21
180.153590
0
LINE
8
Layer 1
10
17.799848
20
180.153590
11
166.848573
21
200.153419
0
LINE
8
Layer 1
10
166.848573
20
200.153419
11
186.848402
21
220.153248
0
LINE
8
Layer 1
10
186.848402
20
220.153248
11
186.848402
21
309.302486
0
LINE
8
Layer 1
10
186.848402
20
309.302486
11
28.799754
21
317.302418
0
LINE
8
Layer 1
10
28.799754
20
317.302418
11
28.799754
21
317.302418
0
LINE
8
Layer 1
10
28.799754
20
317.302418
11
28.799754
21
311.302469
0
LINE
8
Layer 1
10
28.799754
20
311.302469
11
30.799737
21
311.302469
0
LINE
8
Layer 1
10
30.799737
20
311.302469
11
30.799737
21
303.302537
0
LINE
8
Layer 1
10
30.799737
20
303.302537
11
71.949385
21
311.302469
0
LINE
8
Layer 1
10
71.949385
20
311.302469
11
146.848744
21
303.302537
0
LINE
8
Layer 1
10
146.848744
20
303.302537
11
146.848744
21
289.552655
0
LINE
8
Layer 1
10
146.848744
20
289.552655
11
180.848453
21
289.552655
0
LINE
8
Layer 1
10
180.848453
20
289.552655
11
180.848453
21
226.153197
0
LINE
8
Layer 1
10
180.848453
20
226.153197
11
160.848624
21
206.153368
0
LINE
8
Layer 1
10
160.848624
20
206.153368
11
90.999222
21
209.978335
0
LINE
8
Layer 1
10
90.999222
20
209.978335
11
90.999222
21
200.453417
0
LINE
8
Layer 1
10
90.999222
20
200.453417
11
23.799796
21
186.153539
0
LINE
8
Layer 1
10
23.799796
20
186.153539
11
8.799925
21
218.320868
0
LINE
8
Layer 1
10
8.799925
20
218.320868
11
18.799839
21
218.320868
0
LINE
8
Layer 1
10
18.799839
20
218.320868
11
18.799839
21
228.320782
0
LINE
8
Layer 1
10
18.799839
20
228.320782
11
8.799925
21
228.320782
0
LINE
8
Layer 1
10
8.799925
20
228.320782
11
8.799925
21
311.302469
0
LINE
8
Layer 1
10
37.799952
20
310.338490
11
37.579954
21
310.191492
0
LINE
8
Layer 1
10
37.579954
20
310.191492
11
37.631573
21
309.931986
0
LINE
8
Layer 1
10
37.631573
20
309.931986
11
37.891079
21
309.880367
0
LINE
8
Layer 1
10
37.891079
20
309.880367
11
38.038077
21
310.100365
0
LINE
8
Layer 1
10
38.038077
20
310.100365
11
37.968332
21
310.268745
0
LINE
8
Layer 1
10
37.968332
20
310.268745
11
37.799952
21
310.338490
0
LINE
8
Layer 1
10
37.799952
20
310.338490
11
37.799952
21
310.338490
0
LINE
8
Layer 1
10
180.849772
20
303.538498
11
180.629774
21
303.391500
0
LINE
8
Layer 1
10
180.629774
20
303.391500
11
180.681393
21
303.131994
0
LINE
8
Layer 1
10
180.681393
20
303.131994
11
180.940899
21
303.080375
0
LINE
8
Layer 1
10
180.940899
20
303.080375
11
181.087897
21
303.300374
0
LINE
8
Layer 1
10
181.087897
20
303.300374
11
181.018152
21
303.468753
0
LINE
8
Layer 1
10
181.018152
20
303.468753
11
180.849772
21
303.538498
0
LINE
8
Layer 1
10
180.849772
20
303.538498
11
180.849772
21
303.538498
0
LINE
8
Layer 1
10
100.524873
20
200.688628
11
100.304875
21
200.541630
0
LINE
8
Layer 1
10
100.304875
20
200.541630
11
100.356494
21
200.282124
0
LINE
8
Layer 1
10
100.356494
20
200.282124
11
100.616000
21
200.230505
0
LINE
8
Layer 1
10
100.616000
20
200.230505
11
100.762998
21
200.450503
0
LINE
8
Layer 1
10
100.762998
20
200.450503
11
100.524873
21
200.688628
0
LINE
8
Layer 1
10
100.524873
20
200.688628
11
100.524873
21
200.688628
0
LINE
8
Layer 1
10
13.799983
20
223.688599
11
13.579984
21
223.541601
0
LINE
8
Layer 1
10
13.579984
20
223.541601
11
13.631603
21
223.282095
0
LINE
8
Layer 1
10
13.631603
20
223.282095
11
13.891109
21
223.230476
0
LINE
8
Layer 1
10
13.891109
20
223.230476
11
14.038107
21
223.450474
0
LINE
8
Layer 1
10
14.038107
20
223.450474
11
13.799983
21
223.688599
0
LINE
8
Layer 1
10
13.799983
20
223.688599
11
13.799983
21
223.688599
0
LINE
8
Layer 1
10
195.648327
20
591.200075
11
200.648284
21
591.200075
0
LINE
8
Layer 1
10
200.648284
20
591.200075
11
200.648284
21
597.200024
0
LINE
8
Layer 1
10
200.648284
20
597.200024
11
189.648378
21
597.200024
0
LINE
8
Layer 1
10
189.648378
20
597.200024
11
189.648378
21
492.218526
0
LINE
8
Layer 1
10
189.648378
20
492.218526
11
204.648250
21
460.051197
0
LINE
8
Layer 1
10
204.648250
20
460.051197
11
353.696975
21
480.051026
0
LINE
8
Layer 1
10
353.696975
20
480.051026
11
373.696804
21
500.050855
0
LINE
8
Layer 1
10
373.696804
20
500.050855
11
373.696804
21
589.200092
0
LINE
8
Layer 1
10
373.696804
20
589.200092
11
215.648156
21
597.200024
0
LINE
8
Layer 1
10
215.648156
20
597.200024
11
215.648156
21
597.200024
0
LINE
8
Layer 1
10
215.648156
20
597.200024
11
215.648156
21
591.200075
0
LINE
8
Layer 1
10
215.648156
20
591.200075
11
217.648139
21
591.200075
0
LINE
8
Layer 1
10
217.648139
20
591.200075
11
217.648139
21
583.200144
0
LINE
8
Layer 1
10
217.648139
20
583.200144
11
258.797787
21
591.200075
0
LINE
8
Layer 1
10
258.797787
20
591.200075
11
333.697146
21
583.200144
0
LINE
8
Layer 1
10
333.697146
20
583.200144
11
333.697146
21
528.200614
0
LINE
8
Layer 1
10
333.697146
20
528.200614
11
367.696856
21
506.050803
0
LINE
8
Layer 1
10
367.696856
20
506.050803
11
347.697027
21
486.050974
0
LINE
8
Layer 1
10
347.697027
20
486.050974
11
277.847624
21
489.875942
0
LINE
8
Layer 1
10
277.847624
20
489.875942
11
277.847624
21
480.351023
0
LINE
8
Layer 1
10
277.847624
20
480.351023
11
210.648199
21
466.051145
0
LINE
8
Layer 1
10
210.648199
20
466.051145
11
195.648327
21
498.218474
0
LINE
8
Layer 1
10
195.648327
20
498.218474
11
205.648241
21
498.218474
0
LINE
8
Layer 1
10
205.648241
20
498.218474
11
205.648241
21
508.218389
0
LINE
8
Layer 1
10
205.648241
20
508.218389
11
195.648327
21
508.218389
0
LINE
8
Layer 1
10
195.648327
20
508.218389
11
195.648327
21
591.200075
0
LINE
8
Layer 1
10
224.649717
20
590.238137
11
224.429718
21
590.091139
0
LINE
8
Layer 1
10
224.429718
20
590.091139
11
224.481337
21
589.831633
0
LINE
8
Layer 1
10
224.481337
20
589.831633
11
224.740843
21
589.780014
0
LINE
8
Layer 1
10
224.740843
20
589.780014
11
224.887842
21
590.000013
0
LINE
8
Layer 1
10
224.887842
20
590.000013
11
224.818097
21
590.168392
0
LINE
8
Layer 1
10
224.818097
20
590.168392
11
224.649717
21
590.238137
0
LINE
8
Layer 1
10
224.649717
20
590.238137
11
224.649717
21
590.238137
0
LINE
8
Layer 1
10
367.699537
20
583.438146
11
367.479538
21
583.291148
0
LINE
8
Layer 1
10
367.479538
20
583.291148
11
367.531157
21
583.031642
0
LINE
8
Layer 1
10
367.531157
20
583.031642
11
367.790663
21
582.980023
0
LINE
8
Layer 1
10
367.790663
20
582.980023
11
367.937661
21
583.200021
0
LINE
8
Layer 1
10
367.937661
20
583.200021
11
367.867916
21
583.368401
0
LINE
8
Layer 1
10
367.867916
20
583.368401
11
367.699537
21
583.438146
0
LINE
8
Layer 1
10
367.699537
20
583.438146
11
367.699537
21
583.438146
0
LINE
8
Layer 1
10
287.374638
20
480.588275
11
287.136513
21
480.350151
0
LINE
8
Layer 1
10
287.136513
20
480.350151
11
287.374638
21
480.112026
0
LINE
8
Layer 1
10
287.374638
20
480.112026
11
287.612763
21
480.350151
0
LINE
8
Layer 1
10
287.612763
20
480.350151
11
287.543018
21
480.518530
0
LINE
8
Layer 1
10
287.543018
20
480.518530
11
287.374638
21
480.588275
0
LINE
8
Layer 1
10
287.374638
20
480.588275
11
287.374638
21
480.588275
0
LINE
8
Layer 1
10
200.649747
20
503.588246
11
200.429749
21
503.441248
0
LINE
8
Layer 1
10
200.429749
20
503.441248
11
200.481368
21
503.181742
0
LINE
8
Layer 1
10
200.481368
20
503.181742
11
200.740874
21
503.130123
0
LINE
8
Layer 1
10
200.740874
20
503.130123
11
200.887872
21
503.350122
0
LINE
8
Layer 1
10
200.887872
20
503.350122
11
200.818127
21
503.518501
0
LINE
8
Layer 1
10
200.818127
20
503.518501
11
200.649747
21
503.588246
0
LINE
8
Layer 1
10
200.649747
20
503.588246
11
200.649747
21
503.588246
0
LINE
8
Layer 1
10
367.696856
20
541.912997
11
340.997084
21
541.912997
0
LINE
8
Layer 1
10
340.997084
20
541.912997
11
340.997084
21
546.912954
0
LINE
8
Layer 1
10
340.997084
20
546.912954
11
350.697001
21
546.912954
0
LINE
8
Layer 1
10
350.697001
20
546.912954
11
350.697001
21
542.512992
0
LINE
8
Layer 1
10
350.697001
20
542.512992
11
355.696958
21
542.512992
0
LINE
8
Layer 1
10
355.696958
20
542.512992
11
355.696958
21
562.312822
0
LINE
8
Layer 1
10
355.696958
20
562.312822
11
350.697001
21
562.312822
0
LINE
8
Layer 1
10
350.697001
20
562.312822
11
350.697001
21
557.912860
0
LINE
8
Layer 1
10
350.697001
20
557.912860
11
340.997084
21
557.912860
0
LINE
8
Layer 1
10
340.997084
20
557.912860
11
340.997084
21
562.912817
0
LINE
8
Layer 1
10
340.997084
20
562.912817
11
367.696856
21
562.912817
0
LINE
8
Layer 1
10
367.696856
20
562.912817
11
367.696856
21
541.912997
0
LINE
8
Layer 1
10
2.799976
20
177.353614
11
28.799754
21
177.353614
0
LINE
8
Layer 1
10
28.799754
20
177.353614
11
186.848402
21
169.353683
0
LINE
8
Layer 1
10
186.848402
20
169.353683
11
186.848402
21
80.204445
0
LINE
8
Layer 1
10
186.848402
20
80.204445
11
166.848573
21
60.204616
0
LINE
8
Layer 1
10
166.848573
20
60.204616
11
17.799848
21
40.204787
0
LINE
8
Layer 1
10
17.799848
20
40.204787
11
2.799976
21
72.372116
0
LINE
8
Layer 1
10
2.799976
20
72.372116
11
2.799976
21
177.353614
0
LINE
8
Layer 1
10
37.799952
20
170.388666
11
37.579954
21
170.241668
0
LINE
8
Layer 1
10
37.579954
20
170.241668
11
37.631573
21
169.982162
0
LINE
8
Layer 1
10
37.631573
20
169.982162
11
37.891079
21
169.930543
0
LINE
8
Layer 1
10
37.891079
20
169.930543
11
38.038077
21
170.150542
0
LINE
8
Layer 1
10
38.038077
20
170.150542
11
37.968332
21
170.318921
0
LINE
8
Layer 1
10
37.968332
20
170.318921
11
37.799952
21
170.388666
0
LINE
8
Layer 1
10
37.799952
20
170.388666
11
37.799952
21
170.388666
0
LINE
8
Layer 1
10
180.849772
20
163.588675
11
180.629774
21
163.441676
0
LINE
8
Layer 1
10
180.629774
20
163.441676
11
180.681393
21
163.182171
0
LINE
8
Layer 1
10
180.681393
20
163.182171
11
180.940899
21
163.130552
0
LINE
8
Layer 1
10
180.940899
20
163.130552
11
181.087897
21
163.350550
0
LINE
8
Layer 1
10
181.087897
20
163.350550
11
181.018152
21
163.518930
0
LINE
8
Layer 1
10
181.018152
20
163.518930
11
180.849772
21
163.588675
0
LINE
8
Layer 1
10
180.849772
20
163.588675
11
180.849772
21
163.588675
0
LINE
8
Layer 1
10
100.524873
20
60.738804
11
100.304875
21
60.591806
0
LINE
8
Layer 1
10
100.304875
20
60.591806
11
100.356494
21
60.332300
0
LINE
8
Layer 1
10
100.356494
20
60.332300
11
100.616000
21
60.280681
0
LINE
8
Layer 1
10
100.616000
20
60.280681
11
100.762998
21
60.500680
0
LINE
8
Layer 1
10
100.762998
20
60.500680
11
100.524873
21
60.738804
0
LINE
8
Layer 1
10
100.524873
20
60.738804
11
100.524873
21
60.738804
0
LINE
8
Layer 1
10
13.799983
20
83.738775
11
13.579984
21
83.591777
0
LINE
8
Layer 1
10
13.579984
20
83.591777
11
13.631603
21
83.332271
0
LINE
8
Layer 1
10
13.631603
20
83.332271
11
13.891109
21
83.280652
0
LINE
8
Layer 1
10
13.891109
20
83.280652
11
14.038107
21
83.500651
0
LINE
8
Layer 1
10
14.038107
20
83.500651
11
13.799983
21
83.738775
0
LINE
8
Layer 1
10
13.799983
20
83.738775
11
13.799983
21
83.738775
0
LINE
8
Layer 1
10
189.648378
20
457.251221
11
215.648156
21
457.251221
0
LINE
8
Layer 1
10
215.648156
20
457.251221
11
373.696804
21
449.251289
0
LINE
8
Layer 1
10
373.696804
20
449.251289
11
373.696804
21
360.102052
0
LINE
8
Layer 1
10
373.696804
20
360.102052
11
353.696975
21
340.102223
0
LINE
8
Layer 1
10
353.696975
20
340.102223
11
204.648250
21
320.102394
0
LINE
8
Layer 1
10
204.648250
20
320.102394
11
189.648378
21
352.269722
0
LINE
8
Layer 1
10
189.648378
20
352.269722
11
189.648378
21
457.251221
0
LINE
8
Layer 1
10
218.048135
20
416.851566
11
237.097972
21
416.851566
0
LINE
8
Layer 1
10
237.097972
20
416.851566
11
237.097972
21
419.351545
0
LINE
8
Layer 1
10
237.097972
20
419.351545
11
256.147810
21
419.351545
0
LINE
8
Layer 1
10
256.147810
20
419.351545
11
256.147810
21
421.851523
0
LINE
8
Layer 1
10
256.147810
20
421.851523
11
275.197647
21
421.851523
0
LINE
8
Layer 1
10
275.197647
20
421.851523
11
275.197647
21
419.251546
0
LINE
8
Layer 1
10
275.197647
20
419.251546
11
294.247484
21
419.251546
0
LINE
8
Layer 1
10
294.247484
20
419.251546
11
294.247484
21
414.751584
0
LINE
8
Layer 1
10
294.247484
20
414.751584
11
313.297321
21
414.751584
0
LINE
8
Layer 1
10
313.297321
20
414.751584
11
313.297321
21
414.751584
0
LINE
8
Layer 1
10
313.297321
20
414.751584
11
332.347158
21
414.751584
0
LINE
8
Layer 1
10
332.347158
20
414.751584
11
332.347158
21
357.602073
0
LINE
8
Layer 1
10
332.347158
20
357.602073
11
313.297321
21
357.602073
0
LINE
8
Layer 1
10
313.297321
20
357.602073
11
313.297321
21
357.602073
0
LINE
8
Layer 1
10
313.297321
20
357.602073
11
294.247484
21
357.602073
0
LINE
8
Layer 1
10
294.247484
20
357.602073
11
294.247484
21
362.102034
0
LINE
8
Layer 1
10
294.247484
20
362.102034
11
275.197647
21
362.102034
0
LINE
8
Layer 1
10
275.197647
20
362.102034
11
275.197647
21
364.702012
0
LINE
8
Layer 1
10
275.197647
20
364.702012
11
256.147810
21
364.702012
0
LINE
8
Layer 1
10
256.147810
20
364.702012
11
256.147810
21
362.202034
0
LINE
8
Layer 1
10
256.147810
20
362.202034
11
237.097972
21
362.202034
0
LINE
8
Layer 1
10
237.097972
20
362.202034
11
237.097972
21
359.702055
0
LINE
8
Layer 1
10
237.097972
20
359.702055
11
218.048135
21
359.702055
0
LINE
8
Layer 1
10
218.048135
20
359.702055
11
218.048135
21
416.851566
0
LINE
8
Layer 1
10
212.111250
20
364.359472
11
226.200165
21
334.145694
0
LINE
8
Layer 1
10
226.200165
20
334.145694
11
208.935150
21
326.094885
0
LINE
8
Layer 1
10
208.935150
20
326.094885
11
194.846234
21
356.308663
0
LINE
8
Layer 1
10
194.846234
20
356.308663
11
212.111250
21
364.359472
0
LINE
8
Layer 1
10
196.998315
20
388.276811
11
216.048152
21
388.276811
0
LINE
8
Layer 1
10
216.048152
20
388.276811
11
216.048152
21
369.226973
0
LINE
8
Layer 1
10
216.048152
20
369.226973
11
196.998315
21
369.226973
0
LINE
8
Layer 1
10
196.998315
20
369.226973
11
196.998315
21
388.276811
0
LINE
8
Layer 1
10
246.622891
20
361.502040
11
265.672728
21
361.502040
0
LINE
8
Layer 1
10
265.672728
20
361.502040
11
265.672728
21
342.452202
0
LINE
8
Layer 1
10
265.672728
20
342.452202
11
246.622891
21
342.452202
0
LINE
8
Layer 1
10
246.622891
20
342.452202
11
246.622891
21
361.502040
0
LINE
8
Layer 1
10
222.482403
20
354.962288
11
240.883132
21
359.892748
0
LINE
8
Layer 1
10
240.883132
20
359.892748
11
245.813593
21
341.492019
0
LINE
8
Layer 1
10
245.813593
20
341.492019
11
227.412863
21
336.561558
0
LINE
8
Layer 1
10
227.412863
20
336.561558
11
222.482403
21
354.962288
0
LINE
8
Layer 1
10
218.048135
20
441.901352
11
237.097972
21
441.901352
0
LINE
8
Layer 1
10
237.097972
20
441.901352
11
237.097972
21
422.851515
0
LINE
8
Layer 1
10
237.097972
20
422.851515
11
218.048135
21
422.851515
0
LINE
8
Layer 1
10
218.048135
20
422.851515
11
218.048135
21
441.901352
0
LINE
8
Layer 1
10
237.097972
20
441.901352
11
256.147810
21
441.901352
0
LINE
8
Layer 1
10
256.147810
20
441.901352
11
256.147810
21
422.851515
0
LINE
8
Layer 1
10
256.147810
20
422.851515
11
237.097972
21
422.851515
0
LINE
8
Layer 1
10
237.097972
20
422.851515
11
237.097972
21
441.901352
0
LINE
8
Layer 1
10
256.147810
20
441.901352
11
275.197647
21
441.901352
0
LINE
8
Layer 1
10
275.197647
20
441.901352
11
275.197647
21
422.851515
0
LINE
8
Layer 1
10
275.197647
20
422.851515
11
256.147810
21
422.851515
0
LINE
8
Layer 1
10
256.147810
20
422.851515
11
256.147810
21
441.901352
0
LINE
8
Layer 1
10
275.197647
20
441.901352
11
294.247484
21
441.901352
0
LINE
8
Layer 1
10
294.247484
20
441.901352
11
294.247484
21
422.851515
0
LINE
8
Layer 1
10
294.247484
20
422.851515
11
275.197647
21
422.851515
0
LINE
8
Layer 1
10
275.197647
20
422.851515
11
275.197647
21
441.901352
0
LINE
8
Layer 1
10
294.247484
20
441.901352
11
313.297321
21
441.901352
0
LINE
8
Layer 1
10
313.297321
20
441.901352
11
313.297321
21
422.851515
0
LINE
8
Layer 1
10
313.297321
20
422.851515
11
294.247484
21
422.851515
0
LINE
8
Layer 1
10
294.247484
20
422.851515
11
294.247484
21
441.901352
0
LINE
8
Layer 1
10
313.297321
20
441.901352
11
332.347158
21
441.901352
0
LINE
8
Layer 1
10
332.347158
20
441.901352
11
332.347158
21
422.851515
0
LINE
8
Layer 1
10
332.347158
20
422.851515
11
313.297321
21
422.851515
0
LINE
8
Layer 1
10
313.297321
20
422.851515
11
313.297321
21
441.901352
0
LINE
8
Layer 1
10
189.648378
20
317.302418
11
215.648156
21
317.302418
0
LINE
8
Layer 1
10
215.648156
20
317.302418
11
373.696804
21
309.302486
0
LINE
8
Layer 1
10
373.696804
20
309.302486
11
373.696804
21
220.153248
0
LINE
8
Layer 1
10
373.696804
20
220.153248
11
353.696975
21
200.153419
0
LINE
8
Layer 1
10
353.696975
20
200.153419
11
204.648250
21
180.153590
0
LINE
8
Layer 1
10
204.648250
20
180.153590
11
189.648378
21
212.320919
0
LINE
8
Layer 1
10
189.648378
20
212.320919
11
189.648378
21
317.302418
0
LINE
8
Layer 1
10
218.048135
20
276.902763
11
237.097972
21
276.902763
0
LINE
8
Layer 1
10
237.097972
20
276.902763
11
237.097972
21
279.402742
0
LINE
8
Layer 1
10
237.097972
20
279.402742
11
256.147810
21
279.402742
0
LINE
8
Layer 1
10
256.147810
20
279.402742
11
256.147810
21
281.902720
0
LINE
8
Layer 1
10
256.147810
20
281.902720
11
275.197647
21
281.902720
0
LINE
8
Layer 1
10
275.197647
20
281.902720
11
275.197647
21
279.302742
0
LINE
8
Layer 1
10
275.197647
20
279.302742
11
294.247484
21
279.302742
0
LINE
8
Layer 1
10
294.247484
20
279.302742
11
294.247484
21
274.802781
0
LINE
8
Layer 1
10
294.247484
20
274.802781
11
313.297321
21
274.802781
0
LINE
8
Layer 1
10
313.297321
20
274.802781
11
313.297321
21
274.802781
0
LINE
8
Layer 1
10
313.297321
20
274.802781
11
332.347158
21
274.802781
0
LINE
8
Layer 1
10
332.347158
20
274.802781
11
332.347158
21
217.653270
0
LINE
8
Layer 1
10
332.347158
20
217.653270
11
313.297321
21
217.653270
0
LINE
8
Layer 1
10
313.297321
20
217.653270
11
313.297321
21
217.653270
0
LINE
8
Layer 1
10
313.297321
20
217.653270
11
294.247484
21
217.653270
0
LINE
8
Layer 1
10
294.247484
20
217.653270
11
294.247484
21
222.153231
0
LINE
8
Layer 1
10
294.247484
20
222.153231
11
275.197647
21
222.153231
0
LINE
8
Layer 1
10
275.197647
20
222.153231
11
275.197647
21
224.753209
0
LINE
8
Layer 1
10
275.197647
20
224.753209
11
256.147810
21
224.753209
0
LINE
8
Layer 1
10
256.147810
20
224.753209
11
256.147810
21
222.253230
0
LINE
8
Layer 1
10
256.147810
20
222.253230
11
237.097972
21
222.253230
0
LINE
8
Layer 1
10
237.097972
20
222.253230
11
237.097972
21
219.753252
0
LINE
8
Layer 1
10
237.097972
20
219.753252
11
218.048135
21
219.753252
0
LINE
8
Layer 1
10
218.048135
20
219.753252
11
218.048135
21
276.902763
0
LINE
8
Layer 1
10
212.111250
20
224.410669
11
226.200165
21
194.196891
0
LINE
8
Layer 1
10
226.200165
20
194.196891
11
208.935150
21
186.146082
0
LINE
8
Layer 1
10
208.935150
20
186.146082
11
194.846234
21
216.359860
0
LINE
8
Layer 1
10
194.846234
20
216.359860
11
212.111250
21
224.410669
0
LINE
8
Layer 1
10
196.998315
20
248.328007
11
216.048152
21
248.328007
0
LINE
8
Layer 1
10
216.048152
20
248.328007
11
216.048152
21
229.278170
0
LINE
8
Layer 1
10
216.048152
20
229.278170
11
196.998315
21
229.278170
0
LINE
8
Layer 1
10
196.998315
20
229.278170
11
196.998315
21
248.328007
0
LINE
8
Layer 1
10
246.622891
20
221.553236
11
265.672728
21
221.553236
0
LINE
8
Layer 1
10
265.672728
20
221.553236
11
265.672728
21
202.503399
0
LINE
8
Layer 1
10
265.672728
20
202.503399
11
246.622891
21
202.503399
0
LINE
8
Layer 1
10
246.622891
20
202.503399
11
246.622891
21
221.553236
0
LINE
8
Layer 1
10
222.482403
20
215.013484
11
240.883132
21
219.943945
0
LINE
8
Layer 1
10
240.883132
20
219.943945
11
245.813593
21
201.543215
0
LINE
8
Layer 1
10
245.813593
20
201.543215
11
227.412863
21
196.612755
0
LINE
8
Layer 1
10
227.412863
20
196.612755
11
222.482403
21
215.013484
0
LINE
8
Layer 1
10
218.048135
20
301.952549
11
237.097972
21
301.952549
0
LINE
8
Layer 1
10
237.097972
20
301.952549
11
237.097972
21
282.902712
0
LINE
8
Layer 1
10
237.097972
20
282.902712
11
218.048135
21
282.902712
0
LINE
8
Layer 1
10
218.048135
20
282.902712
11
218.048135
21
301.952549
0
LINE
8
Layer 1
10
237.097972
20
301.952549
11
256.147810
21
301.952549
0
LINE
8
Layer 1
10
256.147810
20
301.952549
11
256.147810
21
282.902712
0
LINE
8
Layer 1
10
256.147810
20
282.902712
11
237.097972
21
282.902712
0
LINE
8
Layer 1
10
237.097972
20
282.902712
11
237.097972
21
301.952549
0
LINE
8
Layer 1
10
256.147810
20
301.952549
11
275.197647
21
301.952549
0
LINE
8
Layer 1
10
275.197647
20
301.952549
11
275.197647
21
282.902712
0
LINE
8
Layer 1
10
275.197647
20
282.902712
11
256.147810
21
282.902712
0
LINE
8
Layer 1
10
256.147810
20
282.902712
11
256.147810
21
301.952549
0
LINE
8
Layer 1
10
275.197647
20
301.952549
11
294.247484
21
301.952549
0
LINE
8
Layer 1
10
294.247484
20
301.952549
11
294.247484
21
282.902712
0
LINE
8
Layer 1
10
294.247484
20
282.902712
11
275.197647
21
282.902712
0
LINE
8
Layer 1
10
275.197647
20
282.902712
11
275.197647
21
301.952549
0
LINE
8
Layer 1
10
294.247484
20
301.952549
11
313.297321
21
301.952549
0
LINE
8
Layer 1
10
313.297321
20
301.952549
11
313.297321
21
282.902712
0
LINE
8
Layer 1
10
313.297321
20
282.902712
11
294.247484
21
282.902712
0
LINE
8
Layer 1
10
294.247484
20
282.902712
11
294.247484
21
301.952549
0
LINE
8
Layer 1
10
313.297321
20
301.952549
11
332.347158
21
301.952549
0
LINE
8
Layer 1
10
332.347158
20
301.952549
11
332.347158
21
282.902712
0
LINE
8
Layer 1
10
332.347158
20
282.902712
11
313.297321
21
282.902712
0
LINE
8
Layer 1
10
313.297321
20
282.902712
11
313.297321
21
301.952549
0
LINE
8
Layer 1
10
367.696856
20
262.015390
11
340.997084
21
262.015390
0
LINE
8
Layer 1
10
340.997084
20
262.015390
11
340.997084
21
267.015348
0
LINE
8
Layer 1
10
340.997084
20
267.015348
11
350.697001
21
267.015348
0
LINE
8
Layer 1
10
350.697001
20
267.015348
11
350.697001
21
262.615385
0
LINE
8
Layer 1
10
350.697001
20
262.615385
11
355.696958
21
262.615385
0
LINE
8
Layer 1
10
355.696958
20
262.615385
11
355.696958
21
282.415216
0
LINE
8
Layer 1
10
355.696958
20
282.415216
11
350.697001
21
282.415216
0
LINE
8
Layer 1
10
350.697001
20
282.415216
11
350.697001
21
278.015253
0
LINE
8
Layer 1
10
350.697001
20
278.015253
11
340.997084
21
278.015253
0
LINE
8
Layer 1
10
340.997084
20
278.015253
11
340.997084
21
283.015211
0
LINE
8
Layer 1
10
340.997084
20
283.015211
11
367.696856
21
283.015211
0
LINE
8
Layer 1
10
367.696856
20
283.015211
11
367.696856
21
262.015390
0
LINE
8
Layer 1
10
192.449758
20
37.400709
11
206.099740
21
37.400709
0
LINE
8
Layer 1
10
206.099740
20
37.400709
11
206.099740
21
23.750726
0
LINE
8
Layer 1
10
206.099740
20
23.750726
11
192.449758
21
23.750726
0
LINE
8
Layer 1
10
192.449758
20
23.750726
11
192.449758
21
37.400709
0
LINE
8
Layer 1
10
211.499734
20
37.400709
11
225.199716
21
37.400709
0
LINE
8
Layer 1
10
225.199716
20
37.400709
11
225.199716
21
23.700726
0
LINE
8
Layer 1
10
225.199716
20
23.700726
11
211.499734
21
23.700726
0
LINE
8
Layer 1
10
211.499734
20
23.700726
11
211.499734
21
37.400709
0
LINE
8
Layer 1
10
230.549710
20
37.400709
11
244.299692
21
37.400709
0
LINE
8
Layer 1
10
244.299692
20
37.400709
11
244.299692
21
23.650726
0
LINE
8
Layer 1
10
244.299692
20
23.650726
11
230.549710
21
23.650726
0
LINE
8
Layer 1
10
230.549710
20
23.650726
11
230.549710
21
37.400709
0
LINE
8
Layer 1
10
249.599686
20
37.400709
11
263.399668
21
37.400709
0
LINE
8
Layer 1
10
263.399668
20
37.400709
11
263.399668
21
23.600726
0
LINE
8
Layer 1
10
263.399668
20
23.600726
11
249.599686
21
23.600726
0
LINE
8
Layer 1
10
249.599686
20
23.600726
11
249.599686
21
37.400709
0
LINE
8
Layer 1
10
268.649662
20
37.400709
11
282.499644
21
37.400709
0
LINE
8
Layer 1
10
282.499644
20
37.400709
11
282.499644
21
23.550726
0
LINE
8
Layer 1
10
282.499644
20
23.550726
11
268.649662
21
23.550726
0
LINE
8
Layer 1
10
268.649662
20
23.550726
11
268.649662
21
37.400709
0
LINE
8
Layer 1
10
287.699638
20
37.400709
11
301.649620
21
37.400709
0
LINE
8
Layer 1
10
301.649620
20
37.400709
11
301.649620
21
23.450726
0
LINE
8
Layer 1
10
301.649620
20
23.450726
11
287.699638
21
23.450726
0
LINE
8
Layer 1
10
287.699638
20
23.450726
11
287.699638
21
37.400709
0
LINE
8
Layer 1
10
306.749614
20
37.400709
11
320.799596
21
37.400709
0
LINE
8
Layer 1
10
320.799596
20
37.400709
11
320.799596
21
23.350726
0
LINE
8
Layer 1
10
320.799596
20
23.350726
11
306.749614
21
23.350726
0
LINE
8
Layer 1
10
306.749614
20
23.350726
11
306.749614
21
37.400709
0
LINE
8
Layer 1
10
325.799590
20
37.400709
11
339.949572
21
37.400709
0
LINE
8
Layer 1
10
339.949572
20
37.400709
11
339.949572
21
23.250727
0
LINE
8
Layer 1
10
339.949572
20
23.250727
11
325.799590
21
23.250727
0
LINE
8
Layer 1
10
325.799590
20
23.250727
11
325.799590
21
37.400709
0
LINE
8
Layer 1
10
344.849566
20
37.400709
11
359.099548
21
37.400709
0
LINE
8
Layer 1
10
359.099548
20
37.400709
11
359.099548
21
23.150727
0
LINE
8
Layer 1
10
359.099548
20
23.150727
11
344.849566
21
23.150727
0
LINE
8
Layer 1
10
344.849566
20
23.150727
11
344.849566
21
37.400709
0
LINE
8
Layer 1
10
363.899542
20
37.400709
11
378.249523
21
37.400709
0
LINE
8
Layer 1
10
378.249523
20
37.400709
11
378.249523
21
23.050727
0
LINE
8
Layer 1
10
378.249523
20
23.050727
11
363.899542
21
23.050727
0
LINE
8
Layer 1
10
363.899542
20
23.050727
11
363.899542
21
37.400709
 0 
ENDSEC
 0 
EOF