<?xml version="1.0" encoding="utf-8" ?>
<svg baseProfile="full" height="600mm" version="1.1" width="400mm" xmlns="http://www.w3.org/2000/svg" xmlns:ev="http://www.w3.org/2001/xml-events" xmlns:xlink="http://www.w3.org/1999/xlink"><defs /><polygon fill="none" points="10.5826,10.5826 108.84960000000001,10.5826 706.1995750000001,40.8186 706.1995750000001,378.894875 630.6095750000001,454.484875 67.27510000000001,530.074875 10.5826,408.4974164090118" stroke="#000000" /><polygon fill="none" points="118.48732500000001,163.84132499999998 190.4868,163.84132499999998 190.4868,154.392575 262.48627500000003,154.392575 262.48627500000003,144.94382499999998 334.48575,144.94382499999998 334.48575,154.770525 406.485225,154.770525 406.485225,171.77827499999998 478.4847,171.77827499999998 478.4847,171.77827499999998 550.484175,171.77827499999998 550.484175,387.7767 478.4847,387.7767 478.4847,387.7767 406.485225,387.7767 406.485225,370.76894999999996 334.48575,370.76894999999996 334.48575,360.94225 262.48627500000003,360.94225 262.48627500000003,370.391 190.4868,370.391 190.4868,379.83975 118.48732500000001,379.83975" stroke="#0000ff" /><polygon fill="none" points="96.04867357812525,363.3707417664593 149.2981862769254,477.56469026279785 84.04450142187481,507.9929832335409 30.79498872307466,393.79903473720225" stroke="#0000ff" /><polygon fill="none" points="38.928850000000004,271.8405375 110.928325,271.8405375 110.928325,343.8400125 38.928850000000004,343.8400125" stroke="#0000ff" /><polygon fill="none" points="226.4865375,374.1705 298.48601249999996,374.1705 298.48601249999996,446.169975 226.4865375,446.169975" stroke="#0000ff" /><polygon fill="none" points="135.2467811254315,398.88770399281435 204.79293350718564,380.2528686254315 223.42776887456847,449.7990210071857 153.88161649281435,468.43385637456845" stroke="#0000ff" /><polygon fill="none" points="118.48732500000001,69.16485 190.4868,69.16485 190.4868,141.164325 118.48732500000001,141.164325" stroke="#0000ff" /><polygon fill="none" points="190.4868,69.16485 262.48627500000003,69.16485 262.48627500000003,141.164325 190.4868,141.164325" stroke="#0000ff" /><polygon fill="none" points="262.48627500000003,69.16485 334.48575,69.16485 334.48575,141.164325 262.48627500000003,141.164325" stroke="#0000ff" /><polygon fill="none" points="334.48575,69.16485 406.485225,69.16485 406.485225,141.164325 334.48575,141.164325" stroke="#0000ff" /><polygon fill="none" points="406.485225,69.16485 478.4847,69.16485 478.4847,141.164325 406.485225,141.164325" stroke="#0000ff" /><polygon fill="none" points="478.4847,69.16485 550.484175,69.16485 550.484175,141.164325 478.4847,141.164325" stroke="#0000ff" /><polygon fill="none" points="10.5826,10.5826 108.84960000000001,10.5826 706.1995750000001,40.8186 706.1995750000001,378.894875 630.6095750000001,454.484875 67.27510000000001,530.074875 10.5826,408.4974164090118" stroke="#000000" /><circle cx="37.8mm" cy="10.0mm" fill="none" r="0.9" stroke="#0000ff" /><circle cx="180.85000000000002mm" cy="16.8mm" fill="none" r="0.9" stroke="#0000ff" /><circle cx="100.525mm" cy="119.64999999999999mm" fill="none" r="0.9" stroke="#0000ff" /><circle cx="13.8mm" cy="96.65mm" fill="none" r="0.9" stroke="#0000ff" /><polygon fill="none" points="33.259600000000006,33.259600000000006 52.15710000000001,33.259600000000006 52.15710000000001,10.5826 10.5826,10.5826 10.5826,408.4974164090118 67.27510000000001,530.074875 630.6095750000001,454.484875 706.1995750000001,378.894875 706.1995750000001,40.8186 108.84960000000001,10.5826 108.84960000000001,10.5826 108.84960000000001,33.259600000000006 116.4086,33.259600000000006 116.4086,63.4956 271.935025,33.259600000000006 556.1534250000001,63.4956 556.1534250000001,275.9035 683.5225750000001,356.217875 607.932575,431.807875 343.9345,416.2174375 343.9345,452.21717500000005 89.9521,507.397875 33.259600000000006,385.82041640901184 71.05460000000001,385.82041640901184 71.05460000000001,348.0254164090118 33.259600000000006,348.0254164090118" stroke="#000000" /><circle cx="37.8mm" cy="10.0mm" fill="none" r="0.9" stroke="#0000ff" /><circle cx="180.85000000000002mm" cy="16.8mm" fill="none" r="0.9" stroke="#0000ff" /><circle cx="100.525mm" cy="119.64999999999999mm" fill="none" r="0.9" stroke="#0000ff" /><circle cx="13.8mm" cy="96.65mm" fill="none" r="0.9" stroke="#0000ff" /><polygon fill="none" points="683.5225750000001,219.82516875 582.6099250000001,219.82516875 582.6099250000001,200.92766874999998 619.2710750000001,200.92766874999998 619.2710750000001,217.55746874999997 638.1685750000001,217.55746874999997 638.1685750000001,142.72336875 619.2710750000001,142.72336875 619.2710750000001,159.35316874999998 582.6099250000001,159.35316874999998 582.6099250000001,140.45566874999997 683.5225750000001,140.45566874999997" stroke="#0000ff" /><polygon fill="none" points="33.259600000000006,33.259600000000006 52.15710000000001,33.259600000000006 52.15710000000001,10.5826 10.5826,10.5826 10.5826,408.4974164090118 67.27510000000001,530.074875 630.6095750000001,454.484875 706.1995750000001,378.894875 706.1995750000001,40.8186 108.84960000000001,10.5826 108.84960000000001,10.5826 108.84960000000001,33.259600000000006 116.4086,33.259600000000006 116.4086,63.4956 271.935025,33.259600000000006 556.1534250000001,63.4956 556.1534250000001,116.597575 683.5225750000001,116.597575 683.5225750000001,356.217875 607.932575,431.807875 343.9345,416.2174375 343.9345,452.21717500000005 89.9521,507.397875 33.259600000000006,385.82041640901184 71.05460000000001,385.82041640901184 71.05460000000001,348.0254164090118 33.259600000000006,348.0254164090118" stroke="#000000" /><circle cx="37.8mm" cy="10.0mm" fill="none" r="0.9" stroke="#0000ff" /><circle cx="180.85000000000002mm" cy="16.8mm" fill="none" r="0.9" stroke="#0000ff" /><circle cx="100.525mm" cy="119.64999999999999mm" fill="none" r="0.9" stroke="#0000ff" /><circle cx="13.8mm" cy="96.65mm" fill="none" r="0.9" stroke="#0000ff" /><rect fill="none" height="16.05mm" rx="0.01mm" ry="0.01mm" stroke="#0000ff" width="16.05mm" x="32.85mm" y="44.849999999999994mm" /><rect fill="none" height="16.05mm" rx="0.01mm" ry="0.01mm" stroke="#0000ff" width="16.05mm" x="32.85mm" y="63.89999999999999mm" /><rect fill="none" height="16.05mm" rx="0.01mm" ry="0.01mm" stroke="#0000ff" width="16.05mm" x="32.85mm" y="82.95mm" /><rect fill="none" height="16.05mm" rx="0.01mm" ry="0.01mm" stroke="#0000ff" width="16.05mm" x="51.9mm" y="42.349999999999994mm" /><rect fill="none" height="16.05mm" rx="0.01mm" ry="0.01mm" stroke="#0000ff" width="16.05mm" x="51.9mm" y="61.39999999999999mm" /><rect fill="none" height="16.05mm" rx="0.01mm" ry="0.01mm" stroke="#0000ff" width="16.05mm" x="51.9mm" y="80.45mm" /><rect fill="none" height="16.05mm" rx="0.01mm" ry="0.01mm" stroke="#0000ff" width="16.05mm" x="70.95mm" y="39.849999999999994mm" /><rect fill="none" height="16.05mm" rx="0.01mm" ry="0.01mm" stroke="#0000ff" width="16.05mm" x="70.95mm" y="58.89999999999999mm" /><rect fill="none" height="16.05mm" rx="0.01mm" ry="0.01mm" stroke="#0000ff" width="16.05mm" x="70.95mm" y="77.95mm" /><rect fill="none" height="16.05mm" rx="0.01mm" ry="0.01mm" stroke="#0000ff" width="16.05mm" x="90.0mm" y="42.449999999999996mm" /><rect fill="none" height="16.05mm" rx="0.01mm" ry="0.01mm" stroke="#0000ff" width="16.05mm" x="90.0mm" y="61.5mm" /><rect fill="none" height="16.05mm" rx="0.01mm" ry="0.01mm" stroke="#0000ff" width="16.05mm" x="90.0mm" y="80.55mm" /><rect fill="none" height="16.05mm" rx="0.01mm" ry="0.01mm" stroke="#0000ff" width="16.05mm" x="109.05mm" y="46.949999999999996mm" /><rect fill="none" height="16.05mm" rx="0.01mm" ry="0.01mm" stroke="#0000ff" width="16.05mm" x="109.05mm" y="66.0mm" /><rect fill="none" height="16.05mm" rx="0.01mm" ry="0.01mm" stroke="#0000ff" width="16.05mm" x="109.05mm" y="85.05mm" /><rect fill="none" height="16.05mm" rx="0.01mm" ry="0.01mm" stroke="#0000ff" width="16.05mm" x="128.1mm" y="46.949999999999996mm" /><rect fill="none" height="16.05mm" rx="0.01mm" ry="0.01mm" stroke="#0000ff" width="16.05mm" x="128.1mm" y="66.0mm" /><rect fill="none" height="16.05mm" rx="0.01mm" ry="0.01mm" stroke="#0000ff" width="16.05mm" x="128.1mm" y="85.05mm" /><rect fill="none" height="16.05mm" rx="0.01mm" ry="0.01mm" stroke="#0000ff" transform="rotate(65, 90.04658750000002, 435.6818625)" width="16.05mm" x="15.8mm" y="107.25mm" /><rect fill="none" height="16.05mm" rx="0.01mm" ry="0.01mm" stroke="#0000ff" transform="rotate(0, 74.9285875, 307.840275)" width="16.05mm" x="11.8mm" y="73.425mm" /><rect fill="none" height="16.05mm" rx="0.01mm" ry="0.01mm" stroke="#0000ff" transform="rotate(0, 262.48627500000003, 410.17023750000004)" width="16.05mm" x="61.425mm" y="100.5mm" /><rect fill="none" height="16.05mm" rx="0.01mm" ry="0.01mm" stroke="#0000ff" transform="rotate(-15, 179.33727499999998, 424.3433625)" width="16.05mm" x="39.425mm" y="104.25mm" /><rect fill="none" height="16.05mm" rx="0.01mm" ry="0.01mm" stroke="#0000ff" transform="rotate(0, 154.4870625, 105.16458750000001)" width="16.05mm" x="32.85mm" y="19.8mm" /><rect fill="none" height="16.05mm" rx="0.01mm" ry="0.01mm" stroke="#0000ff" transform="rotate(0, 226.4865375, 105.16458750000001)" width="16.05mm" x="51.9mm" y="19.8mm" /><rect fill="none" height="16.05mm" rx="0.01mm" ry="0.01mm" stroke="#0000ff" transform="rotate(0, 298.4860125, 105.16458750000001)" width="16.05mm" x="70.95mm" y="19.8mm" /><rect fill="none" height="16.05mm" rx="0.01mm" ry="0.01mm" stroke="#0000ff" transform="rotate(0, 370.48548750000003, 105.16458750000001)" width="16.05mm" x="90.0mm" y="19.8mm" /><rect fill="none" height="16.05mm" rx="0.01mm" ry="0.01mm" stroke="#0000ff" transform="rotate(0, 442.4849625, 105.16458750000001)" width="16.05mm" x="109.05mm" y="19.8mm" /><rect fill="none" height="16.05mm" rx="0.01mm" ry="0.01mm" stroke="#0000ff" transform="rotate(0, 514.4844375, 105.16458750000001)" width="16.05mm" x="128.1mm" y="19.8mm" /><polygon fill="none" points="10.5826,10.5826 52.15710000000001,10.5826 52.15710000000001,33.259600000000006 44.5981,33.259600000000006 44.5981,125.85735 116.4086,125.85735 116.4086,33.259600000000006 108.84960000000001,33.259600000000006 108.84960000000001,10.5826 706.1995750000001,40.8186 706.1995750000001,378.894875 630.6095750000001,454.484875 67.27510000000001,530.074875 10.5826,408.4974164090118" stroke="#000000" /><circle cx="37.8mm" cy="10.0mm" fill="none" r="0.9" stroke="#0000ff" /><circle cx="180.85000000000002mm" cy="16.8mm" fill="none" r="0.9" stroke="#0000ff" /><circle cx="100.525mm" cy="119.64999999999999mm" fill="none" r="0.9" stroke="#0000ff" /><circle cx="13.8mm" cy="96.65mm" fill="none" r="0.9" stroke="#0000ff" /><polygon fill="none" points="683.5225750000001,219.82516875 582.6099250000001,219.82516875 582.6099250000001,200.92766874999998 619.2710750000001,200.92766874999998 619.2710750000001,217.55746874999997 638.1685750000001,217.55746874999997 638.1685750000001,142.72336875 619.2710750000001,142.72336875 619.2710750000001,159.35316874999998 582.6099250000001,159.35316874999998 582.6099250000001,140.45566874999997 683.5225750000001,140.45566874999997" stroke="#0000ff" /><rect fill="none" height="14.05mm" rx="0.01mm" ry="0.01mm" stroke="#0000ff" width="14.05mm" x="33.85mm" y="45.849999999999994mm" /><rect fill="none" height="14.05mm" rx="0.01mm" ry="0.01mm" stroke="#0000ff" width="14.05mm" x="33.85mm" y="64.89999999999999mm" /><rect fill="none" height="14.05mm" rx="0.01mm" ry="0.01mm" stroke="#0000ff" width="14.05mm" x="33.85mm" y="83.95mm" /><rect fill="none" height="14.05mm" rx="0.01mm" ry="0.01mm" stroke="#0000ff" width="14.05mm" x="52.9mm" y="43.349999999999994mm" /><rect fill="none" height="14.05mm" rx="0.01mm" ry="0.01mm" stroke="#0000ff" width="14.05mm" x="52.9mm" y="62.39999999999999mm" /><rect fill="none" height="14.05mm" rx="0.01mm" ry="0.01mm" stroke="#0000ff" width="14.05mm" x="52.9mm" y="81.45mm" /><rect fill="none" height="14.05mm" rx="0.01mm" ry="0.01mm" stroke="#0000ff" width="14.05mm" x="71.95mm" y="40.849999999999994mm" /><rect fill="none" height="14.05mm" rx="0.01mm" ry="0.01mm" stroke="#0000ff" width="14.05mm" x="71.95mm" y="59.89999999999999mm" /><rect fill="none" height="14.05mm" rx="0.01mm" ry="0.01mm" stroke="#0000ff" width="14.05mm" x="71.95mm" y="78.95mm" /><rect fill="none" height="14.05mm" rx="0.01mm" ry="0.01mm" stroke="#0000ff" width="14.05mm" x="91.0mm" y="43.449999999999996mm" /><rect fill="none" height="14.05mm" rx="0.01mm" ry="0.01mm" stroke="#0000ff" width="14.05mm" x="91.0mm" y="62.5mm" /><rect fill="none" height="14.05mm" rx="0.01mm" ry="0.01mm" stroke="#0000ff" width="14.05mm" x="91.0mm" y="81.55mm" /><rect fill="none" height="14.05mm" rx="0.01mm" ry="0.01mm" stroke="#0000ff" width="14.05mm" x="110.05mm" y="47.949999999999996mm" /><rect fill="none" height="14.05mm" rx="0.01mm" ry="0.01mm" stroke="#0000ff" width="14.05mm" x="110.05mm" y="67.0mm" /><rect fill="none" height="14.05mm" rx="0.01mm" ry="0.01mm" stroke="#0000ff" width="14.05mm" x="110.05mm" y="86.05mm" /><rect fill="none" height="14.05mm" rx="0.01mm" ry="0.01mm" stroke="#0000ff" width="14.05mm" x="129.1mm" y="47.949999999999996mm" /><rect fill="none" height="14.05mm" rx="0.01mm" ry="0.01mm" stroke="#0000ff" width="14.05mm" x="129.1mm" y="67.0mm" /><rect fill="none" height="14.05mm" rx="0.01mm" ry="0.01mm" stroke="#0000ff" width="14.05mm" x="129.1mm" y="86.05mm" /><rect fill="none" height="14.05mm" rx="0.01mm" ry="0.01mm" stroke="#0000ff" transform="rotate(65, 90.04658750000002, 435.6818625)" width="14.05mm" x="16.8mm" y="108.25mm" /><rect fill="none" height="14.05mm" rx="0.01mm" ry="0.01mm" stroke="#0000ff" transform="rotate(0, 74.9285875, 307.840275)" width="14.05mm" x="12.8mm" y="74.425mm" /><rect fill="none" height="14.05mm" rx="0.01mm" ry="0.01mm" stroke="#0000ff" transform="rotate(0, 262.48627500000003, 410.17023750000004)" width="14.05mm" x="62.425mm" y="101.5mm" /><rect fill="none" height="14.05mm" rx="0.01mm" ry="0.01mm" stroke="#0000ff" transform="rotate(-15, 179.33727499999998, 424.3433625)" width="14.05mm" x="40.425mm" y="105.25mm" /><rect fill="none" height="14.05mm" rx="0.01mm" ry="0.01mm" stroke="#0000ff" transform="rotate(0, 154.4870625, 105.16458750000001)" width="14.05mm" x="33.85mm" y="20.8mm" /><rect fill="none" height="14.05mm" rx="0.01mm" ry="0.01mm" stroke="#0000ff" transform="rotate(0, 226.4865375, 105.16458750000001)" width="14.05mm" x="52.9mm" y="20.8mm" /><rect fill="none" height="14.05mm" rx="0.01mm" ry="0.01mm" stroke="#0000ff" transform="rotate(0, 298.4860125, 105.16458750000001)" width="14.05mm" x="71.95mm" y="20.8mm" /><rect fill="none" height="14.05mm" rx="0.01mm" ry="0.01mm" stroke="#0000ff" transform="rotate(0, 370.48548750000003, 105.16458750000001)" width="14.05mm" x="91.0mm" y="20.8mm" /><rect fill="none" height="14.05mm" rx="0.01mm" ry="0.01mm" stroke="#0000ff" transform="rotate(0, 442.4849625, 105.16458750000001)" width="14.05mm" x="110.05mm" y="20.8mm" /><rect fill="none" height="14.05mm" rx="0.01mm" ry="0.01mm" stroke="#0000ff" transform="rotate(0, 514.4844375, 105.16458750000001)" width="14.05mm" x="129.1mm" y="20.8mm" /><polygon fill="none" points="10.5826,10.5826 52.15710000000001,10.5826 52.15710000000001,33.259600000000006 44.5981,33.259600000000006 44.5981,125.85735 116.4086,125.85735 116.4086,33.259600000000006 108.84960000000001,33.259600000000006 108.84960000000001,10.5826 706.1995750000001,40.8186 706.1995750000001,378.894875 630.6095750000001,454.484875 67.27510000000001,530.074875 10.5826,408.4974164090118" stroke="#000000" /><polygon fill="none" points="683.5225750000001,219.82516875 582.6099250000001,219.82516875 582.6099250000001,200.92766874999998 619.2710750000001,200.92766874999998 619.2710750000001,217.55746874999997 638.1685750000001,217.55746874999997 638.1685750000001,142.72336875 619.2710750000001,142.72336875 619.2710750000001,159.35316874999998 582.6099250000001,159.35316874999998 582.6099250000001,140.45566874999997 683.5225750000001,140.45566874999997" stroke="#0000ff" /></svg>