<?xml version="1.0" encoding="utf-8" ?>
<svg baseProfile="full" height="600mm" version="1.1" width="400mm" xmlns="http://www.w3.org/2000/svg" xmlns:ev="http://www.w3.org/2001/xml-events" xmlns:xlink="http://www.w3.org/1999/xlink"><defs /><rect fill="none" height="14.265mm" rx="0.1mm" ry="0.1mm" stroke="purple" width="14.265mm" x="40.05mm" y="25.0mm" /><rect fill="none" height="14.265mm" rx="0.1mm" ry="0.1mm" stroke="purple" width="14.265mm" x="40.05mm" y="44.05mm" /><rect fill="none" height="14.265mm" rx="0.1mm" ry="0.1mm" stroke="purple" width="14.265mm" x="40.05mm" y="63.1mm" /><rect fill="none" height="14.265mm" rx="0.1mm" ry="0.1mm" stroke="purple" width="14.265mm" x="59.1mm" y="22.5mm" /><rect fill="none" height="14.265mm" rx="0.1mm" ry="0.1mm" stroke="purple" width="14.265mm" x="59.1mm" y="41.55mm" /><rect fill="none" height="14.265mm" rx="0.1mm" ry="0.1mm" stroke="purple" width="14.265mm" x="59.1mm" y="60.6mm" /><rect fill="none" height="14.265mm" rx="0.1mm" ry="0.1mm" stroke="purple" width="14.265mm" x="78.15mm" y="20.0mm" /><rect fill="none" height="14.265mm" rx="0.1mm" ry="0.1mm" stroke="purple" width="14.265mm" x="78.15mm" y="39.05mm" /><rect fill="none" height="14.265mm" rx="0.1mm" ry="0.1mm" stroke="purple" width="14.265mm" x="78.15mm" y="58.1mm" /><rect fill="none" height="14.265mm" rx="0.1mm" ry="0.1mm" stroke="purple" width="14.265mm" x="97.2mm" y="22.6mm" /><rect fill="none" height="14.265mm" rx="0.1mm" ry="0.1mm" stroke="purple" width="14.265mm" x="97.2mm" y="41.65mm" /><rect fill="none" height="14.265mm" rx="0.1mm" ry="0.1mm" stroke="purple" width="14.265mm" x="97.2mm" y="60.7mm" /><rect fill="none" height="14.265mm" rx="0.1mm" ry="0.1mm" stroke="purple" width="14.265mm" x="116.25mm" y="27.1mm" /><rect fill="none" height="14.265mm" rx="0.1mm" ry="0.1mm" stroke="purple" width="14.265mm" x="116.25mm" y="46.150000000000006mm" /><rect fill="none" height="14.265mm" rx="0.1mm" ry="0.1mm" stroke="purple" width="14.265mm" x="116.25mm" y="65.2mm" /><rect fill="none" height="14.265mm" rx="0.1mm" ry="0.1mm" stroke="purple" width="14.265mm" x="135.3mm" y="27.1mm" /><rect fill="none" height="14.265mm" rx="0.1mm" ry="0.1mm" stroke="purple" width="14.265mm" x="135.3mm" y="46.150000000000006mm" /><rect fill="none" height="14.265mm" rx="0.1mm" ry="0.1mm" stroke="purple" width="14.265mm" x="135.3mm" y="65.2mm" /><rect fill="none" height="14.265mm" rx="0.1mm" ry="0.1mm" stroke="purple" transform="rotate(0, 83.64978375, 229.44399625)" width="14.265mm" x="15mm" y="53.574999999999996mm" /><rect fill="none" height="14.265mm" rx="0.1mm" ry="0.1mm" stroke="purple" transform="rotate(0, 286.32547124999996, 332.58655125)" width="14.265mm" x="68.625mm" y="80.86500000000001mm" /><rect fill="none" height="14.265mm" rx="0.1mm" ry="0.1mm" stroke="purple" transform="rotate(-15, 203.17647125, 346.75967625000004)" width="14.265mm" x="46.625mm" y="84.61500000000001mm" /><rect fill="none" height="14.265mm" rx="0.1mm" ry="0.1mm" stroke="purple" transform="rotate(-25, 113.88578375, 358.09817625)" width="14.265mm" x="23.0mm" y="87.61500000000001mm" /><polygon fill="none" points="37.795,37.795 75.59,37.795 75.59,56.6925 60.472,56.6925 60.472,149.29025000000001 132.2825,149.29025000000001 132.2825,56.6925 117.1645,56.6925 117.1645,37.795 621.160825,37.795 621.160825,415.745 37.795,415.745" stroke="black" /><rect fill="none" height="16.265mm" rx="0.1mm" ry="0.1mm" stroke="purple" width="16.265mm" x="39.05mm" y="134.0mm" /><rect fill="none" height="16.265mm" rx="0.1mm" ry="0.1mm" stroke="purple" width="16.265mm" x="39.05mm" y="153.05mm" /><rect fill="none" height="16.265mm" rx="0.1mm" ry="0.1mm" stroke="purple" width="16.265mm" x="39.05mm" y="172.1mm" /><rect fill="none" height="16.265mm" rx="0.1mm" ry="0.1mm" stroke="purple" width="16.265mm" x="58.1mm" y="131.5mm" /><rect fill="none" height="16.265mm" rx="0.1mm" ry="0.1mm" stroke="purple" width="16.265mm" x="58.1mm" y="150.55mm" /><rect fill="none" height="16.265mm" rx="0.1mm" ry="0.1mm" stroke="purple" width="16.265mm" x="58.1mm" y="169.6mm" /><rect fill="none" height="16.265mm" rx="0.1mm" ry="0.1mm" stroke="purple" width="16.265mm" x="77.15mm" y="129.0mm" /><rect fill="none" height="16.265mm" rx="0.1mm" ry="0.1mm" stroke="purple" width="16.265mm" x="77.15mm" y="148.05mm" /><rect fill="none" height="16.265mm" rx="0.1mm" ry="0.1mm" stroke="purple" width="16.265mm" x="77.15mm" y="167.1mm" /><rect fill="none" height="16.265mm" rx="0.1mm" ry="0.1mm" stroke="purple" width="16.265mm" x="96.2mm" y="131.6mm" /><rect fill="none" height="16.265mm" rx="0.1mm" ry="0.1mm" stroke="purple" width="16.265mm" x="96.2mm" y="150.65mm" /><rect fill="none" height="16.265mm" rx="0.1mm" ry="0.1mm" stroke="purple" width="16.265mm" x="96.2mm" y="169.7mm" /><rect fill="none" height="16.265mm" rx="0.1mm" ry="0.1mm" stroke="purple" width="16.265mm" x="115.25mm" y="136.1mm" /><rect fill="none" height="16.265mm" rx="0.1mm" ry="0.1mm" stroke="purple" width="16.265mm" x="115.25mm" y="155.15mm" /><rect fill="none" height="16.265mm" rx="0.1mm" ry="0.1mm" stroke="purple" width="16.265mm" x="115.25mm" y="174.2mm" /><rect fill="none" height="16.265mm" rx="0.1mm" ry="0.1mm" stroke="purple" width="16.265mm" x="134.3mm" y="136.1mm" /><rect fill="none" height="16.265mm" rx="0.1mm" ry="0.1mm" stroke="purple" width="16.265mm" x="134.3mm" y="155.15mm" /><rect fill="none" height="16.265mm" rx="0.1mm" ry="0.1mm" stroke="purple" width="16.265mm" x="134.3mm" y="174.2mm" /><rect fill="none" height="16.265mm" rx="0.1mm" ry="0.1mm" stroke="purple" transform="rotate(0, 83.64978375, 645.18899625)" width="16.265mm" x="14mm" y="162.575mm" /><rect fill="none" height="16.265mm" rx="0.1mm" ry="0.1mm" stroke="purple" transform="rotate(0, 286.32547124999996, 748.3315512500001)" width="16.265mm" x="67.625mm" y="189.865mm" /><rect fill="none" height="16.265mm" rx="0.1mm" ry="0.1mm" stroke="purple" transform="rotate(-15, 203.17647125, 762.50467625)" width="16.265mm" x="45.625mm" y="193.615mm" /><rect fill="none" height="16.265mm" rx="0.1mm" ry="0.1mm" stroke="purple" transform="rotate(-25, 113.88578375, 773.84317625)" width="16.265mm" x="22.0mm" y="196.615mm" /><polygon fill="none" points="37.795,453.54 75.59,453.54 75.59,472.4375 60.472,472.4375 60.472,565.03525 132.2825,565.03525 132.2825,472.4375 117.1645,472.4375 117.1645,453.54 621.160825,453.54 621.160825,831.49 37.795,831.49" stroke="black" /><polygon fill="none" points="37.795,869.285 621.160825,869.285 621.160825,1247.2350000000001 37.795,1247.2350000000001" stroke="black" /><polygon fill="none" points="56.6925,888.1825 602.2633250000001,888.1825 602.2633250000001,1228.3375 56.6925,1228.3375" stroke="purple" /></svg>