<?xml version="1.0" encoding="utf-8" ?>
<svg baseProfile="full" height="100%" version="1.1" width="100%" xmlns="http://www.w3.org/2000/svg" xmlns:ev="http://www.w3.org/2001/xml-events" xmlns:xlink="http://www.w3.org/1999/xlink"><defs /><rect fill="none" height="14.265" rx="2" ry="2" stroke="black" width="14.265" x="34.05" y="20.0" /><rect fill="none" height="14.265" rx="2" ry="2" stroke="black" width="14.265" x="34.05" y="39.05" /><rect fill="none" height="14.265" rx="2" ry="2" stroke="black" width="14.265" x="34.05" y="58.1" /><rect fill="none" height="14.265" rx="2" ry="2" stroke="black" width="14.265" x="53.099999999999994" y="15.0" /><rect fill="none" height="14.265" rx="2" ry="2" stroke="black" width="14.265" x="53.099999999999994" y="34.05" /><rect fill="none" height="14.265" rx="2" ry="2" stroke="black" width="14.265" x="53.099999999999994" y="53.1" /><rect fill="none" height="14.265" rx="2" ry="2" stroke="black" width="14.265" x="72.14999999999999" y="10.0" /><rect fill="none" height="14.265" rx="2" ry="2" stroke="black" width="14.265" x="72.14999999999999" y="29.05" /><rect fill="none" height="14.265" rx="2" ry="2" stroke="black" width="14.265" x="72.14999999999999" y="48.1" /><rect fill="none" height="14.265" rx="2" ry="2" stroke="black" width="14.265" x="91.19999999999999" y="25.0" /><rect fill="none" height="14.265" rx="2" ry="2" stroke="black" width="14.265" x="91.19999999999999" y="44.05" /><rect fill="none" height="14.265" rx="2" ry="2" stroke="black" width="14.265" x="91.19999999999999" y="63.1" /><rect fill="none" height="14.265" rx="2" ry="2" stroke="black" width="14.265" x="110.24999999999999" y="25.0" /><rect fill="none" height="14.265" rx="2" ry="2" stroke="black" width="14.265" x="110.24999999999999" y="44.05" /><rect fill="none" height="14.265" rx="2" ry="2" stroke="black" width="14.265" x="110.24999999999999" y="63.1" /><rect fill="none" height="14.265" rx="2" ry="2" stroke="black" width="14.265" x="10" y="38.575" /><rect fill="none" height="14.265" rx="2" ry="2" stroke="black" width="14.265" x="10" y="59.625" /><rect fill="none" height="200" rx="0" ry="0" stroke="black" width="149.3" x="0" y="0" /><rect fill="none" height="200" rx="0" ry="0" stroke="black" width="149.3" x="308.6" y="0" /><rect fill="none" height="200" rx="0" ry="0" stroke="black" width="149.3" x="0" y="410" /></svg>