<?xml version="1.0" encoding="utf-8" ?>
<svg baseProfile="full" height="600mm" version="1.1" width="400mm" xmlns="http://www.w3.org/2000/svg" xmlns:ev="http://www.w3.org/2001/xml-events" xmlns:xlink="http://www.w3.org/1999/xlink"><defs /><rect fill="none" height="14.265mm" rx="0.01mm" ry="0.01mm" stroke="purple" width="14.265mm" x="33.85mm" y="18.8mm" /><rect fill="none" height="14.265mm" rx="0.01mm" ry="0.01mm" stroke="purple" width="14.265mm" x="274.985mm" y="18.8mm" /><rect fill="none" height="14.265mm" rx="0.01mm" ry="0.01mm" stroke="purple" width="14.265mm" x="33.85mm" y="37.849999999999994mm" /><rect fill="none" height="14.265mm" rx="0.01mm" ry="0.01mm" stroke="purple" width="14.265mm" x="274.985mm" y="37.849999999999994mm" /><rect fill="none" height="14.265mm" rx="0.01mm" ry="0.01mm" stroke="purple" width="14.265mm" x="33.85mm" y="56.9mm" /><rect fill="none" height="14.265mm" rx="0.01mm" ry="0.01mm" stroke="purple" width="14.265mm" x="274.985mm" y="56.9mm" /><rect fill="none" height="14.265mm" rx="0.01mm" ry="0.01mm" stroke="purple" width="14.265mm" x="52.9mm" y="16.3mm" /><rect fill="none" height="14.265mm" rx="0.01mm" ry="0.01mm" stroke="purple" width="14.265mm" x="255.93500000000006mm" y="16.3mm" /><rect fill="none" height="14.265mm" rx="0.01mm" ry="0.01mm" stroke="purple" width="14.265mm" x="52.9mm" y="35.349999999999994mm" /><rect fill="none" height="14.265mm" rx="0.01mm" ry="0.01mm" stroke="purple" width="14.265mm" x="255.93500000000006mm" y="35.349999999999994mm" /><rect fill="none" height="14.265mm" rx="0.01mm" ry="0.01mm" stroke="purple" width="14.265mm" x="52.9mm" y="54.4mm" /><rect fill="none" height="14.265mm" rx="0.01mm" ry="0.01mm" stroke="purple" width="14.265mm" x="255.93500000000006mm" y="54.4mm" /><rect fill="none" height="14.265mm" rx="0.01mm" ry="0.01mm" stroke="purple" width="14.265mm" x="71.95mm" y="13.8mm" /><rect fill="none" height="14.265mm" rx="0.01mm" ry="0.01mm" stroke="purple" width="14.265mm" x="236.88500000000005mm" y="13.8mm" /><rect fill="none" height="14.265mm" rx="0.01mm" ry="0.01mm" stroke="purple" width="14.265mm" x="71.95mm" y="32.85mm" /><rect fill="none" height="14.265mm" rx="0.01mm" ry="0.01mm" stroke="purple" width="14.265mm" x="236.88500000000005mm" y="32.85mm" /><rect fill="none" height="14.265mm" rx="0.01mm" ry="0.01mm" stroke="purple" width="14.265mm" x="71.95mm" y="51.9mm" /><rect fill="none" height="14.265mm" rx="0.01mm" ry="0.01mm" stroke="purple" width="14.265mm" x="236.88500000000005mm" y="51.9mm" /><rect fill="none" height="14.265mm" rx="0.01mm" ry="0.01mm" stroke="purple" width="14.265mm" x="91.0mm" y="16.4mm" /><rect fill="none" height="14.265mm" rx="0.01mm" ry="0.01mm" stroke="purple" width="14.265mm" x="217.83500000000004mm" y="16.4mm" /><rect fill="none" height="14.265mm" rx="0.01mm" ry="0.01mm" stroke="purple" width="14.265mm" x="91.0mm" y="35.449999999999996mm" /><rect fill="none" height="14.265mm" rx="0.01mm" ry="0.01mm" stroke="purple" width="14.265mm" x="217.83500000000004mm" y="35.449999999999996mm" /><rect fill="none" height="14.265mm" rx="0.01mm" ry="0.01mm" stroke="purple" width="14.265mm" x="91.0mm" y="54.5mm" /><rect fill="none" height="14.265mm" rx="0.01mm" ry="0.01mm" stroke="purple" width="14.265mm" x="217.83500000000004mm" y="54.5mm" /><rect fill="none" height="14.265mm" rx="0.01mm" ry="0.01mm" stroke="purple" width="14.265mm" x="110.05mm" y="20.900000000000002mm" /><rect fill="none" height="14.265mm" rx="0.01mm" ry="0.01mm" stroke="purple" width="14.265mm" x="198.78500000000003mm" y="20.900000000000002mm" /><rect fill="none" height="14.265mm" rx="0.01mm" ry="0.01mm" stroke="purple" width="14.265mm" x="110.05mm" y="39.95mm" /><rect fill="none" height="14.265mm" rx="0.01mm" ry="0.01mm" stroke="purple" width="14.265mm" x="198.78500000000003mm" y="39.95mm" /><rect fill="none" height="14.265mm" rx="0.01mm" ry="0.01mm" stroke="purple" width="14.265mm" x="110.05mm" y="59.0mm" /><rect fill="none" height="14.265mm" rx="0.01mm" ry="0.01mm" stroke="purple" width="14.265mm" x="198.78500000000003mm" y="59.0mm" /><rect fill="none" height="14.265mm" rx="0.01mm" ry="0.01mm" stroke="purple" width="14.265mm" x="129.1mm" y="20.900000000000002mm" /><rect fill="none" height="14.265mm" rx="0.01mm" ry="0.01mm" stroke="purple" width="14.265mm" x="179.735mm" y="20.900000000000002mm" /><rect fill="none" height="14.265mm" rx="0.01mm" ry="0.01mm" stroke="purple" width="14.265mm" x="129.1mm" y="39.95mm" /><rect fill="none" height="14.265mm" rx="0.01mm" ry="0.01mm" stroke="purple" width="14.265mm" x="179.735mm" y="39.95mm" /><rect fill="none" height="14.265mm" rx="0.01mm" ry="0.01mm" stroke="purple" width="14.265mm" x="129.1mm" y="59.0mm" /><rect fill="none" height="14.265mm" rx="0.01mm" ry="0.01mm" stroke="purple" width="14.265mm" x="179.735mm" y="59.0mm" /><rect fill="none" height="14.265mm" rx="0.01mm" ry="0.01mm" stroke="purple" transform="rotate(0, 75.33488375, 206.01109624999998)" width="14.265mm" x="12.8mm" y="47.37499999999999mm" /><rect fill="none" height="14.265mm" rx="0.01mm" ry="0.01mm" stroke="purple" transform="rotate(0, 1145.8215662500002, 206.01109624999998)" width="14.265mm" x="296.035mm" y="47.37499999999999mm" /><rect fill="none" height="14.265mm" rx="0.01mm" ry="0.01mm" stroke="purple" transform="rotate(0, 262.89257125, 309.15365125000005)" width="14.265mm" x="62.425mm" y="74.665mm" /><rect fill="none" height="14.265mm" rx="0.01mm" ry="0.01mm" stroke="purple" transform="rotate(0, 958.2638787500001, 309.15365125000005)" width="14.265mm" x="246.41000000000003mm" y="74.665mm" /><rect fill="none" height="14.265mm" rx="0.01mm" ry="0.01mm" stroke="purple" transform="rotate(-15, 179.74357125, 323.3267762500001)" width="14.265mm" x="40.425mm" y="78.415mm" /><rect fill="none" height="14.265mm" rx="0.01mm" ry="0.01mm" stroke="purple" transform="rotate(15, 1041.4128787500001, 323.3267762500001)" width="14.265mm" x="268.41mm" y="78.415mm" /><rect fill="none" height="14.265mm" rx="0.01mm" ry="0.01mm" stroke="purple" transform="rotate(-25, 90.45288375000001, 334.66527625000003)" width="14.265mm" x="16.8mm" y="81.415mm" /><rect fill="none" height="14.265mm" rx="0.01mm" ry="0.01mm" stroke="purple" transform="rotate(25, 1130.70356625, 334.66527625000003)" width="14.265mm" x="292.035mm" y="81.415mm" /><polygon fill="none" points="10.5826,10.5826 52.15710000000001,10.5826 52.15710000000001,33.259600000000006 44.5981,33.259600000000006 44.5981,125.85735 116.4086,125.85735 116.4086,33.259600000000006 108.84960000000001,33.259600000000006 108.84960000000001,10.5826 605.2869250000001,48.3776 605.2869250000001,275.1476 529.6969250000002,350.7376 67.27510000000001,426.3276 10.5826,304.75014140901186" stroke="black" /><polygon fill="none" points="1210.57385,10.5826 1168.99935,10.5826 1168.99935,33.259600000000006 1176.55835,33.259600000000006 1176.55835,125.85735 1104.74785,125.85735 1104.74785,33.259600000000006 1112.3068500000002,33.259600000000006 1112.3068500000002,10.5826 615.869525,48.3776 615.869525,275.1476 691.459525,350.7376 1153.88135,426.3276 1210.57385,304.75014140901186" stroke="black" /><rect fill="none" height="16.265mm" rx="0.01mm" ry="0.01mm" stroke="purple" width="16.265mm" x="32.85mm" y="130.6mm" /><rect fill="none" height="16.265mm" rx="0.01mm" ry="0.01mm" stroke="purple" width="16.265mm" x="32.85mm" y="149.64999999999998mm" /><rect fill="none" height="16.265mm" rx="0.01mm" ry="0.01mm" stroke="purple" width="16.265mm" x="32.85mm" y="168.7mm" /><rect fill="none" height="16.265mm" rx="0.01mm" ry="0.01mm" stroke="purple" width="16.265mm" x="51.9mm" y="128.1mm" /><rect fill="none" height="16.265mm" rx="0.01mm" ry="0.01mm" stroke="purple" width="16.265mm" x="51.9mm" y="147.14999999999998mm" /><rect fill="none" height="16.265mm" rx="0.01mm" ry="0.01mm" stroke="purple" width="16.265mm" x="51.9mm" y="166.2mm" /><rect fill="none" height="16.265mm" rx="0.01mm" ry="0.01mm" stroke="purple" width="16.265mm" x="70.95mm" y="125.6mm" /><rect fill="none" height="16.265mm" rx="0.01mm" ry="0.01mm" stroke="purple" width="16.265mm" x="70.95mm" y="144.65mm" /><rect fill="none" height="16.265mm" rx="0.01mm" ry="0.01mm" stroke="purple" width="16.265mm" x="70.95mm" y="163.7mm" /><rect fill="none" height="16.265mm" rx="0.01mm" ry="0.01mm" stroke="purple" width="16.265mm" x="90.0mm" y="128.2mm" /><rect fill="none" height="16.265mm" rx="0.01mm" ry="0.01mm" stroke="purple" width="16.265mm" x="90.0mm" y="147.25mm" /><rect fill="none" height="16.265mm" rx="0.01mm" ry="0.01mm" stroke="purple" width="16.265mm" x="90.0mm" y="166.3mm" /><rect fill="none" height="16.265mm" rx="0.01mm" ry="0.01mm" stroke="purple" width="16.265mm" x="109.05mm" y="132.7mm" /><rect fill="none" height="16.265mm" rx="0.01mm" ry="0.01mm" stroke="purple" width="16.265mm" x="109.05mm" y="151.75mm" /><rect fill="none" height="16.265mm" rx="0.01mm" ry="0.01mm" stroke="purple" width="16.265mm" x="109.05mm" y="170.8mm" /><rect fill="none" height="16.265mm" rx="0.01mm" ry="0.01mm" stroke="purple" width="16.265mm" x="128.1mm" y="132.7mm" /><rect fill="none" height="16.265mm" rx="0.01mm" ry="0.01mm" stroke="purple" width="16.265mm" x="128.1mm" y="151.75mm" /><rect fill="none" height="16.265mm" rx="0.01mm" ry="0.01mm" stroke="purple" width="16.265mm" x="128.1mm" y="170.8mm" /><rect fill="none" height="16.265mm" rx="0.01mm" ry="0.01mm" stroke="purple" transform="rotate(0, 75.33488375, 632.3386962499999)" width="16.265mm" x="11.8mm" y="159.17499999999998mm" /><rect fill="none" height="16.265mm" rx="0.01mm" ry="0.01mm" stroke="purple" transform="rotate(0, 262.89257125, 735.48125125)" width="16.265mm" x="61.425mm" y="186.465mm" /><rect fill="none" height="16.265mm" rx="0.01mm" ry="0.01mm" stroke="purple" transform="rotate(-15, 179.74357125, 749.65437625)" width="16.265mm" x="39.425mm" y="190.215mm" /><rect fill="none" height="16.265mm" rx="0.01mm" ry="0.01mm" stroke="purple" transform="rotate(-25, 90.45288375000001, 760.99287625)" width="16.265mm" x="15.8mm" y="193.215mm" /><polygon fill="none" points="10.5826,436.9102 52.15710000000001,436.9102 52.15710000000001,459.5872 44.5981,459.5872 44.5981,552.18495 116.4086,552.18495 116.4086,459.5872 108.84960000000001,459.5872 108.84960000000001,436.9102 605.2869250000001,474.7052 605.2869250000001,701.4752 529.6969250000002,777.0652 67.27510000000001,852.6552 10.5826,731.0777414090118" stroke="black" /><polygon fill="none" points="1210.57385,436.9102 1168.99935,436.9102 1168.99935,459.5872 1176.55835,459.5872 1176.55835,552.18495 1104.74785,552.18495 1104.74785,459.5872 1112.3068500000002,459.5872 1112.3068500000002,436.9102 615.869525,474.7052 615.869525,701.4752 691.459525,777.0652 1153.88135,852.6552 1210.57385,731.0777414090118" stroke="black" /><circle cx="37.8mm" cy="122.8mm" fill="none" r="0.9" stroke="purple" /><circle cx="154.15000000000003mm" cy="131.6mm" fill="none" r="0.9" stroke="purple" /><circle cx="100.525mm" cy="205.39999999999998mm" fill="none" r="0.9" stroke="purple" /><circle cx="13.8mm" cy="182.39999999999998mm" fill="none" r="0.9" stroke="purple" /><circle cx="285.3mm" cy="122.8mm" fill="none" r="0.9" stroke="purple" /><circle cx="168.95mm" cy="131.6mm" fill="none" r="0.9" stroke="purple" /><circle cx="222.57500000000002mm" cy="205.39999999999998mm" fill="none" r="0.9" stroke="purple" /><circle cx="309.3mm" cy="182.39999999999998mm" fill="none" r="0.9" stroke="purple" /><polygon fill="none" points="10.5826,863.2378 108.84960000000001,863.2378 605.2869250000001,901.0328000000001 605.2869250000001,1127.8028 529.6969250000002,1203.3927999999999 67.27510000000001,1278.9828 10.5826,1157.4053414090117" stroke="black" /><polygon fill="none" points="1210.57385,863.2378 1112.3068500000002,863.2378 615.869525,901.0328000000001 615.869525,1127.8028 691.459525,1203.3927999999999 1153.88135,1278.9828 1210.57385,1157.4053414090117" stroke="black" /><polygon fill="none" points="33.259600000000006,885.9148 116.4086,885.9148 116.4086,916.1508 261.35242500000004,885.9148 556.9660175,923.7098000000001 556.9660175,1031.538935 582.6099250000001,1105.1258 507.0199250000001,1180.7158 343.9345,1166.6371625000002 343.9345,1202.6369 89.9521,1256.3057999999999 33.259600000000006,1134.7283414090118 71.05460000000001,1134.7283414090118 71.05460000000001,1096.9333414090117 33.259600000000006,1096.9333414090117" stroke="purple" /><polygon fill="none" points="1187.89685,885.9148 1104.74785,885.9148 1104.74785,916.1508 959.8040250000001,885.9148 664.1904325,923.7098000000001 664.1904325,1031.538935 638.546525,1105.1258 714.136525,1180.7158 877.2219500000001,1166.6371625000002 877.2219500000001,1202.6369 1131.20435,1256.3057999999999 1187.89685,1134.7283414090118 1150.10185,1134.7283414090118 1150.10185,1096.9333414090117 1187.89685,1096.9333414090117" stroke="purple" /><circle cx="37.8mm" cy="235.6mm" fill="none" r="0.9" stroke="purple" /><circle cx="154.15000000000003mm" cy="244.4mm" fill="none" r="0.9" stroke="purple" /><circle cx="100.525mm" cy="318.2mm" fill="none" r="0.9" stroke="purple" /><circle cx="13.8mm" cy="295.2mm" fill="none" r="0.9" stroke="purple" /><circle cx="285.3mm" cy="235.6mm" fill="none" r="0.9" stroke="purple" /><circle cx="168.95mm" cy="244.4mm" fill="none" r="0.9" stroke="purple" /><circle cx="222.57500000000002mm" cy="318.2mm" fill="none" r="0.9" stroke="purple" /><circle cx="309.3mm" cy="295.2mm" fill="none" r="0.9" stroke="purple" /><polygon fill="none" points="10.5826,1289.5654 108.84960000000001,1289.5654 605.2869250000001,1327.3604 605.2869250000001,1554.1304 529.6969250000002,1629.7204 67.27510000000001,1705.3104 10.5826,1583.7329414090118" stroke="black" /><polygon fill="none" points="1210.57385,1289.5654 1112.3068500000002,1289.5654 615.869525,1327.3604 615.869525,1554.1304 691.459525,1629.7204 1153.88135,1705.3104 1210.57385,1583.7329414090118" stroke="black" /><circle cx="37.8mm" cy="348.4mm" fill="none" r="0.9" stroke="purple" /><circle cx="154.15000000000003mm" cy="357.2mm" fill="none" r="0.9" stroke="purple" /><circle cx="100.525mm" cy="431.0mm" fill="none" r="0.9" stroke="purple" /><circle cx="13.8mm" cy="408.0mm" fill="none" r="0.9" stroke="purple" /><circle cx="285.3mm" cy="348.4mm" fill="none" r="0.9" stroke="purple" /><circle cx="168.95mm" cy="357.2mm" fill="none" r="0.9" stroke="purple" /><circle cx="222.57500000000002mm" cy="431.0mm" fill="none" r="0.9" stroke="purple" /><circle cx="309.3mm" cy="408.0mm" fill="none" r="0.9" stroke="purple" /></svg>